<svg width="32" height="33" viewBox="0 0 32 33" fill="none" xmlns="http://www.w3.org/2000/svg">
<g clip-path="url(#clip0_55_4815)">
<path d="M31.4485 26.9827H0.552114C0.247428 26.9827 0.000366211 26.7356 0.000366211 26.4309V6.56893C0.000366211 6.26424 0.247428 6.01718 0.552114 6.01718H31.4486C31.7532 6.01718 32.0003 6.26424 32.0003 6.56893V26.4309C32.0002 26.7356 31.7532 26.9827 31.4485 26.9827Z" fill="#41479B"/>
<path d="M32.0002 6.56893C32.0002 6.26424 31.7532 6.01718 31.4485 6.01718H28.9801L18.7589 12.7138V6.01718H13.2416V12.7138L3.02048 6.01718H0.552114C0.247428 6.01718 0.000366211 6.26424 0.000366211 6.56893V7.99586L8.76964 13.7413H0.000366211V19.2585H8.76964L0.000366211 25.004V26.4309C0.000366211 26.7356 0.247428 26.9827 0.552114 26.9827H3.02054L13.2418 20.286V26.9827H18.759V20.286L28.9802 26.9827H31.4486C31.7533 26.9827 32.0004 26.7356 32.0004 26.4309V25.004L23.2311 19.2586H32.0002V13.7413H23.231L32.0002 7.99586V6.56893Z" fill="#F5F5F5"/>
<path d="M32.0002 14.8448H17.6555V6.01718H14.3451V14.8448H0.000366211V18.1551H14.3451V26.9827H17.6555V18.1551H32.0002V14.8448Z" fill="#FF4B55"/>
<path d="M11.1848 19.2586L0.0162354 26.5084C0.0552977 26.7748 0.274984 26.9827 0.552296 26.9827H1.31223L13.2116 19.2586H11.1848V19.2586Z" fill="#FF4B55"/>
<path d="M21.6499 19.2586H19.6232L31.5052 26.9713C31.7821 26.9418 32.0007 26.7157 32.0007 26.4309V25.9773L21.6499 19.2586Z" fill="#FF4B55"/>
<path d="M0.000732422 7.17804L10.1119 13.7414H12.1386L0.322169 6.07104C0.133419 6.15873 0.000732422 6.34717 0.000732422 6.56898V7.17804Z" fill="#FF4B55"/>
<path d="M20.7861 13.7414L31.9815 6.47414C31.935 6.21652 31.72 6.01733 31.449 6.01733H30.6585L18.7594 13.7414H20.7861Z" fill="#FF4B55"/>
</g>
<defs>
<clipPath id="clip0_55_4815">
<rect width="32" height="32" fill="white" transform="translate(0 0.5)"/>
</clipPath>
</defs>
</svg>
