<svg width="176" height="26" viewBox="0 0 176 26" fill="none" xmlns="http://www.w3.org/2000/svg">
<g id="3Xgate" clip-path="url(#clip0_1_12490)">
<g id="Clip path group">
<mask id="mask0_1_12490" style="mask-type:luminance" maskUnits="userSpaceOnUse" x="0" y="0" width="176" height="26">
<g id="clip0_5282_2041">
<path id="Vector" d="M175.5 0H0.5V26H175.5V0Z" fill="white"/>
</g>
</mask>
<g mask="url(#mask0_1_12490)">
<g id="Group">
<path id="Vector_2" fill-rule="evenodd" clip-rule="evenodd" d="M107.209 0.00457191C107.705 0.0204453 108.345 0.0991406 108.644 0.170236C108.944 0.241107 109.44 0.43829 109.751 0.612003C110.062 0.785492 110.493 1.07725 110.709 1.26662C110.924 1.44793 111.259 1.7949 111.45 2.03144C111.642 2.2682 112.031 2.82824 112.312 3.28567C112.587 3.74308 115.286 8.9958 118.301 14.9582C121.323 20.9208 123.806 25.8502 123.829 25.9054C123.865 25.9763 123.225 26 117.559 26L114.687 20.3135H99.4301L96.5586 25.9922L93.3994 26C91.6645 26 90.2462 25.9841 90.2462 25.9607C90.2462 25.9379 92.4877 21.5266 95.2897 16.0126L95.6371 15.3288C98.6049 9.50846 101.303 4.26355 101.638 3.67981C101.967 3.0963 102.416 2.38648 102.631 2.11037C102.847 1.83448 103.17 1.47945 103.35 1.31379C103.528 1.15617 103.84 0.911592 104.037 0.777445C104.235 0.651358 104.588 0.470039 104.815 0.375246C105.043 0.280676 105.473 0.154363 105.773 0.0913165C106.131 0.0123969 106.61 -0.0110779 107.209 0.00457191ZM15.3201 0.454165C22.0032 0.44634 23.14 0.461994 23.6665 0.564612C24.0075 0.635484 24.4443 0.74592 24.6417 0.808971C24.8392 0.872241 25.1741 1.0142 25.3895 1.12464C25.6051 1.23486 25.952 1.44793 26.1674 1.60577C26.3829 1.75556 26.6639 1.99209 26.7956 2.12623C26.9273 2.26038 27.1546 2.51256 27.2922 2.68627C27.4358 2.86759 27.6633 3.22239 27.8009 3.48285C27.9324 3.74308 28.1478 4.23985 28.2735 4.58684C28.3931 4.93403 28.5367 5.4308 28.5906 5.69104C28.6384 5.95127 28.7102 6.46391 28.7461 6.83481C28.7879 7.21331 28.8001 7.81267 28.7761 8.21489C28.7582 8.60145 28.6983 9.16929 28.6505 9.47674C28.6025 9.77652 28.4411 10.3603 28.2914 10.7544C28.106 11.267 27.9086 11.6458 27.6453 12.0086C27.4417 12.2925 27.1127 12.6552 26.5563 13.0891L26.9093 13.3335C27.1127 13.4676 27.4417 13.8068 27.6571 14.1064C27.8787 14.3903 28.1478 14.8399 28.2616 15.0923C28.3753 15.3447 28.5307 15.7784 28.6085 16.0623C28.6864 16.3463 28.7879 16.8353 28.836 17.1429C28.8838 17.4583 28.9197 18.1051 28.9197 18.5862C28.9197 19.0596 28.8778 19.7142 28.83 20.0218C28.7761 20.3373 28.6802 20.8262 28.6085 21.1101C28.5427 21.394 28.4052 21.8356 28.3034 22.096C28.2077 22.3563 28.0223 22.7426 27.9024 22.9635C27.7769 23.1765 27.5076 23.5707 27.2982 23.839C27.0887 24.1071 26.7538 24.4542 26.5563 24.6197C26.3589 24.7853 26.0358 25.0141 25.8384 25.1323C25.641 25.2508 25.288 25.4162 25.0606 25.5111C24.8273 25.6056 24.3845 25.7398 24.0733 25.8187C23.5468 25.9526 22.9425 25.9607 15.3381 25.9607C7.73956 25.9607 7.12929 25.9526 6.54293 25.8187C6.1959 25.7398 5.65743 25.5741 5.3463 25.4478C5.03518 25.3217 4.56252 25.0771 4.29926 24.9116C4.036 24.746 3.65908 24.4699 3.46163 24.3042C3.26418 24.1386 2.91119 23.8075 2.68382 23.5551C2.4505 23.3105 2.1274 22.8767 1.96586 22.6006C1.79832 22.3248 1.5949 21.9541 1.51113 21.7804C1.42738 21.6068 1.27182 21.2521 1.17609 20.9918C1.07437 20.7316 0.93676 20.2898 0.870957 20.0059C0.799146 19.722 0.703418 19.2802 0.655562 19.02C0.607689 18.7597 0.553844 18.3576 0.5 17.7188H5.94462L5.99846 18.0105C6.02837 18.1762 6.15999 18.4836 6.29164 18.7045C6.42326 18.9332 6.65061 19.1857 6.81814 19.3039C6.97969 19.4222 7.2609 19.5642 7.44036 19.6193C7.70961 19.7142 9.10371 19.7298 22.6075 19.7298L22.9066 19.5563C23.0682 19.4539 23.2657 19.2961 23.3375 19.2015C23.4093 19.0989 23.5109 18.878 23.5708 18.7045C23.6307 18.5154 23.6725 18.1841 23.6665 17.8764C23.6665 17.5846 23.6247 17.2377 23.5708 17.0639C23.517 16.9064 23.3734 16.6698 23.2477 16.5357C23.1281 16.4094 22.9187 16.2596 22.787 16.2044C22.6016 16.1335 20.663 16.1019 6.24376 16.0623V10.2261L14.3927 10.2024C22.1109 10.1865 22.5597 10.1787 22.787 10.0446C22.9187 9.96587 23.0922 9.8239 23.17 9.72913C23.2477 9.63456 23.3614 9.41369 23.4212 9.2402C23.4871 9.05079 23.5349 8.73535 23.5349 8.45143C23.5349 8.19117 23.4989 7.85206 23.4512 7.70224C23.4093 7.55248 23.2717 7.30788 23.1519 7.16592C23.0323 7.03176 22.8229 6.86634 22.6793 6.81109C22.4879 6.74004 20.7947 6.71632 15.1287 6.71632C8.04466 6.71632 7.81729 6.72438 7.41047 6.87414C7.17713 6.96091 6.88995 7.12653 6.76429 7.24483C6.64462 7.37093 6.45916 7.63139 6.36342 7.8364C6.26171 8.04921 6.15402 8.34905 6.06426 8.80646H0.619666L0.655562 8.34905C0.67351 8.10446 0.745302 7.63139 0.811124 7.30788C0.876928 6.98457 1.00857 6.44826 1.1043 6.12498C1.206 5.80148 1.41541 5.24948 1.57696 4.90251C1.73851 4.5553 1.98978 4.07419 2.13338 3.83765C2.27099 3.60112 2.57613 3.19087 2.80349 2.93064C3.03683 2.6704 3.43769 2.27602 3.70095 2.06318C3.96421 1.85013 4.41892 1.53468 4.71808 1.36901C5.01124 1.20334 5.54972 0.958984 5.91469 0.840716C6.27369 0.714402 6.80019 0.580258 7.08138 0.54091C7.36859 0.501562 10.9225 0.46199 15.3201 0.454165ZM36.7574 0.446339H28.5367L30.8701 2.99368C32.1505 4.38964 34.7651 7.24483 36.6797 9.34277C38.6003 11.4327 40.1618 13.1759 40.1499 13.2152C40.1439 13.2546 38.008 15.6049 35.4113 18.4365C32.8087 21.2677 30.194 24.1151 29.5957 24.7697L28.5068 25.9607L36.578 26C43.303 18.8465 45.2715 16.7722 45.2953 16.7722C45.3252 16.7722 47.2698 18.8465 49.6211 21.3862L53.8991 25.9922L62.066 26C53.0016 16.023 50.363 13.1206 50.3511 13.1126C50.3451 13.1126 52.9239 10.2654 56.0829 6.79523L61.8267 0.485687L53.8094 0.446339C47.2458 7.53662 45.3312 9.59523 45.3134 9.59523C45.2953 9.59523 43.3629 7.53662 41.0175 5.02078L36.7574 0.446339ZM88.8645 0.446339V6.91353H79.4886C74.002 6.91353 69.8262 6.94505 69.4192 6.99244C69.0423 7.03176 68.5698 7.11873 68.3725 7.18965C68.1745 7.25263 67.7859 7.44984 67.5047 7.63139C67.1036 7.89165 66.9004 8.08879 66.5176 8.60145C66.1702 9.06672 65.9789 9.39802 65.8173 9.83177C65.6977 10.155 65.5362 10.7073 65.4645 11.0542C65.3506 11.5905 65.3328 11.8901 65.3268 13.1444C65.3268 14.3116 65.3447 14.7138 65.4345 15.1949C65.4942 15.5182 65.6499 16.0783 65.7814 16.433C65.913 16.8118 66.1584 17.3085 66.3616 17.6162C66.553 17.908 66.8827 18.3023 67.0918 18.4836C67.3074 18.6651 67.6659 18.9095 67.8934 19.02C68.1267 19.1382 68.5278 19.2802 68.7906 19.3435C69.1859 19.4302 70.5262 19.4539 83.4795 19.4539V16.5357H68.7611V10.1472H88.8645V26L78.4714 25.9685C69.3773 25.9447 68.0133 25.9289 67.5643 25.8187C67.289 25.7554 66.8702 25.6372 66.6369 25.5663C66.4095 25.4952 66.0029 25.3454 65.7395 25.235C65.4763 25.1166 65.0635 24.9036 64.8122 24.7617C64.5668 24.6119 64.166 24.3279 63.9148 24.1229C63.6694 23.9257 63.2924 23.5787 63.0771 23.35C62.8676 23.1291 62.4669 22.6322 62.1916 22.2459C61.9163 21.8593 61.5574 21.2758 61.39 20.9523C61.2283 20.6212 60.9651 20.0059 60.8095 19.5722C60.648 19.1382 60.4386 18.4443 60.3369 18.0343C60.2411 17.6162 60.1035 16.8904 60.0317 16.4174C59.9599 15.9363 59.8762 15.0134 59.8343 14.3668C59.7804 13.4517 59.7804 12.8998 59.8403 11.9612C59.8762 11.283 59.9779 10.2892 60.0676 9.75286C60.1515 9.20868 60.301 8.45949 60.3966 8.09666C60.4983 7.72596 60.7199 7.07135 60.8873 6.63761C61.0607 6.20368 61.3061 5.63581 61.4318 5.37558C61.5574 5.11534 62.0061 4.45291 62.4191 3.90874C62.8317 3.36435 63.3702 2.74932 63.6155 2.52843C63.8668 2.31538 64.3215 1.97644 64.6327 1.77926C64.9498 1.57402 65.4583 1.30597 65.7695 1.164C66.0863 1.02986 66.5294 0.864188 66.7568 0.801144C66.9902 0.730275 67.4444 0.627652 67.7741 0.572431C68.2584 0.485686 70.3407 0.461989 88.8645 0.446339ZM147.618 0.446339H118.959V3.67981V6.91353H130.387V26H136.131V6.91353H147.618V0.446339ZM149.413 0.446339H175.5V6.91353H154.858V9.91068H175.5V16.4568H154.858V19.4539H175.5V26H149.413V13.2231V0.446339ZM107.177 6.70917C107.483 6.74069 107.614 6.79588 107.806 6.97723C107.985 7.14291 108.5 8.09731 111.605 14.2096L107.076 14.2253C104.581 14.2412 102.535 14.2253 102.529 14.2096C102.516 14.186 103.289 12.6322 104.24 10.7551C105.191 8.88583 106.041 7.25335 106.136 7.12699C106.232 7.00875 106.418 6.85893 106.549 6.79588C106.711 6.71697 106.914 6.68544 107.177 6.70917Z" fill="black"/>
</g>
</g>
</g>
</g>
<defs>
<clipPath id="clip0_1_12490">
<rect width="175" height="26" fill="white" transform="translate(0.5)"/>
</clipPath>
</defs>
</svg>
