<svg width="150" height="40" viewBox="0 0 150 40" fill="none" xmlns="http://www.w3.org/2000/svg">
<g id="Abcobmen" clip-path="url(#clip0_1_12433)">
<path id="Vector" d="M43.5933 27.3307H40.2354L45.5832 11.2687H49.5629L54.9107 27.3307H51.4906L50.2469 23.2841H44.8369L43.5933 27.3307ZM47.4487 14.506L45.5832 20.4826H49.3142L47.4487 14.506Z" fill="#55448C"/>
<path id="Vector_2" d="M62.7457 27.5797C61.9995 27.5797 61.2533 27.393 60.5693 26.9572C60.134 26.6459 59.7609 26.2724 59.5122 25.7743V27.3307H56.3408V10.3348H59.5122V16.8095C59.7609 16.3114 60.134 15.9379 60.5693 15.6266C61.1912 15.1908 61.9374 15.004 62.7457 15.004C64.1138 14.9418 65.4818 15.5643 66.2902 16.6227C67.1608 17.9923 67.5961 19.611 67.5339 21.2919C67.6583 22.9105 67.223 24.5915 66.2902 25.9611C65.4818 27.0817 64.176 27.7043 62.7457 27.5797ZM61.8752 17.7433C61.3155 17.7433 60.6937 17.8678 60.2584 18.2413C59.8853 18.5526 59.6366 18.9884 59.6366 19.4865V23.2218C59.6366 23.7199 59.8231 24.2179 60.2584 24.5292C60.7559 24.8405 61.3155 24.965 61.8752 24.965C62.497 25.0272 63.1188 24.716 63.5541 24.2802C63.9894 23.7821 64.2382 23.0973 64.2382 22.3502V20.2958C64.3003 19.611 64.0516 18.9262 63.5541 18.4281C63.1188 17.9301 62.497 17.681 61.8752 17.7433Z" fill="url(#paint0_linear_1_12433)"/>
<path id="Vector_3" d="M76.9869 23.2217C76.8003 23.7198 76.5516 24.0933 76.1785 24.4669C75.7432 24.8404 75.2457 24.9649 74.6861 24.9649C74.0642 25.0272 73.4424 24.7781 73.0071 24.2801C72.634 23.7198 72.3853 23.035 72.4474 22.3502V20.2335C72.3853 19.5486 72.634 18.8638 73.0071 18.3035C73.4424 17.8055 74.0642 17.5564 74.6861 17.6187C75.1835 17.5564 75.681 17.7432 76.0541 18.0545C76.4272 18.3658 76.6138 18.7393 76.7381 19.1751L76.8003 19.3619L79.4742 18.179L79.412 18.0545C79.1011 17.1207 78.4793 16.3113 77.6709 15.8133C76.7381 15.253 75.681 14.9417 74.6239 15.0039C73.8155 15.0039 73.0071 15.1285 72.1987 15.4397C71.5147 15.751 70.8929 16.1868 70.4576 16.7471C69.9601 17.3074 69.587 17.9922 69.4005 18.7393C69.1517 19.6109 69.0273 20.4825 69.0273 21.3541C69.0273 22.2256 69.1517 23.0972 69.4005 23.9688C69.6492 24.7159 70.0223 25.4007 70.4576 25.961C70.955 26.5213 71.5147 26.9571 72.1987 27.2684C72.9449 27.5797 73.7533 27.7042 74.6239 27.7042C75.681 27.7042 76.7381 27.4551 77.6709 26.8948C78.5415 26.3345 79.1633 25.463 79.5364 24.4669L79.5986 24.3423L77.1112 23.1595L76.9869 23.2217Z" fill="url(#paint1_linear_1_12433)"/>
<path id="Vector_4" d="M86.2521 27.5797C85.4437 27.5797 84.6353 27.4552 83.9513 27.1439C83.2673 26.8326 82.6455 26.3968 82.2102 25.8365C81.7127 25.214 81.3396 24.5292 81.0909 23.8443C80.8421 22.9728 80.7178 22.1012 80.7178 21.2296C80.7178 20.358 80.8421 19.4864 81.0909 18.6148C81.3396 17.8678 81.7127 17.183 82.2102 16.6226C82.7077 16.0623 83.2673 15.6266 83.9513 15.3153C84.6975 15.004 85.5059 14.8172 86.2521 14.8795C87.0605 14.8795 87.8689 15.004 88.6151 15.3153C89.2991 15.6266 89.921 16.0623 90.3563 16.6226C90.8537 17.183 91.2268 17.8678 91.4756 18.6148C91.7243 19.4864 91.8487 20.358 91.8487 21.2296C91.8487 22.1012 91.7243 22.9728 91.4756 23.8443C91.2268 24.5914 90.8537 25.2762 90.3563 25.8365C89.8588 26.3968 89.2991 26.8326 88.6151 27.1439C87.8689 27.4552 87.0605 27.642 86.2521 27.5797ZM86.2521 17.5565C85.6303 17.4942 85.0085 17.7433 84.5732 18.2413C84.1379 18.8016 83.8891 19.4864 83.9513 20.1712V22.3502C83.8891 23.035 84.1379 23.7198 84.5732 24.2801C85.0085 24.7159 85.6303 24.9649 86.2521 24.9649C86.874 25.0272 87.4958 24.7782 87.9311 24.2801C88.3664 23.7198 88.6151 23.035 88.5529 22.3502V20.1712C88.6151 19.4864 88.3664 18.8016 87.9311 18.2413C87.558 17.8055 86.9362 17.5565 86.2521 17.5565Z" fill="#55448C"/>
<path id="Vector_5" d="M100.18 27.5797C99.4341 27.5797 98.6879 27.393 98.0039 26.9572C97.5686 26.6459 97.1955 26.2724 96.9468 25.7743V27.3307H93.7754V10.3348H96.9468V16.8095C97.1955 16.3114 97.5686 15.9379 98.0039 15.6266C98.6257 15.1908 99.3719 15.004 100.18 15.004C101.548 14.9418 102.916 15.5643 103.725 16.6227C104.595 17.9923 105.031 19.611 104.968 21.2919C105.093 22.9105 104.658 24.5915 103.725 25.9611C102.916 27.0817 101.548 27.7043 100.18 27.5797ZM99.2476 17.7433C98.6879 17.7433 98.0661 17.8678 97.6308 18.2413C97.2577 18.5526 97.0089 18.9884 97.0089 19.4865V23.2218C97.0089 23.7199 97.1955 24.2179 97.6308 24.5292C98.1283 24.8405 98.6879 24.965 99.2476 24.965C99.8694 25.0272 100.491 24.716 100.927 24.2802C101.362 23.7821 101.611 23.0973 101.611 22.3502V20.2958C101.673 19.611 101.424 18.9262 100.927 18.4281C100.491 17.9301 99.8694 17.681 99.2476 17.7433Z" fill="#55448C"/>
<path id="Vector_6" d="M120.39 15.004C119.519 15.004 118.649 15.2531 117.903 15.7511C117.405 16.1246 116.97 16.6227 116.721 17.183C116.472 16.5604 116.037 16.0624 115.478 15.6889C114.856 15.2531 114.047 15.0663 113.301 15.0663C112.493 15.004 111.746 15.2531 111.125 15.7511C110.752 16.1246 110.441 16.4982 110.192 16.934V15.2531H107.021V27.3307H110.192V19.4242C110.192 19.1752 110.254 18.9262 110.378 18.6771C110.503 18.4904 110.627 18.3036 110.814 18.1168C111 17.9923 111.249 17.8678 111.498 17.7433C111.746 17.681 111.995 17.6188 112.244 17.6188C113.425 17.6188 113.985 18.3659 113.985 19.9845V27.2685H117.156V19.362C117.156 19.1129 117.219 18.8639 117.343 18.6149C117.467 18.4281 117.592 18.2413 117.778 18.1168C117.965 17.9923 118.214 17.8678 118.462 17.7433C118.711 17.681 118.96 17.6188 119.209 17.6188C120.39 17.6188 120.95 18.3659 120.95 19.9845V27.2685H124.121V19.6732C124.183 18.4281 123.872 17.183 123.126 16.1869C122.504 15.3776 121.447 14.9418 120.39 15.004Z" fill="#55448C"/>
<path id="Vector_7" d="M131.708 27.5798C130.9 27.5798 130.091 27.4553 129.283 27.144C128.599 26.8327 127.977 26.397 127.48 25.8367C126.982 25.2141 126.609 24.5293 126.36 23.8445C126.112 22.9729 125.987 22.1013 125.987 21.2297C125.987 20.3581 126.112 19.4865 126.36 18.6772C126.609 17.9301 126.982 17.2453 127.48 16.685C127.977 16.1247 128.599 15.6889 129.221 15.3777C129.967 15.0664 130.775 14.8796 131.584 14.9419C132.454 14.9419 133.263 15.0664 134.071 15.4399C134.755 15.7512 135.315 16.187 135.812 16.7473C136.248 17.3076 136.559 17.9301 136.807 18.6772C137.056 19.4243 137.18 20.2336 137.18 20.9807V22.1013H129.345V22.2258C129.345 22.9106 129.594 23.6577 130.029 24.1557C130.589 24.6538 131.335 24.9651 132.081 24.9028C132.703 24.9028 133.263 24.7783 133.76 24.467C134.196 24.1557 134.631 23.7822 134.942 23.3464L135.066 23.2219L136.807 25.2141L136.745 25.3386C136.248 26.0857 135.501 26.646 134.693 27.0195C133.76 27.3931 132.703 27.6421 131.708 27.5798ZM129.283 20.0468H133.76V19.9846C133.822 19.2998 133.574 18.6772 133.201 18.1169C132.828 17.6189 132.206 17.3698 131.584 17.4321C130.962 17.3698 130.278 17.6811 129.905 18.1792C129.532 18.6772 129.283 19.362 129.283 20.0468Z" fill="#55448C"/>
<path id="Vector_8" d="M148.497 16.2491C147.751 15.3776 146.694 14.9418 145.575 15.004C144.766 14.9418 143.958 15.1908 143.336 15.6888C142.901 16.0001 142.59 16.4359 142.341 16.934V15.3153H139.17V27.393H142.341V19.4242C142.341 19.1752 142.403 18.9262 142.528 18.6771C142.652 18.4904 142.839 18.3036 143.025 18.1168C143.212 17.9923 143.461 17.8678 143.709 17.7433C143.958 17.681 144.269 17.6188 144.518 17.6188C145.015 17.5565 145.575 17.7433 145.886 18.1791C146.197 18.7394 146.321 19.3619 146.321 19.9845V27.2685H149.492V19.7355C149.555 18.4904 149.244 17.2452 148.497 16.2491Z" fill="#55448C"/>
<path id="Vector_9" opacity="0.19" d="M37.3019 23.8232C39.4109 14.8889 33.8864 5.93463 24.9625 3.82317C16.0386 1.71171 7.09469 7.24266 4.98568 16.1769C2.87666 25.1111 8.4012 34.0654 17.3251 36.1769C26.249 38.2884 35.1929 32.7574 37.3019 23.8232Z" fill="#1CD7F8"/>
<path id="Vector_10" d="M27.488 7.53333L27.7367 6.84852L26.3687 3.48669L25.125 6.59949L26.6796 7.22205C26.9905 7.28431 27.2392 7.40882 27.488 7.53333Z" fill="black"/>
<path id="Vector_11" d="M15.7981 29.9454L15.7359 29.7587L14.3057 32.3112L14.6166 33.0582L15.7981 29.9454Z" fill="#EF2525"/>
<path id="Vector_12" d="M12.6885 28.7003L5.78613 25.9611L7.15418 29.3229L11.6936 31.1906L12.6885 28.7003Z" fill="#55448C"/>
<path id="Vector_13" d="M27.8606 7.78235C30.6588 9.58777 31.8403 13.0741 30.5967 16.1869C29.8505 18.0546 28.2959 19.4865 26.3682 20.1713V20.2335C27.6118 22.1635 27.8606 24.5292 27.1144 26.6459L28.7311 29.3229C28.9177 28.8871 29.0421 28.3891 29.1042 27.891C29.2908 26.2101 28.9799 24.5292 28.1715 23.0351C29.9748 22.1012 31.3429 20.5448 32.0891 18.6771C33.6437 14.506 31.8403 9.77454 27.8606 7.78235Z" fill="#55448C"/>
<path id="Vector_14" d="M21.8286 12.7006L25.9328 14.3192C25.9949 14.3815 26.0571 14.3815 26.1193 14.3815C26.1193 14.3815 26.1193 14.3192 26.1815 14.3192C26.1815 14.257 26.2437 14.257 26.2437 14.1947C26.3059 14.1325 26.3059 14.0702 26.3059 14.0079V13.9457C26.3059 13.8834 26.3681 13.8212 26.3681 13.8212V13.7589C26.3681 13.6967 26.3681 13.6344 26.4302 13.5722V13.3854C26.4302 12.2648 25.7462 11.2064 24.6891 10.8329L23.6941 10.4594L20.585 9.21423L21.8286 12.7006Z" fill="#55448C"/>
<path id="Vector_15" d="M17.9743 30.817L15.7979 29.9454L17.1659 33.3073L19.3423 34.1788C21.5809 35.0504 24.1305 34.6146 25.996 33.0582L24.1305 30.2567C22.3271 31.3773 20.0263 31.5641 17.9743 30.817Z" fill="#55448C"/>
<path id="Vector_16" d="M14.5535 32.996L11.4443 31.7509L12.8124 35.1749L15.6728 36.2955L15.8594 36.3578L14.5535 32.996Z" fill="#55448C"/>
<path id="Vector_17" d="M17.9735 22.3502L22.202 24.0311C22.3264 24.0311 22.3886 24.0934 22.4507 24.1556C22.5129 24.1556 22.5129 24.2179 22.5751 24.2179C22.6373 24.2179 22.6373 24.2802 22.6373 24.2802C22.6373 24.2179 22.6995 24.2179 22.6995 24.1556C22.6995 24.0934 22.7617 24.0311 22.7617 23.9689C22.7617 23.9066 22.7617 23.8444 22.8238 23.8444V23.2218C22.8238 23.1596 22.8238 23.0973 22.7617 23.035C22.7617 22.9728 22.7617 22.9105 22.6995 22.9105C22.6995 22.8483 22.6373 22.786 22.6373 22.7238C22.6373 22.6615 22.5751 22.5992 22.5751 22.5992C22.5751 22.537 22.5129 22.4747 22.5129 22.4747L22.4507 22.3502C22.3886 22.288 22.3886 22.2257 22.3886 22.2257C22.3886 22.2257 22.4507 22.1012 22.3886 22.0389C22.3264 21.9767 22.3264 21.9767 22.3264 21.9144C22.2642 21.8522 22.2642 21.8522 22.2642 21.7899C22.202 21.7277 22.202 21.6654 22.1398 21.6654C22.0776 21.6654 22.0776 21.6032 22.0776 21.5409C22.0155 21.4786 22.0155 21.4786 21.9533 21.4164L21.8289 21.2919C21.7667 21.2296 21.7667 21.2296 21.7045 21.1674L21.5802 21.0428C21.518 20.9806 21.4558 20.9806 21.4558 20.9183C21.3936 20.8561 21.3936 20.8561 21.3314 20.8561C21.3314 20.9183 21.2693 20.8561 21.2071 20.8561C21.1449 20.7938 21.1449 20.7938 21.0827 20.7938C20.9583 20.7316 20.8961 20.6693 20.834 20.6693L19.7147 20.2335L16.6055 18.9884L17.9735 22.3502Z" fill="#55448C"/>
<path id="Vector_18" d="M25.8711 28.7627L27.5501 31.3774C27.7366 31.1284 27.9232 30.8794 28.0475 30.6304L26.3686 27.9534C26.2442 28.2646 26.0576 28.5759 25.8711 28.7627Z" fill="#55448C"/>
<path id="Vector_19" d="M26.3684 3.48669L27.7365 6.91077L27.4256 7.78236L24.5029 7.09754L24.6895 5.6034L25.9332 3.61121L26.3684 3.48669Z" fill="#AC3AD6"/>
<path id="Vector_20" d="M26.99 26.895L26.9278 26.9573C26.7413 27.3308 26.5547 27.7043 26.3682 28.0779L28.0471 30.7549C28.2959 30.3191 28.5446 29.8833 28.7311 29.3853L27.1144 26.7083C27.0522 26.7083 26.99 26.7705 26.99 26.895Z" fill="#AC3AD6"/>
<path id="Vector_21" d="M24.1924 30.2567L26.0579 33.0582C26.6176 32.6224 27.1772 32.0621 27.6125 31.4396L25.9335 28.8248C25.3739 29.3229 24.8142 29.8209 24.1924 30.2567Z" fill="#AC3AD6"/>
<path id="Vector_22" d="M20.4619 9.33875L18.5342 14.1325V14.1947L20.835 15.1285L21.8299 12.7628L20.4619 9.33875Z" fill="#AC3AD6"/>
<path id="Vector_23" d="M14.3057 24.6537L16.6686 25.6498L17.9745 22.4125L16.6065 18.9884L14.3057 24.6537Z" fill="#AC3AD6"/>
<path id="Vector_24" d="M15.7974 29.9454L14.5537 33.0582L15.9218 36.4201L17.1654 33.3695L15.7974 29.9454Z" fill="#AC3AD6"/>
<path id="Vector_25" d="M14.5544 33.0583L11.4452 31.8132L12.6888 28.7004L5.84863 25.9611L7.21668 22.5993L7.96288 22.9106C8.21162 22.9728 8.46035 23.0351 8.70909 23.0351C9.02001 23.0351 9.33092 22.9728 9.64184 22.786C9.89058 22.5993 10.1393 22.3503 10.2637 22.039L15.7359 8.34266C15.8602 8.03138 15.8602 7.7201 15.798 7.47108C15.6115 6.91077 15.1762 6.47498 14.6787 6.28821L13.8082 5.91468L15.1762 2.55286L22.0786 5.29212L23.3223 2.17932L26.4315 3.42444L25.1878 6.53724L25.3121 6.59949C26.6802 7.1598 27.4264 7.47108 27.5508 7.53333C27.6129 7.59559 27.6751 7.59559 27.7373 7.65785C27.7995 7.7201 27.8617 7.7201 27.9239 7.78236C31.1574 9.8368 32.1524 14.0702 30.1003 17.3075C29.2297 18.6771 27.9239 19.6732 26.4315 20.1713V20.2335C27.6751 22.1635 27.9239 24.5292 27.1777 26.6459C27.1777 26.7082 27.1155 26.7082 27.1155 26.7704C27.1155 26.8327 27.0533 26.8327 27.0533 26.8949L26.9911 26.9572C26.8667 27.3307 26.6802 27.7043 26.4315 28.0778C26.3071 28.3268 26.1205 28.5758 25.934 28.8249C25.4365 29.3852 24.8769 29.8832 24.255 30.2568C22.3895 31.4396 20.0887 31.6264 18.0367 30.8171L15.8602 29.9455L14.5544 33.0583ZM16.6064 18.9884L14.3056 24.6537V24.716L18.4098 26.3346C18.7829 26.4591 19.156 26.5837 19.5912 26.5837C21.2702 26.6459 22.6382 25.3385 22.7626 23.7199C22.8248 22.5993 22.2651 21.4787 21.208 20.9184C21.208 20.8561 21.1458 20.8561 21.1458 20.8561C21.0837 20.7939 20.9593 20.7316 20.8971 20.7316L16.6064 18.9884ZM20.3996 9.33876L18.4719 14.1325V14.1947L22.7004 15.8756C23.8197 16.3114 25.1256 15.9379 25.8718 14.8795C26.1205 14.506 26.3071 14.0702 26.3071 13.6344C26.3693 12.4516 25.6853 11.3932 24.6281 10.9574L20.3996 9.33876Z" fill="url(#paint2_linear_1_12433)"/>
<path id="Vector_26" d="M37.9974 3.4867C37.9974 4.66956 37.0025 5.66566 35.821 5.66566C34.6395 5.66566 33.6445 4.66956 33.6445 3.4867C33.6445 2.30383 34.6395 1.30774 35.821 1.30774C37.0646 1.30774 37.9974 2.24158 37.9974 3.4867Z" fill="url(#paint3_linear_1_12433)"/>
<path id="Vector_27" d="M1.61931 29.8209C2.23748 29.8209 2.73861 29.3192 2.73861 28.7003C2.73861 28.0814 2.23748 27.5797 1.61931 27.5797C1.00113 27.5797 0.5 28.0814 0.5 28.7003C0.5 29.3192 1.00113 29.8209 1.61931 29.8209Z" fill="url(#paint4_linear_1_12433)"/>
<path id="Vector_28" d="M30.0368 37.1049C31.1357 37.1049 32.0266 36.2129 32.0266 35.1127C32.0266 34.0124 31.1357 33.1205 30.0368 33.1205C28.9378 33.1205 28.0469 34.0124 28.0469 35.1127C28.0469 36.2129 28.9378 37.1049 30.0368 37.1049Z" fill="url(#paint5_linear_1_12433)"/>
<path id="Vector_29" d="M35.1981 10.646C35.9537 10.646 36.5662 10.0328 36.5662 9.27637C36.5662 8.51994 35.9537 7.90674 35.1981 7.90674C34.4426 7.90674 33.8301 8.51994 33.8301 9.27637C33.8301 10.0328 34.4426 10.646 35.1981 10.646Z" fill="#AC3AD6"/>
</g>
<defs>
<linearGradient id="paint0_linear_1_12433" x1="67.96" y1="45.1495" x2="46.1145" y2="11.9886" gradientUnits="userSpaceOnUse">
<stop stop-color="#22ABFF"/>
<stop offset="1" stop-color="#1CD7F8"/>
</linearGradient>
<linearGradient id="paint1_linear_1_12433" x1="80.1734" y1="41.7899" x2="64.7697" y2="3.27822" gradientUnits="userSpaceOnUse">
<stop stop-color="#22ABFF"/>
<stop offset="1" stop-color="#1CD7F8"/>
</linearGradient>
<linearGradient id="paint2_linear_1_12433" x1="-5.06506" y1="-17.8323" x2="27.1055" y2="15.4366" gradientUnits="userSpaceOnUse">
<stop stop-color="#22ABFF"/>
<stop offset="1" stop-color="#1CD7F8"/>
</linearGradient>
<linearGradient id="paint3_linear_1_12433" x1="27.1025" y1="-6.42679" x2="43.0505" y2="11.6014" gradientUnits="userSpaceOnUse">
<stop stop-color="#22ABFF"/>
<stop offset="1" stop-color="#1CD7F8"/>
</linearGradient>
<linearGradient id="paint4_linear_1_12433" x1="-1.46286" y1="23.3436" x2="5.03167" y2="34.6177" gradientUnits="userSpaceOnUse">
<stop stop-color="#22ABFF"/>
<stop offset="1" stop-color="#1CD7F8"/>
</linearGradient>
<linearGradient id="paint5_linear_1_12433" x1="31.7002" y1="32.7244" x2="28.9313" y2="36.6554" gradientUnits="userSpaceOnUse">
<stop stop-color="#22ABFF"/>
<stop offset="1" stop-color="#1CD7F8"/>
</linearGradient>
<clipPath id="clip0_1_12433">
<rect width="149" height="40" fill="white" transform="translate(0.5)"/>
</clipPath>
</defs>
</svg>
