<svg width="230" height="40" viewBox="0 0 230 40" fill="none" xmlns="http://www.w3.org/2000/svg">
<g id="Akurateco" clip-path="url(#clip0_1_12481)">
<path id="Vector" d="M65.0794 9.44557L56.9121 30.3197H60.9549L62.4154 26.1777H69.4493L70.9098 30.3197H74.9526L66.7035 9.44557H65.0911H65.0794ZM63.3852 23.3264L65.8155 15.77L68.2458 23.3264H63.3969H63.3852ZM93.2268 9.68024H89.1022L82.1501 19.5013V9.68024H78.5163V30.308H82.1501V24.6289L84.4168 21.5429L90.1538 30.308H94.5237L86.8355 18.6917L93.2268 9.68024ZM109.164 23.5611C109.164 24.7814 108.755 25.6732 108.031 26.3185C107.306 26.9639 106.255 27.3745 104.958 27.3745C103.743 27.3745 102.855 27.046 102.212 26.3185C101.569 25.591 101.242 24.6993 101.242 23.6433V9.68024H97.5967V23.8075C97.5967 26.0017 98.2393 27.621 99.5363 28.8412C100.833 29.9794 102.691 30.6248 105.04 30.6248C107.388 30.6248 109.246 30.0615 110.706 28.8412C112.085 27.621 112.81 26.0017 112.81 23.8897V9.68024H109.176V23.5611H109.164ZM130.838 18.9381C131.563 17.9642 131.89 16.826 131.89 15.6057C131.89 11.5459 129.308 9.51597 124.132 9.51597C123.325 9.51597 122.192 9.51597 120.813 9.59811C119.435 9.68024 118.628 9.68024 118.465 9.68024V30.308H122.262V21.6955C123.232 21.7776 124.038 21.7776 124.611 21.7776L130.114 30.308H134.32L128.256 21.0501C129.226 20.6394 130.114 19.912 130.85 18.9381H130.838ZM127.111 18.0463C126.387 18.457 125.335 18.6917 123.793 18.6917C123.466 18.6917 122.905 18.6917 122.25 18.6095V12.9305C122.659 12.8483 123.057 12.8483 123.466 12.8483C125.09 12.8483 126.293 13.0947 127.029 13.4115C127.754 13.8222 128.163 14.5497 128.163 15.5236C128.163 16.7439 127.754 17.6356 127.111 18.0463ZM143.527 9.43384L135.36 30.308H139.403L140.863 26.166H147.897L149.44 30.308H153.482L145.233 9.43384H143.539H143.527ZM141.833 23.3147L144.264 15.7583L146.694 23.3147H141.845H141.833ZM155.095 12.9187H161.65V30.2962H165.295V12.9187H172.095V9.66851H155.107V12.9187H155.095ZM175.881 30.2962H188.827V27.046H179.527V20.8741H186.327V17.7882H179.527V13.0009H188.991V9.75064H175.893V30.2962H175.881ZM201.925 27.3745C200.231 27.3745 198.852 26.7292 197.883 25.4268C196.831 24.1243 196.34 22.423 196.34 20.1466C196.34 17.8703 196.901 16.1689 197.953 14.7022C199.004 13.2355 200.465 12.5902 202.159 12.5902C203.853 12.5902 205.232 13.0009 206.038 13.8105L207.581 10.8067C206.202 9.83278 204.262 9.33997 201.914 9.33997C199.168 9.33997 196.901 10.396 195.195 12.4259C193.419 14.4558 192.531 17.049 192.531 20.0645C192.531 23.3147 193.337 25.9078 194.88 27.7735C196.492 29.6391 198.677 30.613 201.516 30.613C204.356 30.613 206.529 29.8034 208.071 28.2546L206.377 25.3329C205.407 26.7175 203.865 27.3628 201.925 27.3628V27.3745ZM227.163 12.1091C225.621 10.2435 223.366 9.3517 220.445 9.3517C217.781 9.3517 215.596 10.4077 214.054 12.3555C212.441 14.3854 211.623 16.826 211.623 19.8298C211.623 23.1622 212.348 25.8374 213.808 27.7031C215.269 29.6509 217.372 30.6248 220.118 30.6248C223.109 30.6248 225.457 29.6509 227.07 27.7031C228.682 25.7553 229.5 23.1504 229.5 19.8298C229.5 16.5092 228.694 13.9043 227.152 12.1208L227.163 12.1091ZM224.254 25.4268C223.284 26.7292 221.905 27.3745 220.129 27.3745C218.587 27.3745 217.384 26.7292 216.566 25.4268C215.76 24.1243 215.351 22.2587 215.351 19.8298C215.351 17.6356 215.76 15.8521 216.648 14.5497C217.536 13.2473 218.751 12.6019 220.363 12.6019C223.927 12.6019 225.703 15.0425 225.703 19.8298C225.703 22.2704 225.212 24.1361 224.242 25.4268H224.254Z" fill="#231F20"/>
<path id="Vector_2" fill-rule="evenodd" clip-rule="evenodd" d="M26.5682 40L26.498 32.2792L42.2367 24.4294L45.5901 29.4397L26.5682 40Z" fill="#A52B23"/>
<path id="Vector_3" fill-rule="evenodd" clip-rule="evenodd" d="M7.07812 29.4395L10.4315 23.6313L26.6259 32.279L26.5558 39.9998L7.07812 29.4395Z" fill="#91201E"/>
<path id="Vector_4" fill-rule="evenodd" clip-rule="evenodd" d="M26.626 0L10.4316 23.6315L26.626 15.7113V0Z" fill="#EC4F2E"/>
<path id="Vector_5" fill-rule="evenodd" clip-rule="evenodd" d="M0.5 39.9296L7.07824 29.4397L26.626 20.264V29.1699L0.5 39.9296Z" fill="#EC4F2E"/>
<path id="Vector_6" fill-rule="evenodd" clip-rule="evenodd" d="M26.5683 15.7113L42.2369 24.4177L26.6267 0L26.5566 15.7113H26.5683Z" fill="#D43427"/>
<path id="Vector_7" fill-rule="evenodd" clip-rule="evenodd" d="M26.5684 29.2403V20.264L45.5903 29.4397L52.1686 39.9296L26.5684 29.2403Z" fill="#D43427"/>
</g>
<defs>
<clipPath id="clip0_1_12481">
<rect width="229" height="40" fill="white" transform="translate(0.5)"/>
</clipPath>
</defs>
</svg>
