<svg width="160" height="40" viewBox="0 0 160 40" fill="none" xmlns="http://www.w3.org/2000/svg">
<g id="Alikassa" clip-path="url(#clip0_1_12469)">
<path id="Vector" fill-rule="evenodd" clip-rule="evenodd" d="M159.934 27.5046L156.513 20.1332C155.344 17.8475 153.178 13.057 152.864 12.4094C152.551 11.7618 152.427 11.5046 152.047 11.5142C151.667 11.5237 151.42 12.2285 150.945 13.0761C150.47 13.9237 148.845 17.4856 148.285 18.6666C147.895 19.5142 145.596 24.3713 144.417 27.1713C144.161 27.7713 144.018 28.1427 144.151 28.1904C144.987 28.4475 146.954 28.2951 147.524 28.2666C148.095 28.238 148.465 26.8666 148.921 25.8856L155.24 25.9046C155.515 26.3904 156.2 27.9332 156.542 28.0761C156.96 28.2475 159.487 28.3046 159.896 28.1237C160.029 27.9999 159.972 27.6761 159.915 27.4856L159.934 27.5046ZM150.384 22.5523C150.384 22.3618 151.857 19.1142 152.076 18.8856C152.437 19.5523 153.596 21.9904 153.72 22.638C153.121 22.7142 151.088 22.7046 150.384 22.5427V22.5523Z" fill="#1D1D1B"/>
<path id="Vector_2" fill-rule="evenodd" clip-rule="evenodd" d="M139.391 18.6285C138.355 18.1809 136.331 17.3618 136.056 16.3428C135.837 15.5333 136.417 14.8952 137.177 14.7904C137.766 14.7047 138.906 15.1047 139.438 15.3618C140.085 15.6856 141.035 16.438 141.405 16.1428C141.776 15.8476 142.127 15.2952 142.45 14.9047C142.926 14.2856 143.258 13.8475 142.698 13.3999C140.427 11.3999 136.322 11.0571 134.288 12.3904C130.298 15.5523 132.474 19.6952 136.502 21.3142C137.785 21.8475 140.075 23.1047 139.049 24.6095C138.517 25.3904 136.816 25.438 135.182 24.4666C134.878 24.3047 134.564 24.0761 134.231 23.9237C133.823 23.7428 133.69 23.7047 133.433 24.0475C133.158 24.4095 132.597 25.3809 132.36 25.838C132.151 26.2285 132.227 26.4856 132.483 26.7333C134.127 28.3237 137.719 28.8952 139.838 28.1428C141.994 27.3809 143.553 25.4571 143.325 23.1999C143.106 20.9523 141.339 19.4571 139.391 18.6285Z" fill="#1D1D1B"/>
<path id="Vector_3" fill-rule="evenodd" clip-rule="evenodd" d="M114.839 20.1332C113.67 17.8475 111.503 13.057 111.19 12.4094C110.876 11.7618 110.753 11.5046 110.373 11.5142C109.993 11.5237 109.746 12.2285 109.28 13.0761C108.805 13.9237 107.18 17.4856 106.62 18.6666C106.23 19.5142 103.931 24.3713 102.752 27.1713C102.496 27.7713 102.353 28.1427 102.486 28.1904C103.322 28.4475 105.289 28.2951 105.859 28.2666C106.429 28.238 106.8 26.8666 107.256 25.8856L113.575 25.9046C113.85 26.3904 114.534 27.9332 114.877 28.0761C115.295 28.2475 117.822 28.3046 118.231 28.1237C118.364 27.9999 118.307 27.6761 118.25 27.4856L114.829 20.1142L114.839 20.1332ZM108.71 22.5523C108.71 22.3618 110.183 19.1142 110.401 18.8856C110.762 19.5523 111.922 21.9904 112.045 22.638C111.446 22.7142 109.413 22.7046 108.71 22.5427V22.5523Z" fill="#1D1D1B"/>
<path id="Vector_4" fill-rule="evenodd" clip-rule="evenodd" d="M96.376 19.4952L101.687 12.9809C102.049 12.5428 102.039 11.7714 101.564 11.7714H98.6469C98.1623 11.7714 98.0483 11.9237 97.9438 12.0476L92.6323 18.2666V12.1237C92.6323 11.9618 92.4993 11.838 92.3472 11.838H89.1356C88.9741 11.838 88.8506 11.9714 88.8506 12.1237V28.038C88.8506 28.1999 88.9836 28.3237 89.1356 28.3237H92.3472C92.5088 28.3237 92.6323 28.1904 92.6323 28.038V20.838L98.0293 27.9618C98.1243 28.0856 98.2383 28.238 98.7324 28.238H101.963C102.438 28.238 102.429 27.4666 102.087 27.019L96.376 19.4952Z" fill="#1D1D1B"/>
<path id="Vector_5" fill-rule="evenodd" clip-rule="evenodd" d="M78.3424 24.5237H72.7553V12.1142C72.7553 11.9523 72.6223 11.8285 72.4703 11.8285H69.2587C69.0972 11.8285 68.9736 11.9618 68.9736 12.1142V28.0285C68.9736 28.1904 69.1067 28.3142 69.2587 28.3142H78.6749C78.8365 28.3142 78.96 28.1809 78.96 28.0285V25.1333C78.96 24.7904 78.6844 24.5142 78.3424 24.5142V24.5237Z" fill="#1D1D1B"/>
<path id="Vector_6" d="M84.5081 11.8285H81.287C81.1296 11.8285 81.002 11.9564 81.002 12.1142V28.038C81.002 28.1958 81.1296 28.3237 81.287 28.3237H84.5081C84.6655 28.3237 84.7932 28.1958 84.7932 28.038V12.1142C84.7932 11.9564 84.6655 11.8285 84.5081 11.8285Z" fill="#1D1D1B"/>
<path id="Vector_7" fill-rule="evenodd" clip-rule="evenodd" d="M126.478 18.6285C125.442 18.1809 123.418 17.3618 123.143 16.3428C122.924 15.5333 123.504 14.8952 124.264 14.7904C124.853 14.7047 125.993 15.1047 126.525 15.3618C127.171 15.6856 128.122 16.438 128.492 16.1428C128.863 15.8476 129.214 15.2952 129.537 14.9047C130.012 14.2856 130.345 13.8475 129.784 13.3999C127.514 11.3999 123.409 11.0571 121.375 12.3904C117.385 15.5523 119.561 19.6952 123.589 21.3142C124.863 21.8475 127.162 23.1047 126.136 24.6095C125.604 25.3904 123.903 25.438 122.269 24.4666C121.965 24.3047 121.651 24.0761 121.318 23.9237C120.91 23.7428 120.777 23.7047 120.52 24.0475C120.245 24.4095 119.684 25.3809 119.447 25.838C119.238 26.2285 119.314 26.4856 119.57 26.7333C121.204 28.3237 124.806 28.8952 126.924 28.1428C129.081 27.3809 130.64 25.4571 130.412 23.1999C130.193 20.9523 128.426 19.4571 126.478 18.6285Z" fill="#1D1D1B"/>
<path id="Vector_8" fill-rule="evenodd" clip-rule="evenodd" d="M63.5287 20.1332C62.3505 17.8475 60.1936 13.057 59.88 12.4094C59.5665 11.7618 59.443 11.5046 59.0629 11.5142C58.6923 11.5332 58.4358 12.2285 57.9607 13.0761C57.4856 13.9237 55.8608 17.4856 55.3002 18.6666C54.9106 19.5142 52.6112 24.3713 51.433 27.1713C51.1764 27.7713 51.0339 28.1427 51.1669 28.1904C52.0031 28.4475 53.9699 28.2951 54.5401 28.2666C55.1102 28.238 55.4807 26.8666 55.9463 25.8856L62.265 25.9046C62.5405 26.3904 63.2247 27.9332 63.5667 28.0761C63.9848 28.2475 66.5218 28.3046 66.9208 28.1237C67.0539 27.9999 66.9968 27.6761 66.9398 27.4856L63.5192 20.1142L63.5287 20.1332ZM57.4001 22.5523C57.4001 22.3618 58.8728 19.1142 59.0914 18.8856C59.4525 19.5523 60.6117 21.9904 60.7352 22.638C60.1366 22.7142 58.1032 22.7046 57.4096 22.5427L57.4001 22.5523Z" fill="#1D1D1B"/>
<path id="Vector_9" d="M19.9537 40C30.9738 40 39.9074 31.0457 39.9074 20C39.9074 8.95431 30.9738 0 19.9537 0C8.93357 0 0 8.95431 0 20C0 31.0457 8.93357 40 19.9537 40Z" fill="#FFBF1D"/>
<path id="Vector_10" fill-rule="evenodd" clip-rule="evenodd" d="M29.7876 27.7429C29.6831 27.4572 28.6759 25.3429 28.4954 24.9524C25.9014 19.381 23.3645 13.7143 20.6945 8.20001C20.4759 7.74287 20.3524 7.66668 19.8393 7.68573C19.4022 7.69525 19.3262 8.00001 19.1552 8.34287C16.1431 14.4191 13.6822 20.3238 10.4896 26.9333C10.2235 27.5524 9.83398 28 10.271 28.3429C10.4421 28.4762 10.6036 28.4762 10.8126 28.4762C11.7153 28.4857 12.637 28.4762 13.5396 28.4762C14.6609 28.4667 14.6894 28.2667 15.1264 27.3333C15.269 27.0191 15.4115 26.7048 15.554 26.3905C15.6965 26.0857 15.8201 25.7429 15.9721 25.4572C16.3712 25.4095 16.8938 25.4381 17.3118 25.4381H22.7658C22.9939 25.4381 23.2314 25.4476 23.45 25.4381C24.0676 25.4191 23.9441 25.4 24.2196 26.0095L24.8562 27.4191C25.3598 28.5048 25.4453 28.4857 26.5095 28.4857C27.4027 28.4857 28.3434 28.5143 29.227 28.4857C29.6641 28.4762 29.9587 28.2191 29.7971 27.7619L29.7876 27.7429ZM17.7679 21.3905C17.7679 21.2191 19.6968 17.1429 19.9343 16.6286C20.2859 17.3524 21.9392 20.9143 22.1672 21.4191C21.8157 21.4572 18.0625 21.4286 17.7679 21.3905Z" fill="white"/>
</g>
<defs>
<clipPath id="clip0_1_12469">
<rect width="160" height="40" fill="white"/>
</clipPath>
</defs>
</svg>
