<svg width="194" height="30" viewBox="0 0 194 30" fill="none" xmlns="http://www.w3.org/2000/svg">
<g id="Anymoney" clip-path="url(#clip0_1_12464)">
<path id="Vector" d="M11.0866 15H5.54332V7.5H11.0866V0H0V30H5.54332V22.5H11.0866V30H16.6299V7.5H11.0866V15ZM66.5118 22.5H72.0551V30H66.5118V22.5ZM55.4251 15H49.8818V0H44.3385V22.5H49.8818V30H55.4251V22.5H60.9685V0H55.4251V15ZM33.2518 7.5H38.7952V30H33.2518V7.5ZM22.1652 0V30H27.7085V7.5H33.2518V0H22.1652Z" fill="#8D30F9"/>
<path id="Vector_2" d="M166.283 0H171.827V7.5H166.283V0ZM160.74 0H155.197V30H171.827V22.5H160.74V15H166.283V7.5H160.74V0ZM121.945 22.5H116.401V7.5H121.945V0H110.858V30H127.489V7.5H121.945V22.5ZM88.6849 7.5H94.228V30H88.6849V7.5ZM77.5985 0V30H83.1417V7.5H88.6849V0H77.5985ZM94.228 0V7.5H99.7719V30H105.315V0H94.228ZM188.457 0V15H182.914V0H177.37V22.5H182.914V30H188.457V22.5H194V0H188.457ZM144.118 7.5H149.662V30H144.118V7.5ZM133.032 0V30H138.575V7.5H144.118V0H133.032Z" fill="#2F3132"/>
</g>
<defs>
<clipPath id="clip0_1_12464">
<rect width="194" height="30" fill="white"/>
</clipPath>
</defs>
</svg>
