<svg width="190" height="40" viewBox="0 0 190 40" fill="none" xmlns="http://www.w3.org/2000/svg">
<g id="Betatransfer" clip-path="url(#clip0_1_12497)">
<path id="Vector" d="M10.4306 6.71955C11.7694 6.70109 13.0786 7.11431 14.1643 7.89802C15.321 8.7229 16.2364 9.84171 16.8159 11.1388C17.4805 12.5682 17.8136 14.1292 17.7904 15.7054C17.7905 17.14 17.4487 18.5539 16.7932 19.83C16.1924 21.0575 15.2874 22.1108 14.1643 22.8895C13.0703 23.6337 11.7764 24.0288 10.4533 24.0227C6.80076 24.0151 4.63834 22.0378 3.96601 18.0907H3.47875L3.77337 23.5694H0V0H3.77337V6.89518L3.47875 12.3173H4.09632C4.37266 10.7352 5.15855 9.28675 6.33428 8.19263C7.46631 7.20467 8.92863 6.6788 10.4306 6.71955ZM9.13315 20.272C10.0169 20.2852 10.8891 20.0706 11.6657 19.6487C12.3929 19.2557 12.9954 18.6669 13.4051 17.949C13.8361 17.2141 14.0593 16.376 14.051 15.5241C14.0759 14.8765 13.9658 14.2308 13.7278 13.628C13.4899 13.0253 13.1291 12.4786 12.6686 12.0227C12.2051 11.5623 11.6524 11.2017 11.0444 10.963C10.4364 10.7243 9.78596 10.6125 9.13315 10.6346C8.25493 10.6221 7.38966 10.8472 6.6289 11.2861C5.88866 11.6918 5.27643 12.2962 4.86119 13.0312C4.42988 13.7638 4.20657 14.6003 4.2153 15.4504C4.21952 16.2703 4.44249 17.0741 4.86119 17.779C5.30875 18.5194 5.92395 19.1443 6.65722 19.6034C7.40615 20.0478 8.26232 20.279 9.13315 20.272Z" fill="#3B95FF"/>
<path id="Vector_2" d="M23.3087 16.4986C23.4816 17.6035 24.0468 18.6092 24.9008 19.3314C25.8279 20.0422 26.9742 20.4069 28.1416 20.3626C29.1004 20.3947 30.0525 20.1915 30.9147 19.7708C31.7769 19.35 32.523 18.7245 33.0877 17.949L35.592 19.6487C34.8997 21.0261 33.8129 22.1661 32.4702 22.9235C31.1445 23.6514 29.6539 24.026 28.1416 24.0113C26.6307 24.026 25.1436 23.6347 23.8356 22.8782C22.5373 22.1098 21.4539 21.0263 20.6855 19.728C19.9279 18.3999 19.5369 16.8943 19.5523 15.3654C19.5347 13.847 19.9261 12.3518 20.6855 11.0368C21.4501 9.74304 22.535 8.66793 23.8356 7.91499C25.1352 7.1336 26.6252 6.72583 28.1416 6.73652C29.6805 6.6928 31.1974 7.10903 32.4985 7.93199C33.7788 8.78662 34.7828 9.99534 35.388 11.4107C36.0766 13.0068 36.3887 14.7399 36.3002 16.4759L23.3087 16.4986ZM28.1416 10.3116C27.0063 10.2822 25.8977 10.6578 25.0141 11.3711C24.1722 12.0447 23.5749 12.9764 23.3144 14.0226H32.7648C32.5714 12.9508 31.9831 11.9905 31.1161 11.3314C30.273 10.6565 29.2214 10.2959 28.1416 10.3116Z" fill="#3B95FF"/>
<path id="Vector_3" d="M43.8415 14.9348C43.791 16.1194 43.8785 17.3059 44.1021 18.4703C44.1793 18.7596 44.3342 19.0222 44.5499 19.2299C44.7655 19.4376 45.0339 19.5824 45.3259 19.6487C46.6014 19.8518 47.8935 19.9315 49.1843 19.8867V23.5694C46.2759 23.5694 44.1984 23.3333 42.952 22.8612C42.3986 22.6867 41.8954 22.3814 41.4851 21.9711C41.0748 21.5608 40.7695 21.0576 40.595 20.5042C40.2108 18.674 40.0528 16.8036 40.1248 14.9348V10.6629H36.918V6.89518H40.1588V1.17847H43.8415V6.89518H49.1729V10.6629H43.8415V14.9348Z" fill="#3B95FF"/>
<path id="Vector_4" d="M57.4392 6.71957C60.2116 6.71957 62.2739 7.36736 63.6262 8.66292C64.9784 9.95848 65.6564 11.8924 65.6602 14.4646V23.5694H62.0341L62.6007 17.9037H62.1587C61.4524 21.949 59.3315 23.9717 55.7961 23.9717C53.7754 23.9717 52.2645 23.5392 51.2636 22.6743C50.7537 22.2118 50.3542 21.6409 50.0943 21.0035C49.8345 20.3661 49.721 19.6786 49.7621 18.9915C49.7332 18.2061 49.9048 17.4262 50.2606 16.7254C50.6165 16.0246 51.1449 15.4259 51.7961 14.9859C53.1484 14.0227 55.1011 13.5411 57.6545 13.5411H61.9604C61.8967 13.0804 61.7379 12.6381 61.494 12.2421C61.2502 11.8461 60.9267 11.5051 60.544 11.2408C59.6053 10.6745 58.5164 10.4077 57.4222 10.4759C56.5902 10.4421 55.7649 10.6381 55.0369 11.0425C54.3016 11.4965 53.6688 12.0985 53.1786 12.8102L50.1757 10.7762C50.9921 9.54056 52.0669 8.49672 53.3259 7.71674C54.5814 7.01793 56.0031 6.67327 57.4392 6.71957ZM56.3797 20.1813C58.0265 20.1813 59.2919 19.8282 60.1757 19.1218C61.1135 18.331 61.72 17.2168 61.8755 16H57.6885C56.6176 15.9374 55.5473 16.1317 54.5667 16.5666C54.2906 16.7073 54.0546 16.9155 53.8804 17.1717C53.7061 17.4279 53.5994 17.724 53.57 18.0325C53.5407 18.3409 53.5896 18.6518 53.7123 18.9363C53.835 19.2208 54.0275 19.4698 54.2721 19.6601C54.9015 20.0531 55.6396 20.2357 56.3797 20.1813Z" fill="#3B95FF"/>
<path id="Vector_5" d="M74.3397 14.9348C74.2872 16.1197 74.3766 17.3066 74.606 18.4703C74.6836 18.7613 74.8399 19.0253 75.0578 19.2332C75.2758 19.4411 75.5468 19.5849 75.8411 19.6487C77.1166 19.8518 78.4087 19.9315 79.6995 19.8867V23.5694C76.7949 23.5694 74.7174 23.3333 73.4672 22.8612C72.9143 22.6859 72.4115 22.3803 72.0014 21.9701C71.5912 21.5599 71.2856 21.0572 71.1103 20.5042C70.7289 18.6736 70.571 16.8035 70.64 14.9348V10.6629H67.4219V6.89518H70.6627V1.17847H74.3454V6.89518H79.6768V10.6629H74.3454L74.3397 14.9348Z" fill="black"/>
<path id="Vector_6" d="M84.986 12.3456C85.1228 11.1393 85.5253 9.97829 86.1645 8.94614C86.676 8.20838 87.4108 7.65429 88.2608 7.3654C89.364 7.04185 90.511 6.89274 91.6602 6.92348V10.9915C91.1161 10.8766 90.5619 10.8159 90.0058 10.8102C89.335 10.7707 88.6638 10.8826 88.042 11.1375C87.4202 11.3925 86.8637 11.7841 86.4138 12.2833C85.5866 13.2464 85.1786 14.5949 85.1786 16.3229V23.5694H81.4336V6.86682H85.1786L84.3514 12.3456H84.986Z" fill="black"/>
<path id="Vector_7" d="M100.221 6.71952C102.994 6.71952 105.058 7.3673 106.414 8.66286C107.77 9.95842 108.446 11.8923 108.442 14.4646V23.5694H104.816L105.383 17.9037H104.941C104.253 21.9565 102.134 23.983 98.5837 23.983C96.5554 23.983 95.0446 23.5505 94.0512 22.6855C93.5403 22.2236 93.1397 21.6529 92.8789 21.0155C92.618 20.3781 92.5036 19.6903 92.5441 19.0028C92.5205 18.2139 92.6986 17.432 93.0615 16.7311C93.4243 16.0301 93.96 15.4333 94.6177 14.9971C95.97 14.034 97.9246 13.5524 100.482 13.5524H104.782C104.719 13.0921 104.562 12.6498 104.319 12.2538C104.076 11.8578 103.753 11.5167 103.371 11.2521C102.43 10.686 101.34 10.4193 100.244 10.4872C99.4118 10.4534 98.5865 10.6494 97.8585 11.0538C97.1259 11.5092 96.4951 12.111 96.0058 12.8215L92.9973 10.7875C93.8172 9.55272 94.8936 8.50919 96.1532 7.72801C97.3942 7.03321 98.7992 6.68488 100.221 6.71952ZM99.1503 20.1813C100.797 20.1813 102.064 19.8281 102.952 19.1218C103.892 18.3327 104.499 17.2177 104.652 16H100.47C99.3995 15.9374 98.3292 16.1316 97.3486 16.5665C97.0726 16.7073 96.8365 16.9154 96.6623 17.1717C96.4881 17.4279 96.3813 17.7239 96.352 18.0324C96.3226 18.3408 96.3715 18.6517 96.4942 18.9362C96.617 19.2208 96.8095 19.4697 97.054 19.66C97.6799 20.0515 98.414 20.234 99.1503 20.1813Z" fill="black"/>
<path id="Vector_8" d="M120.963 6.4533C123.301 6.4533 125.05 7.18041 126.21 8.63461C127.369 10.0888 127.959 12.4344 127.978 15.6714V23.5695H124.323V15.6714C124.323 13.8074 123.966 12.4306 123.264 11.5468C122.561 10.6629 121.434 10.1983 119.904 10.1983C119.21 10.1671 118.517 10.2942 117.879 10.57C117.241 10.8459 116.674 11.2632 116.221 11.7904C115.315 12.8329 114.867 14.3343 114.867 16.323V23.5695H111.094V6.89523H114.867L114.04 12.3457H114.606C114.741 11.0677 115.142 9.83219 115.785 8.71959C116.26 7.9206 116.985 7.29962 117.847 6.95189C118.846 6.59261 119.903 6.4235 120.963 6.4533Z" fill="black"/>
<path id="Vector_9" d="M133.275 17.5015C133.677 18.345 134.285 19.0738 135.043 19.6204C135.878 20.121 136.84 20.3672 137.813 20.3287C140.208 20.3287 141.405 19.8074 141.405 18.7649C141.413 18.5182 141.351 18.2743 141.225 18.0617C141.1 17.849 140.917 17.6764 140.697 17.5638C139.837 17.1698 138.925 16.9026 137.989 16.7706L136.929 16.5666C134.686 16.1549 133.065 15.526 132.068 14.6799C131.578 14.2622 131.189 13.7399 130.928 13.1515C130.667 12.5632 130.542 11.9238 130.561 11.2805C130.56 10.4705 130.807 9.67959 131.269 9.01421C131.846 8.26603 132.622 7.6948 133.507 7.36548C134.71 6.90311 135.992 6.68359 137.281 6.71959C138.897 6.63451 140.5 7.04573 141.875 7.89806C143.116 8.77895 144.095 9.97906 144.708 11.3712L141.558 12.8726C141.124 12.0736 140.497 11.3958 139.734 10.9009C138.985 10.4928 138.138 10.2969 137.286 10.3343C136.469 10.2787 135.651 10.4206 134.901 10.7479C134.695 10.8313 134.518 10.9736 134.392 11.1569C134.266 11.3403 134.197 11.5567 134.193 11.7791C134.187 11.9897 134.236 12.1982 134.336 12.3839C134.435 12.5697 134.581 12.7264 134.759 12.8386C135.443 13.1969 136.179 13.4455 136.941 13.5751L138 13.7791C139.473 14.0015 140.909 14.4187 142.272 15.0199C143.127 15.3708 143.863 15.961 144.391 16.7196C144.806 17.438 145.009 18.2588 144.978 19.0877C144.947 19.9165 144.683 20.7198 144.215 21.4051C143.62 22.2308 142.797 22.8648 141.847 23.2295C140.564 23.7357 139.192 23.9748 137.813 23.9321C136.12 23.9988 134.441 23.6073 132.952 22.7989C131.572 21.8719 130.464 20.5926 129.745 19.0935L133.275 17.5015Z" fill="black"/>
<path id="Vector_10" d="M159.088 3.24079C157.924 3.19155 156.759 3.25988 155.609 3.44476C155.321 3.48494 155.047 3.59129 154.807 3.75545C154.567 3.91962 154.368 4.13714 154.227 4.39093C153.933 5.19232 153.792 6.04187 153.813 6.89518H159.088V10.6629H153.785V23.5694H150.102V10.6629H146.827V6.89518H150.102C150.065 5.49009 150.293 4.0906 150.776 2.77054C151.021 2.26442 151.372 1.81626 151.803 1.45581C152.235 1.09536 152.739 0.83087 153.28 0.679887C154.538 0.226629 156.474 0 159.088 0V3.24079Z" fill="black"/>
<path id="Vector_11" d="M163.434 16.4986C163.607 17.6036 164.172 18.6093 165.026 19.3314C165.955 20.0414 167.104 20.4042 168.272 20.3569C169.232 20.389 170.185 20.1858 171.048 19.7651C171.911 19.3444 172.658 18.719 173.224 17.9433L175.723 19.6431C175.032 21.0216 173.945 22.1621 172.601 22.9178C171.276 23.6477 169.785 24.0243 168.272 24.0113C166.763 24.0267 165.278 23.6353 163.972 22.8782C162.671 22.1115 161.585 21.0278 160.816 19.728C160.059 18.3999 159.668 16.8944 159.683 15.3654C159.666 13.847 160.057 12.3518 160.816 11.0368C161.582 9.74156 162.669 8.66615 163.972 7.91501C165.268 7.12704 166.756 6.71325 168.272 6.71955C169.811 6.68133 171.326 7.10353 172.624 7.93201C173.904 8.78664 174.908 9.99536 175.513 11.4108C176.206 13.0057 176.518 14.7397 176.425 16.4759L163.434 16.4986ZM168.272 10.3116C167.139 10.2816 166.032 10.6573 165.151 11.3711C164.309 12.0453 163.712 12.9767 163.451 14.0227H172.879C172.693 12.9508 172.108 11.9891 171.241 11.3314C170.4 10.6578 169.35 10.2973 168.272 10.3116Z" fill="black"/>
<path id="Vector_12" d="M181.728 12.3456C181.865 11.1393 182.267 9.97829 182.906 8.94614C183.424 8.20451 184.167 7.65002 185.025 7.3654C186.129 7.04185 187.276 6.89274 188.425 6.92348V10.9915C187.881 10.8763 187.327 10.8156 186.77 10.8102C186.1 10.7707 185.428 10.8826 184.807 11.1375C184.185 11.3925 183.628 11.7841 183.178 12.2833C182.351 13.2464 181.943 14.5949 181.943 16.3229V23.5694H178.198V6.86682H181.943L181.116 12.3456H181.728Z" fill="black"/>
<path id="Vector_13" d="M146.481 30.4816L142.776 35.2294L146.464 40H144.074L141.643 36.7309L140.419 38.3003V40H138.453V30.4816H140.419V35.4221L144.096 30.4816H146.481Z" fill="#3B95FF"/>
<path id="Vector_14" d="M156.669 40L155.91 38.2379H151.423L150.663 40H148.442L152.539 30.4816H154.76L158.879 40H156.669ZM152.295 36.2153H155.032L153.661 33.0368L152.295 36.2153Z" fill="#3B95FF"/>
<path id="Vector_15" d="M162.187 36.6572C162.382 37.0886 162.703 37.4512 163.107 37.6978C163.511 37.9444 163.98 38.0635 164.453 38.0396C164.872 38.0569 165.29 37.9914 165.683 37.847C165.802 37.8048 165.905 37.7286 165.981 37.6278C166.056 37.527 166.101 37.4062 166.108 37.2804C166.109 37.115 166.065 36.9524 165.979 36.8112C165.892 36.67 165.768 36.5558 165.621 36.4816C165.083 36.2268 164.51 36.0548 163.921 35.9716L163.23 35.8413C162.492 35.7246 161.819 35.3538 161.326 34.7932C160.857 34.2383 160.607 33.531 160.623 32.8045C160.612 32.3615 160.757 31.9285 161.031 31.5807C161.33 31.217 161.722 30.9409 162.164 30.7818C162.71 30.5909 163.286 30.4988 163.864 30.5099C164.684 30.4697 165.498 30.6664 166.21 31.0765C166.849 31.5143 167.339 32.137 167.615 32.8612L165.915 33.541C165.717 33.1854 165.425 32.8913 165.071 32.6912C164.652 32.4872 164.188 32.3899 163.723 32.4079C163.429 32.3931 163.137 32.4454 162.867 32.5609C162.77 32.619 162.692 32.7027 162.64 32.8027C162.588 32.9027 162.565 33.015 162.572 33.1274C162.565 33.2463 162.59 33.365 162.646 33.47C162.702 33.5751 162.787 33.6625 162.89 33.7223C163.252 33.889 163.632 34.0126 164.023 34.0906L164.589 34.2266C165.575 34.395 166.496 34.8299 167.252 35.4844C167.515 35.7456 167.721 36.0578 167.859 36.4018C167.996 36.7457 168.061 37.1142 168.051 37.4844C168.062 37.8607 167.973 38.2331 167.793 38.5636C167.613 38.8941 167.348 39.1708 167.026 39.3654C166.198 39.8254 165.257 40.0434 164.312 39.9943C163.477 40.0271 162.65 39.8165 161.932 39.3881C161.221 38.8635 160.64 38.1833 160.232 37.3994L162.187 36.6572Z" fill="#3B95FF"/>
<path id="Vector_16" d="M171.745 36.6572C171.939 37.0896 172.259 37.4531 172.663 37.6999C173.068 37.9466 173.538 38.0651 174.011 38.0396C174.43 38.0569 174.847 37.9915 175.24 37.847C175.359 37.8048 175.463 37.7286 175.538 37.6278C175.614 37.527 175.658 37.4062 175.665 37.2804C175.666 37.1153 175.62 36.9533 175.534 36.8123C175.448 36.6713 175.325 36.5568 175.178 36.4816C174.641 36.2268 174.067 36.0548 173.478 35.9716L172.804 35.813C172.067 35.6963 171.393 35.3255 170.901 34.7648C170.431 34.21 170.181 33.5026 170.198 32.7762C170.187 32.3331 170.331 31.9002 170.606 31.5524C170.903 31.1874 171.295 30.9111 171.739 30.7535C172.285 30.5626 172.861 30.4705 173.439 30.4816C174.259 30.4414 175.073 30.6381 175.784 31.0481C176.422 31.496 176.906 32.1289 177.172 32.8612L175.473 33.5411C175.275 33.1854 174.983 32.8913 174.629 32.6912C174.209 32.4872 173.746 32.3899 173.28 32.4079C172.987 32.3931 172.694 32.4454 172.425 32.5609C172.328 32.619 172.25 32.7027 172.198 32.8027C172.146 32.9027 172.122 33.015 172.13 33.1275C172.122 33.2463 172.148 33.365 172.204 33.4701C172.26 33.5751 172.344 33.6625 172.447 33.7224C172.809 33.8897 173.189 34.0133 173.58 34.0906L174.147 34.2266C175.133 34.395 176.054 34.83 176.81 35.4844C177.072 35.7456 177.279 36.0578 177.416 36.4018C177.554 36.7457 177.619 37.1142 177.609 37.4844C177.62 37.8607 177.531 38.2331 177.35 38.5636C177.17 38.8941 176.905 39.1708 176.583 39.3654C175.755 39.8246 174.815 40.0425 173.869 39.9943C173.034 40.0278 172.207 39.8171 171.49 39.3881C170.779 38.8635 170.197 38.1833 169.79 37.3994L171.745 36.6572Z" fill="#3B95FF"/>
<path id="Vector_17" d="M187.224 40L186.465 38.2379H181.977L181.218 40H179.003L183.099 30.4816H185.32L189.439 40H187.224ZM182.85 36.2153H185.581L184.215 33.0368L182.85 36.2153Z" fill="#3B95FF"/>
</g>
<defs>
<clipPath id="clip0_1_12497">
<rect width="190" height="40" fill="white"/>
</clipPath>
</defs>
</svg>
