<svg width="176" height="40" viewBox="0 0 176 40" fill="none" xmlns="http://www.w3.org/2000/svg">
<g id="BitHide-1" clip-path="url(#clip0_1_12421)">
<path id="Vector" fill-rule="evenodd" clip-rule="evenodd" d="M20.3306 0.00267965C21.0593 0.0144878 21.4719 0.806996 21.1075 1.43822L7.79269 24.5C7.61411 24.8094 7.284 25 6.92672 25H1.4053C0.949017 25 0.54797 24.6917 0.45156 24.2457C0.155768 22.8773 0 21.4569 0 20C0 8.95432 8.95431 0 20 0C20.1104 0 20.2206 0.000886893 20.3306 0.00267965ZM25.7661 0.843719C25.3355 0.714298 24.8776 0.908246 24.6528 1.29759L21.9585 5.96415C21.7799 6.27348 21.7799 6.65471 21.9585 6.9641L35.4592 30.348C35.822 30.9762 36.7094 31.0187 37.0871 30.3993C38.9352 27.3692 40 23.8089 40 20C40 10.9589 34.0009 3.31897 25.7661 0.843719ZM33.6191 34.6466C33.9499 34.3388 34.0128 33.8426 33.7868 33.4513L30.9282 28.5C30.7496 28.1906 30.4194 28 30.0622 28H3.19239C2.47142 28 1.99079 28.7391 2.32927 29.3757C5.68977 35.6963 12.3423 40 20 40C25.2615 40 30.0484 37.9683 33.6191 34.6466ZM19.0718 10.9641C19.4567 10.2974 20.4189 10.2974 20.8038 10.9641L28.0415 23.5C28.4264 24.1667 27.9452 25 27.1754 25H12.7002C11.9304 25 11.4493 24.1667 11.8342 23.5L19.0718 10.9641Z" fill="#0455A3"/>
<path id="Vector_2" d="M60.0495 21.5823H54.4698C54.1222 21.5823 53.8395 21.3021 53.8364 20.9545L53.8146 18.5596C53.8114 18.2075 54.096 17.9203 54.4481 17.9203H59.0207C59.9392 17.9203 60.6912 17.7959 61.2778 17.5471C61.8644 17.2863 62.3015 16.913 62.5891 16.4271C62.8881 15.9294 63.037 15.325 63.037 14.614C63.037 13.808 62.8932 13.1562 62.6056 12.6585C62.3294 12.1608 61.8923 11.7993 61.2942 11.5742C60.7083 11.349 59.95 11.2364 59.0207 11.2364H56.2017C55.8518 11.2364 55.5682 11.52 55.5682 11.8699V32.3079C55.5682 32.6578 55.2846 32.9414 54.9347 32.9414H51.2224C50.8725 32.9414 50.5889 32.6578 50.5889 32.3079V7.69244C50.5889 7.34257 50.8725 7.05896 51.2224 7.05896H59.0207C60.4257 7.05896 61.6819 7.20118 62.788 7.48561C63.9061 7.77005 64.8519 8.20259 65.6267 8.7833C66.4008 9.36396 66.9931 10.0987 67.4023 10.9876C67.8122 11.8645 68.0168 12.9074 68.0168 14.1162C68.0168 15.1828 67.79 16.1664 67.3358 17.0671C66.8936 17.9678 66.1911 18.7025 65.2282 19.2713C64.3261 19.8105 63.1611 20.1208 61.732 20.2021C61.5787 20.2109 61.4323 20.2718 61.3209 20.3775L60.0495 21.5823ZM59.8341 32.9414H53.4758C53.0123 32.9414 52.7058 32.4598 52.9018 32.0398L54.2523 29.1472C54.3564 28.9242 54.5803 28.7817 54.8263 28.7817H59.8341C60.7083 28.7817 61.4216 28.6335 61.9752 28.3373C62.5283 28.0291 62.9375 27.6144 63.2029 27.0929C63.469 26.5715 63.6014 25.973 63.6014 25.2975C63.6014 24.5391 63.4798 23.8813 63.2365 23.3244C63.004 22.7673 62.6277 22.3407 62.1076 22.0444C61.5876 21.7364 60.9015 21.5823 60.0495 21.5823H55.8921C55.54 21.5823 55.2554 21.2951 55.2587 20.943L55.2803 18.5481C55.2835 18.2004 55.5662 17.9203 55.9138 17.9203H60.956C61.1485 17.9203 61.331 18.0084 61.4514 18.1595L62.2122 19.1161C62.3351 19.27 62.5219 19.357 62.7183 19.3598C64.0467 19.378 65.1262 19.6566 65.9586 20.1957C66.8657 20.7645 67.5239 21.5053 67.9338 22.4177C68.3538 23.3303 68.5641 24.308 68.5641 25.3508C68.5641 27.01 68.2271 28.4084 67.5518 29.5461C66.8772 30.6719 65.8864 31.5193 64.5808 32.0881C63.2859 32.6569 61.7041 32.9414 59.8341 32.9414Z" fill="#0455A3"/>
<path id="Vector_3" d="M76.9601 7.05896C77.3098 7.05896 77.5936 7.34257 77.5936 7.69244V32.3079C77.5936 32.6578 77.3098 32.9414 76.9601 32.9414H73.2643C72.914 32.9414 72.6309 32.6578 72.6309 32.3079V7.69244C72.6309 7.34257 72.914 7.05896 73.2643 7.05896H76.9601Z" fill="#0455A3"/>
<path id="Vector_4" d="M91.9314 7.05896C92.2811 7.05896 92.5649 7.34257 92.5649 7.69244V32.3079C92.5649 32.6578 92.2811 32.9414 91.9314 32.9414H88.2356C87.8853 32.9414 87.6021 32.6578 87.6021 32.3079V7.69244C87.6021 7.34257 87.8853 7.05896 88.2356 7.05896H91.9314ZM99.3672 7.05896C99.7169 7.05896 100.001 7.34257 100.001 7.69244V10.6029C100.001 10.9528 99.7169 11.2364 99.3672 11.2364H80.9157C80.566 11.2364 80.2822 10.9528 80.2822 10.6029V7.69244C80.2822 7.34257 80.566 7.05896 80.9157 7.05896H99.3672Z" fill="#0455A3"/>
<path id="Vector_5" d="M117.982 17.6003C118.332 17.6003 118.615 17.884 118.615 18.2338V21.1266C118.615 21.4764 118.332 21.76 117.982 21.76H106.52C106.17 21.76 105.887 21.4764 105.887 21.1266V18.2338C105.887 17.884 106.17 17.6003 106.52 17.6003H117.982ZM106.744 7.05896C107.094 7.05896 107.377 7.34257 107.377 7.69244V32.3079C107.377 32.6578 107.094 32.9414 106.744 32.9414H102.986C102.636 32.9414 102.353 32.6578 102.353 32.3079V7.69244C102.353 7.34257 102.636 7.05896 102.986 7.05896H106.744ZM121.566 7.05896C121.916 7.05896 122.2 7.34257 122.2 7.69244V32.3079C122.2 32.6578 121.916 32.9414 121.566 32.9414H117.825C117.476 32.9414 117.192 32.6578 117.192 32.3079V7.69244C117.192 7.34257 117.476 7.05896 117.825 7.05896H121.566Z" fill="#9FCEFB"/>
<path id="Vector_6" d="M131.28 7.05896C131.631 7.05896 131.914 7.34257 131.914 7.69244V32.3079C131.914 32.6578 131.631 32.9414 131.28 32.9414H127.54C127.19 32.9414 126.906 32.6578 126.906 32.3079V7.69244C126.906 7.34257 127.19 7.05896 127.54 7.05896H131.28Z" fill="#9FCEFB"/>
<path id="Vector_7" d="M144.108 32.9414H139.437C139.085 32.9414 138.8 32.6546 138.803 32.3027L138.827 29.4101C138.829 29.0622 139.112 28.7817 139.46 28.7817H144.108C145.425 28.7817 146.536 28.4676 147.44 27.8395C148.345 27.1996 149.026 26.2693 149.484 25.0487C149.953 23.828 150.187 22.3525 150.187 20.6223V19.3602C150.187 18.0329 150.054 16.8656 149.786 15.8582C149.528 14.8509 149.143 14.0036 148.63 13.3163C148.116 12.6289 147.485 12.1134 146.737 11.7697C145.989 11.4142 145.129 11.2364 144.158 11.2364H139.331C138.981 11.2364 138.698 10.9528 138.698 10.6029V7.69244C138.698 7.34257 138.981 7.05896 139.331 7.05896H144.158C145.788 7.05896 147.279 7.35524 148.63 7.9478C149.992 8.52852 151.17 9.36396 152.164 10.4542C153.158 11.5445 153.922 12.8481 154.458 14.3651C155.005 15.8701 155.279 17.5471 155.279 19.3958V20.6223C155.279 22.4592 155.005 24.1361 154.458 25.6531C153.922 27.1699 153.158 28.4736 152.164 29.5638C151.181 30.6423 150.003 31.4778 148.63 32.0703C147.267 32.651 145.76 32.9414 144.108 32.9414ZM141.012 7.05896C141.362 7.05896 141.645 7.34257 141.645 7.69244V32.3079C141.645 32.6578 141.362 32.9414 141.012 32.9414H137.255C136.904 32.9414 136.621 32.6578 136.621 32.3079V7.69244C136.621 7.34257 136.904 7.05896 137.255 7.05896H141.012Z" fill="#9FCEFB"/>
<path id="Vector_8" d="M174.661 28.7817C175.01 28.7817 175.294 29.0653 175.294 29.4151V32.3079C175.294 32.6578 175.01 32.9414 174.661 32.9414H162.947C162.597 32.9414 162.313 32.6578 162.313 32.3079V29.4151C162.313 29.0653 162.597 28.7817 162.947 28.7817H174.661ZM163.321 7.05896C163.672 7.05896 163.955 7.34257 163.955 7.69244V32.3079C163.955 32.6578 163.672 32.9414 163.321 32.9414H159.564C159.214 32.9414 158.931 32.6578 158.931 32.3079V7.69244C158.931 7.34257 159.214 7.05896 159.564 7.05896H163.321ZM172.969 17.6003C173.319 17.6003 173.602 17.884 173.602 18.2338V21.0199C173.602 21.3698 173.319 21.6534 172.969 21.6534H162.947C162.597 21.6534 162.313 21.3698 162.313 21.0199V18.2338C162.313 17.884 162.597 17.6003 162.947 17.6003H172.969ZM174.644 7.05896C174.994 7.05896 175.277 7.34257 175.277 7.69244V10.6029C175.277 10.9528 174.994 11.2364 174.644 11.2364H162.947C162.597 11.2364 162.313 10.9528 162.313 10.6029V7.69244C162.313 7.34257 162.597 7.05896 162.947 7.05896H174.644Z" fill="#9FCEFB"/>
</g>
<defs>
<clipPath id="clip0_1_12421">
<rect width="176" height="40" fill="white"/>
</clipPath>
</defs>
</svg>
