<svg width="114" height="41" viewBox="0 0 114 41" fill="none" xmlns="http://www.w3.org/2000/svg">
<g id="utip-logo 1" clip-path="url(#clip0_10_17645)">
<g id="Clip path group">
<mask id="mask0_10_17645" style="mask-type:luminance" maskUnits="userSpaceOnUse" x="0" y="0" width="114" height="41">
<g id="clip0_804_15082">
<path id="Vector" d="M114 0H0V41H114V0Z" fill="white"/>
</g>
</mask>
<g mask="url(#mask0_10_17645)">
<g id="Group">
<path id="Vector_2" d="M3.55688 21.3617L8.11163 14.5126H13.591L9.27789 21.3617H3.55688Z" fill="#2CAAE2"/>
<path id="Vector_3" d="M21.6443 7.79477L12.54 22.0502H18.2611L27.5964 7.79477H21.6443Z" fill="#2CAAE2"/>
<path id="Vector_4" d="M12.54 22.0502H18.261L5.65797 40.4109H0L12.54 22.0502Z" fill="white"/>
<path id="Vector_5" d="M21.35 21.8402L27.5963 21.3618L18.0245 35.8223H11.9568L21.35 21.8402Z" fill="white"/>
<path id="Vector_6" d="M33.8951 3.31656H40.0417L27.5962 21.3618L21.3499 21.8402L33.8951 3.31656Z" fill="#2CAAE2"/>
<path id="Vector_7" d="M30.0814 22.0505L25.6475 28.8313H31.7941L36.3856 21.8403L30.0814 22.0505Z" fill="white"/>
<path id="Vector_8" d="M46.4982 11.1749H42.3847V0.141663H46.3406C48.6678 0.141663 49.8394 1.40845 49.8394 2.94332C49.8394 4.33627 48.9673 5.14576 47.9114 5.49267C49.1144 5.69767 50.0968 6.85408 50.0968 8.21549C50.0916 9.87652 48.7782 11.1749 46.4982 11.1749ZM46.2145 1.32962H43.8242V4.90923H46.246C47.5909 4.90923 48.3684 4.24167 48.3684 3.12205C48.3631 2.02346 47.6224 1.32962 46.2145 1.32962ZM46.3248 6.0919H43.8242V9.9869H46.3721C47.7958 9.9869 48.6521 9.27203 48.6521 8.07357C48.6469 6.85408 47.7327 6.0919 46.3248 6.0919Z" fill="#2CAAE2"/>
<path id="Vector_9" d="M52.8918 1.31423V5.00423H56.9107V6.19216H52.8918V9.99255H57.3835V11.1805H51.4521V0.126282H57.3835V1.31423H52.8918Z" fill="#2CAAE2"/>
<path id="Vector_10" d="M58.618 8.23154H60.1521C60.2466 9.15141 60.898 10.066 62.432 10.066C63.8242 10.066 64.649 9.27231 64.649 8.23154C64.649 5.25641 58.6811 7.15397 58.6811 3.05397C58.6811 1.23526 60.1521 0 62.3375 0C64.4441 0 65.8205 1.1564 65.9939 2.83319H64.4126C64.318 2.08678 63.6193 1.25102 62.2744 1.23525C61.0872 1.20371 60.1521 1.81872 60.1521 3.00667C60.1521 5.85564 66.1042 4.08422 66.1042 8.16846C66.1042 9.73487 64.8224 11.2855 62.432 11.2855C60.2203 11.2908 58.6496 10.0555 58.618 8.23154Z" fill="#2CAAE2"/>
<path id="Vector_11" d="M74.3837 0.141663V1.31385H71.3787V11.1801H69.9393V1.31385H66.9185V0.141663H74.3837Z" fill="#2CAAE2"/>
<path id="Vector_12" d="M47.0183 25.9298H42.2534V14.8755H46.8082C49.1197 14.8755 50.4015 16.0793 50.4015 17.7245C50.4015 19.0702 49.5925 19.9112 48.5208 20.2581C49.7712 20.4789 50.6589 21.6353 50.6589 22.9336C50.6589 24.6945 49.3141 25.9298 47.0183 25.9298ZM46.4982 16.668H44.4704V19.4381H46.4982C47.5436 19.4381 48.1426 18.965 48.1426 18.0609C48.1426 17.1726 47.5436 16.668 46.4982 16.668ZM46.6558 21.1464H44.4704V24.1216H46.7031C47.7801 24.1216 48.4105 23.6012 48.4105 22.6655C48.4105 21.7141 47.7328 21.1464 46.6558 21.1464Z" fill="white"/>
<path id="Vector_13" d="M59.9314 18.2659C59.9314 19.6116 59.1854 20.973 57.415 21.4461L60.0575 25.9298H57.4938L55.0562 21.6248H54.0108V25.9298H51.7937V14.8755H55.9388C58.6023 14.8755 59.9314 16.4104 59.9314 18.2659ZM55.8652 16.7153H54.016V19.9638H55.8652C57.0998 19.9638 57.6514 19.312 57.6514 18.3185C57.6514 17.3303 57.0998 16.7153 55.8652 16.7153Z" fill="white"/>
<path id="Vector_14" d="M60.772 20.3686C60.772 17.0571 63.3199 14.718 66.4352 14.718C69.582 14.718 72.0827 17.0623 72.0827 20.3686C72.0827 23.6906 69.5663 26.035 66.4352 26.035C63.3199 26.0403 60.772 23.6959 60.772 20.3686ZM69.8079 20.3686C69.8079 18.1189 68.4315 16.7101 66.4352 16.7101C64.4231 16.7101 63.0467 18.1189 63.0467 20.3686C63.0467 22.6183 64.4231 24.0586 66.4352 24.0586C68.4315 24.0586 69.8079 22.6183 69.8079 20.3686Z" fill="white"/>
<path id="Vector_15" d="M82.0117 14.8756L77.457 20.3529L82.1431 25.9246H79.343L75.3241 20.9994V25.9246H73.1071V14.8704H75.3241V19.8272L79.343 14.8704H82.0117V14.8756Z" fill="white"/>
<path id="Vector_16" d="M85.1743 16.6678V19.438H88.8937V21.1936H85.1743V24.1214H89.3666V25.9244H82.9573V14.8596H89.3666V16.6626H85.1743V16.6678Z" fill="white"/>
<path id="Vector_17" d="M98.8805 18.2659C98.8805 19.6116 98.1345 20.973 96.3641 21.4461L99.0066 25.9298H96.4429L94.0053 21.6248H92.9599V25.9298H90.7429V14.8755H94.8879C97.5514 14.8755 98.8805 16.4104 98.8805 18.2659ZM94.8143 16.7153H92.9651V19.9638H94.8143C96.0489 19.9638 96.6005 19.312 96.6005 18.3185C96.6005 17.3303 96.0489 16.7153 94.8143 16.7153Z" fill="white"/>
<path id="Vector_18" d="M41.9697 37.4938H44.3443C44.4073 38.3821 44.9904 38.9656 46.0201 38.9656C47.0655 38.9656 47.6802 38.4136 47.6802 37.6199C47.6802 35.2282 41.9854 36.6685 42.0012 32.6631C42.0012 30.6709 43.614 29.4672 45.894 29.4672C48.1582 29.4672 49.708 30.6236 49.8498 32.6158H47.4122C47.365 31.8852 46.7818 31.3175 45.831 31.3017C44.9589 31.2702 44.3127 31.6959 44.3127 32.6C44.3127 34.8182 49.9759 33.583 49.9759 37.478C49.9759 39.2179 48.5838 40.7895 46.0674 40.7895C43.7769 40.7895 42.0012 39.5858 41.9697 37.4938Z" fill="white"/>
<path id="Vector_19" d="M50.722 35.1235C50.722 31.812 53.2701 29.4729 56.3854 29.4729C59.5322 29.4729 62.0328 31.8172 62.0328 35.1235C62.0328 38.4508 59.5164 40.7899 56.3854 40.7899C53.2701 40.7899 50.722 38.4455 50.722 35.1235ZM59.7581 35.1235C59.7581 32.8737 58.3817 31.465 56.3854 31.465C54.3733 31.465 52.9969 32.8737 52.9969 35.1235C52.9969 37.3732 54.3733 38.8135 56.3854 38.8135C58.3817 38.8082 59.7581 37.368 59.7581 35.1235Z" fill="white"/>
<path id="Vector_20" d="M65.269 38.9238H68.9096V40.6794H63.0573V29.6304H65.2742V38.9238H65.269Z" fill="white"/>
<path id="Vector_21" d="M71.8673 29.6253V36.4639C71.8673 37.983 72.6921 38.7767 74.1 38.7767C75.5237 38.7767 76.3485 37.983 76.3485 36.4639V29.6253H78.5812V36.4482C78.5812 39.3602 76.4903 40.7847 74.0737 40.7847C71.6571 40.7847 69.6608 39.3602 69.6608 36.4482V29.6253H71.8673Z" fill="white"/>
<path id="Vector_22" d="M87.5961 29.6253V31.4125H84.6542V40.6743H82.4372V31.4125H79.4953V29.6253H87.5961Z" fill="white"/>
<path id="Vector_23" d="M90.7955 29.6253V40.6743H88.5786V29.6253H90.7955Z" fill="white"/>
<path id="Vector_24" d="M91.8094 35.1235C91.8094 31.812 94.3573 29.4729 97.4726 29.4729C100.619 29.4729 103.12 31.8172 103.12 35.1235C103.12 38.4508 100.604 40.7899 97.4726 40.7899C94.3521 40.7899 91.8094 38.4455 91.8094 35.1235ZM100.84 35.1235C100.84 32.8737 99.4637 31.465 97.4674 31.465C95.4553 31.465 94.0789 32.8737 94.0789 35.1235C94.0789 37.3732 95.4553 38.8135 97.4674 38.8135C99.4637 38.8082 100.84 37.368 100.84 35.1235Z" fill="white"/>
<path id="Vector_25" d="M113.58 40.6793H111.363L106.346 33.0943V40.6793H104.129V29.6145H106.346L111.363 37.2153V29.6145H113.58V40.6793Z" fill="white"/>
</g>
</g>
</g>
</g>
<defs>
<clipPath id="clip0_10_17645">
<rect width="114" height="41" fill="white"/>
</clipPath>
</defs>
</svg>
