<svg width="49" height="48" viewBox="0 0 49 48" fill="none" xmlns="http://www.w3.org/2000/svg">
<g clip-path="url(#clip0_230_953)">
<path fill-rule="evenodd" clip-rule="evenodd" d="M45.0414 45.666C44.7431 45.666 44.457 45.5475 44.246 45.3365C44.0351 45.1256 43.9166 44.8395 43.9166 44.5412V4.6115H5.08354V44.5412C5.08354 44.8395 4.96504 45.1256 4.7541 45.3365C4.54317 45.5475 4.25708 45.666 3.95876 45.666C3.66045 45.666 3.37436 45.5475 3.16342 45.3365C2.95249 45.1256 2.83398 44.8395 2.83398 44.5412V3.48672C2.83398 3.33901 2.86308 3.19275 2.9196 3.05628C2.97613 2.91982 3.05898 2.79582 3.16342 2.69138C3.37436 2.48044 3.66045 2.36194 3.95876 2.36194H45.0414C45.1891 2.36194 45.3353 2.39103 45.4718 2.44756C45.6083 2.50408 45.7323 2.58693 45.8367 2.69138C45.9412 2.79582 46.024 2.91982 46.0805 3.05628C46.1371 3.19275 46.1661 3.33901 46.1661 3.48672V44.5412C46.1661 44.8395 46.0476 45.1256 45.8367 45.3365C45.6258 45.5475 45.3397 45.666 45.0414 45.666Z" fill="#12475F"/>
<path fill-rule="evenodd" clip-rule="evenodd" d="M10.7918 18.2776C8.70023 18.2633 6.69715 17.4318 5.21029 15.9607C3.72343 14.4896 2.87063 12.4955 2.83398 10.4042V3.45864C2.83398 3.16033 2.95249 2.87424 3.16342 2.6633C3.37436 2.45237 3.66045 2.33386 3.95876 2.33386H17.653C17.9513 2.33386 18.2374 2.45237 18.4483 2.6633C18.6592 2.87424 18.7777 3.16033 18.7777 3.45864V10.3198C18.7703 12.4329 17.9256 14.457 16.4288 15.9485C14.9319 17.4401 12.9049 18.2776 10.7918 18.2776ZM5.08354 4.58342V10.4042C5.08354 13.4973 7.67054 16.0281 10.7918 16.0281C12.3083 16.0281 13.7632 15.4276 14.8381 14.3579C15.9131 13.2882 16.5207 11.8363 16.5282 10.3198V4.58342H5.08354Z" fill="#12475F"/>
<path fill-rule="evenodd" clip-rule="evenodd" d="M24.4861 18.2776C22.3779 18.2702 20.3581 17.4294 18.8673 15.9386C17.3765 14.4479 16.5357 12.4281 16.5283 10.3198V3.45864C16.5283 3.16033 16.6468 2.87424 16.8578 2.6633C17.0687 2.45237 17.3548 2.33386 17.6531 2.33386H31.3473C31.6456 2.33386 31.9317 2.45237 32.1426 2.6633C32.3536 2.87424 32.4721 3.16033 32.4721 3.45864V10.3198C32.4646 12.4329 31.62 14.457 30.1231 15.9485C28.6263 17.4401 26.5993 18.2776 24.4861 18.2776ZM18.7779 4.58342V10.3198C18.8795 11.7681 19.5265 13.1241 20.5884 14.1142C21.6504 15.1042 23.0483 15.6548 24.5002 15.6548C25.9521 15.6548 27.35 15.1042 28.4119 14.1142C29.4739 13.1241 30.1209 11.7681 30.2225 10.3198V4.58342H18.7779Z" fill="#12475F"/>
<path fill-rule="evenodd" clip-rule="evenodd" d="M38.1802 18.2776C36.0719 18.2702 34.0521 17.4294 32.5614 15.9386C31.0706 14.4479 30.2298 12.4281 30.2224 10.3198V3.45864C30.2224 3.16033 30.3409 2.87424 30.5518 2.6633C30.7628 2.45237 31.0489 2.33386 31.3472 2.33386H45.0414C45.3397 2.33386 45.6258 2.45237 45.8367 2.6633C46.0476 2.87424 46.1661 3.16033 46.1661 3.45864V10.4042C46.1368 12.5004 45.2872 14.5016 43.7995 15.9787C42.3119 17.4559 40.3047 18.2912 38.2083 18.3057L38.1802 18.2776ZM32.5001 4.58342V10.3198C32.5943 11.7688 33.2346 13.1282 34.2917 14.1237C35.3488 15.1192 36.7441 15.6767 38.1962 15.6838C39.6482 15.691 41.049 15.1472 42.1158 14.1621C43.1827 13.1771 43.8362 11.8241 43.9447 10.376V4.58342H32.5001ZM10.7918 45.666H3.95876C3.66045 45.666 3.37436 45.5475 3.16342 45.3366C2.95249 45.1256 2.83398 44.8396 2.83398 44.5412C2.83398 44.2429 2.95249 43.9568 3.16342 43.7459C3.37436 43.535 3.66045 43.4165 3.95876 43.4165H9.66702V17.1528C9.66702 16.8545 9.78553 16.5684 9.99646 16.3575C10.2074 16.1466 10.4935 16.0281 10.7918 16.0281C11.0901 16.0281 11.3762 16.1466 11.5871 16.3575C11.7981 16.5684 11.9166 16.8545 11.9166 17.1528V44.5412C11.9166 44.8396 11.7981 45.1256 11.5871 45.3366C11.3762 45.5475 11.0901 45.666 10.7918 45.666Z" fill="#12475F"/>
<path fill-rule="evenodd" clip-rule="evenodd" d="M47.3469 45.666H1.59646C1.29815 45.666 1.01206 45.5475 0.80112 45.3366C0.590183 45.1257 0.47168 44.8396 0.47168 44.5413C0.47168 44.243 0.590183 43.9569 0.80112 43.7459C1.01206 43.535 1.29815 43.4165 1.59646 43.4165H47.3469C47.6452 43.4165 47.9313 43.535 48.1422 43.7459C48.3532 43.9569 48.4717 44.243 48.4717 44.5413C48.4717 44.8396 48.3532 45.1257 48.1422 45.3366C47.9313 45.5475 47.6452 45.666 47.3469 45.666ZM31.8249 33.6028H17.0903C16.792 33.6028 16.5059 33.4843 16.295 33.2733C16.084 33.0624 15.9655 32.7763 15.9655 32.478C15.9655 32.1797 16.084 31.8936 16.295 31.6827C16.5059 31.4717 16.792 31.3532 17.0903 31.3532H31.7968C32.0951 31.3532 32.3812 31.4717 32.5922 31.6827C32.8031 31.8936 32.9216 32.1797 32.9216 32.478C32.9216 32.7763 32.8031 33.0624 32.5922 33.2733C32.3812 33.4843 32.1232 33.6028 31.8249 33.6028ZM31.8249 30.3128H17.0903C16.792 30.3128 16.5059 30.1943 16.295 29.9834C16.084 29.7724 15.9655 29.4863 15.9655 29.188C15.9655 28.8897 16.084 28.6036 16.295 28.3927C16.5059 28.1817 16.792 28.0632 17.0903 28.0632H31.7968C32.0951 28.0632 32.3812 28.1817 32.5922 28.3927C32.8031 28.6036 32.9216 28.8897 32.9216 29.188C32.9216 29.4863 32.8031 29.7724 32.5922 29.9834C32.3812 30.1943 32.1232 30.3128 31.8249 30.3128Z" fill="#12475F"/>
<path fill-rule="evenodd" clip-rule="evenodd" d="M33.1746 37.0334H15.7687C15.4844 37.0342 15.2104 36.9273 15.0017 36.7343C14.7931 36.5413 14.6652 36.2764 14.6439 35.993C14.6371 35.9458 14.6134 35.9027 14.5772 35.8716C14.541 35.8406 14.4947 35.8238 14.447 35.8243C14.1487 35.8243 13.8626 35.7058 13.6517 35.4948C13.4408 35.2839 13.3223 34.9978 13.3223 34.6995V27.0791C13.3223 26.7808 13.4408 26.4947 13.6517 26.2837C13.8626 26.0728 14.1487 25.9543 14.447 25.9543C14.4752 25.9584 14.5038 25.9563 14.531 25.9482C14.5583 25.9402 14.5834 25.9263 14.6048 25.9076C14.6262 25.8889 14.6432 25.8658 14.6548 25.8399C14.6664 25.814 14.6723 25.7859 14.672 25.7575C14.672 25.4592 14.7905 25.1731 15.0014 24.9621C15.2124 24.7512 15.4985 24.6327 15.7968 24.6327H33.1746C33.4729 24.6327 33.759 24.7512 33.97 24.9621C34.1809 25.1731 34.2994 25.4592 34.2994 25.7575C34.2994 25.8699 34.3838 25.9543 34.4963 25.9543C34.7946 25.9543 35.0807 26.0728 35.2916 26.2837C35.5025 26.4947 35.621 26.7808 35.621 27.0791V34.6714C35.621 34.9697 35.5025 35.2558 35.2916 35.4667C35.0807 35.6776 34.7946 35.7961 34.4963 35.7961C34.444 35.7961 34.394 35.8169 34.3571 35.8538C34.3202 35.8907 34.2994 35.9408 34.2994 35.993C34.2781 36.2764 34.1502 36.5413 33.9416 36.7343C33.7329 36.9273 33.4589 37.0342 33.1746 37.0334ZM16.5841 34.7838H32.3592C32.5981 34.3748 32.9495 34.043 33.3715 33.8278V27.9227C32.9063 27.6987 32.5229 27.335 32.2748 26.8823H16.6404C16.3997 27.3307 16.0265 27.694 15.5718 27.9227V33.8278C15.9936 34.0527 16.3592 34.3902 16.5841 34.7838Z" fill="#12475F"/>
<path fill-rule="evenodd" clip-rule="evenodd" d="M16.5846 34.7838H32.3596C32.5986 34.3748 32.9499 34.0429 33.3719 33.8277V27.9226C32.9068 27.6987 32.5233 27.3349 32.2753 26.8822H16.6408C16.4001 27.3306 16.027 27.694 15.5723 27.9226V33.8277C15.9941 34.0527 16.3596 34.3901 16.5846 34.7838ZM31.8253 33.6028H17.0907C16.7924 33.6028 16.5063 33.4843 16.2954 33.2733C16.0844 33.0624 15.9659 32.7763 15.9659 32.478C15.9659 32.1797 16.0844 31.8936 16.2954 31.6826C16.5063 31.4717 16.7924 31.3532 17.0907 31.3532H31.7972C32.0955 31.3532 32.3816 31.4717 32.5926 31.6826C32.8035 31.8936 32.922 32.1797 32.922 32.478C32.922 32.7763 32.8035 33.0624 32.5926 33.2733C32.3816 33.4843 32.1236 33.6028 31.8253 33.6028ZM31.8253 30.3128H17.0907C16.7924 30.3128 16.5063 30.1943 16.2954 29.9833C16.0844 29.7724 15.9659 29.4863 15.9659 29.188C15.9659 28.8897 16.0844 28.6036 16.2954 28.3927C16.5063 28.1817 16.7924 28.0632 17.0907 28.0632H31.7972C32.0955 28.0632 32.3816 28.1817 32.5926 28.3927C32.8035 28.6036 32.922 28.8897 32.922 29.188C32.922 29.4863 32.8035 29.7724 32.5926 29.9833C32.3816 30.1943 32.1236 30.3128 31.8253 30.3128Z" fill="white"/>
<path fill-rule="evenodd" clip-rule="evenodd" d="M11.916 18.2213V43.4164H37.083V18.2213C35.9019 18.0529 34.7736 17.6219 33.7809 16.9601C32.7882 16.2983 31.9564 15.4225 31.3466 14.3971C30.637 15.5793 29.6334 16.5576 28.4335 17.2368C27.2336 17.916 25.8783 18.273 24.4995 18.273C23.1207 18.273 21.7654 17.916 20.5655 17.2368C19.3656 16.5576 18.362 15.5793 17.6524 14.3971C17.0427 15.4225 16.2109 16.2983 15.2182 16.9601C14.2255 17.6219 13.0971 18.0529 11.916 18.2213ZM33.1744 37.0614H15.7684C15.4796 37.0618 15.2017 36.951 14.9923 36.7521C14.7829 36.5532 14.6581 36.2813 14.6436 35.9929C14.6368 35.9457 14.6131 35.9026 14.5769 35.8715C14.5407 35.8405 14.4945 35.8237 14.4468 35.8242C14.1485 35.8242 13.8624 35.7057 13.6515 35.4947C13.4405 35.2838 13.322 34.9977 13.322 34.6994V27.079C13.322 26.7807 13.4405 26.4946 13.6515 26.2837C13.8624 26.0727 14.1485 25.9542 14.4468 25.9542C14.4749 25.9583 14.5036 25.9562 14.5308 25.9481C14.558 25.9401 14.5832 25.9262 14.6046 25.9075C14.6259 25.8888 14.643 25.8657 14.6546 25.8398C14.6662 25.8139 14.6721 25.7858 14.6718 25.7574C14.6718 25.4591 14.7903 25.173 15.0012 24.962C15.2121 24.7511 15.4982 24.6326 15.7965 24.6326H33.1744C33.4727 24.6326 33.7588 24.7511 33.9697 24.962C34.1807 25.173 34.2992 25.4591 34.2992 25.7574C34.2992 25.8699 34.3835 25.9542 34.496 25.9542C34.7943 25.9542 35.0804 26.0727 35.2914 26.2837C35.5023 26.4946 35.6208 26.7807 35.6208 27.079V34.6713C35.6208 34.9696 35.5023 35.2557 35.2914 35.4666C35.0804 35.6775 34.7943 35.796 34.496 35.796C34.4438 35.796 34.3937 35.8168 34.3568 35.8537C34.3199 35.8906 34.2992 35.9407 34.2992 35.9929C34.2779 36.2763 34.15 36.5412 33.9413 36.7342C33.7327 36.9272 33.4586 37.0622 33.1744 37.0614ZM39.3045 18.2213V43.4164H43.916V15.8593C42.6927 17.1335 41.0802 17.9645 39.3326 18.2213H39.3045ZM5.08301 15.8593V43.4164H9.66649V18.2213C7.91951 17.9625 6.30763 17.1318 5.08301 15.8593Z" fill="#2CAAE2"/>
<path fill-rule="evenodd" clip-rule="evenodd" d="M5.08301 10.4041C5.08301 13.4973 7.67 16.028 10.7913 16.028C13.9407 16.028 16.5276 13.4973 16.5276 10.3479V4.58337H5.08301V10.4041ZM32.4714 10.3198C32.5656 11.7688 33.2059 13.1281 34.263 14.1236C35.3201 15.1191 36.7155 15.6767 38.1675 15.6838C39.6196 15.6909 41.0203 15.1471 42.0871 14.1621C43.154 13.177 43.8076 11.824 43.916 10.376V4.58337H32.4714V10.3198ZM18.7772 10.3198C18.8788 11.7681 19.5258 13.124 20.5878 14.1141C21.6497 15.1042 23.0476 15.6548 24.4995 15.6548C25.9514 15.6548 27.3493 15.1042 28.4113 14.1141C29.4732 13.124 30.1203 11.7681 30.2218 10.3198V4.58337H18.7772V10.3198Z" fill="white"/>
<path fill-rule="evenodd" clip-rule="evenodd" d="M45.0408 45.666H38.2078C37.9095 45.666 37.6234 45.5475 37.4124 45.3366C37.2015 45.1257 37.083 44.8396 37.083 44.5413V17.1529C37.083 16.8545 37.2015 16.5685 37.4124 16.3575C37.6234 16.1466 37.9095 16.0281 38.2078 16.0281C38.5061 16.0281 38.7922 16.1466 39.0031 16.3575C39.2141 16.5685 39.3326 16.8545 39.3326 17.1529V43.4165H45.0408C45.3391 43.4165 45.6252 43.535 45.8362 43.7459C46.0471 43.9569 46.1656 44.2429 46.1656 44.5413C46.1656 44.8396 46.0471 45.1257 45.8362 45.3366C45.6252 45.5475 45.3391 45.666 45.0408 45.666Z" fill="#12475F"/>
</g>
<defs>
<clipPath id="clip0_230_953">
<rect width="48" height="48" fill="white" transform="translate(0.5)"/>
</clipPath>
</defs>
</svg>
