<svg width="48" height="48" viewBox="0 0 48 48" fill="none" xmlns="http://www.w3.org/2000/svg">
<g clip-path="url(#clip0_230_922)">
<path d="M32.0455 44.2285L30.6801 42.6377H17.3935L15.9537 44.2285L13.3076 47.2972H34.6916L32.0455 44.2285Z" fill="#EFEDEF"/>
<path d="M24.4958 42.6377H17.3935L15.9537 44.2285L13.3076 47.2972H20.41L23.0561 44.2285L24.4958 42.6377Z" fill="#E5E1E5"/>
<path d="M15.9541 33.7333H32.046V44.2286H15.9541V33.7333Z" fill="#C9BFC8"/>
<path d="M32.046 33.7333H15.9541V44.2286H23.0373V43.876C23.0373 42.8588 23.8619 42.0341 24.8791 42.0341H32.046V33.7333Z" fill="#BAAFB9"/>
<path d="M45.4206 37.8088L47.2113 35.9259V11.1716C47.2113 9.09238 45.5256 7.40674 43.4464 7.40674H4.55389C2.47471 7.40674 0.789062 9.09238 0.789062 11.1716V35.9259L4.057 37.8088H45.4206Z" fill="#72C6EC"/>
<path d="M16.4044 35.9259V11.1716C16.4044 9.09238 18.09 7.40674 20.1692 7.40674H4.55389C2.47471 7.40674 0.789062 9.09238 0.789062 11.1716V35.9259L4.057 37.8088H16.9091C16.5778 37.2366 16.4036 36.587 16.4044 35.9259Z" fill="#2CAAE2"/>
<path d="M0.789062 35.9258H47.2113C47.2113 38.006 45.5256 39.6916 43.4464 39.6916H4.55389C2.47471 39.6916 0.789062 38.006 0.789062 35.9258Z" fill="#EFEDEF"/>
<path d="M16.4044 35.9258H0.789062C0.789062 38.006 2.47471 39.6916 4.55389 39.6916H20.1689C18.0898 39.6914 16.4044 38.0059 16.4044 35.9258Z" fill="#E5E1E5"/>
<path d="M35.3813 21.3263H32.9209C32.7531 21.3263 32.5921 21.2596 32.4734 21.1409C32.3548 21.0222 32.2881 20.8613 32.2881 20.6934V12.4204C32.2881 12.2525 32.3548 12.0916 32.4734 11.9729C32.5921 11.8542 32.7531 11.7875 32.9209 11.7875H35.3813C35.5491 11.7875 35.7101 11.8542 35.8288 11.9729C35.9474 12.0916 36.0141 12.2525 36.0141 12.4204V20.6934C36.0141 20.8613 35.9474 21.0222 35.8288 21.1409C35.7101 21.2596 35.5491 21.3263 35.3813 21.3263Z" fill="#EB5569"/>
<path d="M27.0932 18.3313H24.6328C24.5497 18.3313 24.4674 18.315 24.3907 18.2832C24.3139 18.2514 24.2441 18.2048 24.1854 18.146C24.1266 18.0872 24.08 18.0175 24.0482 17.9407C24.0164 17.8639 24 17.7816 24 17.6985V4.8342C24 4.75109 24.0164 4.6688 24.0482 4.59202C24.08 4.51524 24.1266 4.44548 24.1854 4.38671C24.2441 4.32795 24.3139 4.28133 24.3907 4.24953C24.4674 4.21772 24.5497 4.20135 24.6328 4.20135H27.0932C27.261 4.20135 27.422 4.26803 27.5407 4.38671C27.6594 4.50539 27.726 4.66636 27.726 4.8342V17.6985C27.726 17.8663 27.6594 18.0273 27.5407 18.146C27.422 18.2647 27.261 18.3313 27.0932 18.3313Z" fill="#6CF5C2"/>
<path d="M18.8051 19.722H16.3448C16.1769 19.722 16.016 19.6553 15.8973 19.5366C15.7786 19.4179 15.7119 19.257 15.7119 19.0891V10.8161C15.7119 10.6482 15.7786 10.4873 15.8973 10.3686C16.016 10.2499 16.1769 10.1832 16.3448 10.1832H18.8051C18.9729 10.1832 19.1339 10.2499 19.2526 10.3686C19.3713 10.4873 19.4379 10.6482 19.4379 10.8161V19.0891C19.438 19.1722 19.4216 19.2545 19.3898 19.3313C19.358 19.4081 19.3114 19.4779 19.2526 19.5366C19.1939 19.5954 19.1241 19.642 19.0473 19.6738C18.9705 19.7056 18.8882 19.722 18.8051 19.722Z" fill="#EB5569"/>
<path d="M10.518 23.5488H8.05765C7.88981 23.5488 7.72884 23.4821 7.61016 23.3635C7.49148 23.2448 7.4248 23.0838 7.4248 22.916V14.6429C7.4248 14.4751 7.49148 14.3141 7.61016 14.1954C7.72884 14.0767 7.88981 14.0101 8.05765 14.0101H10.518C10.6858 14.0101 10.8468 14.0767 10.9655 14.1954C11.0842 14.3141 11.1508 14.4751 11.1508 14.6429V22.916C11.1508 22.9991 11.1345 23.0814 11.1027 23.1582C11.0709 23.2349 11.0243 23.3047 10.9655 23.3635C10.9067 23.4222 10.837 23.4689 10.7602 23.5007C10.6834 23.5325 10.6011 23.5488 10.518 23.5488Z" fill="#6CF5C2"/>
<path d="M43.4462 6.70341H34.8535V3.88298C34.8535 3.49488 34.5389 3.18024 34.1507 3.18024C33.7626 3.18024 33.448 3.49488 33.448 3.88298V6.70341H30.5371C30.1489 6.70341 29.8343 7.01805 29.8343 7.40615C29.8343 7.79425 30.1489 8.10889 30.5371 8.10889H33.448V11.0846H32.9206C32.1841 11.0846 31.5849 11.6838 31.5849 12.4202V20.6932C31.5849 21.4297 32.1841 22.0288 32.9206 22.0288H33.448V27.604C33.448 27.9921 33.7626 28.3067 34.1507 28.3067C34.5389 28.3067 34.8535 27.9921 34.8535 27.604V22.0288H35.3809C36.1173 22.0288 36.7165 21.4296 36.7165 20.6932V12.4202C36.7165 11.6837 36.1173 11.0846 35.3809 11.0846H34.8535V8.10889H43.4462C45.1347 8.10889 46.5086 9.48271 46.5086 11.1714V35.2234H1.49142V11.1714C1.49142 9.4828 2.86524 8.10899 4.55388 8.10899H16.8727V9.48046H16.3452C15.6088 9.48046 15.0096 10.0797 15.0096 10.816V19.0891C15.0096 19.8256 15.6089 20.4247 16.3452 20.4247H16.8727V26.6344C16.8727 26.8208 16.9467 26.9995 17.0785 27.1313C17.2103 27.2631 17.389 27.3371 17.5754 27.3371C17.7618 27.3371 17.9405 27.2631 18.0723 27.1313C18.2041 26.9995 18.2781 26.8208 18.2781 26.6344V20.4247H18.8056C19.5421 20.4247 20.1412 19.8255 20.1412 19.0891V10.816C20.1412 10.0796 19.542 9.48046 18.8056 9.48046H18.2781V8.10889H21.1891C21.3755 8.10889 21.5542 8.03486 21.686 7.90307C21.8178 7.77128 21.8918 7.59253 21.8918 7.40615C21.8918 7.21977 21.8178 7.04103 21.686 6.90924C21.5542 6.77745 21.3755 6.70341 21.1891 6.70341H18.2781V6.35635C18.2781 6.16997 18.2041 5.99123 18.0723 5.85944C17.9405 5.72765 17.7618 5.65361 17.5754 5.65361C17.389 5.65361 17.2103 5.72765 17.0785 5.85944C16.9467 5.99123 16.8727 6.16997 16.8727 6.35635V6.70341H4.55388C2.09025 6.70341 0.0859375 8.70773 0.0859375 11.1714V35.9261C0.0859375 38.3898 2.09025 40.3941 4.55388 40.3941H15.2514V43.9672L12.9864 46.5945H12.0874C11.901 46.5945 11.7222 46.6686 11.5905 46.8004C11.4587 46.9321 11.3846 47.1109 11.3846 47.2973C11.3846 47.4836 11.4587 47.6624 11.5905 47.7942C11.7222 47.926 11.901 48 12.0874 48H35.8478C36.236 48 36.5506 47.6854 36.5506 47.2973C36.5506 46.9092 36.236 46.5945 35.8478 46.5945H35.0135L32.7485 43.9672V40.3941H43.4462C45.9098 40.3941 47.9141 38.3898 47.9141 35.9261V11.1714C47.9141 8.70782 45.9098 6.70341 43.4462 6.70341ZM35.311 20.6235H32.9905V12.4902H35.3111V20.6235H35.311ZM18.7357 19.0192H16.415V10.8859H18.7357V19.0192ZM43.4462 38.9886H29.2235C28.8353 38.9886 28.5208 39.3032 28.5208 39.6913C28.5208 40.0794 28.8353 40.3941 29.2235 40.3941H31.3431V43.5256H29.5926C29.2044 43.5256 28.8898 43.8402 28.8898 44.2283C28.8898 44.6164 29.2044 44.9311 29.5926 44.9311H31.7238L33.1578 46.5945H14.8421L16.2762 44.9311H18.4074C18.5937 44.9311 18.7725 44.857 18.9043 44.7253C19.0361 44.5935 19.1101 44.4147 19.1101 44.2283C19.1101 44.042 19.0361 43.8632 18.9043 43.7314C18.7725 43.5996 18.5937 43.5256 18.4074 43.5256H16.6569V40.3941H26.2286C26.6168 40.3941 26.9313 40.0794 26.9313 39.6913C26.9313 39.3032 26.6168 38.9886 26.2286 38.9886H4.55388C3.10707 38.9886 1.89227 37.9798 1.57369 36.6289H46.4263C46.1078 37.9798 44.893 38.9886 43.4462 38.9886Z" fill="#12475F"/>
<path d="M7.42471 20.5166C7.23834 20.5166 7.05959 20.5906 6.9278 20.7224C6.79601 20.8542 6.72197 21.033 6.72197 21.2193V22.9159C6.72197 23.6523 7.32108 24.2514 8.05756 24.2514H8.58499V27.9939C8.58499 28.1803 8.65903 28.359 8.79082 28.4908C8.92261 28.6226 9.10135 28.6966 9.28773 28.6966C9.47411 28.6966 9.65285 28.6226 9.78464 28.4908C9.91643 28.359 9.99047 28.1803 9.99047 27.9939V24.2514H10.5179C11.2544 24.2514 11.8535 23.6523 11.8535 22.9159V14.6428C11.8535 13.9063 11.2543 13.3071 10.5179 13.3071H9.99047V12.1831C9.99047 11.9967 9.91643 11.818 9.78464 11.6862C9.65285 11.5544 9.47411 11.4804 9.28773 11.4804C9.10135 11.4804 8.92261 11.5544 8.79082 11.6862C8.65903 11.818 8.58499 11.9967 8.58499 12.1831V13.3071H8.05756C7.32108 13.3071 6.72197 13.9063 6.72197 14.6428V18.2245C6.72197 18.4109 6.79601 18.5897 6.9278 18.7215C7.05959 18.8532 7.23834 18.9273 7.42471 18.9273C7.61109 18.9273 7.78984 18.8532 7.92163 18.7215C8.05342 18.5897 8.12746 18.4109 8.12746 18.2245V14.7127H10.4482V22.8461H8.12746V21.2194C8.12747 21.1271 8.1093 21.0358 8.07399 20.9505C8.03868 20.8652 7.98692 20.7877 7.92166 20.7225C7.85641 20.6572 7.77893 20.6054 7.69366 20.5701C7.6084 20.5348 7.51701 20.5166 7.42471 20.5166ZM24.6329 19.0341H25.1604V22.7764C25.1604 23.1645 25.475 23.4792 25.8632 23.4792C26.2514 23.4792 26.5659 23.1645 26.5659 22.7764V19.0341H27.0933C27.8297 19.0341 28.4289 18.4349 28.4289 17.6984V12.1864C28.4289 11.7983 28.1144 11.4836 27.7262 11.4836C27.338 11.4836 27.0234 11.7983 27.0234 12.1864V17.6286H24.7028V4.90402H27.0234V9.19158C27.0234 9.57969 27.338 9.89433 27.7262 9.89433C28.1144 9.89433 28.4289 9.57969 28.4289 9.19158V4.83412C28.4289 4.09774 27.8297 3.49853 27.0933 3.49853H26.5659V0.702742C26.5659 0.314641 26.2514 0 25.8632 0C25.475 0 25.1604 0.314641 25.1604 0.702742V3.49853H24.6329C23.8964 3.49853 23.2973 4.09774 23.2973 4.83412V17.6984C23.2973 18.435 23.8964 19.0341 24.6329 19.0341ZM38.2063 19.2661C38.2501 19.3473 38.3095 19.4192 38.381 19.4775C38.4526 19.5358 38.5349 19.5794 38.6233 19.6059C38.7117 19.6323 38.8045 19.6411 38.8963 19.6317C38.9881 19.6223 39.0772 19.5949 39.1584 19.5511L42.3954 17.8058L42.1626 18.4169C42.1297 18.5031 42.1142 18.595 42.1168 18.6873C42.1195 18.7795 42.1403 18.8703 42.178 18.9546C42.2158 19.0388 42.2697 19.1147 42.3368 19.1781C42.404 19.2414 42.4829 19.291 42.5691 19.3238C42.6554 19.3567 42.7472 19.3722 42.8395 19.3696C42.9317 19.3669 43.0226 19.3461 43.1068 19.3084C43.191 19.2706 43.267 19.2166 43.3303 19.1495C43.3937 19.0824 43.4432 19.0035 43.476 18.9173L44.2672 16.8403C44.3001 16.7541 44.3156 16.6622 44.313 16.57C44.3103 16.4777 44.2895 16.3869 44.2518 16.3027C44.214 16.2184 44.1601 16.1425 44.093 16.0791C44.0259 16.0158 43.9469 15.9663 43.8607 15.9334L41.6562 15.0936C41.4827 15.0301 41.2911 15.0375 41.123 15.1143C40.9549 15.191 40.8238 15.3308 40.758 15.5035C40.6922 15.6761 40.6971 15.8678 40.7716 16.0369C40.846 16.206 40.9841 16.339 41.1559 16.4071L41.667 16.6018L38.4914 18.314C38.3273 18.4025 38.2051 18.5525 38.1517 18.731C38.0982 18.9096 38.1179 19.102 38.2063 19.2661ZM4.2412 32.997C4.29534 33.1236 4.38545 33.2315 4.50035 33.3073C4.61525 33.3831 4.74988 33.4235 4.88753 33.4234C4.98251 33.4234 5.07649 33.404 5.16376 33.3666L14.2318 29.4857L15.0558 31.6448C15.0915 31.7381 15.1467 31.8229 15.2177 31.8932C15.2887 31.9636 15.3738 32.018 15.4676 32.0529C15.5613 32.0877 15.6613 32.1021 15.761 32.0952C15.8608 32.0883 15.9579 32.0602 16.0459 32.0127L31.0268 23.9354C31.1082 23.8917 31.1802 23.8324 31.2386 23.7608C31.2971 23.6892 31.3408 23.6069 31.3674 23.5184C31.394 23.4299 31.4028 23.3371 31.3935 23.2452C31.3841 23.1532 31.3567 23.0641 31.3129 22.9828C31.269 22.9014 31.2096 22.8296 31.1379 22.7713C31.0663 22.7129 30.9838 22.6693 30.8953 22.6429C30.8068 22.6165 30.7139 22.6078 30.622 22.6173C30.5301 22.6268 30.441 22.6543 30.3598 22.6983L16.0834 30.3957L15.2841 28.3012C15.2504 28.2128 15.1991 28.1321 15.1334 28.0639C15.0677 27.9958 14.9889 27.9416 14.9018 27.9047C14.8147 27.8678 14.721 27.8488 14.6263 27.849C14.5317 27.8492 14.438 27.8685 14.351 27.9057L4.61075 32.0744C4.43943 32.1478 4.30427 32.2862 4.23497 32.4592C4.16567 32.6322 4.16791 32.8257 4.2412 32.997Z" fill="#12475F"/>
</g>
<defs>
<clipPath id="clip0_230_922">
<rect width="48" height="48" fill="white"/>
</clipPath>
</defs>
</svg>
