<svg width="47" height="48" viewBox="0 0 47 48" fill="none" xmlns="http://www.w3.org/2000/svg">
<path fill-rule="evenodd" clip-rule="evenodd" d="M38.8564 2.89819C39.6245 3.08095 40.3585 3.38516 41.0307 3.79935L42.4436 3.17254L44.1083 4.83725L43.4815 6.25016C43.8957 6.92234 44.1999 7.65636 44.3827 8.42448L45.8243 8.97938V11.3346L44.3827 11.8895C44.1997 12.6572 43.8955 13.3909 43.4815 14.0628L44.1083 15.4757L42.4436 17.1415L41.0307 16.5136C40.3586 16.9282 39.6245 17.2327 38.8564 17.4159L38.3015 18.8565H35.9462L35.3914 17.4148C34.6236 17.2319 33.89 16.9277 33.218 16.5136L31.8051 17.1415L30.1394 15.4757L30.7672 14.0639C30.353 13.3915 30.0485 12.6576 29.865 11.8895L28.4243 11.3346V8.97938L29.865 8.42448C30.0481 7.65631 30.3527 6.9223 30.7672 6.25016L30.1394 4.83725L31.8051 3.17254L33.217 3.79935C33.8894 3.38549 34.6234 3.0813 35.3914 2.89819L35.9462 1.45654H38.3015L38.8564 2.89819Z" fill="#9ED8F2"/>
<path fill-rule="evenodd" clip-rule="evenodd" d="M41.9686 3.38322L42.4434 3.17254L44.1081 4.83725L43.4813 6.25016C43.8955 6.92234 44.1997 7.65636 44.3825 8.42448L45.8241 8.97938V11.3346L44.3825 11.8895C44.1995 12.6572 43.8953 13.3909 43.4813 14.0628L44.1081 15.4757L42.4434 17.1415L41.9686 16.9308L43.4237 15.4757L42.7959 14.0628C43.2099 13.3909 43.5141 12.6572 43.697 11.8895L45.1388 11.3346V8.97938L43.697 8.42448C43.5143 7.65636 43.2101 6.92234 42.7959 6.25016L43.4237 4.83725L41.9686 3.38322ZM31.5942 3.38322L31.8049 3.17254L33.2168 3.79935C33.117 3.85466 33.0186 3.91258 32.9219 3.97306L31.5942 3.38322ZM38.8562 2.89819C39.6243 3.08095 40.3583 3.38516 41.0305 3.79935L40.6411 3.97306C39.969 3.55896 38.9394 3.08109 38.1707 2.89819L37.6158 1.45654H38.3013L38.8562 2.89819ZM33.2178 16.5136L31.8049 17.1415L31.5942 16.9308L32.9219 16.341C33.0185 16.4006 33.1171 16.4581 33.2178 16.5136ZM41.0305 16.5136C40.3583 16.9282 39.6243 17.2327 38.8562 17.4159L38.3013 18.8565H37.6158L38.1707 17.4159C38.9394 17.233 39.969 16.7551 40.642 16.341L41.0305 16.5136Z" fill="#57BBE8"/>
<path fill-rule="evenodd" clip-rule="evenodd" d="M37.1238 6.04846C39.393 6.04846 41.2322 7.88775 41.2322 10.1569C41.2322 12.4252 39.393 14.2646 37.1238 14.2646C34.8555 14.2646 33.0161 12.4252 33.0161 10.1569C33.0161 7.88775 34.8555 6.04846 37.1238 6.04846Z" fill="#EAF7FC"/>
<path fill-rule="evenodd" clip-rule="evenodd" d="M37.1238 6.04846C37.2173 6.04846 37.3099 6.05175 37.4025 6.05843C35.2636 6.20117 33.572 7.98124 33.572 10.1569C33.572 12.3317 35.2636 14.1118 37.4025 14.2554C37.3097 14.2614 37.2168 14.2644 37.1238 14.2646C34.8555 14.2646 33.0161 12.4252 33.0161 10.1569C33.0161 7.88775 34.8555 6.04846 37.1238 6.04846Z" fill="#BEE5F6"/>
<path fill-rule="evenodd" clip-rule="evenodd" d="M15.3549 3.49292C15.7915 3.49292 16.1476 3.84905 16.1476 4.2856V18.8748C16.1476 19.3124 15.7915 19.6685 15.3549 19.6685H3.14482C2.7072 19.6685 2.35107 19.3124 2.35107 18.8748V4.2856C2.35107 3.84905 2.7072 3.49292 3.14482 3.49292H15.3549Z" fill="#EAF7FC"/>
<path fill-rule="evenodd" clip-rule="evenodd" d="M14.3872 3.49292H15.3549C15.7915 3.49292 16.1476 3.84905 16.1476 4.2856V18.8748C16.1476 19.3124 15.7915 19.6685 15.3549 19.6685H14.3872C14.8238 19.6685 15.1799 19.3124 15.1799 18.8748V4.2856C15.1799 3.84905 14.8238 3.49292 14.3872 3.49292Z" fill="#BEE5F6"/>
<path fill-rule="evenodd" clip-rule="evenodd" d="M5.57666 2.4982C5.57666 2.36987 5.62764 2.2468 5.71838 2.15605C5.80913 2.06531 5.9322 2.01433 6.06053 2.01433H7.67366C7.84456 1.30314 8.4853 0.77417 9.24924 0.77417C10.0132 0.77417 10.6539 1.30314 10.8261 2.01433H12.4379C12.5663 2.01433 12.6894 2.06531 12.7801 2.15605C12.8708 2.2468 12.9218 2.36987 12.9218 2.4982V4.49456H6.06053C5.9322 4.49456 5.80913 4.44358 5.71838 4.35283C5.62764 4.26209 5.57666 4.13902 5.57666 4.01069V2.4982Z" fill="#299BCE"/>
<path fill-rule="evenodd" clip-rule="evenodd" d="M11.9771 2.0144H12.4383C12.5666 2.0144 12.6897 2.06538 12.7804 2.15613C12.8712 2.24687 12.9221 2.36994 12.9221 2.49828V4.49463H12.4609V2.49828C12.4609 2.36994 12.4099 2.24687 12.3192 2.15613C12.2285 2.06538 12.1054 2.0144 11.9771 2.0144Z" fill="#2079A0"/>
<path fill-rule="evenodd" clip-rule="evenodd" d="M8.3086 7.74005C8.30857 7.67359 8.28215 7.60986 8.23515 7.56288C8.18815 7.5159 8.12441 7.4895 8.05795 7.4895H5.82721C5.76076 7.4895 5.69703 7.5159 5.65004 7.56289C5.60306 7.60987 5.57666 7.6736 5.57666 7.74005V9.97089C5.57666 10.0373 5.60306 10.1011 5.65004 10.1481C5.69703 10.195 5.76076 10.2214 5.82721 10.2214H8.05795C8.12441 10.2214 8.18815 10.195 8.23515 10.1481C8.28215 10.1011 8.30857 10.0373 8.3086 9.97089V7.74005Z" fill="#9ED8F2"/>
<path fill-rule="evenodd" clip-rule="evenodd" d="M7.67871 10.2214C7.74517 10.2214 7.80891 10.195 7.85591 10.1481C7.90291 10.1011 7.92933 10.0373 7.92936 9.97089V7.74005C7.92933 7.67359 7.90291 7.60986 7.85591 7.56288C7.80891 7.5159 7.74517 7.4895 7.67871 7.4895H8.05816C8.12462 7.4895 8.18836 7.5159 8.23536 7.56288C8.28236 7.60986 8.30878 7.67359 8.30881 7.74005V9.97089C8.30878 10.0373 8.28236 10.1011 8.23536 10.1481C8.18836 10.195 8.12462 10.2214 8.05816 10.2214H7.67871Z" fill="#2DAAE2"/>
<path fill-rule="evenodd" clip-rule="evenodd" d="M8.3086 14.119C8.30857 14.0525 8.28215 13.9888 8.23515 13.9418C8.18815 13.8948 8.12441 13.8684 8.05795 13.8684H5.82721C5.76076 13.8684 5.69703 13.8948 5.65004 13.9418C5.60306 13.9888 5.57666 14.0525 5.57666 14.119V16.3497C5.57666 16.4162 5.60305 16.4799 5.65004 16.5269C5.69702 16.5739 5.76075 16.6003 5.82721 16.6003H8.05795C8.12443 16.6003 8.18818 16.5739 8.23518 16.5269C8.28219 16.4799 8.3086 16.4162 8.3086 16.3497V14.119Z" fill="#9ED8F2"/>
<path fill-rule="evenodd" clip-rule="evenodd" d="M7.74316 16.6002C7.80962 16.6002 7.87335 16.5738 7.92033 16.5268C7.96732 16.4798 7.99371 16.416 7.99371 16.3496V14.1188C7.99371 14.0524 7.96732 13.9887 7.92033 13.9417C7.87334 13.8947 7.80961 13.8683 7.74316 13.8683H8.05816C8.12462 13.8683 8.18836 13.8947 8.23536 13.9417C8.28236 13.9886 8.30878 14.0524 8.30881 14.1188V16.3496C8.30881 16.4161 8.2824 16.4798 8.2354 16.5268C8.18839 16.5738 8.12464 16.6002 8.05816 16.6002H7.74316Z" fill="#57BBE8"/>
<path fill-rule="evenodd" clip-rule="evenodd" d="M37.1256 47.2258C41.9182 47.2258 45.8257 43.3185 45.8257 38.5257C45.8257 33.7331 41.9182 29.8231 37.1256 29.8231C32.3328 29.8231 28.4229 33.7331 28.4229 38.5257C28.4229 43.3185 32.3328 47.2258 37.1256 47.2258Z" fill="#72C6EC"/>
<path fill-rule="evenodd" clip-rule="evenodd" d="M36.6416 47.2124C41.2106 46.96 44.8578 43.156 44.8578 38.5256C44.8578 33.8953 41.2106 30.0888 36.6416 29.8364C36.8027 29.8274 36.9641 29.823 37.1255 29.823C41.9181 29.823 45.8256 33.733 45.8256 38.5256C45.8256 43.3184 41.9181 47.2257 37.1255 47.2257C36.9631 47.2257 36.8018 47.2213 36.6416 47.2124Z" fill="#2DAAE2"/>
<path fill-rule="evenodd" clip-rule="evenodd" d="M35.983 39.2918L40.2123 35.0183C40.7134 34.5146 41.5312 34.512 42.0349 35.0131C42.5386 35.5142 42.5412 36.3294 42.0401 36.8357C40.324 38.5673 38.6208 40.3095 36.8969 42.0334C36.3932 42.5371 35.5754 42.5371 35.0717 42.0334L32.2132 39.1723C31.7095 38.6687 31.7095 37.8534 32.2132 37.3471C32.7169 36.8435 33.5348 36.8435 34.0384 37.3471L35.983 39.2918Z" fill="#EAF7FC"/>
<path fill-rule="evenodd" clip-rule="evenodd" d="M9.71029 47.0675C14.4122 47.0675 18.2458 43.2319 18.2458 38.5321C18.2458 33.8302 14.4122 29.9966 9.71029 29.9966C5.01045 29.9966 1.1748 33.8302 1.1748 38.5321C1.1748 43.2319 5.01045 47.0675 9.71029 47.0675Z" fill="#2DAAE2"/>
<path fill-rule="evenodd" clip-rule="evenodd" d="M9.22607 47.0539C13.7042 46.8015 17.2776 43.0696 17.2776 38.5321C17.2776 33.9926 13.7042 30.2624 9.22607 30.0101C9.38717 30.0011 9.5485 29.9966 9.70985 29.9966C14.4117 29.9966 18.2453 33.8302 18.2453 38.5321C18.2453 43.2319 14.4117 47.0675 9.70985 47.0675C9.54756 47.0675 9.38624 47.0629 9.22607 47.0539Z" fill="#195E7C"/>
<path fill-rule="evenodd" clip-rule="evenodd" d="M9.71026 44.0172C12.7316 44.0172 15.1954 41.5514 15.1954 38.532C15.1954 35.5106 12.7316 33.0469 9.71026 33.0469C6.69081 33.0469 4.2251 35.5106 4.2251 38.532C4.2251 41.5514 6.69081 44.0172 9.71026 44.0172Z" fill="#EAF7FC"/>
<path fill-rule="evenodd" clip-rule="evenodd" d="M10.1943 33.0681C7.39968 33.3144 5.19284 35.6737 5.19284 38.532C5.19284 41.3885 7.39968 43.7494 10.1943 43.9959C10.0334 44.0101 9.87185 44.0172 9.71026 44.0172C6.69081 44.0172 4.2251 41.5514 4.2251 38.532C4.2251 35.5106 6.69081 33.0469 9.71026 33.0469C9.87332 33.0469 10.0348 33.054 10.1943 33.0681Z" fill="#BEE5F6"/>
<path fill-rule="evenodd" clip-rule="evenodd" d="M9.71025 36.0972C11.055 36.0972 12.1451 37.1873 12.1451 38.5321C12.1451 39.8768 11.055 40.965 9.71025 40.965C8.36557 40.965 7.27734 39.8768 7.27734 38.5321C7.27734 37.1873 8.36557 36.0972 9.71025 36.0972Z" fill="#299BCE"/>
<path fill-rule="evenodd" clip-rule="evenodd" d="M9.9518 40.9532C9.87152 40.961 9.79091 40.965 9.71025 40.965C8.36557 40.965 7.27734 39.8768 7.27734 38.5321C7.27734 37.1873 8.36557 36.0972 9.71025 36.0972C9.79183 36.0972 9.87234 36.1012 9.9518 36.1091C8.72063 36.2303 7.76044 37.2688 7.76044 38.5321C7.76044 39.7953 8.72063 40.8321 9.9518 40.9532Z" fill="#195E7C"/>
<path fill-rule="evenodd" clip-rule="evenodd" d="M20.0259 31.0749C20.0549 31.0811 20.0816 31.095 20.1034 31.1151C20.1251 31.1353 20.141 31.1609 20.1493 31.1893C20.1577 31.2177 20.1583 31.2479 20.1509 31.2766C20.1436 31.3053 20.1286 31.3315 20.1077 31.3524L16.9912 34.4688C16.9718 34.4883 16.9478 34.5026 16.9213 34.5104C16.8949 34.5182 16.867 34.5192 16.8401 34.5134L14.4001 33.9875C14.3691 33.9808 14.3408 33.9653 14.3183 33.9429C14.2959 33.9205 14.2804 33.8922 14.2737 33.8612L13.7479 31.4231C13.742 31.3962 13.7431 31.3682 13.7508 31.3418C13.7586 31.3154 13.7729 31.2914 13.7924 31.2719L16.9088 28.1537C16.9298 28.1327 16.956 28.1178 16.9846 28.1106C17.0133 28.1033 17.0435 28.1038 17.0719 28.1122C17.1003 28.1206 17.1259 28.1364 17.1461 28.1581C17.1662 28.1798 17.1802 28.2065 17.1864 28.2354L17.6675 30.4674C17.6742 30.4984 17.6896 30.5268 17.712 30.5492C17.7344 30.5716 17.7628 30.587 17.7938 30.5937L20.0259 31.0749Z" fill="#BEE5F6"/>
<path fill-rule="evenodd" clip-rule="evenodd" d="M19.781 31.0222L20.0258 31.0751C20.0548 31.0813 20.0815 31.0952 20.1033 31.1153C20.125 31.1354 20.1409 31.1611 20.1492 31.1895C20.1576 31.2179 20.1582 31.2481 20.1508 31.2768C20.1435 31.3055 20.1285 31.3317 20.1076 31.3526L16.9911 34.469C16.9717 34.4885 16.9477 34.5028 16.9212 34.5106C16.8948 34.5183 16.8669 34.5194 16.84 34.5135L14.4 33.9877C14.369 33.981 14.3407 33.9655 14.3182 33.9431C14.2958 33.9207 14.2803 33.8923 14.2736 33.8614L14.2305 33.661L16.5382 34.1584C16.5652 34.1642 16.5931 34.1631 16.6195 34.1553C16.6459 34.1476 16.67 34.1333 16.6894 34.1138L19.781 31.0222Z" fill="#9ED8F2"/>
<path fill-rule="evenodd" clip-rule="evenodd" d="M18.0846 34.4705C18.6835 35.699 19.0197 37.0774 19.0197 38.532C19.0197 43.6581 14.8384 47.8416 9.71007 47.8416C4.58394 47.8416 0.400391 43.6581 0.400391 38.532C0.400391 33.4036 4.58394 29.2223 9.71007 29.2223C11.1753 29.2223 12.5633 29.5635 13.7986 30.1706L16.5751 27.3925C16.6735 27.294 16.7966 27.2239 16.9314 27.1895C17.0663 27.1551 17.208 27.1577 17.3415 27.197C17.475 27.2363 17.5954 27.3109 17.6901 27.413C17.7848 27.515 17.8502 27.6406 17.8795 27.7767L18.3415 29.9199L20.4847 30.3819C20.6207 30.4112 20.7463 30.4766 20.8483 30.5713C20.9503 30.666 21.0249 30.7864 21.0642 30.9199C21.1035 31.0533 21.1061 31.1949 21.0718 31.3298C21.0374 31.4646 20.9674 31.5877 20.869 31.6861L18.0846 34.4705ZM12.9705 31.4909C11.9785 31.0288 10.8735 30.7707 9.71007 30.7707C5.43652 30.7707 1.94878 34.2566 1.94878 38.532C1.94878 42.8055 5.43652 46.2932 9.71007 46.2932C13.9855 46.2932 17.4714 42.8055 17.4714 38.532C17.4725 37.4117 17.2294 36.3046 16.7588 35.2879L14.7746 34.8602C15.5257 35.8928 15.9694 37.1622 15.9694 38.532C15.9694 41.9775 13.1579 44.7914 9.71007 44.7914C6.26452 44.7914 3.45071 41.9775 3.45071 38.532C3.45071 35.0841 6.26452 32.2726 9.71007 32.2726C11.0878 32.2726 12.3639 32.7215 13.3997 33.4806L12.9721 31.4987L12.9705 31.4909ZM12.4577 34.7088C11.6834 34.1504 10.734 33.821 9.71007 33.821C7.11681 33.821 4.9991 35.937 4.9991 38.532C4.9991 41.1253 7.11681 43.243 9.71007 43.243C12.3051 43.243 14.421 41.1253 14.421 38.532C14.4219 37.5549 14.1171 36.6021 13.5493 35.8069L12.4673 36.889C12.7638 37.3856 12.92 37.9535 12.9191 38.532C12.9191 40.3045 11.4826 41.7391 9.71007 41.7391C7.93745 41.7391 6.50297 40.3046 6.50297 38.532C6.50297 36.7595 7.93755 35.3229 9.71007 35.3229C10.2981 35.3219 10.875 35.4834 11.3772 35.7893L12.4577 34.7088ZM10.2166 36.9499C10.0528 36.8976 9.88196 36.8711 9.71007 36.8713C8.79313 36.8713 8.05136 37.615 8.05136 38.532C8.05136 39.4488 8.79323 40.1907 9.71007 40.1907C10.6271 40.1907 11.3707 39.4489 11.3707 38.532C11.3707 38.3661 11.3464 38.2061 11.3012 38.055L10.2672 39.089C9.96507 39.3912 9.47442 39.3912 9.17229 39.089C8.87016 38.7869 8.87016 38.2963 9.17229 37.9941L10.2166 36.9499ZM18.7693 31.5961L17.5268 31.3282C17.3812 31.2969 17.2478 31.2242 17.1425 31.1189C17.0371 31.0136 16.9645 30.8801 16.9331 30.7345L16.6654 29.4925L14.5746 31.5845L14.9477 33.3136L16.6787 33.6867L18.7693 31.5961ZM13.6962 2.71877H15.355C16.2179 2.71877 16.9219 3.42271 16.9219 4.28565V18.8748C16.9219 19.7396 16.2176 20.4428 15.355 20.4428H3.14491C2.28052 20.4428 1.57697 19.7393 1.57697 18.8748V4.28565C1.57697 3.423 2.28023 2.71877 3.14491 2.71877H4.80265V2.01435C4.80265 1.80903 4.88421 1.61211 5.0294 1.46692C5.17459 1.32173 5.37151 1.24016 5.57684 1.24016H7.15126C7.55887 0.501194 8.34574 0 9.24942 0C10.153 0 10.94 0.501097 11.3483 1.24016H12.922C13.1273 1.24016 13.3243 1.32173 13.4694 1.46692C13.6146 1.61211 13.6962 1.80903 13.6962 2.01435V2.71877ZM4.80265 4.26716H3.14491C3.13445 4.26716 3.12536 4.27519 3.12536 4.28565V18.8748C3.12536 18.8857 3.13416 18.8944 3.14491 18.8944H15.355C15.3655 18.8944 15.3735 18.8854 15.3735 18.8748V4.28565C15.3735 4.28075 15.3715 4.27606 15.368 4.2726C15.3646 4.26914 15.3599 4.26719 15.355 4.26716H13.6962V4.49458C13.6962 4.69991 13.6146 4.89683 13.4694 5.04202C13.3243 5.18721 13.1273 5.26877 12.922 5.26877H5.57684C5.37151 5.26877 5.17459 5.18721 5.0294 5.04202C4.88421 4.89683 4.80265 4.69991 4.80265 4.49458V4.26716ZM9.08297 7.48945V10.2214C9.08297 10.4267 9.0014 10.6236 8.85621 10.7688C8.71103 10.914 8.51411 10.9956 8.30878 10.9956H5.57684C5.37151 10.9956 5.17459 10.914 5.0294 10.7688C4.88421 10.6236 4.80265 10.4267 4.80265 10.2214V7.48945C4.80265 7.28412 4.88421 7.0872 5.0294 6.94201C5.17459 6.79682 5.37151 6.71526 5.57684 6.71526H8.30878C8.51411 6.71526 8.71103 6.79682 8.85621 6.94201C9.0014 7.0872 9.08297 7.28412 9.08297 7.48945ZM7.53458 8.26365H6.35104V9.44719H7.53458V8.26365ZM10.5036 8.4269C10.0764 8.4269 9.72942 8.07997 9.72942 7.65271C9.72942 7.22536 10.0764 6.87852 10.5036 6.87852H13.5342C13.9615 6.87852 14.3084 7.22536 14.3084 7.65271C14.3084 8.07997 13.9615 8.4269 13.5342 8.4269H10.5036ZM10.5036 14.8057C10.0764 14.8057 9.72942 14.4588 9.72942 14.0315C9.72942 13.6042 10.0764 13.2573 10.5036 13.2573H13.5342C13.9615 13.2573 14.3084 13.6042 14.3084 14.0315C14.3084 14.4588 13.9615 14.8057 13.5342 14.8057H10.5036ZM9.08297 13.8683V16.6003C9.08297 16.8056 9.0014 17.0025 8.85621 17.1477C8.71103 17.2929 8.51411 17.3745 8.30878 17.3745H5.57684C5.37151 17.3745 5.17459 17.2929 5.0294 17.1477C4.88421 17.0025 4.80265 16.8056 4.80265 16.6003V13.8683C4.80265 13.663 4.88421 13.4661 5.0294 13.3209C5.17459 13.1757 5.37151 13.0941 5.57684 13.0941H8.30878C8.51411 13.0941 8.71103 13.1757 8.85621 13.3209C9.0014 13.4661 9.08297 13.663 9.08297 13.8683ZM7.53458 14.6425H6.35104V15.8261H7.53458V14.6425ZM10.5036 10.8324C10.0764 10.8324 9.72942 10.4855 9.72942 10.0582C9.72942 9.63087 10.0764 9.28403 10.5036 9.28403H13.5342C13.9615 9.28403 14.3084 9.63087 14.3084 10.0582C14.3084 10.4855 13.9615 10.8324 13.5342 10.8324H10.5036ZM10.5036 17.2112C10.0764 17.2112 9.72942 16.8644 9.72942 16.437C9.72942 16.0097 10.0764 15.6628 10.5036 15.6628H13.5342C13.9615 15.6628 14.3084 16.0097 14.3084 16.437C14.3084 16.8644 13.9615 17.2112 13.5342 17.2112H10.5036ZM12.1478 3.72039V2.78855H10.8263C10.6526 2.78854 10.484 2.73015 10.3476 2.62277C10.2111 2.51539 10.1147 2.36525 10.0738 2.19648C9.98384 1.82468 9.64871 1.54839 9.24942 1.54839C9.0596 1.54831 8.87525 1.61205 8.72601 1.72936C8.57678 1.84667 8.47131 2.01075 8.42655 2.19523C8.38593 2.36428 8.28959 2.51474 8.15305 2.62237C8.0165 2.73 7.84771 2.78853 7.67384 2.78855H6.35104V3.72039H12.1478ZM22.3219 9.05942C22.2815 8.95232 22.2654 8.83758 22.2747 8.72349C22.2841 8.60941 22.3186 8.49882 22.3759 8.39971C22.4786 8.22195 22.6477 8.09225 22.846 8.03911C23.0444 7.98596 23.2557 8.01371 23.4335 8.11626L25.2466 9.16306C25.3642 9.23107 25.4619 9.32882 25.5298 9.44652C25.5977 9.56421 25.6334 9.69769 25.6334 9.83356C25.6334 9.96944 25.5977 10.1029 25.5298 10.2206C25.4619 10.3383 25.3642 10.4361 25.2466 10.5041L23.4335 11.5509C23.0635 11.7645 22.5896 11.6375 22.3759 11.2675C22.3186 11.1684 22.2841 11.0578 22.2747 10.9437C22.2654 10.8296 22.2815 10.7149 22.3219 10.6078H19.0929C18.6656 10.6078 18.3187 10.2609 18.3187 9.83361C18.3187 9.40626 18.6656 9.05942 19.0929 9.05942H22.3219ZM22.947 38.7447H26.176C26.6033 38.7447 26.9502 39.0915 26.9502 39.5189C26.9502 39.9462 26.6033 40.2931 26.176 40.2931H22.947C22.9875 40.4002 23.0036 40.5149 22.9943 40.629C22.9849 40.7431 22.9504 40.8537 22.893 40.9528C22.6794 41.3228 22.2056 41.4498 21.8355 41.2362L20.0223 40.1894C19.9046 40.1214 19.8069 40.0237 19.739 39.906C19.671 39.7883 19.6353 39.6548 19.6353 39.5189C19.6353 39.383 19.671 39.2495 19.739 39.1318C19.8069 39.0141 19.9046 38.9164 20.0223 38.8484L21.8355 37.8016C22.0133 37.6991 22.2246 37.6713 22.4229 37.7244C22.6212 37.7775 22.7903 37.9072 22.893 38.085C22.9504 38.1841 22.9849 38.2947 22.9943 38.4088C23.0036 38.5229 22.9875 38.6376 22.947 38.7447ZM36.35 24.6014V21.7398C36.35 21.3125 36.6969 20.9656 37.1242 20.9656C37.5515 20.9656 37.8984 21.3125 37.8984 21.7398V24.6014C38.0917 24.5542 38.2959 24.5835 38.4682 24.6832C38.6459 24.7859 38.7756 24.955 38.8287 25.1533C38.8819 25.3517 38.8541 25.5629 38.7515 25.7408L37.7947 27.3981C37.7267 27.5158 37.629 27.6134 37.5113 27.6813C37.3936 27.7492 37.2601 27.785 37.1242 27.785C36.9883 27.785 36.8549 27.7492 36.7372 27.6813C36.6195 27.6134 36.5217 27.5158 36.4537 27.3981L35.4968 25.7408C35.2832 25.3707 35.4102 24.8968 35.7803 24.6832C35.9525 24.5835 36.1566 24.5542 36.35 24.6014ZM9.55842 24.6378V27.4995C9.55842 27.9268 9.21149 28.2736 8.78423 28.2736C8.35697 28.2736 8.01004 27.9268 8.01004 27.4995V24.6378C7.81668 24.6851 7.61251 24.6559 7.44023 24.5562C7.26247 24.4534 7.13277 24.2843 7.07964 24.086C7.02651 23.8877 7.05429 23.6764 7.15687 23.4985L8.11378 21.8412C8.18173 21.7235 8.27946 21.6258 8.39715 21.5578C8.51484 21.4899 8.64834 21.4541 8.78423 21.4541C8.92012 21.4541 9.05362 21.4899 9.17131 21.5578C9.289 21.6258 9.38673 21.7235 9.45468 21.8412L10.4116 23.4985C10.5141 23.6764 10.5419 23.8877 10.4887 24.086C10.4356 24.2843 10.3059 24.4534 10.1282 24.5562C9.95594 24.6559 9.75178 24.6851 9.55842 24.6378ZM39.4381 2.25213C40.008 2.4185 40.558 2.64642 41.0785 2.93187L42.1301 2.46426C42.2731 2.40067 42.432 2.38192 42.5859 2.41048C42.7398 2.43904 42.8814 2.51356 42.9921 2.62423L44.6565 4.28865C44.767 4.39919 44.8415 4.54061 44.8701 4.69429C44.8987 4.84797 44.8802 5.00672 44.8168 5.14965L44.3509 6.20168C44.6369 6.72311 44.8651 7.27426 45.0313 7.84529L46.1036 8.25803C46.2497 8.31421 46.3753 8.41332 46.4638 8.54231C46.5524 8.67129 46.5998 8.82408 46.5998 8.98055V11.3349C46.5998 11.4913 46.5524 11.6441 46.4638 11.7731C46.3752 11.9021 46.2497 12.0012 46.1036 12.0574L45.0308 12.4702C44.8638 13.0399 44.6357 13.5899 44.3505 14.1105L44.8168 15.1634C44.8802 15.3063 44.8987 15.465 44.8701 15.6187C44.8415 15.7724 44.767 15.9138 44.6565 16.0244L42.9921 17.6888C42.8815 17.7993 42.7401 17.8738 42.5864 17.9024C42.4327 17.931 42.274 17.9125 42.1311 17.8491L41.0795 17.3834C40.5587 17.6691 40.0083 17.8972 39.4379 18.0634L39.0251 19.1359C38.9689 19.282 38.8698 19.4075 38.7408 19.4961C38.6118 19.5847 38.459 19.6321 38.3026 19.6321H35.9482C35.7917 19.6321 35.6389 19.5847 35.5099 19.4961C35.381 19.4075 35.2818 19.282 35.2256 19.1359L34.813 18.0635C34.2424 17.8966 33.6916 17.6684 33.1702 17.3828L32.1174 17.8491C31.9744 17.9125 31.8157 17.931 31.662 17.9024C31.5083 17.8738 31.3669 17.7993 31.2564 17.6888L29.5919 16.0244C29.4813 15.9137 29.4067 15.7721 29.3782 15.6182C29.3496 15.4643 29.3684 15.3054 29.432 15.1624L29.8994 14.1112C29.6138 13.5905 29.3855 13.0405 29.2184 12.4706L28.1448 12.0574C27.9988 12.0012 27.8732 11.9021 27.7846 11.7731C27.696 11.6441 27.6486 11.4913 27.6486 11.3349V8.98055C27.6486 8.82408 27.696 8.67129 27.7846 8.54231C27.8732 8.41332 27.9987 8.31421 28.1448 8.25803L29.2181 7.8449C29.3853 7.27435 29.6138 6.72359 29.8996 6.20226L29.432 5.15061C29.3684 5.00761 29.3496 4.84868 29.3782 4.6948C29.4067 4.54093 29.4813 4.39931 29.5919 4.28865L31.2564 2.62423C31.367 2.51356 31.5086 2.43904 31.6625 2.41048C31.8164 2.38192 31.9753 2.40067 32.1183 2.46426L33.1699 2.93187C33.6906 2.64635 34.2408 2.41836 34.8109 2.25194L35.2259 1.17639C35.2822 1.03053 35.3813 0.905123 35.5102 0.81668C35.6392 0.728238 35.7918 0.680902 35.9482 0.680903H38.3026C38.623 0.680903 38.9103 0.878323 39.0252 1.17745L39.4381 2.25213ZM38.1347 3.17671L37.7706 2.22929H36.4793L36.1134 3.17777C36.0681 3.29501 35.995 3.39947 35.9003 3.48214C35.8057 3.5648 35.6923 3.62319 35.5701 3.65226C34.8822 3.81568 34.2248 4.08805 33.623 4.45906C33.5158 4.5251 33.3942 4.56402 33.2686 4.57245C33.143 4.58089 33.0173 4.55857 32.9023 4.50745L31.9752 4.09519L31.0629 5.00748L31.4751 5.93468C31.5262 6.04968 31.5485 6.17542 31.5401 6.30099C31.5317 6.42657 31.4928 6.5482 31.4268 6.65535C31.0553 7.25871 30.782 7.91728 30.6172 8.60642C30.5879 8.72844 30.5294 8.84152 30.4467 8.93591C30.364 9.0303 30.2596 9.10317 30.1425 9.14826L29.197 9.51213V10.8033L30.1425 11.1672C30.2595 11.2122 30.3638 11.285 30.4465 11.3793C30.5292 11.4736 30.5877 11.5865 30.6171 11.7084C30.7827 12.3968 31.0544 13.0554 31.4262 13.6567C31.4925 13.7639 31.5316 13.8857 31.5401 14.0114C31.5486 14.1372 31.5263 14.2632 31.4751 14.3783L31.0629 15.3055L31.9758 16.2184L32.9034 15.8075C33.018 15.7567 33.1432 15.7346 33.2682 15.7429C33.3933 15.7512 33.5144 15.7897 33.6213 15.8552C34.2248 16.225 34.8813 16.4994 35.5719 16.663C35.6944 16.692 35.8079 16.7505 35.9027 16.8333C35.9975 16.9161 36.0707 17.0208 36.116 17.1382L36.4798 18.0837H37.771L38.1349 17.1382C38.1801 17.0208 38.2532 16.9162 38.3479 16.8335C38.4426 16.7507 38.556 16.6922 38.6784 16.6632C39.366 16.5003 40.023 16.2281 40.6243 15.8569C40.7314 15.7907 40.853 15.7516 40.9786 15.743C41.1042 15.7344 41.23 15.7565 41.3451 15.8075L42.2726 16.2184L43.1861 15.3049L42.7752 14.3774C42.7244 14.2628 42.7023 14.1376 42.7106 14.0125C42.7189 13.8874 42.7574 13.7663 42.8229 13.6594C43.1927 13.0558 43.4671 12.3992 43.6308 11.7106C43.6599 11.5883 43.7184 11.4748 43.8012 11.3801C43.8839 11.2855 43.9886 11.2123 44.1059 11.1672L45.0514 10.8033V9.51213L44.1059 9.14826C43.9885 9.10303 43.8838 9.02984 43.801 8.93504C43.7182 8.84024 43.6597 8.72668 43.6307 8.60419C43.4677 7.91563 43.1953 7.25765 42.824 6.65535C42.758 6.54836 42.7191 6.42692 42.7106 6.30153C42.7021 6.17613 42.7243 6.05056 42.7752 5.93565L43.1861 5.00806L42.2732 4.09519L41.346 4.50745C41.231 4.55857 41.1053 4.58089 40.9797 4.57245C40.8541 4.56402 40.7325 4.5251 40.6254 4.45906C40.0235 4.08804 39.3662 3.81566 38.6784 3.65226C38.5559 3.62316 38.4424 3.56464 38.3477 3.48177C38.2529 3.39891 38.1798 3.2942 38.1347 3.17671ZM37.1242 5.27584C39.8209 5.27584 42.0072 7.45984 42.0072 10.1565C42.0072 12.8531 39.8207 15.0396 37.1242 15.0396C34.4276 15.0396 32.2435 12.8532 32.2435 10.1565C32.2435 7.45974 34.4275 5.27584 37.1242 5.27584ZM37.1242 6.82423C35.2829 6.82423 33.7919 8.31532 33.7919 10.1565C33.7919 11.9979 35.2828 13.4912 37.1242 13.4912C38.9657 13.4912 40.4588 11.998 40.4588 10.1565C40.4588 8.31513 38.9656 6.82423 37.1242 6.82423ZM37.1255 48C31.9064 48 27.6486 43.7448 27.6486 38.5257C27.6486 33.3067 31.9064 29.0489 37.1255 29.0489C42.3446 29.0489 46.5998 33.3066 46.5998 38.5257C46.5998 43.7449 42.3446 48 37.1255 48ZM37.1255 46.4516C41.4917 46.4516 45.0514 42.892 45.0514 38.5257C45.0514 34.1595 41.4918 30.5973 37.1255 30.5973C32.7592 30.5973 29.197 34.1594 29.197 38.5257C29.197 42.892 32.7593 46.4516 37.1255 46.4516ZM35.9803 38.1939L39.6622 34.4736L39.6636 34.4721C40.4657 33.6659 41.7748 33.662 42.5811 34.4641C43.3869 35.2659 43.3921 36.5702 42.5905 37.3802L42.5902 37.3805C40.8732 39.113 39.1692 40.8559 37.4445 42.5807C36.6386 43.3866 35.3303 43.3866 34.5244 42.5807L31.6659 39.7196C30.8605 38.9143 30.8591 37.6106 31.6646 36.801L31.6659 36.7995C32.4717 35.9938 33.7801 35.9938 34.586 36.7995L35.9803 38.1939ZM35.4357 39.839L33.4911 37.8945C33.3942 37.7977 33.2629 37.7434 33.1259 37.7434C32.989 37.7434 32.8577 37.7977 32.7608 37.8945C32.5603 38.0975 32.5593 38.4233 32.7608 38.6248L35.6193 41.4858C35.7162 41.5826 35.8475 41.637 35.9845 41.637C36.1214 41.637 36.2527 41.5826 36.3496 41.4858C38.0726 39.7629 39.7748 38.0217 41.4899 36.2909C41.6905 36.0885 41.6905 35.7623 41.489 35.5618C41.288 35.3619 40.9617 35.3631 40.7616 35.5638L36.5335 39.8362C36.4617 39.9087 36.3763 39.9663 36.2822 40.0057C36.1881 40.0451 36.0872 40.0655 35.9852 40.0658C35.8832 40.0661 35.7821 40.0462 35.6878 40.0073C35.5935 39.9683 35.5079 39.9112 35.4357 39.839Z" fill="#13475F"/>
</svg>
