<svg width="49" height="48" viewBox="0 0 49 48" fill="none" xmlns="http://www.w3.org/2000/svg">
<g id="Frame" clip-path="url(#clip0_201_2755)">
<g id="Group">
<path id="Vector" d="M20.2695 0H23.082V7.28906H20.2695V0Z" fill="#185E7C"/>
<path id="Vector_2" d="M25.918 0H28.7305V7.28906H25.918V0Z" fill="#12475F"/>
<path id="Vector_3" d="M20.2695 40.7109H23.082V48H20.2695V40.7109Z" fill="#185E7C"/>
<path id="Vector_4" d="M25.918 40.7109H28.7305V48H25.918V40.7109ZM41.4453 22.5938H48.5V25.4062H41.4453V22.5938Z" fill="#12475F"/>
<g id="Group_2">
<path id="Vector_5" d="M0.5 22.5938H7.55469V25.4062H0.5V22.5938ZM0.5 14.1211H9.82222V16.9336H0.5V14.1211ZM0.5 31.0664H9.82222V33.8789H0.5V31.0664Z" fill="#185E7C"/>
</g>
<path id="Vector_6" d="M39.1777 14.1211H48.5V16.9336H39.1777V14.1211ZM39.1777 31.0664H48.5V33.8789H39.1777V31.0664Z" fill="#12475F"/>
<path id="Vector_7" d="M15.5741 11.2133L11.6843 4.40625H4.68359V1.59375H13.3165L18.016 9.81787L15.5741 11.2133Z" fill="#185E7C"/>
<path id="Vector_8" d="M33.4263 11.2133L30.9844 9.81787L35.6839 1.59375H44.3168V4.40625H37.3161L33.4263 11.2133Z" fill="#12475F"/>
<path id="Vector_9" d="M3.5 6C5.15685 6 6.5 4.65685 6.5 3C6.5 1.34315 5.15685 0 3.5 0C1.84315 0 0.5 1.34315 0.5 3C0.5 4.65685 1.84315 6 3.5 6Z" fill="#72C6EC"/>
<path id="Vector_10" d="M13.3165 46.4062H4.68359V43.5937H11.6843L15.5741 36.7867L18.016 38.1821L13.3165 46.4062Z" fill="#185E7C"/>
<path id="Vector_11" d="M44.3168 46.4062H35.6839L30.9844 38.1821L33.4263 36.7867L37.3161 43.5937H44.3168V46.4062Z" fill="#12475F"/>
<path id="Vector_12" d="M45.5 6C47.1569 6 48.5 4.65685 48.5 3C48.5 1.34315 47.1569 0 45.5 0C43.8431 0 42.5 1.34315 42.5 3C42.5 4.65685 43.8431 6 45.5 6Z" fill="#2CAAE2"/>
<path id="Vector_13" d="M3.5 48C5.15685 48 6.5 46.6569 6.5 45C6.5 43.3431 5.15685 42 3.5 42C1.84315 42 0.5 43.3431 0.5 45C0.5 46.6569 1.84315 48 3.5 48Z" fill="#72C6EC"/>
<path id="Vector_14" d="M24.5 42C34.4411 42 42.5 33.9411 42.5 24C42.5 14.0589 34.4411 6 24.5 6C14.5589 6 6.5 14.0589 6.5 24C6.5 33.9411 14.5589 42 24.5 42Z" fill="#EAF7FC"/>
<path id="Vector_15" d="M42.5 24C42.5 33.9412 34.4412 42 24.5 42V6C34.4412 6 42.5 14.0588 42.5 24Z" fill="#EAF7FC"/>
<path id="Vector_16" d="M27.3219 18.3525H23.0938V29.6475H25.9062V26.8182H27.3219C29.6563 26.8182 31.5547 24.9188 31.5547 22.5854C31.5547 20.251 29.6563 18.3525 27.3219 18.3525ZM27.3219 24.0057H25.9062V21.165H27.3219C28.1047 21.165 28.7422 21.8016 28.7422 22.5854C28.7422 23.3682 28.1047 24.0057 27.3219 24.0057Z" fill="#72C6EC"/>
<path id="Vector_17" d="M27.3219 18.3525H24.5V29.6475H25.9062V26.8182H27.3219C29.6563 26.8182 31.5547 24.9188 31.5547 22.5854C31.5547 20.251 29.6563 18.3525 27.3219 18.3525ZM27.3219 24.0057H25.9062V21.165H27.3219C28.1047 21.165 28.7422 21.8016 28.7422 22.5854C28.7422 23.3682 28.1047 24.0057 27.3219 24.0057Z" fill="#2CAAE2"/>
<path id="Vector_18" d="M16.5898 18.3522C14.2572 18.3522 12.3594 20.25 12.3594 22.5826V29.6477H15.1719V26.8177H18.0078V29.6483H20.8203V22.5825C20.8203 20.25 18.9225 18.3522 16.5898 18.3522ZM15.1719 24.0053V22.5826C15.1719 21.8008 15.808 21.1647 16.5898 21.1647C17.3717 21.1647 18.0078 21.8008 18.0078 22.5826V24.0053H15.1719Z" fill="#72C6EC"/>
<path id="Vector_19" d="M33.3926 18.3516H36.2051V29.6484H33.3926V18.3516Z" fill="#2CAAE2"/>
<path id="Vector_20" d="M45.5 48C47.1569 48 48.5 46.6569 48.5 45C48.5 43.3431 47.1569 42 45.5 42C43.8431 42 42.5 43.3431 42.5 45C42.5 46.6569 43.8431 48 45.5 48Z" fill="#2CAAE2"/>
</g>
</g>
<defs>
<clipPath id="clip0_201_2755">
<rect width="48" height="48" fill="white" transform="translate(0.5)"/>
</clipPath>
</defs>
</svg>
