<svg width="32" height="29" viewBox="0 0 32 29" fill="none" xmlns="http://www.w3.org/2000/svg">
<path id="Vector (Stroke)" fill-rule="evenodd" clip-rule="evenodd" d="M28.0755 0C28.5757 0 28.9811 0.404388 28.9811 0.903226V3.91398C28.9811 4.41282 28.5757 4.8172 28.0755 4.8172C27.5753 4.8172 27.1698 4.41282 27.1698 3.91398V0.903226C27.1698 0.404388 27.5753 0 28.0755 0ZM22.0377 3.01075C22.5379 3.01075 22.9434 3.41514 22.9434 3.91398V12.9462C22.9434 13.4451 22.5379 13.8495 22.0377 13.8495C21.5376 13.8495 21.1321 13.4451 21.1321 12.9462V3.91398C21.1321 3.41514 21.5376 3.01075 22.0377 3.01075ZM9.96226 9.03226C10.4624 9.03226 10.8679 9.43665 10.8679 9.93548V17.4624C10.8679 17.9612 10.4624 18.3656 9.96226 18.3656C9.46208 18.3656 9.0566 17.9612 9.0566 17.4624V9.93548C9.0566 9.43665 9.46208 9.03226 9.96226 9.03226ZM16 9.03226C16.5002 9.03226 16.9057 9.43665 16.9057 9.93548V12.9462C16.9057 13.4451 16.5002 13.8495 16 13.8495C15.4998 13.8495 15.0943 13.4451 15.0943 12.9462V9.93548C15.0943 9.43665 15.4998 9.03226 16 9.03226ZM3.92453 18.0645C4.42471 18.0645 4.83019 18.4689 4.83019 18.9677V23.4839C4.83019 23.9827 4.42471 24.3871 3.92453 24.3871C3.42435 24.3871 3.01887 23.9827 3.01887 23.4839L3.01887 18.9677C3.01887 18.4689 3.42435 18.0645 3.92453 18.0645ZM0 28C0 27.5012 0.405478 27.0968 0.90566 27.0968H31.0943C31.5945 27.0968 32 27.5012 32 28C32 28.4988 31.5945 28.9032 31.0943 28.9032H0.90566C0.405478 28.9032 0 28.4988 0 28Z" fill="#2CAAE2"/>
</svg>
