<svg width="32" height="32" viewBox="0 0 32 32" fill="none" xmlns="http://www.w3.org/2000/svg">
<path id="Vector (Stroke)" fill-rule="evenodd" clip-rule="evenodd" d="M1 0C1.55229 0 2 0.447715 2 1V19.3333C2 22.1115 2.00212 24.0945 2.20465 25.6008C2.24049 25.8674 2.28207 26.1142 2.32989 26.3433L9.15529 15.7536C8.64238 15.1447 8.33333 14.3584 8.33333 13.5C8.33333 11.567 9.90034 10 11.8333 10C13.7663 10 15.3333 11.567 15.3333 13.5C15.3333 14.052 15.2056 14.5741 14.9779 15.0385L20.0219 18.838C20.5503 18.5177 21.1703 18.3333 21.8333 18.3333C22.2125 18.3333 22.5775 18.3936 22.9194 18.5051L26.4074 11.3058C25.5531 10.6676 25 9.64837 25 8.5C25 6.567 26.567 5 28.5 5C30.433 5 32 6.567 32 8.5C32 10.433 30.433 12 28.5 12C28.4316 12 28.3636 11.998 28.2962 11.9942L24.5803 19.6641C25.0518 20.2605 25.3333 21.014 25.3333 21.8333C25.3333 23.7663 23.7663 25.3333 21.8333 25.3333C19.9003 25.3333 18.3333 23.7663 18.3333 21.8333C18.3333 21.2937 18.4554 20.7827 18.6735 20.3262L13.6131 16.5143C13.0917 16.8229 12.4832 17 11.8333 17C11.4832 17 11.1451 16.9486 10.8262 16.8529L3.50721 28.2084C3.44624 28.303 3.37199 28.3839 3.28849 28.4502C3.32967 28.4961 3.37204 28.5407 3.41565 28.5843C4.05315 29.2219 4.92155 29.5967 6.39916 29.7954C7.90554 29.9979 9.88854 30 12.6667 30H31C31.5523 30 32 30.4477 32 31C32 31.5523 31.5523 32 31 32H12.5909C9.90529 32 7.78775 32 6.13267 31.7775C4.43328 31.549 3.07248 31.0696 2.00144 29.9986C0.930397 28.9275 0.450962 27.5667 0.222486 25.8673C-3.44962e-05 24.2122 -1.91077e-05 22.0947 3.63193e-07 19.4091L7.60557e-07 1C7.60557e-07 0.447715 0.447716 0 1 0ZM28.5 7C27.6716 7 27 7.67157 27 8.5C27 9.32843 27.6716 10 28.5 10C29.3284 10 30 9.32843 30 8.5C30 7.67157 29.3284 7 28.5 7ZM11.8333 12C11.0049 12 10.3333 12.6716 10.3333 13.5C10.3333 14.3284 11.0049 15 11.8333 15C12.6618 15 13.3333 14.3284 13.3333 13.5C13.3333 12.6716 12.6618 12 11.8333 12ZM21.8333 20.3333C21.0049 20.3333 20.3333 21.0049 20.3333 21.8333C20.3333 22.6618 21.0049 23.3333 21.8333 23.3333C22.6618 23.3333 23.3333 22.6618 23.3333 21.8333C23.3333 21.0049 22.6618 20.3333 21.8333 20.3333Z" fill="#2CAAE2"/>
</svg>
