<svg width="49" height="48" viewBox="0 0 49 48" fill="none" xmlns="http://www.w3.org/2000/svg">
<path d="M47.7825 10.0588C47.7825 9.59991 47.6002 9.15984 47.2758 8.83537L39.6502 1.20984C39.4896 1.04919 39.2988 0.921747 39.0889 0.834804C38.879 0.747861 38.654 0.703117 38.4268 0.703125H17.6608C16.1509 0.703125 14.9268 1.92722 14.9268 3.43716V40.9586C14.9268 42.3806 16.0795 43.5334 17.5015 43.5334H45.2076C46.6296 43.5334 47.7824 42.3806 47.7824 40.9586V10.0588H47.7825Z" fill="#BEE5F6"/>
<path d="M47.276 8.83544L44.5015 6.06091V40.9587C44.5015 42.3807 43.3488 43.5335 41.9268 43.5335H45.208C46.63 43.5335 47.7828 42.3808 47.7828 40.9587V10.0588C47.7828 9.59998 47.6005 9.15991 47.276 8.83544Z" fill="#9ED8F2"/>
<path d="M47.2758 8.83544L39.6503 1.20991C39.5036 1.0641 39.332 0.945791 39.1436 0.860596V6.60813C39.1436 8.11806 40.3676 9.34216 41.8776 9.34216H47.6251C47.54 9.15369 47.4216 8.98206 47.2758 8.83544Z" fill="#57BBE8"/>
<path d="M42.9168 18.0692H28.5153C28.3913 18.0692 28.2724 18.02 28.1848 17.9323C28.0971 17.8447 28.0479 17.7258 28.0479 17.6018V14.0873C28.0479 13.9633 28.0971 13.8444 28.1848 13.7568C28.2724 13.6691 28.3913 13.6199 28.5153 13.6199H42.9168C43.0408 13.6199 43.1597 13.6691 43.2473 13.7568C43.335 13.8444 43.3842 13.9633 43.3842 14.0873V17.6018C43.3842 17.7258 43.335 17.8447 43.2473 17.9323C43.1597 18.02 43.0408 18.0692 42.9168 18.0692Z" fill="#72C6EC"/>
<path d="M42.917 13.6198H39.6357C39.7597 13.6198 39.8786 13.669 39.9663 13.7567C40.0539 13.8443 40.1032 13.9632 40.1032 14.0872V17.6017C40.1032 17.7257 40.0539 17.8446 39.9663 17.9322C39.8786 18.0199 39.7597 18.0691 39.6357 18.0691H42.917C43.041 18.0691 43.1599 18.0199 43.2475 17.9322C43.3352 17.8446 43.3844 17.7257 43.3844 17.6017V14.0872C43.3844 13.9632 43.3352 13.8443 43.2475 13.7567C43.1599 13.669 43.041 13.6198 42.917 13.6198Z" fill="#2DAAE2"/>
<path d="M15.4667 32.9642C17.4784 32.9642 20.6796 27.5952 20.0583 27.4756L19.604 27.2355C19.3143 27.0823 19.0718 26.8531 18.9027 26.5723C18.7335 26.2916 18.6441 25.9701 18.6441 25.6423V21.2651H12.2892V25.6423C12.2892 25.9701 12.1999 26.2916 12.0307 26.5724C11.8616 26.8531 11.6191 27.0824 11.3293 27.2355L10.8751 27.4756C10.2537 27.5952 13.455 32.9642 15.4667 32.9642Z" fill="#FFEAE1"/>
<path d="M19.6042 27.2356C18.1314 31.0015 12.8023 31.0015 11.3294 27.2356C9.85663 23.4697 1.21729 28.7032 1.21729 37.4423V44.9543C1.21729 46.2481 2.26607 47.2968 3.55972 47.2968H27.3738C28.6676 47.2968 29.7163 46.248 29.7163 44.9543V37.4423C29.7163 28.7032 19.6042 27.2356 19.6042 27.2356Z" fill="#2DAAE2"/>
<path d="M19.6043 27.2356C19.4955 27.5143 19.36 27.7819 19.1997 28.0346C22.189 29.17 26.4352 31.779 26.4352 37.4423V47.2969H27.3741C28.6678 47.2969 29.7165 46.2481 29.7165 44.9544V37.4424C29.7165 28.7033 19.6043 27.2356 19.6043 27.2356Z" fill="#299BCE"/>
<path d="M17.7176 31.081L15.4671 29.7592L13.2165 31.081C13.1649 31.111 13.1117 31.1382 13.0571 31.1626L14.4587 33.0011H16.4753L17.9461 31.1914C17.8673 31.1604 17.7909 31.1236 17.7176 31.081Z" fill="#2079A0"/>
<path d="M10.8498 26.9537L9.522 27.5499C9.14962 27.7171 9.03665 28.1917 9.2939 28.5087L11.0652 30.6918C11.5874 31.3355 12.5016 31.5009 13.2162 31.0812L15.4668 29.7593L12.0355 27.0846C11.8675 26.959 11.669 26.8807 11.4605 26.8577C11.252 26.8347 11.0411 26.8678 10.8498 26.9537Z" fill="#72C6EC"/>
<path d="M20.0838 26.9537L21.4116 27.5499C21.784 27.7171 21.8969 28.1917 21.6397 28.5087L19.8684 30.6918C19.3462 31.3355 18.432 31.5009 17.7174 31.0812L15.4668 29.7593L18.898 27.0846C19.0661 26.959 19.2646 26.8807 19.4731 26.8577C19.6816 26.8347 19.8924 26.8678 20.0838 26.9537Z" fill="#72C6EC"/>
<path d="M16.4752 33.0011H14.4586L12.1611 47.2968H18.7726L16.4752 33.0011Z" fill="#2079A0"/>
<path d="M7.21484 11.3946V15.7585H11.4863V9.14404H9.46531C8.22237 9.14404 7.21484 10.1517 7.21484 11.3946Z" fill="#195E7C"/>
<path d="M9.40463 13.818H8.37535C7.45388 13.8185 6.70735 14.5659 6.70801 15.4874L6.70932 17.3077C6.70988 18.0591 7.31926 18.6677 8.07057 18.6673H9.40473L9.40463 13.818Z" fill="#FFDBCC"/>
<path d="M22.5591 13.818L21.5298 13.8179V18.6669H22.1281L22.8639 18.6673C23.6153 18.6677 24.2246 18.059 24.2252 17.3077L24.2265 15.4874C24.2271 14.5659 23.4805 13.8184 22.5591 13.818Z" fill="#FFEAE1"/>
<path d="M21.6209 8.21765H14.6095C11.6846 8.21765 9.31348 10.5888 9.31348 13.5137V18.6669C9.3567 20.3708 10.071 22.0079 11.3537 23.1163C12.3349 23.9642 13.6935 24.706 15.4654 24.7896V24.7897L15.467 24.7896H15.4674L15.469 24.7897V24.7896C17.241 24.7061 18.5995 23.9643 19.5808 23.1163C20.8635 22.0079 21.5778 20.3707 21.621 18.6669V8.21765H21.6209Z" fill="#FFEAE1"/>
<path d="M18.3395 8.21765V19.6948C18.2963 21.3987 17.582 23.0358 16.2993 24.1442C16.0272 24.3794 15.7382 24.5944 15.4346 24.7874C15.445 24.788 15.4549 24.7891 15.4653 24.7896V24.7897L15.4669 24.7896H15.4673L15.4689 24.7897V24.7896C17.2409 24.7061 18.5994 23.9643 19.5807 23.1163C20.8634 22.0079 21.5776 20.3707 21.6209 18.6669V8.21765H18.3395Z" fill="#FFDBCC"/>
<path d="M21.6205 13.8176L22.1673 13.8179L22.5589 13.818C23.0095 13.8182 23.4175 13.9979 23.7176 14.2885L23.7174 10.9388C23.7172 8.33374 21.6054 6.22192 19.0003 6.22192H7.698C7.63474 6.22192 7.5721 6.23438 7.51366 6.25859C7.45522 6.2828 7.40212 6.31828 7.35739 6.36301C7.31266 6.40774 7.27718 6.46084 7.25297 6.51928C7.22877 6.57772 7.21631 6.64036 7.21631 6.70361C7.21631 9.06442 9.13012 10.9782 11.4909 10.9782H19.2118C20.5421 10.9782 21.6205 12.0566 21.6205 13.387V13.8176Z" fill="#2079A0"/>
<path d="M23.7174 10.9388C23.7172 8.33374 21.6054 6.22192 19.0003 6.22192H18.3394V10.9781H19.2119C20.5422 10.9781 21.6206 12.0565 21.6206 13.3869V13.8176L22.1674 13.8179L22.5589 13.818C23.0096 13.8182 23.4176 13.9979 23.7177 14.2885L23.7174 10.9388Z" fill="#195E7C"/>
<path d="M43.3842 20.6731H28.0479C27.6594 20.6731 27.3447 20.9878 27.3447 21.3762C27.3447 21.7646 27.6594 22.0793 28.0479 22.0793H43.3842C43.7726 22.0793 44.0873 21.7646 44.0873 21.3762C44.0873 20.9878 43.7725 20.6731 43.3842 20.6731ZM44.0873 24.524C44.0873 24.1356 43.7726 23.8208 43.3842 23.8208H28.0479C27.6594 23.8208 27.3447 24.1356 27.3447 24.524C27.3447 24.9124 27.6594 25.2271 28.0479 25.2271H43.3842C43.5707 25.2271 43.7495 25.153 43.8814 25.0212C44.0133 24.8893 44.0873 24.7105 44.0873 24.524ZM28.0479 26.9687C27.6594 26.9687 27.3447 27.2834 27.3447 27.6718C27.3447 28.0602 27.6594 28.3749 28.0479 28.3749H35.716C36.1044 28.3749 36.4192 28.0602 36.4192 27.6718C36.4192 27.2834 36.1044 26.9687 35.716 26.9687H28.0479Z" fill="#13475F"/>
<path d="M47.7827 14.9043C48.1711 14.9043 48.4858 14.5896 48.4858 14.2012V10.0588C48.4858 9.48169 48.2858 8.93541 47.9193 8.49844L47.9174 8.49628C47.8717 8.44153 47.8235 8.38879 47.7732 8.33822L40.1475 0.712594C40.0962 0.661572 40.0428 0.612807 39.9872 0.566437C39.5503 0.199969 39.0041 0 38.427 0H17.6609C15.7657 0 14.2238 1.54191 14.2238 3.43716V5.51878H7.69822C7.04488 5.51878 6.51332 6.05025 6.51332 6.70359C6.51256 7.65446 6.78587 8.58539 7.30054 9.38494C6.79794 9.92428 6.51182 10.6363 6.51182 11.3947V14.0213C6.18313 14.438 6.00444 14.9492 6.00482 15.4881L6.00622 17.3082C6.00697 18.4457 6.93247 19.3706 8.06957 19.3705H8.6616C8.86625 21.049 9.65844 22.5809 10.8938 23.6484C11.115 23.8394 11.3462 24.0185 11.5864 24.1849V25.6426C11.5864 25.8208 11.5412 25.9963 11.459 26.1529C11.1564 26.1322 10.8482 26.1838 10.562 26.3124L9.23441 26.9084C9.1078 26.9656 8.99095 27.0423 8.8881 27.1357C7.4511 27.6134 6.15266 28.2442 5.02916 29.0153C4.95303 29.0675 4.88794 29.1342 4.8376 29.2117C4.78727 29.2891 4.75267 29.3756 4.73579 29.4664C4.71891 29.5572 4.72008 29.6504 4.73923 29.7407C4.75837 29.8311 4.79512 29.9167 4.84738 29.9929C5.06647 30.3122 5.50419 30.3951 5.825 30.1747C6.6486 29.6094 7.58122 29.1264 8.60432 28.7308C8.6449 28.809 8.6931 28.883 8.74822 28.9518L10.5195 31.1349C11.0694 31.8125 11.9321 32.1392 12.7948 31.9784L13.7165 33.1875L11.5592 46.5938H7.11566V40.7186C7.11566 40.3302 6.80094 40.0155 6.41254 40.0155C6.02413 40.0155 5.70941 40.3302 5.70941 40.7186V46.5938H3.55972C2.65579 46.5938 1.92041 45.8583 1.92041 44.9544V37.4424C1.92041 35.4685 2.47879 33.7313 3.57997 32.279C3.69264 32.1304 3.74167 31.9431 3.71626 31.7584C3.69086 31.5736 3.5931 31.4065 3.4445 31.2938C3.2959 31.1812 3.10863 31.1321 2.92388 31.1576C2.73914 31.183 2.57205 31.2807 2.45938 31.4293C1.16863 33.1317 0.51416 35.1547 0.51416 37.4424V44.9544C0.51416 46.6338 1.88047 48 3.55982 48H27.374C29.0533 48 30.4196 46.6338 30.4196 44.9544V44.2366H45.2079C47.0153 44.2366 48.4858 42.7661 48.4858 40.9587V17.5315C48.4858 17.1431 48.1711 16.8284 47.7827 16.8284C47.3943 16.8284 47.0796 17.1431 47.0796 17.5315V40.9587C47.0796 41.9907 46.24 42.8303 45.2079 42.8303H30.4196V37.4424C30.4196 32.2287 26.9925 28.7796 22.0429 27.1332C21.7765 26.8942 21.632 26.8986 20.3718 26.3123C20.0905 26.1862 19.7824 26.1314 19.4749 26.1528C19.3918 25.9955 19.348 25.8204 19.3474 25.6425V24.185C19.5877 24.0185 19.8189 23.8394 20.0402 23.6484C21.2756 22.581 22.0678 21.049 22.2726 19.3703L22.8645 19.3705C24.0017 19.3705 24.9274 18.4456 24.9283 17.3082L24.9296 15.488C24.9299 14.9483 24.7507 14.4364 24.421 14.0194L24.4208 10.9388C24.4206 7.95028 21.9891 5.51888 19.0005 5.51888H15.6301V3.43716C15.6301 2.31731 16.5412 1.40625 17.661 1.40625H38.4271C38.4316 1.40625 38.436 1.40681 38.4406 1.40691V6.60816C38.4406 8.50341 39.9825 10.0453 41.8778 10.0453L47.079 10.0452C47.0791 10.0497 47.0797 10.0542 47.0797 10.0587V14.2011C47.0797 14.2934 47.0978 14.3848 47.1331 14.4702C47.1684 14.5555 47.2202 14.633 47.2855 14.6983C47.3508 14.7636 47.4283 14.8154 47.5136 14.8508C47.5989 14.8861 47.6904 14.9043 47.7827 14.9043ZM8.62363 13.1149H8.37491C8.22157 13.1149 8.06858 13.1297 7.91807 13.159V11.3947C7.91765 11.0575 8.02792 10.7296 8.23194 10.4612C8.50615 10.7 8.80561 10.9082 9.125 11.082C8.83976 11.7249 8.67004 12.4131 8.62363 13.1149ZM8.07013 17.9642H8.06985C7.89559 17.964 7.72852 17.8947 7.60527 17.7716C7.48202 17.6484 7.41265 17.4813 7.41238 17.3071L7.41097 15.4869C7.4106 14.953 7.8426 14.5213 8.37519 14.5211H8.61013V17.9641L8.07013 17.9642ZM11.6113 30.2487L9.90679 28.1479L11.1379 27.5951C11.2516 27.5442 11.3808 27.5401 11.4974 27.5839L11.5017 27.5854C11.6253 27.633 11.4927 27.5635 14.2181 29.6772L12.8602 30.4748C12.449 30.7162 11.9213 30.6308 11.6113 30.2487ZM15.4668 30.5746L16.8708 31.3993L16.1404 32.298H14.8065L14.1032 31.3755L15.4668 30.5746ZM15.0576 33.7043H15.876L17.9503 46.5938H12.9835L15.0576 33.7043ZM29.0133 37.4424V44.9544C29.0133 45.8584 28.2778 46.5938 27.374 46.5938H25.2243V40.7186C25.2243 40.3302 24.9096 40.0155 24.5212 40.0155C24.1328 40.0155 23.8181 40.3302 23.8181 40.7186V46.5938H19.3746L17.2194 33.2003L18.2038 31.9891C18.3261 32.0084 18.4489 32.0192 18.5714 32.0192C19.2656 32.0192 19.9458 31.7125 20.4145 31.1348L22.1859 28.9516C22.2412 28.8827 22.2895 28.8084 22.3302 28.73C25.1616 29.8275 29.0133 32.2716 29.0133 37.4424ZM21.0269 28.1479L19.3224 30.2487C19.1764 30.4305 18.9696 30.5535 18.7402 30.595C18.5107 30.6366 18.274 30.5938 18.0735 30.4748L16.7157 29.6771C19.4712 27.54 19.3092 27.6325 19.432 27.5853C19.4902 27.5628 19.5524 27.5521 19.6148 27.5538C19.6772 27.5555 19.7387 27.5694 19.7957 27.5949H19.7958L21.0269 28.1479ZM18.1965 26.7397L15.4668 28.8676L12.7371 26.7397C12.9043 26.3981 12.9916 26.0228 12.9925 25.6424V24.9548C14.6926 25.6555 16.1717 25.6841 17.9411 24.9548V25.6424C17.9412 26.024 18.0309 26.4 18.1965 26.7397ZM19.1207 22.5843C16.9075 24.497 14.1469 24.601 11.8133 22.5843C10.7126 21.6331 10.0579 20.2024 10.0165 18.6578V13.5137C10.0163 12.8421 10.1636 12.1787 10.4479 11.5703C10.7908 11.644 11.1405 11.6812 11.4912 11.6812H19.212C20.1525 11.6812 20.9176 12.4463 20.9176 13.3868V18.6578C20.8761 20.2024 20.2214 21.6333 19.1207 22.5843ZM23.5219 17.3071C23.5216 17.6695 23.2269 17.9642 22.8644 17.9642L22.3238 17.964V14.5211C22.4547 14.542 22.8292 14.4249 23.2411 14.8045C23.3309 14.894 23.4021 15.0004 23.4505 15.1175C23.4989 15.2346 23.5236 15.3602 23.5231 15.4869L23.5219 17.3071ZM23.0144 10.9388L23.0145 13.1588C22.7009 13.098 22.4917 13.1196 22.3121 13.1149C22.1738 11.5259 20.8363 10.2751 19.212 10.2751H11.4912C9.59619 10.2751 8.04125 8.79159 7.9265 6.92512H19.0005C21.2136 6.92503 23.0143 8.72559 23.0144 10.9388ZM39.8467 6.60816V2.40056L46.085 8.63897L41.8776 8.63906C40.7578 8.63906 39.8467 7.72809 39.8467 6.60816Z" fill="#13475F"/>
<path d="M44.0873 14.0872C44.0873 13.4417 43.5622 12.9167 42.9168 12.9167H28.5153C27.8698 12.9167 27.3447 13.4418 27.3447 14.0872V17.6017C27.3447 18.2472 27.8699 18.7723 28.5153 18.7723H42.9167C43.5622 18.7723 44.0873 18.2471 44.0873 17.6017L44.0873 14.0872ZM42.6811 17.366H28.751V14.3229H42.6811V17.366Z" fill="#13475F"/>
</svg>
