<svg width="51" height="48" viewBox="0 0 51 48" fill="none" xmlns="http://www.w3.org/2000/svg">
<path d="M33.8459 10.4299V44.4608C33.8466 44.799 33.7806 45.1339 33.6518 45.4465C33.523 45.7591 33.3339 46.0433 33.0952 46.2828C32.8565 46.5223 32.573 46.7124 32.2609 46.8423C31.9487 46.9722 31.614 47.0393 31.2759 47.0399H4.49893C4.16002 47.0404 3.82433 46.974 3.51113 46.8445C3.19793 46.715 2.91337 46.525 2.67377 46.2853C2.43417 46.0456 2.24424 45.761 2.11488 45.4477C1.98552 45.1345 1.91927 44.7988 1.91993 44.4599V10.4299C1.91993 9.74559 2.19175 9.08936 2.67559 8.60552C3.15943 8.12167 3.81567 7.84985 4.49993 7.84985H31.2759C31.9584 7.8525 32.6121 8.12549 33.0938 8.60904C33.5755 9.0926 33.8459 9.74732 33.8459 10.4299Z" fill="#EAF7FC"/>
<path d="M33.8459 10.4199V44.4608C33.8466 44.799 33.7806 45.1339 33.6518 45.4465C33.523 45.7591 33.3339 46.0433 33.0952 46.2828C32.8565 46.5223 32.573 46.7124 32.2609 46.8423C31.9487 46.9722 31.614 47.0393 31.2759 47.0399H4.49893C4.16002 47.0404 3.82433 46.974 3.51113 46.8445C3.19793 46.715 2.91337 46.525 2.67377 46.2853C2.43417 46.0456 2.24424 45.761 2.11488 45.4477C1.98552 45.1345 1.91927 44.7988 1.91993 44.4599V43.5918C9.78593 43.5918 16.9029 40.4019 22.0599 35.2539C27.2099 30.0959 30.3999 22.9779 30.3999 15.1129V7.84985H31.2759C31.9574 7.85038 32.6108 8.12132 33.0926 8.60317C33.5745 9.08503 33.8454 9.73841 33.8459 10.4199Z" fill="black" fill-opacity="0.01"/>
<path d="M26.526 5.37002H23.647L23.264 4.48902C22.8084 3.44051 22.0564 2.54795 21.1005 1.92101C20.1445 1.29407 19.0262 0.960083 17.883 0.960083C16.7398 0.960083 15.6215 1.29407 14.6655 1.92101C13.7095 2.54795 12.9576 3.44051 12.502 4.48902L12.119 5.37102H9.23999C9.02728 5.37102 8.82329 5.45552 8.67289 5.60592C8.52248 5.75633 8.43799 5.96032 8.43799 6.17302V9.72802C8.43799 10.171 8.79799 10.53 9.23999 10.53H26.526C26.969 10.53 27.329 10.17 27.329 9.72802V6.17302C27.329 6.06762 27.3082 5.96325 27.2678 5.86588C27.2275 5.76851 27.1683 5.68005 27.0937 5.60557C27.0192 5.53108 26.9306 5.47203 26.8332 5.43178C26.7358 5.39154 26.6314 5.37089 26.526 5.37102V5.37002Z" fill="#2DAAE2"/>
<path d="M27.325 6.16804V9.72504C27.325 10.175 26.965 10.525 26.525 10.525H9.23799C8.79799 10.525 8.43799 10.175 8.43799 9.72504V8.32604H20.77C21.6808 8.32649 22.5689 8.04135 23.3092 7.51073C24.0495 6.98012 24.6048 6.23074 24.897 5.36804H26.526C26.966 5.36804 27.325 5.72804 27.325 6.16804Z" fill="black" fill-opacity="0.027"/>
<path d="M20.7721 5.96004H14.9911C14.9323 5.9596 14.8746 5.9448 14.8229 5.91693C14.7713 5.88906 14.7272 5.84898 14.6945 5.80016C14.6619 5.75135 14.6417 5.6953 14.6357 5.63688C14.6297 5.57847 14.638 5.51948 14.6601 5.46504L14.7901 5.16004C15.1071 4.4268 15.6742 3.82997 16.3903 3.47595C17.1064 3.12193 17.925 3.03372 18.7001 3.22704C19.7451 3.47904 20.5901 4.26304 21.0161 5.25604L21.1031 5.46504C21.1253 5.51945 21.1338 5.57846 21.128 5.63693C21.1221 5.6954 21.102 5.75155 21.0695 5.80047C21.0369 5.84939 20.9929 5.88961 20.9412 5.9176C20.8896 5.94558 20.8318 5.9605 20.7731 5.96104L20.7721 5.96004Z" fill="#EAF7FC"/>
<path d="M20.7698 5.95809H14.9938C14.7338 5.95809 14.5638 5.68809 14.6638 5.46809L14.7038 5.36809H19.7698C20.0398 5.36809 20.1998 5.09809 20.1098 4.86809L20.0198 4.65809C19.8039 4.14902 19.4716 3.69763 19.0498 3.34009C19.9298 3.66009 20.6398 4.37909 21.0198 5.25809L21.0998 5.46809C21.1998 5.68809 21.0298 5.95809 20.7698 5.95809Z" fill="black" fill-opacity="0.027"/>
<path d="M24.1621 13.766V18.57C24.1621 18.84 24.3741 19.053 24.6441 19.053H29.4481C29.7191 19.053 29.9311 18.841 29.9311 18.57V13.766C29.932 13.7023 29.92 13.6392 29.896 13.5802C29.872 13.5212 29.8365 13.4677 29.7915 13.4227C29.7465 13.3777 29.6929 13.3421 29.6339 13.3181C29.575 13.2941 29.5118 13.2822 29.4481 13.283H24.6441C24.5806 13.2823 24.5175 13.2944 24.4587 13.3184C24.3998 13.3425 24.3464 13.378 24.3015 13.423C24.2566 13.468 24.2211 13.5215 24.1972 13.5804C24.1733 13.6393 24.1613 13.7024 24.1621 13.766Z" fill="#9ED8F2"/>
<path d="M5.83789 14.803V17.545C5.83789 17.772 6.02889 17.951 6.25589 17.951H21.2339C21.4609 17.951 21.6399 17.772 21.6399 17.545V14.803C21.6415 14.6937 21.5997 14.5881 21.5235 14.5096C21.4474 14.431 21.3433 14.3859 21.2339 14.384H6.25589C6.14526 14.3853 6.03955 14.4299 5.96141 14.5083C5.88327 14.5866 5.83893 14.6924 5.83789 14.803Z" fill="#BEE5F6"/>
<path d="M21.645 14.808V17.551C21.645 17.775 21.445 17.951 21.222 17.951H6.24501C6.1374 17.9523 6.03365 17.911 5.95644 17.836C5.87923 17.7611 5.83485 17.6586 5.83301 17.551V16.54H17.218C17.8763 16.5385 18.5176 16.3311 19.052 15.9468C19.5864 15.5625 19.9871 15.0205 20.198 14.397H21.222C21.445 14.397 21.645 14.584 21.645 14.808Z" fill="black" fill-opacity="0.02"/>
<path d="M24.1621 22.177V26.981C24.1621 27.251 24.3741 27.463 24.6441 27.463H29.4481C29.7191 27.463 29.9311 27.252 29.9311 26.981V22.177C29.932 22.1134 29.92 22.0502 29.896 21.9912C29.872 21.9323 29.8365 21.8787 29.7915 21.8337C29.7465 21.7887 29.6929 21.7531 29.6339 21.7291C29.575 21.7051 29.5118 21.6932 29.4481 21.694H24.6441C24.5806 21.6933 24.5175 21.7054 24.4587 21.7294C24.3998 21.7535 24.3464 21.789 24.3015 21.834C24.2566 21.879 24.2211 21.9326 24.1972 21.9915C24.1733 22.0504 24.1613 22.1134 24.1621 22.177Z" fill="#9ED8F2"/>
<path d="M5.83789 23.2129V25.9559C5.83789 26.1829 6.02889 26.3619 6.25589 26.3619H21.2339C21.4609 26.3619 21.6399 26.1829 21.6399 25.9559V23.2129C21.6412 23.1037 21.5993 22.9984 21.5232 22.9201C21.4471 22.8418 21.3431 22.7968 21.2339 22.7949H6.25589C6.14543 22.7962 6.03987 22.8407 5.96176 22.9188C5.88364 22.9969 5.83919 23.1025 5.83789 23.2129Z" fill="#BEE5F6"/>
<path d="M21.645 23.219V25.962C21.645 26.186 21.445 26.362 21.222 26.362H6.24501C6.1374 26.3633 6.03365 26.322 5.95644 26.2471C5.87923 26.1721 5.83485 26.0696 5.83301 25.962V24.95H17.218C17.8763 24.9486 18.5176 24.7412 19.052 24.3568C19.5864 23.9725 19.9871 23.4306 20.198 22.807H21.222C21.445 22.807 21.645 22.995 21.645 23.219Z" fill="black" fill-opacity="0.02"/>
<path d="M24.1621 38.999V43.802C24.1621 44.073 24.3741 44.285 24.6441 44.285H29.4481C29.7191 44.285 29.9311 44.073 29.9311 43.802V39C29.932 38.9364 29.92 38.8732 29.896 38.8142C29.872 38.7553 29.8365 38.7017 29.7915 38.6567C29.7465 38.6117 29.6929 38.5761 29.6339 38.5521C29.575 38.5281 29.5118 38.5162 29.4481 38.517H24.6441C24.5806 38.5163 24.5175 38.5284 24.4587 38.5524C24.3998 38.5765 24.3464 38.612 24.3015 38.657C24.2566 38.702 24.2211 38.7556 24.1972 38.8145C24.1733 38.8734 24.1613 38.9354 24.1621 38.999Z" fill="#9ED8F2"/>
<path d="M5.83789 40.0349V42.7779C5.83789 43.0049 6.02889 43.1839 6.25589 43.1839H21.2339C21.4609 43.1839 21.6399 43.0039 21.6399 42.7779V40.0349C21.6412 39.9257 21.5993 39.8205 21.5232 39.7421C21.4471 39.6638 21.3431 39.6188 21.2339 39.6169H6.25589C6.14543 39.6182 6.03987 39.6627 5.96176 39.7408C5.88364 39.8189 5.83919 39.9245 5.83789 40.0349Z" fill="#BEE5F6"/>
<path d="M21.645 40.0401V42.7841C21.645 43.0071 21.445 43.1841 21.222 43.1841H6.24501C6.1374 43.1854 6.03365 43.1441 5.95644 43.0691C5.87923 42.9942 5.83485 42.8917 5.83301 42.7841V41.7701H17.218C17.8763 41.7686 18.5176 41.5612 19.052 41.1769C19.5864 40.7926 19.9871 40.2506 20.198 39.6271H21.222C21.445 39.6271 21.645 39.8171 21.645 40.0401Z" fill="black" fill-opacity="0.02"/>
<path d="M24.1621 30.588V35.392C24.1621 35.662 24.3741 35.874 24.6441 35.874H29.4481C29.7191 35.874 29.9311 35.662 29.9311 35.392V30.588C29.932 30.5244 29.92 30.4612 29.896 30.4022C29.872 30.3433 29.8365 30.2897 29.7915 30.2447C29.7465 30.1997 29.6929 30.1641 29.6339 30.1401C29.575 30.1162 29.5118 30.1042 29.4481 30.105H24.6441C24.5806 30.1043 24.5175 30.1164 24.4587 30.1404C24.3998 30.1645 24.3464 30.2001 24.3015 30.2451C24.2566 30.2901 24.2211 30.3436 24.1972 30.4025C24.1733 30.4614 24.1613 30.5245 24.1621 30.588Z" fill="#9ED8F2"/>
<path d="M29.9342 13.7681V18.5681C29.9342 18.8371 29.7232 19.0481 29.4542 19.0481H24.6542C24.5902 19.0497 24.5266 19.0384 24.4671 19.015C24.4076 18.9916 24.3534 18.9565 24.3077 18.9117C24.262 18.8669 24.2257 18.8135 24.2011 18.7544C24.1764 18.6954 24.1639 18.632 24.1642 18.5681V17.6661H24.4522C24.9894 17.6665 25.5214 17.561 26.0178 17.3556C26.5142 17.1502 26.9652 16.8489 27.3451 16.469C27.725 16.0892 28.0262 15.6381 28.2316 15.1417C28.437 14.6453 28.5426 14.1133 28.5422 13.5761V13.2881H29.4542C29.7232 13.2881 29.9342 13.4991 29.9342 13.7681ZM29.9342 22.1781V26.9781C29.9342 27.2561 29.7232 27.4681 29.4542 27.4681H24.6542C24.5894 27.4694 24.5251 27.4577 24.4651 27.4336C24.405 27.4094 24.3504 27.3734 24.3047 27.3276C24.2589 27.2818 24.2228 27.2273 24.1987 27.1672C24.1745 27.1071 24.1628 27.0428 24.1642 26.9781V26.0751H24.4522C24.9894 26.0755 25.5214 25.97 26.0178 25.7646C26.5142 25.5592 26.9652 25.2579 27.3451 24.878C27.725 24.4982 28.0262 24.0471 28.2316 23.5507C28.437 23.0543 28.5426 22.5223 28.5422 21.9851V21.6981H29.4542C29.7232 21.6981 29.9342 21.9081 29.9342 22.1781ZM29.9342 38.9971V43.8071C29.9342 44.0751 29.7232 44.2871 29.4542 44.2871H24.6542C24.5902 44.2887 24.5266 44.2774 24.4671 44.254C24.4076 44.2306 24.3534 44.1955 24.3077 44.1507C24.262 44.1059 24.2257 44.0525 24.2011 43.9934C24.1764 43.9344 24.1639 43.871 24.1642 43.8071V42.8941H24.4522C24.9894 42.8945 25.5214 42.789 26.0178 42.5836C26.5142 42.3782 26.9652 42.0769 27.3451 41.697C27.725 41.3172 28.0262 40.8661 28.2316 40.3697C28.437 39.8733 28.5426 39.3413 28.5422 38.8041V38.5171H29.4542C29.7232 38.5171 29.9342 38.7281 29.9342 38.9971ZM29.9342 30.5871V35.3871C29.9342 35.6661 29.7232 35.8771 29.4542 35.8771H24.6542C24.5894 35.8784 24.5251 35.8667 24.4651 35.8426C24.405 35.8184 24.3504 35.7824 24.3047 35.7366C24.2589 35.6908 24.2228 35.6363 24.1987 35.5762C24.1745 35.5161 24.1628 35.4518 24.1642 35.3871V34.4851H24.4522C24.9894 34.4855 25.5214 34.38 26.0178 34.1746C26.5142 33.9692 26.9652 33.6679 27.3451 33.288C27.725 32.9082 28.0262 32.4571 28.2316 31.9607C28.437 31.4643 28.5426 30.9323 28.5422 30.3951V30.1071H29.4542C29.7232 30.1071 29.9342 30.3181 29.9342 30.5871Z" fill="black" fill-opacity="0.02"/>
<path d="M5.83789 31.6241V34.3671C5.83789 34.5941 6.02889 34.7731 6.25589 34.7731H21.2339C21.4609 34.7731 21.6399 34.5931 21.6399 34.3671V31.6241C21.6412 31.5149 21.5993 31.4096 21.5232 31.3312C21.4471 31.2529 21.3431 31.2079 21.2339 31.2061H6.25589C6.14543 31.2074 6.03987 31.2518 5.96176 31.3299C5.88364 31.408 5.83919 31.5136 5.83789 31.6241Z" fill="#BEE5F6"/>
<path d="M21.645 31.63V34.373C21.645 34.597 21.445 34.773 21.222 34.773H6.24501C6.1374 34.7744 6.03365 34.733 5.95644 34.6581C5.87923 34.5831 5.83485 34.4806 5.83301 34.373V33.36H17.218C17.8763 33.3586 18.5176 33.1512 19.052 32.7669C19.5864 32.3826 19.9871 31.8406 20.198 31.217H21.222C21.445 31.217 21.645 31.406 21.645 31.63Z" fill="black" fill-opacity="0.02"/>
<path d="M39.2629 18.944C40.1382 19.9353 40.8096 21.0894 41.2388 22.3402C41.6679 23.5911 41.8464 24.9143 41.7641 26.2342C41.6817 27.5541 41.3401 28.8449 40.7587 30.0327C40.1773 31.2205 39.3676 32.2822 38.3759 33.157C34.2049 36.838 27.8399 36.445 24.1589 32.274C20.4769 28.102 20.8789 21.737 25.0509 18.056C26.0422 17.1808 27.1963 16.5096 28.4471 16.0806C29.6979 15.6516 31.021 15.4733 32.3408 15.5557C33.6606 15.6382 34.9512 15.9799 36.1389 16.5612C37.3266 17.1426 38.3881 17.9522 39.2629 18.944Z" fill="#EAF7FC"/>
<path d="M48.0001 44.088C47.6618 44.3903 47.263 44.6171 46.8301 44.753C46.7129 44.7904 46.5928 44.8181 46.4711 44.836C45.8869 44.9495 45.2825 44.8965 44.727 44.6831C44.1714 44.4697 43.6871 44.1044 43.3291 43.629L38.4961 37.274L36.4961 34.639C37.1899 34.2439 37.8416 33.7792 38.4411 33.252C38.5781 33.138 38.7011 33.018 38.8231 32.888C39.2744 32.4639 39.6842 31.9978 40.0471 31.496L42.4171 33.821L48.1201 39.403C48.4341 39.7108 48.6813 40.0799 48.8464 40.4874C49.0115 40.8949 49.0908 41.3321 49.0796 41.7716C49.0683 42.2111 48.9667 42.6436 48.7809 43.0421C48.5952 43.4407 48.3294 43.7967 48.0001 44.088Z" fill="#299BCE"/>
<path d="M47.9998 44.0881C47.6615 44.3905 47.2626 44.6172 46.8298 44.7531C46.7125 44.7905 46.5925 44.8182 46.4708 44.8361C46.4218 44.8411 46.3637 44.8501 46.3147 44.8561C46.6263 44.5607 46.875 44.2054 47.0461 43.8116C47.2172 43.4178 47.3071 42.9936 47.3105 42.5642C47.3139 42.1349 47.2306 41.7093 47.0657 41.3129C46.9008 40.9165 46.6576 40.5574 46.3508 40.2571L41.0268 35.0421L38.8228 32.8881C39.2741 32.464 39.6839 31.9979 40.0468 31.4961L42.4168 33.8211L48.1198 39.4031C48.4337 39.7109 48.681 40.08 48.846 40.4875C49.0111 40.895 49.0905 41.3322 49.0792 41.7717C49.068 42.2112 48.9663 42.6437 48.7806 43.0423C48.5949 43.4408 48.3291 43.7968 47.9998 44.0881Z" fill="black" fill-opacity="0.02"/>
<path d="M42.6337 33.398L42.3677 33.638L40.9477 34.886L38.3637 37.166L38.1037 37.393C38.0193 37.4697 37.9204 37.5288 37.8128 37.5669C37.7053 37.605 37.5912 37.6213 37.4773 37.6149C37.3634 37.6085 37.2519 37.5794 37.1493 37.5295C37.0467 37.4796 36.9551 37.4097 36.8797 37.324L34.9277 35.122C35.3997 34.942 35.8597 34.724 36.3197 34.475C37.0285 34.0714 37.6943 33.5966 38.3067 33.058C38.4467 32.941 38.5737 32.818 38.6967 32.685C39.1576 32.2518 39.5762 31.7756 39.9467 31.263C40.2537 30.855 40.5197 30.419 40.7637 29.979L42.7057 32.184C42.7818 32.2679 42.8404 32.3661 42.8781 32.473C42.9157 32.5798 42.9316 32.6931 42.9249 32.8061C42.9182 32.9192 42.889 33.0298 42.839 33.1314C42.789 33.2331 42.7192 33.3237 42.6337 33.398Z" fill="#299BCE"/>
<path d="M39.2647 18.9451C42.9467 23.1171 42.5437 29.4751 38.3707 33.1561C36.9399 34.4217 35.1784 35.2538 33.2921 35.5552C31.4058 35.8566 29.4727 35.6148 27.7188 34.8581C30.0917 34.8651 32.4798 34.0271 34.4008 32.3321C38.5728 28.6501 38.9757 22.2921 35.2937 18.1201C34.3134 17.0057 33.0974 16.1233 31.7338 15.5371C33.1591 15.5369 34.568 15.8408 35.8665 16.4285C37.165 17.0162 38.3242 17.8742 39.2647 18.9451Z" fill="black" fill-opacity="0.02"/>
<path d="M36.6802 31.2401C33.5702 33.9761 28.8282 33.6881 26.0822 30.5771C25.4295 29.8379 24.9288 28.9773 24.6088 28.0446C24.2888 27.1118 24.1558 26.1251 24.2172 25.1409C24.2787 24.1567 24.5335 23.1943 24.9671 22.3086C25.4007 21.4229 26.0046 20.6313 26.7442 19.9791C29.8542 17.2331 34.5972 17.5311 37.3432 20.6411C40.0892 23.7511 39.7912 28.4941 36.6802 31.2401Z" fill="#57BBE8"/>
<path d="M36.6801 31.24C33.5701 33.976 28.8281 33.688 26.0821 30.577C25.9684 30.4527 25.8625 30.3214 25.7651 30.184C28.5491 32.344 32.5621 32.276 35.3081 29.867C36.7373 28.6087 37.6338 26.8535 37.8157 24.9581C37.9975 23.0626 37.451 21.1691 36.2871 19.662C36.6611 19.95 37.0171 20.276 37.3431 20.642C37.9958 21.3812 38.4964 22.2419 38.8163 23.1747C39.1362 24.1075 39.2692 25.0942 39.2076 26.0784C39.146 27.0626 38.8911 28.025 38.4575 28.9107C38.0238 29.7963 37.4198 30.5878 36.6801 31.24Z" fill="black" fill-opacity="0.02"/>
<path d="M48.792 38.716L43.634 33.666C43.8306 33.3374 43.9165 32.9543 43.879 32.5732C43.8416 32.1921 43.6828 31.8331 43.426 31.549L41.901 29.817C42.358 28.709 42.645 27.526 42.722 26.294C43.056 20.958 39.575 16.429 34.806 15.03V10.43C34.806 9.49305 34.4343 8.59435 33.7725 7.93108C33.1108 7.26781 32.2129 6.89412 31.276 6.892H28.289V6.173C28.289 5.201 27.499 4.41 26.526 4.41H24.277C24.197 4.314 22.717 1.08506e-07 17.883 1.08506e-07C16.5526 -0.000237078 15.2512 0.388386 14.1388 1.11806C13.0265 1.84774 12.1516 2.88665 11.622 4.107L11.49 4.41H9.23996C8.26796 4.41 7.47796 5.201 7.47796 6.173V6.892H4.49796C3.55995 6.89306 2.66066 7.26615 1.99739 7.92943C1.33411 8.5927 0.96102 9.49199 0.959961 10.43V44.46C0.960755 45.3986 1.33397 46.2986 1.99768 46.9623C2.66139 47.626 3.56134 47.9992 4.49996 48H31.276C32.2133 47.9979 33.1116 47.624 33.7736 46.9603C34.4356 46.2966 34.8072 45.3974 34.807 44.46V36.432L36.162 37.961C36.4093 38.2396 36.736 38.4359 37.0982 38.5235C37.4603 38.6111 37.8406 38.5858 38.188 38.451L42.563 44.206C44.04 46.169 46.867 46.403 48.637 44.807C49.0647 44.4281 49.4099 43.9653 49.6511 43.4473C49.8923 42.9292 50.0243 42.3671 50.0389 41.7959C50.0535 41.2247 49.9505 40.6566 49.7361 40.1269C49.5218 39.5972 49.2007 39.1173 48.793 38.717L48.792 38.716ZM9.39796 6.33H12.12C12.3069 6.33007 12.4898 6.27549 12.6462 6.17298C12.8025 6.07047 12.9255 5.92449 13 5.753C13.136 5.574 14.074 1.92 17.883 1.92C21.677 1.92 22.65 5.6 22.767 5.753C22.8414 5.92449 22.9644 6.07047 23.1208 6.17298C23.2771 6.27549 23.46 6.33007 23.647 6.33H26.369V9.57H9.39796V6.33ZM32.886 44.46C32.886 45.354 32.163 46.08 31.276 46.08H4.49796C4.06848 46.0797 3.65669 45.9089 3.35309 45.6052C3.0495 45.3014 2.87896 44.8895 2.87896 44.46V10.43C2.87949 10.0005 3.05054 9.58883 3.35451 9.28543C3.65848 8.98202 4.07048 8.81174 4.49996 8.812H7.47896V9.728C7.47896 10.7 8.26896 11.49 9.24096 11.49H26.527C27.499 11.49 28.29 10.7 28.29 9.728V8.812H31.276C32.164 8.812 32.887 9.538 32.887 10.43V14.64C32.4964 14.5978 32.1038 14.5765 31.711 14.576C25.971 14.576 21.074 19.024 20.703 24.921C20.297 31.361 25.438 36.639 31.711 36.639C32.106 36.639 32.498 36.612 32.887 36.57L32.886 44.46ZM31.71 34.72C26.48 34.72 22.288 30.315 22.618 25.041C22.923 20.188 26.954 16.496 31.71 16.496C36.902 16.496 41.138 20.873 40.806 26.175C40.523 30.701 36.503 34.72 31.71 34.72ZM37.534 36.615L36.559 35.515C38.3456 34.6439 39.8612 33.3026 40.943 31.635L41.923 32.747L37.534 36.615ZM47.358 43.375C46.408 44.23 44.885 44.098 44.093 43.048L39.698 37.267L42.26 35.008L47.45 40.088C47.6707 40.304 47.8443 40.5632 47.96 40.8495C48.0757 41.1358 48.131 41.4429 48.1224 41.7516C48.1137 42.0603 48.0414 42.3638 47.9098 42.6432C47.7783 42.9226 47.5904 43.1717 47.358 43.375Z" fill="#13475F"/>
<path d="M29.773 30.488C29.6467 30.4882 29.5217 30.4635 29.405 30.4152C29.2883 30.367 29.1823 30.2963 29.093 30.207L26.643 27.755C26.5517 27.6664 26.4789 27.5605 26.4289 27.4435C26.3788 27.3265 26.3526 27.2007 26.3516 27.0735C26.3506 26.9462 26.3749 26.82 26.4232 26.7023C26.4714 26.5845 26.5425 26.4775 26.6325 26.3875C26.7224 26.2975 26.8294 26.2263 26.9471 26.178C27.0648 26.1296 27.191 26.1052 27.3182 26.1061C27.4455 26.107 27.5713 26.1332 27.6883 26.1831C27.8054 26.233 27.9113 26.3057 28 26.397L29.773 28.17L35.425 22.518C35.513 22.4243 35.619 22.3493 35.7366 22.2974C35.8542 22.2455 35.9811 22.2177 36.1096 22.2157C36.2382 22.2137 36.3658 22.2376 36.4849 22.2858C36.6041 22.3341 36.7123 22.4058 36.8032 22.4968C36.8941 22.5877 36.9659 22.6959 37.0141 22.815C37.0624 22.9342 37.0863 23.0618 37.0843 23.1904C37.0823 23.3189 37.0545 23.4458 37.0026 23.5634C36.9507 23.681 36.8756 23.7869 36.782 23.875L30.452 30.207C30.3627 30.2963 30.2567 30.367 30.14 30.4152C30.0233 30.4635 29.8982 30.4882 29.772 30.488H29.773Z" fill="#EAF7FC"/>
</svg>
