<svg width="49" height="48" viewBox="0 0 49 48" fill="none" xmlns="http://www.w3.org/2000/svg">
<path d="M24.5 45.1875L26.6911 46.6457L24.5 48C18.0894 48 12.0622 45.5034 7.52938 40.9706C2.99656 36.4378 0.5 30.4106 0.5 24C0.5 22.9659 0.566562 21.9291 0.696875 20.9175C0.888125 19.4222 1.22375 17.9372 1.69344 16.5056C1.84719 16.0359 2.02062 15.5616 2.20719 15.0966C2.49594 14.3756 3.31437 14.025 4.03531 14.3147C4.75625 14.6034 5.10687 15.4219 4.81719 16.1428C4.65358 16.5514 4.50288 16.965 4.36531 17.3831C3.94996 18.6499 3.65582 19.9532 3.48688 21.2756C3.37063 22.1709 3.3125 23.0869 3.3125 24C3.3125 29.6597 5.51656 34.98 9.51781 38.9822C13.52 42.9834 18.8403 45.1875 24.5 45.1875ZM24.5 0L26.1391 1.33687L24.5 2.8125C19.5791 2.8125 14.7847 4.5375 11 7.67062C10.4009 8.16656 9.515 8.08313 9.02 7.48406C8.52406 6.88594 8.6075 6 9.20656 5.505C13.4938 1.95469 18.9256 0 24.5 0Z" fill="#185E7C"/>
<path d="M39.7934 42.495C35.5063 46.0453 30.0744 48 24.5 48V45.1875C29.4209 45.1875 34.2153 43.4625 38 40.3294C38.5991 39.8334 39.485 39.9169 39.98 40.5159C40.4759 41.1141 40.3925 42 39.7934 42.495ZM48.5 24C48.5 25.0341 48.4334 26.0709 48.3031 27.0825C48.111 28.5813 47.7773 30.0585 47.3066 31.4944C47.1528 31.9641 46.9794 32.4384 46.7928 32.9034C46.5725 33.4528 46.0447 33.7866 45.4878 33.7866C45.3134 33.7866 45.1363 33.7547 44.9647 33.6853C44.2438 33.3966 43.8931 32.5781 44.1828 31.8572C44.3469 31.4475 44.4987 31.0303 44.6347 30.6169C45.0491 29.355 45.3444 28.0453 45.5131 26.7244C45.6294 25.8291 45.6875 24.9131 45.6875 24C45.6875 18.3403 43.4834 13.02 39.4822 9.01781C35.48 5.01656 30.1597 2.8125 24.5 2.8125V0C30.9106 0 36.9378 2.49656 41.4706 7.02938C46.0034 11.5622 48.5 17.5894 48.5 24Z" fill="#12475F"/>
<path d="M4.71875 17.2979C7.0487 17.2979 8.9375 15.4091 8.9375 13.0791C8.9375 10.7491 7.0487 8.86035 4.71875 8.86035C2.3888 8.86035 0.5 10.7491 0.5 13.0791C0.5 15.4091 2.3888 17.2979 4.71875 17.2979Z" fill="#12475F"/>
<path d="M44.2812 39.1396C46.6112 39.1396 48.5 37.2508 48.5 34.9209C48.5 32.5909 46.6112 30.7021 44.2812 30.7021C41.9513 30.7021 40.0625 32.5909 40.0625 34.9209C40.0625 37.2508 41.9513 39.1396 44.2812 39.1396Z" fill="#12475F"/>
<path d="M35.634 23.8125C36.7604 22.8033 37.4707 21.3387 37.4707 19.7109C37.4707 16.6739 34.9999 14.2031 31.9629 14.2031C29.3369 14.2031 27.064 16.0712 26.5585 18.6449C26.4088 19.407 26.9052 20.1461 27.6673 20.2958C28.4293 20.4455 29.1686 19.9492 29.3182 19.187C29.5654 17.9288 30.6776 17.0156 31.9629 17.0156C33.4491 17.0156 34.6582 18.2247 34.6582 19.7109C34.6582 21.1972 33.4491 22.4062 31.9629 22.4062C31.9199 22.4062 31.8805 22.4085 31.8435 22.4122C31.1229 22.4729 30.5566 23.0761 30.5566 23.8125C30.5566 24.5489 31.1229 25.152 31.8435 25.2128C31.8805 25.2165 31.9199 25.2188 31.9629 25.2188C33.4491 25.2188 34.6582 26.4278 34.6582 27.9141C34.6582 29.4003 33.4491 30.6094 31.9629 30.6094C30.6255 30.6094 29.478 29.613 29.2937 28.2918C29.2763 28.1666 29.2675 28.0404 29.2676 27.9141C29.2676 27.1374 28.638 26.5078 27.8613 26.5078C27.0847 26.5078 26.4551 27.1374 26.4551 27.9141C26.4551 28.17 26.4729 28.4278 26.5081 28.6805C26.8854 31.3835 29.2304 33.4219 31.9629 33.4219C34.9999 33.4219 37.4707 30.9511 37.4707 27.9141C37.4707 26.2863 36.7604 24.8217 35.634 23.8125Z" fill="#2CAAE2"/>
<path d="M17.4939 33.4219C14.205 33.4219 11.5293 30.7462 11.5293 27.4574V20.1676C11.5293 16.8788 14.205 14.2031 17.4939 14.2031C20.7827 14.2031 23.4583 16.8788 23.4583 20.1676V27.4574C23.4583 30.7462 20.7826 33.4219 17.4939 33.4219ZM17.4939 17.0156C15.7558 17.0156 14.3418 18.4297 14.3418 20.1676V27.4574C14.3418 29.1954 15.7558 30.6094 17.4939 30.6094C19.2319 30.6094 20.6458 29.1953 20.6458 27.4574V20.1676C20.6458 18.4297 19.2318 17.0156 17.4939 17.0156Z" fill="#1F79A0"/>
</svg>
