<svg width="40" height="40" viewBox="0 0 40 40" fill="none" xmlns="http://www.w3.org/2000/svg">
<g clip-path="url(#clip0_151_894)">
<path d="M38.0235 40H1.97647C0.894118 40 0 39.1059 0 38.0235V1.97647C0 0.894118 0.894118 0 1.97647 0H38.0235C39.1059 0 40 0.894118 40 1.97647V38.0235C40 39.1059 39.1059 40 38.0235 40Z" fill="#F0F6FF"/>
<path d="M24.5761 30.0099C25.6596 28.9733 26.703 27.9766 27.7865 26.9798C28.4687 26.302 29.0707 26.3419 29.6325 27.1393C30.6357 28.4949 31.639 29.8504 32.6824 31.2459C32.9633 31.6446 33.1238 32.0034 32.883 32.4818C32.6422 32.8805 32.2409 33.0001 31.7594 33.0001C23.8939 33.0001 16.0686 33.0001 8.2031 33.0001C7.72155 33.0001 7.36038 32.8805 7.1196 32.4419C6.87882 32.0034 7.03934 31.6446 7.28012 31.2459C9.8083 27.3785 12.3365 23.5112 14.8647 19.6837C15.4666 18.8065 16.189 18.7667 16.831 19.6039C19.3191 22.953 21.8072 26.302 24.2551 29.6511C24.3755 29.7707 24.4959 29.8504 24.5761 30.0099Z" fill="url(#paint0_linear_151_894)"/>
<path d="M27.4626 12.0001C29.3888 12.0001 31.0005 13.573 31.0005 15.4998C31.0005 17.4265 29.4674 18.9994 27.5412 18.9994C25.615 19.0387 24.0033 17.4265 24.0033 15.4998C23.9247 13.6123 25.4971 12.0001 27.4626 12.0001Z" fill="url(#paint1_linear_151_894)"/>
</g>
<rect x="0.5" y="0.5" width="39" height="39" rx="4.5" stroke="#E5EFFF"/>
<defs>
<linearGradient id="paint0_linear_151_894" x1="7.00049" y1="26.0001" x2="33.0005" y2="26.0001" gradientUnits="userSpaceOnUse">
<stop stop-color="#0062FF"/>
<stop offset="1" stop-color="#00B2FF"/>
</linearGradient>
<linearGradient id="paint1_linear_151_894" x1="24.0005" y1="15.5001" x2="31.0005" y2="15.5001" gradientUnits="userSpaceOnUse">
<stop stop-color="#0062FF"/>
<stop offset="1" stop-color="#00B2FF"/>
</linearGradient>
<clipPath id="clip0_151_894">
<rect width="40" height="40" rx="5" fill="white"/>
</clipPath>
</defs>
</svg>
