<svg width="1023" height="366" viewBox="0 0 1023 366" fill="none" xmlns="http://www.w3.org/2000/svg">
<g opacity="0.5" filter="url(#filter0_d_322_1661)">
<path d="M44 316C47.0724 316 120.809 305.247 196.082 245.34C271.355 185.433 360.454 154.712 417.293 179.289C474.132 203.866 514.072 262.237 578.592 211.547C643.112 160.856 712.24 104.021 770.615 111.701C828.99 119.382 852.033 139.351 867.395 159.32C882.757 179.289 895.046 167 905.799 167C916.553 167 954.957 216.155 978 211.547" stroke="#D06978" stroke-width="2.5"/>
</g>
<g opacity="0.5" filter="url(#filter1_d_322_1661)">
<path d="M45 119.552C56.7765 123.67 97.2262 118.316 164.813 63.9532C249.297 -4.00061 335.316 25.3431 369.11 104.108C402.903 182.872 472.026 182.872 501.211 165.884C530.397 148.896 571.87 151.984 596.448 199.861C621.025 247.737 727.013 261.637 794.6 165.884C862.187 70.1309 886.764 105.652 922.093 131.907C950.357 152.911 973.808 163.31 982 165.884" stroke="#6FBAFC" stroke-width="2.5"/>
</g>
<defs>
<filter id="filter0_d_322_1661" x="0" y="69.75" width="1022.25" height="295.5" filterUnits="userSpaceOnUse" color-interpolation-filters="sRGB">
<feFlood flood-opacity="0" result="BackgroundImageFix"/>
<feColorMatrix in="SourceAlpha" type="matrix" values="0 0 0 0 0 0 0 0 0 0 0 0 0 0 0 0 0 0 127 0" result="hardAlpha"/>
<feOffset dy="4"/>
<feGaussianBlur stdDeviation="22"/>
<feComposite in2="hardAlpha" operator="out"/>
<feColorMatrix type="matrix" values="0 0 0 0 0.815686 0 0 0 0 0.403922 0 0 0 0 0.462745 0 0 0 1 0"/>
<feBlend mode="normal" in2="BackgroundImageFix" result="effect1_dropShadow_322_1661"/>
<feBlend mode="normal" in="SourceGraphic" in2="effect1_dropShadow_322_1661" result="shape"/>
</filter>
<filter id="filter1_d_322_1661" x="16.5873" y="0.74942" width="993.787" height="269.5" filterUnits="userSpaceOnUse" color-interpolation-filters="sRGB">
<feFlood flood-opacity="0" result="BackgroundImageFix"/>
<feColorMatrix in="SourceAlpha" type="matrix" values="0 0 0 0 0 0 0 0 0 0 0 0 0 0 0 0 0 0 127 0" result="hardAlpha"/>
<feOffset dy="4"/>
<feGaussianBlur stdDeviation="14"/>
<feComposite in2="hardAlpha" operator="out"/>
<feColorMatrix type="matrix" values="0 0 0 0 0.435294 0 0 0 0 0.729412 0 0 0 0 0.988235 0 0 0 1 0"/>
<feBlend mode="normal" in2="BackgroundImageFix" result="effect1_dropShadow_322_1661"/>
<feBlend mode="normal" in="SourceGraphic" in2="effect1_dropShadow_322_1661" result="shape"/>
</filter>
</defs>
</svg>
