<svg width="47" height="48" viewBox="0 0 47 48" fill="none" xmlns="http://www.w3.org/2000/svg">
<path d="M4.8329 11.5555H36.8329V18.6667H4.8329C3.88991 18.6667 2.98554 18.2921 2.31874 17.6253C1.65195 16.9585 1.27734 16.0541 1.27734 15.1111C1.27734 14.1681 1.65195 13.2637 2.31874 12.5969C2.98554 11.9301 3.88991 11.5555 4.8329 11.5555Z" fill="#195E7C"/>
<path d="M42.1662 18.6666V47.1111H4.8329C4.36594 47.1112 3.90354 47.0193 3.47211 46.8407C3.04068 46.662 2.64867 46.4001 2.31848 46.0699C1.98829 45.7398 1.7264 45.3477 1.54776 44.9163C1.36911 44.4849 1.27723 44.0225 1.27734 43.5555V15.1111C1.27723 15.578 1.36911 16.0404 1.54776 16.4719C1.7264 16.9033 1.98829 17.2953 2.31848 17.6255C2.64867 17.9557 3.04068 18.2176 3.47211 18.3962C3.90354 18.5749 4.36594 18.6668 4.8329 18.6666H42.1662Z" fill="#2DAAE2"/>
<path d="M38.6109 28.4445H45.7221V37.3333H38.6109C37.4322 37.3333 36.3017 36.8651 35.4683 36.0316C34.6348 35.1981 34.1665 34.0676 34.1665 32.8889C34.1665 31.7102 34.6348 30.5797 35.4683 29.7462C36.3017 28.9127 37.4322 28.4445 38.6109 28.4445Z" fill="#299BCE"/>
<path d="M8.38867 0.888916H29.722V18.6667H8.38867V0.888916Z" fill="#BEE5F6"/>
<path d="M18.8062 47.1111H4.8329C4.36594 47.1112 3.90354 47.0194 3.47211 46.8407C3.04068 46.6621 2.64867 46.4002 2.31848 46.07C1.98829 45.7398 1.7264 45.3478 1.54776 44.9164C1.36911 44.4849 1.27723 44.0225 1.27734 43.5556V31.1289C5.30751 38.1565 11.4373 43.7454 18.8062 47.1111Z" fill="#299BCE"/>
<path d="M25.0376 18.6667H8.38867V6.44446C11.1887 11.0667 16.1753 16.0889 25.0376 18.6667Z" fill="#72C6EC"/>
<path d="M26.1666 8.00001V18.6667H11.9443V8.00001C12.4113 8.00013 12.8737 7.90824 13.3051 7.7296C13.7366 7.55096 14.1286 7.28906 14.4588 6.95888C14.7889 6.62869 15.0508 6.23668 15.2295 5.80525C15.4081 5.37382 15.5 4.91141 15.4999 4.44446H22.611C22.6109 4.91141 22.7028 5.37382 22.8814 5.80525C23.0601 6.23668 23.322 6.62869 23.6521 6.95888C23.9823 7.28906 24.3743 7.55096 24.8058 7.7296C25.2372 7.90824 25.6996 8.00013 26.1666 8.00001Z" fill="#BEE5F6"/>
<path d="M25.0377 18.6666H11.9443V11.0577C15.561 14.7049 20.0783 17.33 25.0377 18.6666Z" fill="#57BBE8"/>
<path d="M22.6111 18.6666H15.5C15.4989 17.9924 15.6909 17.332 16.0531 16.7633C16.4154 16.1947 16.9329 15.7417 17.5444 15.4578C18.0155 15.2294 18.5321 15.1109 19.0556 15.1111C19.8512 15.1106 20.6239 15.3777 21.2495 15.8694C21.875 16.3612 22.317 17.0489 22.5044 17.8222C22.5765 18.0979 22.6124 18.3817 22.6111 18.6666Z" fill="#9ED8F2"/>
<path d="M22.6111 18.6667H15.5C15.4989 17.9924 15.6909 17.332 16.0531 16.7633C16.4154 16.1947 16.9329 15.7417 17.5444 15.4578C19.1225 16.3949 20.7827 17.1863 22.5044 17.8222C22.5765 18.0979 22.6124 18.3817 22.6111 18.6667Z" fill="#57BBE8"/>
<path d="M45.722 27.5556H43.0553V18.6667C43.0546 18.4311 42.9608 18.2055 42.7942 18.0389C42.6277 17.8724 42.402 17.7785 42.1665 17.7778H37.722V11.5556C37.722 11.3198 37.6284 11.0937 37.4617 10.927C37.295 10.7603 37.0689 10.6667 36.8331 10.6667H30.6109V0.888889C30.6109 0.653141 30.5172 0.427049 30.3505 0.26035C30.1838 0.0936507 29.9578 0 29.722 0H8.38867C8.15292 0 7.92683 0.0936507 7.76013 0.26035C7.59343 0.427049 7.49978 0.653141 7.49978 0.888889V10.6667H4.83312C3.65481 10.6681 2.52517 11.1368 1.69198 11.97C0.858789 12.8032 0.390083 13.9328 0.388672 15.1111V43.5556C0.389143 44.7341 0.857547 45.8643 1.69094 46.6977C2.52433 47.5311 3.65452 47.9995 4.83312 48H42.1665C42.402 47.9993 42.6277 47.9054 42.7942 47.7389C42.9608 47.5723 43.0546 47.3466 43.0553 47.1111V38.2222H45.722C45.9578 38.2222 46.1838 38.1286 46.3505 37.9619C46.5172 37.7952 46.6109 37.5691 46.6109 37.3333V28.4444C46.6109 28.2087 46.5172 27.9826 46.3505 27.8159C46.1838 27.6492 45.9578 27.5556 45.722 27.5556ZM35.9442 12.4444V17.7778H30.6109V12.4444H35.9442ZM28.8331 17.7778H27.0553V8C27.0553 7.76425 26.9617 7.53816 26.795 7.37146C26.6283 7.20476 26.4022 7.11111 26.1665 7.11111C25.4594 7.1104 24.7816 6.82923 24.2816 6.32928C23.7817 5.82934 23.5005 5.15147 23.4998 4.44444C23.4998 4.2087 23.4061 3.9826 23.2394 3.81591C23.0727 3.64921 22.8466 3.55556 22.6109 3.55556H15.4998C15.264 3.55556 15.0379 3.64921 14.8712 3.81591C14.7045 3.9826 14.6109 4.2087 14.6109 4.44444C14.6102 5.15147 14.329 5.82934 13.8291 6.32928C13.3291 6.82923 12.6513 7.1104 11.9442 7.11111C11.7085 7.11111 11.4824 7.20476 11.3157 7.37146C11.149 7.53816 11.0553 7.76425 11.0553 8V17.7778H9.27756V1.77778H28.8331V17.7778ZM23.41 17.7778C23.2051 16.774 22.6598 15.8719 21.8663 15.224C21.0728 14.576 20.0798 14.2221 19.0553 14.2221C18.0309 14.2221 17.0379 14.576 16.2444 15.224C15.4509 15.8719 14.9055 16.774 14.7007 17.7778H12.8331V8.8C13.6865 8.6242 14.4697 8.20215 15.0858 7.58603C15.7019 6.96991 16.124 6.18674 16.2998 5.33333H21.8109C21.9867 6.18674 22.4087 6.96991 23.0249 7.58603C23.641 8.20215 24.4242 8.6242 25.2776 8.8V17.7778H23.41ZM21.57 17.7778H16.5398C16.7234 17.2575 17.0638 16.807 17.5142 16.4883C17.9646 16.1697 18.5027 15.9986 19.0545 15.9986C19.6062 15.9986 20.1443 16.1697 20.5947 16.4883C21.0451 16.807 21.3855 17.2575 21.5691 17.7778H21.57ZM4.83312 12.4444H7.49978V17.7778H4.83312C4.12587 17.7778 3.44759 17.4968 2.9475 16.9967C2.4474 16.4966 2.16645 15.8184 2.16645 15.1111C2.16645 14.4039 2.4474 13.7256 2.9475 13.2255C3.44759 12.7254 4.12587 12.4444 4.83312 12.4444ZM41.2776 46.2222H4.83312C4.12652 46.2201 3.44947 45.9385 2.94983 45.4388C2.45019 44.9392 2.16856 44.2621 2.16645 43.5556V18.6667C2.17178 18.6711 2.37712 18.8036 2.52467 18.8942C3.21862 19.3229 4.01743 19.5518 4.83312 19.5556H41.2776V27.5556H38.6109C37.1964 27.5556 35.8399 28.1175 34.8397 29.1177C33.8395 30.1178 33.2776 31.4744 33.2776 32.8889C33.2776 34.3034 33.8395 35.6599 34.8397 36.6601C35.8399 37.6603 37.1964 38.2222 38.6109 38.2222H41.2776V46.2222ZM44.8331 36.4444H38.6109C37.6679 36.4444 36.7635 36.0698 36.0967 35.403C35.4299 34.7362 35.0553 33.8319 35.0553 32.8889C35.0553 31.9459 35.4299 31.0415 36.0967 30.3747C36.7635 29.7079 37.6679 29.3333 38.6109 29.3333H44.8331V36.4444Z" fill="#13475F"/>
<path d="M38.6108 34.6666C39.5926 34.6666 40.3886 33.8707 40.3886 32.8889C40.3886 31.907 39.5926 31.1111 38.6108 31.1111C37.6289 31.1111 36.833 31.907 36.833 32.8889C36.833 33.8707 37.6289 34.6666 38.6108 34.6666Z" fill="#13475F"/>
</svg>
