<svg width="49" height="48" viewBox="0 0 49 48" fill="none" xmlns="http://www.w3.org/2000/svg">
<g id="Frame" clip-path="url(#clip0_201_2687)">
<g id="Group">
<path id="Vector" d="M32.5455 44.2285L31.1801 42.6377H17.8935L16.4537 44.2285L13.8076 47.2972H35.1916L32.5455 44.2285Z" fill="#EFEDEF"/>
<path id="Vector_2" d="M24.9958 42.6377H17.8935L16.4537 44.2285L13.8076 47.2972H20.91L23.5561 44.2285L24.9958 42.6377Z" fill="#E5E1E5"/>
<path id="Vector_3" d="M16.4541 33.7333H32.546V44.2285H16.4541V33.7333Z" fill="#C9BFC8"/>
<path id="Vector_4" d="M32.546 33.7333H16.4541V44.2285H23.5373V43.8759C23.5373 42.8587 24.3619 42.0341 25.3791 42.0341H32.546V33.7333Z" fill="#BAAFB9"/>
<path id="Vector_5" d="M45.9206 37.8088L47.7113 35.9259V11.1716C47.7113 9.09238 46.0256 7.40674 43.9464 7.40674H5.05389C2.97471 7.40674 1.28906 9.09238 1.28906 11.1716V35.9259L4.557 37.8088H45.9206Z" fill="#72C6EC"/>
<path id="Vector_6" d="M16.9044 35.9259V11.1716C16.9044 9.09238 18.59 7.40674 20.6692 7.40674H5.05389C2.97471 7.40674 1.28906 9.09238 1.28906 11.1716V35.9259L4.557 37.8088H17.4091C17.0778 37.2366 16.9036 36.587 16.9044 35.9259Z" fill="#2CAAE2"/>
<path id="Vector_7" d="M1.28906 35.9259H47.7113C47.7113 38.006 46.0256 39.6917 43.9464 39.6917H5.05389C2.97471 39.6917 1.28906 38.006 1.28906 35.9259Z" fill="#EFEDEF"/>
<path id="Vector_8" d="M16.9044 35.9259H1.28906C1.28906 38.006 2.97471 39.6917 5.05389 39.6917H20.6689C18.5898 39.6915 16.9044 38.0059 16.9044 35.9259Z" fill="#E5E1E5"/>
<path id="Vector_9" d="M35.8813 21.3263H33.4209C33.2531 21.3263 33.0921 21.2597 32.9734 21.141C32.8548 21.0223 32.7881 20.8613 32.7881 20.6935V12.4204C32.7881 12.2526 32.8548 12.0916 32.9734 11.973C33.0921 11.8543 33.2531 11.7876 33.4209 11.7876H35.8813C36.0491 11.7876 36.2101 11.8543 36.3288 11.973C36.4474 12.0916 36.5141 12.2526 36.5141 12.4204V20.6935C36.5141 20.8613 36.4474 21.0223 36.3288 21.141C36.2101 21.2597 36.0491 21.3263 35.8813 21.3263Z" fill="#EB5569"/>
<path id="Vector_10" d="M27.5932 18.3314H25.1328C25.0497 18.3314 24.9674 18.315 24.8907 18.2832C24.8139 18.2514 24.7441 18.2048 24.6854 18.146C24.6266 18.0873 24.58 18.0175 24.5482 17.9407C24.5164 17.864 24.5 17.7817 24.5 17.6986V4.83426C24.5 4.75115 24.5164 4.66886 24.5482 4.59208C24.58 4.5153 24.6266 4.44554 24.6854 4.38677C24.7441 4.32801 24.8139 4.28139 24.8907 4.24959C24.9674 4.21779 25.0497 4.20142 25.1328 4.20142H27.5932C27.761 4.20142 27.922 4.26809 28.0407 4.38677C28.1594 4.50545 28.226 4.66642 28.226 4.83426V17.6986C28.226 17.8664 28.1594 18.0274 28.0407 18.146C27.922 18.2647 27.761 18.3314 27.5932 18.3314Z" fill="#6CF5C2"/>
<path id="Vector_11" d="M19.3051 19.722H16.8448C16.6769 19.722 16.516 19.6553 16.3973 19.5366C16.2786 19.4179 16.2119 19.257 16.2119 19.0891V10.8161C16.2119 10.6482 16.2786 10.4873 16.3973 10.3686C16.516 10.2499 16.6769 10.1832 16.8448 10.1832H19.3051C19.4729 10.1832 19.6339 10.2499 19.7526 10.3686C19.8713 10.4873 19.9379 10.6482 19.9379 10.8161V19.0891C19.938 19.1722 19.9216 19.2545 19.8898 19.3313C19.858 19.4081 19.8114 19.4779 19.7526 19.5366C19.6939 19.5954 19.6241 19.642 19.5473 19.6738C19.4705 19.7056 19.3882 19.722 19.3051 19.722Z" fill="#EB5569"/>
<path id="Vector_12" d="M11.018 23.5487H8.55765C8.38981 23.5487 8.22884 23.4821 8.11016 23.3634C7.99148 23.2447 7.9248 23.0837 7.9248 22.9159V14.6429C7.9248 14.475 7.99148 14.314 8.11016 14.1954C8.22884 14.0767 8.38981 14.01 8.55765 14.01H11.018C11.1858 14.01 11.3468 14.0767 11.4655 14.1954C11.5842 14.314 11.6508 14.475 11.6508 14.6429V22.9159C11.6508 22.999 11.6345 23.0813 11.6027 23.1581C11.5709 23.2349 11.5243 23.3047 11.4655 23.3634C11.4067 23.4222 11.337 23.4688 11.2602 23.5006C11.1834 23.5324 11.1011 23.5488 11.018 23.5487Z" fill="#6CF5C2"/>
<path id="Vector_13" d="M43.9462 6.70335H35.3535V3.88292C35.3535 3.49482 35.0389 3.18018 34.6507 3.18018C34.2626 3.18018 33.948 3.49482 33.948 3.88292V6.70335H31.0371C30.6489 6.70335 30.3343 7.01799 30.3343 7.40609C30.3343 7.79419 30.6489 8.10883 31.0371 8.10883H33.948V11.0845H33.4206C32.6841 11.0845 32.0849 11.6837 32.0849 12.4201V20.6932C32.0849 21.4296 32.6841 22.0288 33.4206 22.0288H33.948V27.6039C33.948 27.992 34.2626 28.3067 34.6507 28.3067C35.0389 28.3067 35.3535 27.992 35.3535 27.6039V22.0288H35.8809C36.6173 22.0288 37.2165 21.4295 37.2165 20.6932V12.4201C37.2165 11.6836 36.6173 11.0845 35.8809 11.0845H35.3535V8.10883H43.9462C45.6347 8.10883 47.0086 9.48265 47.0086 11.1713V35.2233H1.99142V11.1714C1.99142 9.48274 3.36524 8.10893 5.05388 8.10893H17.3727V9.4804H16.8452C16.1088 9.4804 15.5096 10.0796 15.5096 10.816V19.089C15.5096 19.8255 16.1089 20.4246 16.8452 20.4246H17.3727V26.6343C17.3727 26.8207 17.4467 26.9995 17.5785 27.1312C17.7103 27.263 17.889 27.3371 18.0754 27.3371C18.2618 27.3371 18.4405 27.263 18.5723 27.1312C18.7041 26.9995 18.7781 26.8207 18.7781 26.6343V20.4246H19.3056C20.0421 20.4246 20.6412 19.8254 20.6412 19.089V10.816C20.6412 10.0795 20.042 9.4804 19.3056 9.4804H18.7781V8.10883H21.6891C21.8755 8.10883 22.0542 8.0348 22.186 7.90301C22.3178 7.77122 22.3918 7.59247 22.3918 7.40609C22.3918 7.21971 22.3178 7.04097 22.186 6.90918C22.0542 6.77739 21.8755 6.70335 21.6891 6.70335H18.7781V6.35629C18.7781 6.16991 18.7041 5.99116 18.5723 5.85938C18.4405 5.72759 18.2618 5.65355 18.0754 5.65355C17.889 5.65355 17.7103 5.72759 17.5785 5.85938C17.4467 5.99116 17.3727 6.16991 17.3727 6.35629V6.70335H5.05388C2.59025 6.70335 0.585938 8.70766 0.585938 11.1713V35.9261C0.585938 38.3897 2.59025 40.394 5.05388 40.394H15.7514V43.9671L13.4864 46.5945H12.5874C12.401 46.5945 12.2222 46.6685 12.0905 46.8003C11.9587 46.9321 11.8846 47.1108 11.8846 47.2972C11.8846 47.4836 11.9587 47.6623 12.0905 47.7941C12.2222 47.9259 12.401 47.9999 12.5874 47.9999H36.3478C36.736 47.9999 37.0506 47.6853 37.0506 47.2972C37.0506 46.9091 36.736 46.5945 36.3478 46.5945H35.5135L33.2485 43.9671V40.394H43.9462C46.4098 40.394 48.4141 38.3897 48.4141 35.9261V11.1714C48.4141 8.70776 46.4098 6.70335 43.9462 6.70335ZM35.811 20.6235H33.4905V12.4901H35.8111V20.6235H35.811ZM19.2357 19.0191H16.915V10.8859H19.2357V19.0191ZM43.9462 38.9885H29.7235C29.3353 38.9885 29.0208 39.3032 29.0208 39.6913C29.0208 40.0794 29.3353 40.394 29.7235 40.394H31.8431V43.5255H30.0926C29.7044 43.5255 29.3898 43.8402 29.3898 44.2283C29.3898 44.6164 29.7044 44.931 30.0926 44.931H32.2238L33.6578 46.5945H15.3421L16.7762 44.931H18.9074C19.0937 44.931 19.2725 44.857 19.4043 44.7252C19.5361 44.5934 19.6101 44.4147 19.6101 44.2283C19.6101 44.0419 19.5361 43.8632 19.4043 43.7314C19.2725 43.5996 19.0937 43.5255 18.9074 43.5255H17.1569V40.394H26.7286C27.1168 40.394 27.4313 40.0794 27.4313 39.6913C27.4313 39.3032 27.1168 38.9885 26.7286 38.9885H5.05388C3.60707 38.9885 2.39227 37.9798 2.07369 36.6288H46.9263C46.6078 37.9798 45.393 38.9885 43.9462 38.9885Z" fill="#12475F"/>
<path id="Vector_14" d="M7.92471 20.5166C7.73834 20.5166 7.55959 20.5906 7.4278 20.7224C7.29601 20.8542 7.22197 21.033 7.22197 21.2193V22.9159C7.22197 23.6523 7.82108 24.2514 8.55756 24.2514H9.08499V27.9939C9.08499 28.1803 9.15903 28.359 9.29082 28.4908C9.42261 28.6226 9.60135 28.6966 9.78773 28.6966C9.97411 28.6966 10.1529 28.6226 10.2846 28.4908C10.4164 28.359 10.4905 28.1803 10.4905 27.9939V24.2514H11.0179C11.7544 24.2514 12.3535 23.6523 12.3535 22.9159V14.6428C12.3535 13.9063 11.7543 13.3071 11.0179 13.3071H10.4905V12.1831C10.4905 11.9967 10.4164 11.818 10.2846 11.6862C10.1529 11.5544 9.97411 11.4804 9.78773 11.4804C9.60135 11.4804 9.42261 11.5544 9.29082 11.6862C9.15903 11.818 9.08499 11.9967 9.08499 12.1831V13.3071H8.55756C7.82108 13.3071 7.22197 13.9063 7.22197 14.6428V18.2245C7.22197 18.4109 7.29601 18.5897 7.4278 18.7215C7.55959 18.8532 7.73834 18.9273 7.92471 18.9273C8.11109 18.9273 8.28984 18.8532 8.42163 18.7215C8.55342 18.5897 8.62746 18.4109 8.62746 18.2245V14.7127H10.9482V22.8461H8.62746V21.2194C8.62747 21.1271 8.6093 21.0358 8.57399 20.9505C8.53868 20.8652 8.48692 20.7877 8.42166 20.7225C8.35641 20.6572 8.27893 20.6054 8.19366 20.5701C8.1084 20.5348 8.01701 20.5166 7.92471 20.5166ZM25.1329 19.0341H25.6604V22.7764C25.6604 23.1645 25.975 23.4792 26.3632 23.4792C26.7514 23.4792 27.0659 23.1645 27.0659 22.7764V19.0341H27.5933C28.3297 19.0341 28.9289 18.4349 28.9289 17.6984V12.1864C28.9289 11.7983 28.6144 11.4836 28.2262 11.4836C27.838 11.4836 27.5234 11.7983 27.5234 12.1864V17.6286H25.2028V4.90402H27.5234V9.19158C27.5234 9.57969 27.838 9.89433 28.2262 9.89433C28.6144 9.89433 28.9289 9.57969 28.9289 9.19158V4.83412C28.9289 4.09774 28.3297 3.49853 27.5933 3.49853H27.0659V0.702742C27.0659 0.314641 26.7514 0 26.3632 0C25.975 0 25.6604 0.314641 25.6604 0.702742V3.49853H25.1329C24.3964 3.49853 23.7973 4.09774 23.7973 4.83412V17.6984C23.7973 18.435 24.3964 19.0341 25.1329 19.0341ZM38.7063 19.2661C38.7501 19.3473 38.8095 19.4192 38.881 19.4775C38.9526 19.5358 39.0349 19.5794 39.1233 19.6059C39.2117 19.6323 39.3045 19.6411 39.3963 19.6317C39.4881 19.6223 39.5772 19.5949 39.6584 19.5511L42.8954 17.8058L42.6626 18.4169C42.6297 18.5031 42.6142 18.595 42.6168 18.6873C42.6195 18.7795 42.6403 18.8703 42.678 18.9546C42.7158 19.0388 42.7697 19.1147 42.8368 19.1781C42.904 19.2414 42.9829 19.291 43.0691 19.3238C43.1554 19.3567 43.2472 19.3722 43.3395 19.3696C43.4317 19.3669 43.5226 19.3461 43.6068 19.3084C43.691 19.2706 43.767 19.2166 43.8303 19.1495C43.8937 19.0824 43.9432 19.0035 43.976 18.9173L44.7672 16.8403C44.8001 16.7541 44.8156 16.6622 44.813 16.57C44.8103 16.4777 44.7895 16.3869 44.7518 16.3027C44.714 16.2184 44.6601 16.1425 44.593 16.0791C44.5259 16.0158 44.4469 15.9663 44.3607 15.9334L42.1562 15.0936C41.9827 15.0301 41.7911 15.0375 41.623 15.1143C41.4549 15.191 41.3238 15.3308 41.258 15.5035C41.1922 15.6761 41.1971 15.8678 41.2716 16.0369C41.346 16.206 41.4841 16.339 41.6559 16.4071L42.167 16.6018L38.9914 18.314C38.8273 18.4025 38.7051 18.5525 38.6517 18.731C38.5982 18.9096 38.6179 19.102 38.7063 19.2661ZM4.7412 32.997C4.79534 33.1236 4.88545 33.2315 5.00035 33.3073C5.11525 33.3831 5.24988 33.4235 5.38753 33.4234C5.48251 33.4234 5.57649 33.404 5.66376 33.3666L14.7318 29.4857L15.5558 31.6448C15.5915 31.7381 15.6467 31.8229 15.7177 31.8932C15.7887 31.9636 15.8738 32.018 15.9676 32.0529C16.0613 32.0877 16.1613 32.1021 16.261 32.0952C16.3608 32.0883 16.4579 32.0602 16.5459 32.0127L31.5268 23.9354C31.6082 23.8917 31.6802 23.8324 31.7386 23.7608C31.7971 23.6892 31.8408 23.6069 31.8674 23.5184C31.894 23.4299 31.9028 23.3371 31.8935 23.2452C31.8841 23.1532 31.8567 23.0641 31.8129 22.9828C31.769 22.9014 31.7096 22.8296 31.6379 22.7713C31.5663 22.7129 31.4838 22.6693 31.3953 22.6429C31.3068 22.6165 31.2139 22.6078 31.122 22.6173C31.0301 22.6268 30.941 22.6543 30.8598 22.6983L16.5834 30.3957L15.7841 28.3012C15.7504 28.2128 15.6991 28.1321 15.6334 28.0639C15.5677 27.9958 15.4889 27.9416 15.4018 27.9047C15.3147 27.8678 15.221 27.8488 15.1263 27.849C15.0317 27.8492 14.938 27.8685 14.851 27.9057L5.11075 32.0744C4.93943 32.1478 4.80427 32.2862 4.73497 32.4592C4.66567 32.6322 4.66791 32.8257 4.7412 32.997Z" fill="#12475F"/>
</g>
</g>
<defs>
<clipPath id="clip0_201_2687">
<rect width="48" height="48" fill="white" transform="translate(0.5)"/>
</clipPath>
</defs>
</svg>
