<svg width="197" height="201" viewBox="0 0 197 201" fill="none" xmlns="http://www.w3.org/2000/svg">
<g clip-path="url(#clip0_1_10596)">
<path d="M114.506 34.7104C114.765 34.727 115.025 34.6925 115.27 34.6086C115.516 34.5248 115.742 34.3933 115.936 34.2218C116.131 34.0502 116.29 33.842 116.403 33.609C116.517 33.376 116.584 33.1229 116.599 32.8641V28.556C116.584 28.2973 116.517 28.0441 116.403 27.8111C116.29 27.5781 116.131 27.3699 115.936 27.1983C115.742 27.0268 115.516 26.8953 115.27 26.8115C115.025 26.7276 114.765 26.6931 114.506 26.7098C114.027 26.7232 113.557 26.5715 113.176 26.2803C112.795 25.989 112.526 25.5757 112.413 25.1096C112.283 24.1395 112.035 23.1888 111.674 22.2786C111.537 21.8353 111.56 21.3575 111.74 20.9296C111.92 20.5017 112.246 20.1512 112.659 19.94C113.109 19.7033 113.449 19.3022 113.61 18.8206C113.77 18.339 113.739 17.814 113.521 17.3552C112.898 16.0441 112.199 14.7701 111.428 13.5395C111.13 13.1236 110.69 12.8312 110.191 12.7178C109.692 12.6044 109.168 12.6778 108.719 12.9241C108.31 13.1647 107.832 13.2592 107.362 13.1921C106.892 13.125 106.459 12.9003 106.134 12.5548C105.499 11.7974 104.798 11.0972 104.041 10.4623C103.695 10.1372 103.47 9.70425 103.403 9.23459C103.336 8.76494 103.431 8.28641 103.671 7.87752C103.959 7.45125 104.069 6.92933 103.977 6.42331C103.885 5.91728 103.598 5.46733 103.179 5.16964L99.3619 2.95406C98.8849 2.7756 98.3591 2.77715 97.8831 2.95842C97.4072 3.13969 97.0137 3.48825 96.7763 3.93878C96.5482 4.33643 96.1956 4.64815 95.7729 4.82605C95.3503 5.00395 94.8809 5.03817 94.4369 4.92345L91.6051 4.06187C91.1371 4.00029 90.7104 3.76187 90.4127 3.39562C90.115 3.02936 89.969 2.56306 90.0045 2.09248C90.0212 1.83375 89.9865 1.57428 89.9026 1.32894C89.8188 1.0836 89.6873 0.857209 89.5157 0.662799C89.3441 0.468388 89.1358 0.309781 88.9028 0.196041C88.6697 0.0823017 88.4165 0.0156674 88.1576 0H83.8482C83.5893 0.0156674 83.3361 0.0823017 83.103 0.196041C82.87 0.309781 82.6616 0.468388 82.49 0.662799C82.3184 0.857209 82.187 1.0836 82.1031 1.32894C82.0192 1.57428 81.9847 1.83375 82.0013 2.09248C82.0369 2.56306 81.8907 3.02936 81.5931 3.39562C81.2954 3.76187 80.8687 4.00029 80.4007 4.06187L77.5688 4.92345C77.1253 5.06133 76.6474 5.03815 76.2193 4.85798C75.7913 4.67781 75.4407 4.35225 75.2295 3.93878C74.9696 3.47873 74.5538 3.12666 74.0571 2.9461C73.5604 2.76554 73.0155 2.76836 72.5207 2.95406L68.827 5.16964C68.4109 5.46769 68.1185 5.9078 68.005 6.40678C67.8916 6.90575 67.965 7.42897 68.2113 7.87752C68.5189 8.25401 68.6656 8.73658 68.6195 9.22051C68.5734 9.70443 68.3382 10.1507 67.9651 10.4623C67.2074 11.0972 66.5069 11.7974 65.8719 12.5548C65.5466 12.9003 65.1136 13.125 64.6438 13.1921C64.174 13.2592 63.6954 13.1647 63.2863 12.9241C62.8376 12.6778 62.3143 12.6044 61.8151 12.7178C61.316 12.8312 60.8757 13.1236 60.5776 13.5395C59.7667 14.7682 59.0268 16.0421 58.3613 17.3552C58.1828 17.8321 58.1844 18.3577 58.3657 18.8335C58.547 19.3093 58.8956 19.7027 59.3463 19.94C59.7562 20.1517 60.072 20.5092 60.2315 20.942C60.391 21.3748 60.3827 21.8516 60.2082 22.2786L59.4694 25.1096C59.4078 25.5775 59.1694 26.004 58.803 26.3016C58.4366 26.5992 57.9702 26.7452 57.4994 26.7098C57.2406 26.6931 56.981 26.7276 56.7356 26.8115C56.4902 26.8953 56.2638 27.0268 56.0693 27.1983C55.8749 27.3699 55.7161 27.5781 55.6024 27.8111C55.4886 28.0441 55.422 28.2973 55.4063 28.556C55.4063 29.2946 55.2832 30.0331 55.2832 30.6485C55.2832 31.2639 55.4063 32.1255 55.4063 32.8641C55.422 33.1229 55.4886 33.376 55.6024 33.609C55.7161 33.842 55.8749 34.0502 56.0693 34.2218C56.2638 34.3933 56.4902 34.5248 56.7356 34.6086C56.981 34.6925 57.2406 34.727 57.4994 34.7104C57.9702 34.6749 58.4366 34.8209 58.803 35.1185C59.1694 35.4161 59.4078 35.8426 59.4694 36.3105L60.2082 39.1415C60.3827 39.5685 60.391 40.0453 60.2315 40.4781C60.072 40.9109 59.7562 41.2684 59.3463 41.4801C58.8956 41.7174 58.547 42.1108 58.3657 42.5866C58.1844 43.0624 58.1828 43.588 58.3613 44.0649C59.0268 45.378 59.7667 46.6519 60.5776 47.8806C60.8753 48.3 61.3255 48.5863 61.8317 48.6783C62.3378 48.7703 62.8599 48.6607 63.2863 48.373C63.6954 48.1324 64.174 48.0378 64.6438 48.1049C65.1136 48.172 65.5466 48.3967 65.8719 48.7422C66.5069 49.4997 67.2074 50.1999 67.9651 50.8347C68.3382 51.1464 68.5734 51.5926 68.6195 52.0765C68.6656 52.5604 68.5189 53.043 68.2113 53.4195C67.965 53.868 67.8916 54.3913 68.005 54.8902C68.1185 55.3892 68.4109 55.8293 68.827 56.1274L72.5207 58.2199C72.754 58.3466 73.0104 58.4249 73.2748 58.4501C73.5391 58.4752 73.8058 58.4467 74.0588 58.3662C74.3118 58.2857 74.5459 58.155 74.7471 57.9818C74.9483 57.8085 75.1124 57.5965 75.2295 57.3582C75.4407 56.9448 75.7913 56.6192 76.2193 56.439C76.6474 56.2589 77.1253 56.2357 77.5688 56.3736C78.4793 56.7337 79.4302 56.9817 80.4007 57.1121C80.8669 57.2247 81.2803 57.494 81.5717 57.8749C81.8631 58.2558 82.0148 58.7252 82.0013 59.2045C81.9847 59.4633 82.0192 59.7227 82.1031 59.9681C82.187 60.2134 82.3184 60.4398 82.49 60.6342C82.6616 60.8286 82.87 60.9872 83.103 61.101C83.3361 61.2147 83.5893 61.2814 83.8482 61.297H88.1576C88.4165 61.2814 88.6697 61.2147 88.9028 61.101C89.1358 60.9872 89.3441 60.8286 89.5157 60.6342C89.6873 60.4398 89.8188 60.2134 89.9026 59.9681C89.9865 59.7227 90.0212 59.4633 90.0045 59.2045C89.991 58.7252 90.1427 58.2558 90.434 57.8749C90.7254 57.494 91.1388 57.2247 91.6051 57.1121C92.5755 56.9817 93.5265 56.7337 94.4369 56.3736C94.8809 56.2589 95.3503 56.2931 95.7729 56.471C96.1956 56.6489 96.5482 56.9606 96.7763 57.3582C96.8807 57.5924 97.0326 57.8022 97.2225 57.9744C97.4124 58.1466 97.6361 58.2773 97.8793 58.3584C98.1225 58.4394 98.3799 58.469 98.6352 58.4451C98.8904 58.4213 99.138 58.3446 99.3619 58.2199C100.673 57.5963 101.948 56.8976 103.179 56.1274C103.598 55.8297 103.885 55.3797 103.977 54.8737C104.069 54.3677 103.959 53.8457 103.671 53.4195C103.431 53.0106 103.336 52.5321 103.403 52.0624C103.47 51.5928 103.695 51.1599 104.041 50.8347C104.798 50.1999 105.499 49.4997 106.134 48.7422C106.459 48.3967 106.892 48.172 107.362 48.1049C107.832 48.0378 108.31 48.1324 108.719 48.373C109.146 48.6607 109.668 48.7703 110.174 48.6783C110.68 48.5863 111.13 48.3 111.428 47.8806C112.199 46.6499 112.898 45.376 113.521 44.0649C113.739 43.6061 113.77 43.0811 113.61 42.5995C113.449 42.1178 113.109 41.7169 112.659 41.4801C112.262 41.252 111.95 40.8996 111.772 40.4771C111.594 40.0546 111.56 39.5853 111.674 39.1415C112.035 38.2313 112.283 37.2806 112.413 36.3105C112.526 35.8444 112.795 35.4311 113.176 35.1398C113.557 34.8485 114.027 34.6969 114.506 34.7104ZM88.7732 48.8653C85.9286 49.2783 83.0269 49.0218 80.2989 48.1162C77.571 47.2107 75.0921 45.6811 73.0596 43.6493C71.0271 41.6174 69.497 39.1393 68.5912 36.4122C67.6854 33.6851 67.4289 30.7843 67.842 27.9406C68.9501 20.6785 75.8451 13.6626 83.2326 12.5548C86.0772 12.1419 88.9789 12.3983 91.7068 13.3039C94.4348 14.2094 96.9136 15.7389 98.9461 17.7708C100.979 19.8027 102.509 22.2808 103.415 25.0079C104.32 27.735 104.577 30.6358 104.164 33.4795C103.056 40.7416 96.0376 47.7575 88.7732 48.8653Z" fill="#72C6EC"/>
<path d="M115.86 34.7104C116.362 34.7114 116.846 34.5208 117.212 34.1777C117.578 33.8346 117.799 33.3648 117.83 32.8641C117.933 32.1302 117.974 31.3892 117.954 30.6485C117.97 29.9488 117.929 29.249 117.83 28.5561C117.831 28.3029 117.78 28.0523 117.679 27.8199C117.579 27.5874 117.432 27.3781 117.247 27.205C117.062 27.0318 116.844 26.8985 116.605 26.8133C116.367 26.7281 116.113 26.6929 115.86 26.7098C115.381 26.7232 114.911 26.5715 114.53 26.2803C114.149 25.989 113.88 25.5757 113.767 25.1096L113.029 22.2786C112.863 21.8368 112.872 21.3483 113.056 20.9133C113.239 20.4784 113.582 20.1301 114.014 19.94C114.463 19.7033 114.803 19.3022 114.964 18.8206C115.124 18.339 115.093 17.814 114.875 17.3552C114.257 16.017 113.515 14.7395 112.659 13.5395C112.361 13.1236 111.921 12.8313 111.422 12.7179C110.923 12.6045 110.399 12.6778 109.95 12.9241C109.568 13.1806 109.103 13.285 108.648 13.2167C108.192 13.1484 107.778 12.9123 107.488 12.5548C106.749 11.8163 106.134 11.0778 105.395 10.4624C105.049 10.1372 104.824 9.70426 104.757 9.23461C104.69 8.76495 104.785 8.28643 105.025 7.87753C105.313 7.45126 105.423 6.92934 105.331 6.42332C105.239 5.9173 104.953 5.46735 104.533 5.16966L100.716 2.95408C100.239 2.77561 99.7133 2.77717 99.2373 2.95844C98.7614 3.1397 98.3678 3.48827 98.1305 3.93879C97.8811 4.34643 97.5066 4.66254 97.0628 4.84C96.619 5.01746 96.1297 5.04674 95.668 4.92347L92.8361 4.06189C92.3906 3.97274 91.9937 3.72259 91.7211 3.35927C91.4485 2.99595 91.3195 2.54496 91.3586 2.0925C91.3329 1.59909 91.1334 1.13069 90.7953 0.770243C90.4573 0.409799 90.0026 0.180565 89.5117 0.123108H85.0792C84.5678 0.183665 84.0967 0.430587 83.7559 0.816633C83.4152 1.20268 83.2288 1.70076 83.2324 2.21559C83.2715 2.66805 83.1424 3.11905 82.8698 3.48236C82.5973 3.84568 82.2003 4.0958 81.7548 4.18494L78.923 5.04656C78.4612 5.16983 77.9719 5.14055 77.5281 4.9631C77.0844 4.78564 76.7098 4.46953 76.4605 4.06189C76.2231 3.61136 75.8296 3.2628 75.3536 3.08153C74.8776 2.90026 74.3519 2.8987 73.8748 3.07717L70.058 5.29275C69.6384 5.59044 69.352 6.04039 69.26 6.54641C69.1679 7.05244 69.2776 7.57435 69.5654 8.00063C69.8061 8.40952 69.9007 8.88804 69.8336 9.3577C69.7665 9.82736 69.5417 10.2603 69.1961 10.5854C68.4775 11.222 67.8182 11.9224 67.2261 12.6779C66.9008 13.0234 66.4677 13.2481 65.9979 13.3152C65.5281 13.3823 65.0495 13.2878 64.6404 13.0472C64.1918 12.8009 63.6684 12.7275 63.1692 12.841C62.6701 12.9544 62.2298 13.2467 61.9317 13.6626C61.0755 14.8626 60.3335 16.1401 59.7154 17.4783C59.4982 17.9371 59.4665 18.4621 59.6271 18.9437C59.7877 19.4253 60.1281 19.8264 60.5773 20.0631C61.0094 20.2532 61.3522 20.6015 61.5354 21.0364C61.7186 21.4714 61.7282 21.9599 61.5623 22.4017L60.8236 25.2327C60.7109 25.6988 60.4416 26.1121 60.0605 26.4034C59.6795 26.6946 59.2099 26.8463 58.7305 26.8329C58.4778 26.816 58.2243 26.8512 57.9858 26.9364C57.7473 27.0216 57.5289 27.1549 57.3442 27.3281C57.1594 27.5012 57.0123 27.7105 56.9118 27.943C56.8114 28.1754 56.7599 28.426 56.7605 28.6792C56.6617 29.372 56.6205 30.0719 56.6373 30.7716C56.6171 31.5122 56.6583 32.2533 56.7605 32.9872C56.7919 33.4879 57.0132 33.9577 57.3793 34.3008C57.7454 34.6439 58.2286 34.8344 58.7305 34.8335C59.2099 34.8201 59.6795 34.9716 60.0605 35.2629C60.4416 35.5542 60.7109 35.9675 60.8236 36.4336L61.5623 39.2645C61.7002 39.7079 61.677 40.1857 61.4968 40.6136C61.3166 41.0415 60.9909 41.392 60.5773 41.6032C60.1281 41.84 59.7877 42.2409 59.6271 42.7226C59.4665 43.2042 59.4982 43.7292 59.7154 44.188C60.3335 45.5262 61.0755 46.8037 61.9317 48.0037C62.2295 48.4231 62.6796 48.7094 63.1858 48.8014C63.692 48.8934 64.214 48.7838 64.6404 48.496C65.0495 48.2554 65.5281 48.161 65.9979 48.228C66.4677 48.2951 66.9008 48.5198 67.2261 48.8653C67.8182 49.6209 68.4775 50.3212 69.1961 50.9577C69.5417 51.2829 69.7665 51.7158 69.8336 52.1855C69.9007 52.6552 69.8061 53.1337 69.5654 53.5426C69.2776 53.9688 69.1679 54.4908 69.26 54.9968C69.352 55.5028 69.6384 55.9528 70.058 56.2505C71.289 57.0207 72.5634 57.7193 73.8748 58.3429C74.0988 58.4676 74.3463 58.5444 74.6016 58.5682C74.8569 58.5921 75.1143 58.5625 75.3575 58.4815C75.6007 58.4005 75.8244 58.2696 76.0142 58.0975C76.2041 57.9253 76.3561 57.7155 76.4605 57.4813C76.7098 57.0737 77.0844 56.7576 77.5281 56.5801C77.9719 56.4026 78.4612 56.3734 78.923 56.4966C79.8282 56.8727 80.7812 57.1212 81.7548 57.2352C82.2102 57.3505 82.6094 57.6248 82.8803 58.0085C83.1512 58.3922 83.2761 58.86 83.2324 59.3276C83.2288 59.8425 83.4152 60.3406 83.7559 60.7266C84.0967 61.1126 84.5678 61.3595 85.0792 61.4201H89.5117C90.0231 61.3595 90.4943 61.1126 90.835 60.7266C91.1758 60.3406 91.3622 59.8425 91.3586 59.3276C91.3148 58.86 91.4397 58.3922 91.7106 58.0085C91.9815 57.6248 92.3807 57.3505 92.8361 57.2352C93.8097 57.1212 94.7627 56.8727 95.668 56.4966C96.1297 56.3734 96.619 56.4026 97.0628 56.5801C97.5066 56.7576 97.8811 57.0737 98.1305 57.4813C98.2348 57.7155 98.3867 57.9253 98.5766 58.0975C98.7665 58.2696 98.9902 58.4005 99.2334 58.4815C99.4766 58.5625 99.7341 58.5921 99.9894 58.5682C100.245 58.5444 100.492 58.4676 100.716 58.3429C102.027 57.7193 103.302 57.0207 104.533 56.2505C104.953 55.9528 105.239 55.5028 105.331 54.9968C105.423 54.4908 105.313 53.9688 105.025 53.5426C104.785 53.1337 104.69 52.6552 104.757 52.1855C104.824 51.7158 105.049 51.2829 105.395 50.9577C106.134 50.3423 106.749 49.6038 107.488 48.8653C107.778 48.5078 108.192 48.2717 108.648 48.2034C109.103 48.1351 109.568 48.2395 109.95 48.496C110.377 48.7838 110.899 48.8934 111.405 48.8014C111.911 48.7094 112.361 48.4231 112.659 48.0037C113.515 46.8037 114.257 45.5262 114.875 44.188C115.093 43.7292 115.124 43.2042 114.964 42.7226C114.803 42.2409 114.463 41.84 114.014 41.6032C113.6 41.392 113.274 41.0415 113.094 40.6136C112.914 40.1857 112.891 39.7079 113.029 39.2645L113.767 36.4336C113.88 35.9675 114.149 35.5542 114.53 35.2629C114.911 34.9716 115.381 34.8201 115.86 34.8335V34.7104ZM90.0042 48.8653C87.164 49.2837 84.2652 49.0299 81.541 48.1243C78.8167 47.2188 76.3431 45.6867 74.3191 43.6513C72.2951 41.6159 70.7771 39.1341 69.8873 36.4054C68.9975 33.6768 68.7608 30.7774 69.1961 27.9406C70.3042 20.6785 77.1992 13.6626 84.5867 12.5548C87.4269 12.1364 90.3257 12.3902 93.05 13.2958C95.7742 14.2013 98.2478 15.7334 100.272 17.7688C102.296 19.8042 103.814 22.286 104.704 25.0147C105.593 27.7434 105.83 30.6427 105.395 33.4795C104.41 40.7416 97.3917 47.7575 90.0042 48.8653Z" fill="#9ED8F2"/>
<path d="M76.3376 83.3294C75.7732 83.3716 75.2127 83.2077 74.7599 82.8682C74.3071 82.5288 73.9927 82.0366 73.8751 81.4832C73.6606 80.3174 73.3727 79.1663 73.0132 78.0367C72.8227 77.4926 72.8292 76.8988 73.0317 76.359C73.2342 75.8191 73.6199 75.3674 74.1214 75.0827C74.4096 74.9513 74.6681 74.7628 74.8812 74.5285C75.0944 74.2943 75.2577 74.0191 75.3613 73.7199C75.4649 73.4207 75.5067 73.1035 75.484 72.7877C75.4613 72.4718 75.3748 72.1638 75.2296 71.8824C74.447 70.2567 73.5415 68.6931 72.5208 67.2052C72.3476 66.941 72.1227 66.7146 71.8596 66.5397C71.5965 66.3648 71.3007 66.245 70.9901 66.1875C70.6794 66.13 70.3603 66.136 70.052 66.2051C69.7438 66.2742 69.4527 66.4051 69.1964 66.5897C68.7125 66.9002 68.1311 67.0216 67.5633 66.9308C66.9955 66.84 66.4811 66.5433 66.1183 66.0974C65.3174 65.215 64.4533 64.3923 63.5327 63.6357C63.1178 63.2228 62.8553 62.6814 62.7882 62.1001C62.7211 61.5188 62.8533 60.9319 63.1632 60.4354C63.5043 59.9076 63.6306 59.2693 63.5161 58.6514C63.4017 58.0336 63.0551 57.4828 62.5476 57.1121C61.0568 56.1315 59.4926 55.2674 57.8689 54.5273C57.5949 54.3779 57.2937 54.2848 56.9832 54.2535C56.6726 54.2222 56.3589 54.2533 56.0606 54.3451C55.7623 54.4369 55.4854 54.5874 55.2462 54.7878C55.0069 54.9882 54.8102 55.2344 54.6677 55.512C54.4027 56.0355 53.9593 56.4472 53.4175 56.6729C52.8758 56.8986 52.2711 56.9234 51.7126 56.7428L48.2651 55.8812C47.7012 55.7214 47.2044 55.3831 46.8492 54.917C46.494 54.451 46.2996 53.8823 46.2952 53.2964C46.33 52.9855 46.2984 52.6707 46.2027 52.3728C46.107 52.0749 45.9493 51.8006 45.74 51.5681C45.5306 51.3355 45.2743 51.1499 44.988 51.0235C44.7017 50.8971 44.3918 50.8328 44.0789 50.8347H38.7845C38.4715 50.8328 38.1617 50.8971 37.8754 51.0235C37.5891 51.1499 37.3328 51.3355 37.1235 51.5681C36.9141 51.8006 36.7564 52.0749 36.6607 52.3728C36.565 52.6707 36.5335 52.9855 36.5683 53.2964C36.5638 53.8823 36.3694 54.451 36.0142 54.917C35.659 55.3831 35.1622 55.7214 34.5983 55.8812L31.1507 56.7428C30.5923 56.9234 29.9877 56.8986 29.4459 56.6729C28.9041 56.4472 28.4608 56.0355 28.1958 55.512C28.0532 55.2344 27.8564 54.9882 27.6172 54.7878C27.378 54.5874 27.1011 54.4369 26.8027 54.3451C26.5044 54.2533 26.1907 54.2222 25.8802 54.2535C25.5697 54.2848 25.2685 54.3779 24.9945 54.5273C23.3708 55.2674 21.8066 56.1315 20.3158 57.1121C20.0515 57.2852 19.8251 57.51 19.6502 57.773C19.4752 58.036 19.3553 58.3317 19.2978 58.6423C19.2402 58.9528 19.2462 59.2718 19.3154 59.58C19.3845 59.8882 19.5154 60.1792 19.7001 60.4354C20.01 60.9319 20.1422 61.5188 20.0751 62.1001C20.008 62.6814 19.7456 63.2228 19.3308 63.6357C18.3823 64.3603 17.5154 65.1857 16.7452 66.0974C16.3823 66.5433 15.8678 66.84 15.3 66.9308C14.7323 67.0216 14.151 66.9002 13.667 66.5897C13.4107 66.4051 13.1196 66.2742 12.8113 66.2051C12.503 66.136 12.184 66.13 11.8733 66.1875C11.5626 66.245 11.2669 66.3648 11.0038 66.5397C10.7407 66.7146 10.5158 66.941 10.3427 67.2052C9.27719 68.6644 8.3692 70.2322 7.63389 71.8824C7.48863 72.1638 7.40201 72.4718 7.37936 72.7877C7.35671 73.1035 7.39846 73.4207 7.50208 73.7199C7.6057 74.0191 7.76908 74.2943 7.98221 74.5285C8.19534 74.7628 8.45385 74.9513 8.74205 75.0827C9.24356 75.3674 9.62921 75.8191 9.83172 76.359C10.0342 76.8988 10.0407 77.4926 9.85013 78.0367C9.49063 79.1663 9.20275 80.3174 8.98824 81.4832C8.87065 82.0366 8.55638 82.5288 8.10358 82.8682C7.65078 83.2077 7.09016 83.3716 6.52574 83.3294C5.88059 83.3265 5.25766 83.5648 4.77926 83.9975C4.30086 84.4302 4.00158 85.0261 3.94014 85.6681C3.83786 86.5257 3.79674 87.3895 3.81705 88.2529H18.9614C18.9822 87.1414 19.0644 86.032 19.2077 84.9296C20.562 75.9443 29.0577 67.3283 38.0458 66.0974C41.2433 65.5997 44.5106 65.8002 47.6232 66.6851C50.7358 67.5701 53.6197 69.1185 56.0767 71.2238C58.5337 73.3291 60.5054 75.9414 61.8562 78.881C63.2071 81.8207 63.905 85.0179 63.902 88.2529H79.0464C79.0667 87.3895 79.0256 86.5257 78.9233 85.6681C78.8619 85.0261 78.5625 84.4302 78.0841 83.9975C77.6057 83.5648 76.9828 83.3265 76.3376 83.3294Z" fill="#BEE5F6"/>
<path d="M77.9382 83.3294C77.3738 83.3716 76.8132 83.2077 76.3605 82.8682C75.9077 82.5288 75.5933 82.0366 75.4757 81.4832C75.2612 80.3174 74.9734 79.1663 74.6139 78.0367C74.4233 77.4926 74.4298 76.8988 74.6323 76.359C74.8348 75.8191 75.2205 75.3674 75.722 75.0827C76.0102 74.9513 76.2687 74.7628 76.4818 74.5285C76.695 74.2943 76.8583 74.0191 76.9619 73.7199C77.0655 73.4207 77.1072 73.1035 77.0846 72.7877C77.0619 72.4718 76.9754 72.1638 76.8301 71.8824C76.0948 70.2322 75.1868 68.6644 74.1214 67.2052C73.9482 66.941 73.7233 66.7146 73.4602 66.5397C73.1971 66.3648 72.9014 66.245 72.5907 66.1875C72.2801 66.13 71.9609 66.136 71.6526 66.2051C71.3444 66.2742 71.0533 66.4051 70.797 66.5897C70.3131 66.9002 69.7318 67.0216 69.164 66.9308C68.5962 66.84 68.0817 66.5433 67.7189 66.0974C66.918 65.215 66.0539 64.3923 65.1333 63.6357C64.7184 63.2228 64.4559 62.6814 64.3888 62.1001C64.3217 61.5188 64.454 60.9319 64.7639 60.4354C65.105 59.9076 65.2312 59.2693 65.1167 58.6514C65.0023 58.0336 64.6558 57.4828 64.1483 57.1121C62.6575 56.1315 61.0932 55.2674 59.4695 54.5273C59.1955 54.3779 58.8944 54.2848 58.5838 54.2535C58.2733 54.2222 57.9596 54.2533 57.6613 54.3451C57.363 54.4369 57.086 54.5874 56.8467 54.7878C56.6075 54.9882 56.4108 55.2344 56.2682 55.512C56.0033 56.0355 55.5599 56.4472 55.0181 56.6729C54.4763 56.8986 53.8717 56.9234 53.3132 56.7428L49.8657 55.8812C49.3018 55.7214 48.805 55.3831 48.4498 54.917C48.0946 54.451 47.9002 53.8823 47.8958 53.2964C47.9305 52.9855 47.899 52.6707 47.8033 52.3728C47.7076 52.0749 47.5499 51.8006 47.3406 51.5681C47.1312 51.3355 46.8749 51.1499 46.5886 51.0235C46.3023 50.8971 45.9925 50.8328 45.6795 50.8347H40.3851C40.0721 50.8328 39.7623 50.8971 39.476 51.0235C39.1897 51.1499 38.9334 51.3355 38.7241 51.5681C38.5147 51.8006 38.357 52.0749 38.2613 52.3728C38.1656 52.6707 38.1341 52.9855 38.1689 53.2964C38.1644 53.8823 37.9701 54.451 37.6149 54.917C37.2596 55.3831 36.7628 55.7214 36.1989 55.8812L32.7514 56.7428C32.1929 56.9234 31.5883 56.8986 31.0465 56.6729C30.5047 56.4472 30.0614 56.0355 29.7964 55.512C29.6538 55.2344 29.4571 54.9882 29.2179 54.7878C28.9786 54.5874 28.7016 54.4369 28.4033 54.3451C28.105 54.2533 27.7913 54.2222 27.4808 54.2535C27.1702 54.2848 26.8692 54.3779 26.5951 54.5273C24.9714 55.2674 23.4072 56.1315 21.9163 57.1121C21.4088 57.4828 21.0623 58.0336 20.9479 58.6514C20.8334 59.2693 20.9596 59.9076 21.3007 60.4354C21.6106 60.9319 21.7429 61.5188 21.6758 62.1001C21.6087 62.6814 21.3462 63.2228 20.9314 63.6357C20.0107 64.3923 19.1466 65.215 18.3458 66.0974C17.9829 66.5433 17.4684 66.84 16.9006 66.9308C16.3329 67.0216 15.7516 66.9002 15.2676 66.5897C15.0113 66.4051 14.7203 66.2742 14.412 66.2051C14.1037 66.136 13.7845 66.13 13.4739 66.1875C13.1632 66.245 12.8675 66.3648 12.6044 66.5397C12.3413 66.7146 12.1164 66.941 11.9432 67.2052C10.9226 68.6931 10.017 70.2567 9.23448 71.8824C9.08922 72.1638 9.00268 72.4718 8.98002 72.7877C8.95737 73.1035 8.99913 73.4207 9.10274 73.7199C9.20636 74.0191 9.36966 74.2943 9.5828 74.5285C9.79593 74.7628 10.0544 74.9513 10.3426 75.0827C10.8441 75.3674 11.2298 75.8191 11.4323 76.359C11.6348 76.8988 11.6413 77.4926 11.4507 78.0367C11.0912 79.1663 10.8034 80.3174 10.5889 81.4832C10.4713 82.0366 10.157 82.5288 9.70416 82.8682C9.25136 83.2077 8.69083 83.3716 8.1264 83.3294C7.48125 83.3265 6.85832 83.5648 6.37992 83.9975C5.90152 84.4302 5.60216 85.0261 5.54073 85.6681C5.43844 86.5257 5.39733 87.3895 5.41763 88.2529H20.562C20.5827 87.1414 20.665 86.032 20.8083 84.9296C22.1626 75.9443 30.6582 67.3283 39.6464 66.0974C42.8439 65.5997 46.1112 65.8002 49.2238 66.6851C52.3364 67.5701 55.2203 69.1185 57.6773 71.2238C60.1343 73.3291 62.106 75.9414 63.4568 78.881C64.8077 81.8207 65.5056 85.0179 65.5026 88.2529H80.647C80.6673 87.3895 80.6262 86.5257 80.5239 85.6681C80.4624 85.0261 80.1631 84.4302 79.6847 83.9975C79.2063 83.5648 78.5834 83.3265 77.9382 83.3294Z" fill="#72C6EC"/>
<path style="mix-blend-mode:multiply" opacity="0.45" d="M84.2175 88.2529H0V96.9059H84.2175V88.2529Z" fill="url(#paint0_linear_1_10596)"/>
<path d="M96.7762 59.2045H77.0762V130.964H96.7762V59.2045Z" fill="#2CAAE2"/>
<path d="M77.0762 130.964H73.1362V62.2817L77.0762 59.2045V130.964Z" fill="#72C6EC"/>
<path d="M131.744 65.4819H112.044V130.976H131.744V65.4819Z" fill="#2CAAE2"/>
<path d="M112.044 130.964H108.227V68.6822L112.044 65.4819V130.964Z" fill="#9ED8F2"/>
<path d="M166.834 35.9412H147.134V130.976H166.834V35.9412Z" fill="#2CAAE2"/>
<path d="M147.134 130.964H143.194V39.1415L147.134 35.9412V130.964Z" fill="#72C6EC"/>
<path d="M61.8089 77.4213H42.1089V131.025H61.8089V77.4213Z" fill="#2CAAE2"/>
<path d="M42.1089 130.964H38.1689V79.5138L42.1089 77.4213V130.964Z" fill="#72C6EC"/>
<path d="M161.171 27.9406L160.309 10.5854L140.978 12.6779L141.347 15.5089L154.891 14.0319L121.032 49.85L86.6799 33.3564L48.6343 64.3742L50.8505 66.5897L87.1724 36.8028L121.771 53.5426L157.354 16.0012L157.969 28.0637L161.171 27.9406Z" fill="#BEE5F6"/>
<path style="mix-blend-mode:multiply" opacity="0.45" d="M173.976 130.964H30.7812V146.953H173.976V130.964Z" fill="url(#paint1_linear_1_10596)"/>
<g style="mix-blend-mode:multiply" opacity="0.2">
<path d="M197.123 195.461C197.123 198.538 181.117 201.123 161.294 201.123C141.471 201.123 125.587 198.538 125.587 195.461C125.587 192.384 141.594 189.922 161.294 189.922C180.994 189.922 197.123 192.384 197.123 195.461Z" fill="#AA82DF"/>
</g>
<path d="M164.988 191.276H169.42C169.42 191.276 170.036 194.969 169.543 196.077C169.051 197.184 159.816 196.815 153.783 196.815C147.75 196.815 164.126 191.769 164.988 191.276Z" fill="#2B3452"/>
<path d="M175.084 59.5738L166.465 65.2358L164.002 69.913L175.699 60.8047L175.084 59.5738Z" fill="white"/>
<path d="M142.579 95.392C140.666 95.5573 138.771 95.8867 136.915 96.3766C135.656 96.9707 134.526 97.8073 133.591 98.8384C133.344 99.5769 134.576 98.5922 135.191 98.346C135.703 98.1748 136.253 98.1535 136.777 98.2843C137.3 98.4152 137.775 98.6928 138.146 99.0846C138.516 99.5769 136.546 100.685 137.161 101.054C137.667 101.174 138.199 101.102 138.654 100.852C139.109 100.601 139.455 100.191 139.624 99.7C140.239 98.223 142.579 98.9615 142.579 98.8384V95.392Z" fill="#FFFAEA"/>
<path d="M145.534 94.4072L140.732 94.7765L141.471 99.6999L145.78 98.9614L145.534 94.4072Z" fill="white"/>
<path d="M143.071 100.562L141.963 94.4072C141.963 94.4072 163.387 86.0374 164.002 77.5444C164.618 69.0515 186.042 99.2076 143.071 100.562Z" fill="#BEE5F6"/>
<path d="M167.696 57.6044C167.696 57.6044 167.45 66.5897 167.327 67.082C167.204 67.5744 178.408 60.9277 178.408 60.9277L177.669 51.6962L167.696 57.6044Z" fill="#FFFAEA"/>
<g style="mix-blend-mode:multiply">
<path d="M167.696 57.6044V61.1739C174.714 57.9736 176.192 59.943 175.576 62.6509L178.531 60.9277L177.793 51.6962L167.696 57.6044Z" fill="#FBF4DB"/>
</g>
<path d="M162.894 41.9724C161.417 42.9571 159.939 45.2958 161.047 49.1114C162.156 52.9271 159.939 53.2964 160.555 54.7734C161.171 56.2504 163.017 55.3888 163.017 55.3888C163.017 55.3888 164.987 60.8047 166.219 60.4354C167.45 60.0661 175.822 57.1121 175.699 55.3888C175.576 53.6656 179.639 48.496 178.039 44.4342C176.438 40.3723 170.774 36.1874 162.894 41.9724Z" fill="#FFFAEA"/>
<path d="M165.726 45.4189C166.588 44.9265 169.051 45.7882 169.42 47.7575C169.559 49.0417 170.174 50.2272 171.144 51.0808L172.006 50.3423C172.006 50.3423 171.39 47.8806 172.868 47.6344C174.345 47.3883 176.561 50.4654 174.714 52.1886L176.069 54.6503C176.438 55.2658 178.531 55.3889 178.408 54.8965C178.162 51.5732 181.24 50.5885 182.102 46.5267C182.468 44.4564 182.178 42.3236 181.273 40.4258C180.368 38.5281 178.893 36.9603 177.054 35.9412C175.298 34.9671 173.32 34.4663 171.312 34.4879C169.305 34.5094 167.337 35.0527 165.603 36.0643C161.909 38.6491 160.432 40.8647 155.384 40.7416C152.921 40.7416 157.108 50.4654 165.726 45.4189Z" fill="#50575A"/>
<path d="M183.58 111.393C184.032 117.763 183.237 124.16 181.24 130.225C176.561 144.257 173.853 149.181 173.483 154.72C172.375 171.459 171.267 186.23 169.913 192.138L163.387 191.769C163.387 191.769 161.54 152.012 161.417 151.273C161.294 150.535 163.141 110.408 163.141 110.408L183.58 111.393Z" fill="#BEE5F6"/>
<g style="mix-blend-mode:multiply" opacity="0.3">
<path d="M183.579 111.393L163.14 110.408C163.14 110.408 162.894 115.947 162.648 122.963C163.387 123.086 167.942 145.857 167.573 152.135C167.08 163.213 169.543 171.829 171.267 182.414C172.129 175.152 172.744 165.428 173.483 154.72C173.852 149.181 176.561 144.257 181.24 130.225C183.237 124.16 184.032 117.763 183.579 111.393Z" fill="#BEE5F6"/>
</g>
<path d="M177.916 190.415L183.087 189.061C183.087 189.061 184.934 193.246 184.565 194.23C184.195 195.215 180.378 197.43 178.778 197.43C174.838 197.43 170.282 198.292 170.159 197.43C170.036 196.569 179.639 195.092 177.916 190.415Z" fill="#2B3452"/>
<path d="M182.594 109.178C182.594 109.178 187.15 113.116 185.549 123.579C183.333 138.103 180.501 140.318 180.994 145.857C182.717 162.597 184.318 184.629 183.949 190.661L177.423 191.276C177.423 191.276 169.789 148.811 169.543 148.073C169.297 147.334 163.387 116.563 163.387 116.563L182.594 109.178Z" fill="#BEE5F6"/>
<g style="mix-blend-mode:multiply" opacity="0.3">
<path d="M178.654 157.92C179.529 156.745 180.615 155.744 181.855 154.966C181.609 151.889 181.363 148.811 180.994 145.857C180.501 140.318 183.333 138.103 185.549 123.579C187.15 113.116 182.594 109.178 182.594 109.178L163.387 116.563C163.387 116.563 169.174 147.334 169.543 148.073C169.912 148.811 172.129 161.612 174.222 173.306C174.591 167.89 175.453 162.474 178.654 157.92Z" fill="#BEE5F6"/>
</g>
<path d="M177.916 60.0662C174.247 62.015 170.464 63.7413 166.588 65.2358C164.249 78.7753 162.402 92.3148 162.402 92.3148L178.777 63.3895L177.916 60.0662Z" fill="#D6E9FE"/>
<path d="M166.588 65.2357C166.241 66.1923 165.993 67.1823 165.849 68.1898C165.317 76.3075 164.165 84.3728 162.402 92.3148L168.066 67.6974L166.588 65.2357Z" fill="#2BC3FE"/>
<path d="M178.285 56.7428L166.465 65.2358L168.927 68.9283L179.27 60.0661L178.285 56.7428Z" fill="white"/>
<path d="M179.27 59.4507C179.27 59.4507 188.135 68.9284 186.411 78.8984C184.687 88.8684 188.627 115.332 188.381 118.286C188.381 118.286 169.42 122.717 159.447 119.394C159.447 119.394 160.555 107.085 161.417 95.6381C161.909 89.3607 164.249 82.8371 167.327 73.3595C170.405 63.8818 179.27 59.4507 179.27 59.4507Z" fill="#BEE5F6"/>
<g style="mix-blend-mode:multiply" opacity="0.3">
<path d="M161.54 94.8996C163.387 90.5916 165.726 86.6528 166.588 84.9296C169.543 79.3907 170.898 75.2058 174.591 70.2823C176.438 67.9437 178.778 64.3742 180.501 63.5126C175.699 65.2358 171.267 72.744 171.267 72.744C171.267 72.744 170.898 73.2364 169.42 72.2517C167.943 71.267 170.282 73.1133 170.282 74.098C166.711 83.4525 162.771 87.1451 161.54 94.8996Z" fill="#BEE5F6"/>
</g>
<g style="mix-blend-mode:multiply" opacity="0.3">
<path d="M178.408 94.5303C179.27 91.6994 171.513 80.9908 171.513 78.0367C170.897 78.6522 172.991 86.5297 173.114 87.3913C176.807 110.408 168.066 120.378 167.942 120.625C170.906 120.702 173.871 120.537 176.807 120.132C175.33 113.855 173.852 112.87 177.792 108.193C181.732 103.516 176.807 100.315 178.408 94.5303Z" fill="#BEE5F6"/>
</g>
<path d="M177.669 124.81H168.681C168.509 124.792 168.336 124.811 168.172 124.865C168.008 124.919 167.857 125.007 167.73 125.123C167.602 125.24 167.5 125.381 167.431 125.539C167.361 125.697 167.326 125.868 167.327 126.04V129.364C167.327 129.723 167.469 130.067 167.723 130.321C167.977 130.575 168.322 130.718 168.681 130.718H177.669C177.847 130.718 178.023 130.683 178.187 130.615C178.352 130.547 178.501 130.447 178.627 130.321C178.753 130.195 178.852 130.046 178.92 129.882C178.989 129.718 179.024 129.542 179.024 129.364V126.164C179.024 125.986 178.989 125.81 178.92 125.645C178.852 125.481 178.753 125.332 178.627 125.206C178.501 125.08 178.352 124.981 178.187 124.913C178.023 124.845 177.847 124.81 177.669 124.81ZM177.546 129.364C177.546 129.527 177.481 129.684 177.366 129.799C177.25 129.914 177.094 129.979 176.93 129.979H169.42C169.174 129.979 168.804 129.733 168.804 129.487V126.656C168.804 126.493 168.869 126.336 168.984 126.221C169.1 126.105 169.257 126.04 169.42 126.04H176.93C177.177 126.04 177.546 126.287 177.546 126.533V129.364Z" fill="#BEE5F6"/>
<path d="M189.521 128.303L156.894 128.588C155.874 128.597 155.054 129.431 155.063 130.45L155.257 152.63C155.266 153.649 156.1 154.469 157.12 154.46L189.746 154.175C190.766 154.166 191.586 153.333 191.577 152.313L191.383 130.134C191.375 129.114 190.541 128.295 189.521 128.303Z" fill="#BEE5F6"/>
<g style="mix-blend-mode:multiply" opacity="0.3">
<path d="M157.79 127.349L190.541 127.021C191.031 127.017 191.502 127.206 191.852 127.549C192.202 127.892 192.401 128.36 192.406 128.849L192.536 141.773L156.214 142.136L156.084 129.212C156.079 128.723 156.269 128.251 156.612 127.901C156.955 127.552 157.423 127.353 157.913 127.348L157.79 127.349Z" fill="#094C6E"/>
</g>
<path d="M156.894 128.589L189.644 128.303C190.133 128.299 190.605 128.49 190.954 128.833C191.304 129.176 191.502 129.644 191.507 130.134L191.588 139.488C191.592 139.945 191.414 140.385 191.094 140.711C190.774 141.037 190.337 141.222 189.88 141.226L157.006 141.513C156.549 141.517 156.109 141.339 155.783 141.019C155.457 140.698 155.272 140.262 155.268 139.805L155.186 130.45C155.182 129.961 155.372 129.49 155.716 129.14C156.059 128.791 156.527 128.592 157.017 128.588L156.894 128.589Z" fill="#BEE5F6"/>
<path d="M174.225 139.147L172.255 139.164C171.711 139.169 171.274 139.614 171.279 140.157L171.306 143.259C171.31 143.803 171.755 144.24 172.299 144.235L174.269 144.218C174.813 144.213 175.25 143.768 175.246 143.225L175.218 140.123C175.214 139.579 174.769 139.142 174.225 139.147Z" fill="#323246"/>
<path d="M174.873 138.835L173.519 138.849C173.179 138.852 172.906 139.131 172.909 139.47L172.93 141.514C172.933 141.854 173.212 142.126 173.552 142.123L174.906 142.109C175.246 142.106 175.519 141.828 175.516 141.488L175.495 139.445C175.492 139.105 175.213 138.832 174.873 138.835Z" fill="#094C6E"/>
<g style="mix-blend-mode:multiply" opacity="0.3">
<path d="M186.288 93.5457C186.165 90.5916 180.378 80.6216 180.378 77.5444C179.639 78.283 181.856 86.0373 181.979 87.022C185.549 109.916 176.931 120.009 176.808 120.132C180.033 119.814 183.239 119.321 186.411 118.655C185.057 112.378 184.811 114.101 185.549 108.07C186.176 103.255 186.423 98.3989 186.288 93.5457Z" fill="#BEE5F6"/>
</g>
<path d="M174.099 116.07C174.099 116.07 173.852 119.271 172.867 120.378C171.882 121.486 170.405 123.086 171.39 124.071C172.375 125.056 170.282 127.148 170.897 127.641C171.513 128.133 173.36 127.764 174.591 126.902C175.364 126.306 175.958 125.507 176.305 124.595C176.653 123.683 176.742 122.692 176.561 121.732C176.702 120.233 177.119 118.772 177.792 117.424L174.099 116.07Z" fill="#FFFAEA"/>
<path d="M174.099 114.593L173.237 118.532L177.177 120.748L178.654 116.317L174.099 114.593Z" fill="white"/>
<path d="M171.883 74.8365C172.868 72.6209 179.27 67.0821 183.703 72.2517C188.135 77.4213 188.135 97.8536 178.778 119.271L172.868 117.794C172.868 117.794 177.3 104.623 176.684 96.1304C176.069 87.6375 169.42 81.1139 171.883 74.8365Z" fill="#BEE5F6"/>
<g style="mix-blend-mode:multiply" opacity="0.2">
<path d="M115.984 201C136.112 201 152.429 198.465 152.429 195.338C152.429 192.211 136.112 189.676 115.984 189.676C95.8556 189.676 79.5386 192.211 79.5386 195.338C79.5386 198.465 95.8556 201 115.984 201Z" fill="#AA82DF"/>
</g>
<path d="M110.69 63.8818C110.69 63.8818 114.63 69.4207 115.861 73.1133C117.092 76.8058 116.969 107.331 116.969 107.331L101.332 70.5285L110.69 63.8818Z" fill="#1F79A0"/>
<path d="M112.29 191.03H107.857C107.857 191.03 107.119 194.846 107.611 195.953C108.104 197.061 117.584 196.692 123.617 196.692C129.651 196.692 113.152 191.522 112.29 191.03Z" fill="#2B3452"/>
<path d="M101.948 56.8659L110.566 62.5279L113.275 67.3282L101.209 58.0968L101.948 56.8659Z" fill="white"/>
<path d="M109.458 54.7734C109.458 54.7734 109.827 64.0049 109.827 64.3742C109.827 64.7434 98.623 58.0968 98.623 58.0968L99.3618 48.8653L109.458 54.7734Z" fill="#FFFAEA"/>
<g style="mix-blend-mode:multiply">
<path d="M109.458 54.7734V58.3429C102.317 55.1427 100.963 57.2352 101.455 59.9431L98.5 58.0968L99.2388 48.8653L109.458 54.7734Z" fill="#FBF4DB"/>
</g>
<path d="M116.969 38.8953C118.323 40.003 117.338 42.2186 116.23 46.1574C115.122 50.0961 117.461 50.3423 116.846 51.9424C116.23 53.5425 114.383 52.5579 114.383 52.5579C114.383 52.5579 112.29 58.0968 111.059 57.6044C109.827 57.1121 101.332 54.2811 101.332 52.5579C101.332 50.8346 97.2687 45.5419 98.9925 41.357C100.716 37.1721 108.966 33.1102 116.969 38.8953Z" fill="#FFFAEA"/>
<path d="M110.689 39.2646C109.828 38.7722 107.242 41.7263 108.227 44.8034C109.212 47.8806 106.011 48.1268 106.011 48.1268L105.026 47.3883C105.026 47.3883 105.765 44.9266 104.164 44.5573C102.563 44.188 100.47 47.5114 102.44 49.2346L100.963 51.6963C100.593 52.4348 98.5001 52.4348 98.6233 52.0656C98.8695 48.6192 97.2688 45.6651 96.4069 41.4801C95.5451 37.2952 96.5301 33.8488 100.716 31.2639C102.329 30.4124 104.125 29.9673 105.949 29.9673C107.773 29.9673 109.569 30.4124 111.182 31.2639C113.521 32.4948 119.431 33.4795 119.924 34.8335C120.416 36.1874 119.431 44.4342 110.689 39.2646Z" fill="#50575A"/>
<path d="M93.3286 109.67C92.8834 116.13 93.7203 122.613 95.7911 128.748C100.47 143.149 103.179 148.073 103.548 153.735C104.779 170.844 105.887 185.86 107.242 191.892L113.891 191.522C113.891 191.522 115.737 151.027 115.861 150.288C115.984 149.55 114.137 108.562 114.137 108.562L93.3286 109.67Z" fill="#1F79A0"/>
<g style="mix-blend-mode:multiply" opacity="0.3">
<path d="M93.3286 109.67L114.137 108.562C114.137 108.562 114.383 114.224 114.752 121.363C113.891 121.486 109.335 144.75 109.581 151.15C110.197 162.474 107.611 171.213 105.887 182.045C105.026 174.66 104.41 164.69 103.548 153.735C103.179 148.073 100.47 143.149 95.7911 128.748C93.7203 122.613 92.8834 116.13 93.3286 109.67Z" fill="#1F79A0"/>
</g>
<path d="M98.2537 190.661L92.3437 190.292C92.3437 190.292 90.6199 195.584 91.1124 196.692C91.6049 197.8 108.227 198.169 108.227 197.307C108.227 196.446 97.5149 194.969 98.2537 190.661Z" fill="#2B3452"/>
<path d="M94.314 107.331C94.314 107.331 89.7583 111.393 91.359 121.979C93.5752 136.872 96.5302 139.088 95.9146 144.75C94.1908 161.859 91.4821 185.737 91.8515 191.892L98.7465 192.507C98.7465 192.507 107.365 147.704 107.611 146.965C107.858 146.227 113.891 114.84 113.891 114.84L94.314 107.331Z" fill="#1F79A0"/>
<g style="mix-blend-mode:multiply" opacity="0.3">
<path d="M92.0977 120.132H91.1127C90.2508 111.024 94.314 107.454 94.314 107.454L113.891 114.963C113.891 114.963 108.843 141.549 107.858 146.35C111.551 121.24 105.641 122.84 92.0977 120.132Z" fill="#1F79A0"/>
</g>
<path d="M99.1158 57.2351C102.87 59.2541 106.734 61.0622 110.69 62.6509C113.029 76.4366 114.876 90.2223 114.876 90.2223L98.2539 60.6815L99.1158 57.2351Z" fill="#D6E9FE"/>
<path d="M110.689 62.6509C110.689 62.6509 111.551 65.1127 111.305 65.605C111.925 73.8834 113.118 82.1089 114.876 90.2223L109.089 65.1127L110.689 62.6509Z" fill="#2BC3FE"/>
<path d="M98.6232 53.9118L110.566 62.5278L108.227 66.3435L97.6382 57.3582L98.6232 53.9118Z" fill="white"/>
<path d="M97.7612 56.6197C97.7612 56.6197 88.7731 66.3435 90.3737 76.4366C91.9743 86.5297 85.6949 114.716 85.9412 117.794C85.9412 117.794 107.734 121.117 117.954 117.794C117.954 117.794 116.722 105.239 115.861 93.5456C115.491 87.2682 113.029 80.4984 109.827 70.8977C106.626 61.297 97.7612 56.6197 97.7612 56.6197Z" fill="#1F79A0"/>
<g style="mix-blend-mode:multiply" opacity="0.3">
<path d="M110.689 118.901C113.145 118.811 115.583 118.439 117.954 117.794C117.954 117.794 116.846 105.731 115.984 94.2841C110.753 92.7285 105.951 89.9911 101.948 86.2835C99.2055 83.5464 96.9193 80.3883 95.1756 76.929C93.9444 74.098 95.545 71.7593 93.4519 69.2976C89.7582 77.2982 92.4669 90.5915 103.179 96.992C111.921 102.285 114.014 106.716 114.137 110.901C114.3 112.418 114.068 113.952 113.464 115.354C112.86 116.755 111.905 117.977 110.689 118.901Z" fill="#1F79A0"/>
</g>
<g style="mix-blend-mode:multiply" opacity="0.3">
<path d="M115.861 92.8071C113.891 88.376 111.551 84.4372 110.566 82.5909C107.734 77.052 106.257 72.744 102.44 67.6975C100.593 65.3588 98.2536 61.6662 96.4067 60.8046C101.332 62.5278 105.887 70.2823 105.887 70.2823C105.887 70.2823 106.257 70.7746 107.734 69.6669C107.488 70.4054 106.872 70.6516 106.872 71.6362C110.443 81.1139 114.506 84.9296 115.861 92.8071Z" fill="#1F79A0"/>
</g>
<path d="M129.897 96.3766C129.897 96.3766 132.729 97.7305 134.33 97.4843C135.93 97.2381 137.777 96.4997 138.27 97.9767C138.762 99.4537 141.348 98.469 141.471 99.2076C141.594 99.9461 139.624 103.392 137.408 103.269C135.191 103.146 134.083 102.9 133.345 102.162C132.606 101.423 133.221 101.3 133.098 101.177C132.975 101.054 129.035 100.192 129.035 100.192L129.897 96.3766Z" fill="#FFFAEA"/>
<path d="M128.543 95.515L132.852 96.9921L132.359 101.423L127.681 100.438L128.543 95.515Z" fill="white"/>
<path d="M99.239 67.4513C96.7765 67.082 91.2358 66.7128 92.344 77.4213C93.8215 91.33 106.626 99.0845 130.266 102.039L131.498 96.0074C131.498 96.0074 121.032 94.6534 113.891 89.6068C106.75 84.5603 106.134 68.5591 99.239 67.4513Z" fill="#1F79A0"/>
<g style="mix-blend-mode:multiply">
<path d="M137.777 97.3613C137.777 97.3613 136.299 98.346 135.314 97.2382C135.068 99.2076 138.639 98.0998 140.486 98.5921C142.332 99.0845 137.777 97.3613 137.777 97.3613Z" fill="#FBF4DB"/>
</g>
<g style="mix-blend-mode:multiply">
<path d="M136.546 101.546C135.807 101.054 133.837 99.6999 133.098 101.177C133.96 100.685 137.161 102.039 137.408 103.269C137.654 104.5 137.777 102.285 136.546 101.546Z" fill="#FBF4DB"/>
</g>
</g>
<defs>
<linearGradient id="paint0_linear_1_10596" x1="42.0841" y1="96.8936" x2="42.0841" y2="88.2529" gradientUnits="userSpaceOnUse">
<stop stop-color="white" stop-opacity="0"/>
<stop offset="0.29" stop-color="#FDFCFE" stop-opacity="0.01"/>
<stop offset="0.47" stop-color="#F6F1FD" stop-opacity="0.05"/>
<stop offset="0.61" stop-color="#EBE0FA" stop-opacity="0.11"/>
<stop offset="0.74" stop-color="#DBC6F6" stop-opacity="0.2"/>
<stop offset="0.86" stop-color="#C7A6F0" stop-opacity="0.31"/>
<stop offset="0.97" stop-color="#AE7EE9" stop-opacity="0.45"/>
<stop offset="1" stop-color="#A570E7" stop-opacity="0.5"/>
</linearGradient>
<linearGradient id="paint1_linear_1_10596" x1="102.391" y1="146.965" x2="102.391" y2="130.988" gradientUnits="userSpaceOnUse">
<stop stop-color="white" stop-opacity="0"/>
<stop offset="0.29" stop-color="#FDFCFE" stop-opacity="0.01"/>
<stop offset="0.47" stop-color="#F6F1FD" stop-opacity="0.05"/>
<stop offset="0.61" stop-color="#EBE0FA" stop-opacity="0.11"/>
<stop offset="0.74" stop-color="#DBC6F6" stop-opacity="0.2"/>
<stop offset="0.86" stop-color="#C7A6F0" stop-opacity="0.31"/>
<stop offset="0.97" stop-color="#AE7EE9" stop-opacity="0.45"/>
<stop offset="1" stop-color="#A570E7" stop-opacity="0.5"/>
</linearGradient>
<clipPath id="clip0_1_10596">
<rect width="197" height="201" fill="white"/>
</clipPath>
</defs>
</svg>
