<svg width="175" height="50" viewBox="0 0 175 50" fill="none" xmlns="http://www.w3.org/2000/svg">
<g clip-path="url(#clip0_230_703)">
<path d="M67.3818 36.5629C67.3818 37.1815 67.8831 37.6826 68.4908 37.6826H74.0442C74.6575 37.6826 75.1557 37.1815 75.1557 36.5629V13.2156C75.1557 12.5987 74.6575 12.0933 74.0442 12.0933H55.4651C54.8572 12.0933 54.3587 12.5987 54.3587 13.2156V21.8794C54.3587 27.2874 53.1101 30.8026 49.6873 31.8741C48.6797 32.1891 48.3868 32.4236 48.6797 33.5145L49.6051 36.951C49.8352 37.811 50.3965 38.0277 51.3796 37.8483C57.9925 36.6512 61.7602 30.8982 61.7602 21.798V17.4722H67.3847L67.3818 36.5629Z" fill="#F59F2E"/>
<path d="M30.3262 6.68372L30.7452 2.53334C30.8327 1.65384 30.3 1.22168 29.4417 1.22168H1.41036C0.470936 1.22168 0 1.64145 0 2.53334V6.41989C0 7.47202 0.417758 7.99959 1.46237 7.99959H10.9968V36.426C10.9968 37.528 11.101 37.6855 12.1961 37.6855H18.0808C19.1267 37.6855 19.2827 37.4769 19.2827 36.32V7.99959H28.4532C29.5457 7.99959 30.2233 7.73316 30.3262 6.68372Z" fill="#F59F2E"/>
<path d="M48.6087 25.4416C48.6305 17.4213 45.6705 11.3076 37.4077 11.3076C29.3813 11.3076 23.9116 16.6661 23.9116 24.8121C23.9116 33.2175 29.1732 38.3689 37.4573 38.3689C40.4789 38.3676 44.137 37.8678 46.889 36.5795C47.7216 36.1902 48.0446 35.7689 47.8145 34.8897L46.889 31.329C46.6974 30.5862 46.0566 30.4825 45.4296 30.7504C43.3621 31.6311 41.1552 32.1144 38.8661 32.1144C35.6847 32.1131 32.7686 30.2782 32.143 26.9658H46.7329C48.0364 26.9658 48.6059 26.7036 48.6087 25.4416ZM32.2483 21.976C32.6126 19.5047 34.3323 17.4031 36.9369 17.4031C39.6464 17.4031 40.9498 19.716 40.9498 21.976H32.2483Z" fill="#F59F2E"/>
<path d="M173.883 12.0933H168.298C167.686 12.0933 167.186 12.5987 167.186 13.2156V21.7357H159.102V13.2156C159.102 12.5987 158.595 12.0933 157.982 12.0933H152.399C151.788 12.0933 151.284 12.5987 151.284 13.2156V36.5644C151.284 37.1869 151.788 37.6855 152.399 37.6855H157.982C158.595 37.6855 159.102 37.1869 159.102 36.5644V27.3566H167.186V36.5644C167.186 37.1869 167.686 37.6855 168.298 37.6855H173.88C174.496 37.6855 175 37.1869 175 36.5644V13.2156C175 12.5987 174.496 12.0933 173.883 12.0933Z" fill="#F59F2E"/>
<path d="M146.002 12.0933H140.509C139.901 12.0933 139.411 12.5987 139.411 13.2156V16.3968L130.835 25.1405V13.2156C130.835 12.5987 130.342 12.0933 129.737 12.0933H124.244C123.638 12.0933 123.146 12.5987 123.146 13.2156V36.5644C123.146 37.1869 123.638 37.6855 124.244 37.6855H129.737C130.342 37.6855 130.835 37.1857 130.835 36.5644V33.1293L139.411 24.3867L139.408 36.5644C139.408 37.1869 139.904 37.6855 140.509 37.6855H145.999C146.604 37.6855 147.097 37.1869 147.097 36.5644V13.2156C147.097 12.5987 146.604 12.0933 146.002 12.0933Z" fill="#F59F2E"/>
<path d="M109.13 11.8568C106.759 11.8568 104.311 12.862 102.83 14.135V9.87959H102.796V1.69783C102.796 0.464781 102.062 0.384877 101.128 0.510444L96.7304 1.11372C96.0075 1.21592 95.5749 1.50302 95.5749 2.47653V14.135C94.0935 12.862 91.6456 11.8568 89.2743 11.8568C82.0077 11.8568 78.3301 18.1706 78.3301 24.8971C78.3301 31.8489 82.0677 38.9235 89.7398 38.9235C91.7478 38.9235 93.6342 38.3168 95.012 37.294V47.9021C95.012 49.1104 95.587 49.5327 96.6276 49.5327H101.777C102.817 49.5327 103.393 49.1103 103.393 47.9021V37.294C104.77 38.3172 106.657 38.9236 108.665 38.9236C116.337 38.9236 120.074 31.8489 120.074 24.8971C120.074 18.1706 116.397 11.8568 109.13 11.8568ZM86.4599 25.3596C86.4599 22.1676 87.4266 18.2645 91.3005 18.2645C92.8148 18.2645 94.7452 19.2613 95.5749 20.1643V29.8233C95.5347 30.2683 95.4503 30.688 95.3326 31.0851C94.3705 31.894 92.8516 32.5585 91.4649 32.5585C87.6676 32.5585 86.4599 28.5064 86.4599 25.3596ZM106.94 32.5585C105.553 32.5585 104.034 31.894 103.072 31.0853C102.954 30.6881 102.87 30.2685 102.83 29.8233V20.1643C103.659 19.2613 105.59 18.2645 107.104 18.2645C110.978 18.2645 111.944 22.1676 111.944 25.3598C111.944 28.5064 110.737 32.5585 106.94 32.5585Z" fill="#F59F2E"/>
</g>
<defs>
<clipPath id="clip0_230_703">
<rect width="175" height="49.0654" fill="white" transform="translate(0 0.467285)"/>
</clipPath>
</defs>
</svg>
