<svg width="175" height="84" viewBox="0 0 175 84" fill="none" xmlns="http://www.w3.org/2000/svg">
<g clip-path="url(#clip0_230_712)">
<path d="M48.6404 70.23L48.5278 71.111C46.8215 71.0337 45.5221 70.9949 44.6296 70.9949C44.2134 70.9836 43.7975 71.016 43.388 71.0917C43.1397 71.1377 42.9195 71.2819 42.7758 71.4926C42.6258 71.7914 42.5598 72.1263 42.585 72.4607C42.585 72.9835 42.6919 73.3462 42.9055 73.5489C43.2158 73.7977 43.5869 73.9563 43.9791 74.0077L46.7846 74.5441C47.5132 74.6977 48.0466 74.9617 48.3849 75.336C48.723 75.7105 48.8928 76.2745 48.894 77.0284C48.894 77.7681 48.7586 78.3257 48.4877 78.7013C48.1938 79.0933 47.7682 79.3621 47.292 79.4565C46.5734 79.6032 45.8409 79.6683 45.1082 79.6501C43.9429 79.6557 42.7787 79.5722 41.6257 79.4003L41.7192 78.5019C42.5495 78.5794 43.4159 78.6181 44.3187 78.6181H44.9022C45.4771 78.6205 46.0512 78.5752 46.6187 78.4825C46.9421 78.4405 47.2396 78.2809 47.456 78.0333C47.6531 77.7389 47.7464 77.3854 47.7211 77.0303C47.7211 76.5334 47.6016 76.1828 47.3625 75.979C47.0285 75.735 46.641 75.5775 46.2334 75.52L43.4452 74.9856C42.7306 74.8436 42.2131 74.579 41.8928 74.1917C41.5723 73.8044 41.4121 73.2236 41.4121 72.4627C41.4121 71.7617 41.5285 71.2293 41.7612 70.8652C42.005 70.4943 42.3786 70.2312 42.8062 70.1294C43.4358 69.983 44.0812 69.918 44.7268 69.9357C46.0365 69.9403 47.3443 70.0386 48.6404 70.23Z" fill="#00AEC8"/>
<path d="M63.1962 70.2031L59.3551 80.1052C59.0499 80.9516 58.5824 81.7281 57.9801 82.3901C57.4269 82.9697 56.68 83.3105 55.739 83.4124L55.5885 82.6283C56.2209 82.4362 56.7968 82.0882 57.2649 81.6155C57.6937 81.1378 58.0262 80.5793 58.2433 79.9716L58.4702 79.4546H58.1688C58.0656 79.4632 57.9625 79.4355 57.8768 79.3763C57.7911 79.3172 57.7279 79.2301 57.6978 79.1293L54.2324 70.2031H55.5141L58.2069 77.4293C58.4078 77.9636 58.535 78.3199 58.5885 78.4981H58.8497L58.9813 78.136L59.2464 77.4099L61.9165 70.2031H63.1962Z" fill="#00AEC8"/>
<path d="M75.8239 70.23L75.7114 71.111C74.0037 71.0337 72.705 70.9949 71.815 70.9949C71.3982 70.9835 70.9816 71.0159 70.5715 71.0917C70.3233 71.1377 70.1031 71.2819 69.9592 71.4926C69.8094 71.7914 69.7434 72.1263 69.7686 72.4607C69.7686 72.9835 69.8753 73.3462 70.0889 73.5489C70.3994 73.7977 70.7705 73.9563 71.1627 74.0077L73.9682 74.5441C74.6968 74.6977 75.2301 74.9617 75.5683 75.336C75.9066 75.7105 76.0762 76.2745 76.0776 77.0284C76.0776 77.7681 75.9428 78.3257 75.6732 78.7014C75.3785 79.0925 74.9533 79.361 74.4774 79.4565C73.7582 79.6032 73.0252 79.6681 72.2918 79.6501C71.1264 79.6557 69.9623 79.5722 68.8093 79.4003L68.9027 78.5019C69.7329 78.5794 70.5995 78.6181 71.5022 78.6181H72.0858C72.6606 78.6205 73.2347 78.5752 73.8023 78.4825C74.1257 78.4405 74.4231 78.281 74.6395 78.0333C74.8373 77.7391 74.9308 77.3855 74.9047 77.0303C74.9047 76.5334 74.7851 76.1828 74.5461 75.979C74.2123 75.7348 73.8246 75.5771 73.417 75.52L70.6306 74.9856C69.9135 74.8436 69.3954 74.579 69.0762 74.1917C68.7559 73.8044 68.5957 73.2236 68.5957 72.4627C68.5957 71.7617 68.7119 71.2293 68.9446 70.8652C69.1886 70.4943 69.5621 70.2312 69.9898 70.1294C70.6194 69.983 71.2647 69.918 71.9103 69.9357C73.2201 69.9403 74.5278 70.0386 75.8239 70.23Z" fill="#00AEC8"/>
<path d="M84.4344 71.1479V77.1504C84.4344 77.61 84.5445 77.9482 84.7643 78.165C84.9837 78.3819 85.3194 78.4883 85.7713 78.4883H87.2666L87.4173 79.4062C87.1541 79.4584 86.8241 79.5031 86.4294 79.5398C86.0345 79.5765 85.7294 79.5979 85.5158 79.5979C84.7631 79.5979 84.1979 79.4003 83.8203 79.0053C83.4426 78.6104 83.252 78.0365 83.2481 77.284V71.1479H81.5908V70.2882L83.2481 70.1933V67.3818H84.4344V70.2031H87.5221V71.1576L84.4344 71.1479Z" fill="#00AEC8"/>
<path d="M100.629 78.3933L100.76 79.2162C100.253 79.388 99.7287 79.4998 99.1964 79.5493C98.5721 79.6294 97.9434 79.6715 97.3141 79.6752C96.2841 79.6752 95.4621 79.5125 94.848 79.1872C94.2274 78.8559 93.7482 78.3046 93.5016 77.6382C93.2193 76.9321 93.0781 75.9794 93.0781 74.7803C93.0781 73.5811 93.2161 72.6251 93.492 71.9126C93.7246 71.2625 94.1877 70.7239 94.7909 70.4022C95.3808 70.0963 96.1716 69.9434 97.1634 69.9434C98.4692 69.9434 99.4297 70.1886 100.045 70.6792C100.661 71.1697 100.968 71.9146 100.966 72.9137C100.966 74.5827 100.267 75.4173 98.8684 75.4173H94.3388C94.377 76.2577 94.5118 76.9076 94.7432 77.3671C94.9525 77.8001 95.3068 78.1432 95.7425 78.3352C96.298 78.5491 96.8902 78.6473 97.4837 78.6238C98.5359 78.6155 99.5864 78.5385 100.629 78.3933ZM95.5347 71.3201C95.1151 71.5508 94.7959 71.9329 94.6402 72.3908C94.4239 73.0593 94.3169 73.7592 94.3236 74.4626H98.5976C99.3757 74.4626 99.7647 73.9593 99.7647 72.9524C99.7647 72.2657 99.5677 71.7687 99.1736 71.4615C98.7794 71.1542 98.1296 71.0012 97.2244 71.0026C96.6444 70.9712 96.0651 71.0801 95.5347 71.3201Z" fill="#00AEC8"/>
<path d="M120.341 70.5901C120.757 71.0239 120.964 71.6545 120.963 72.482V79.441H119.777V72.8111C119.765 72.1741 119.63 71.7132 119.372 71.4248C119.115 71.1362 118.711 70.9949 118.157 70.9949C117.657 70.9946 117.163 71.1162 116.718 71.3492C116.055 71.7212 115.422 72.146 114.826 72.6194V79.4448H113.681V72.8111C113.681 72.1741 113.55 71.7132 113.286 71.4248C113.023 71.1362 112.615 70.9949 112.062 70.9949C111.561 70.9978 111.069 71.1191 110.622 71.3492C109.958 71.7114 109.325 72.1305 108.73 72.6019V79.4448H107.544V70.2028H108.522L108.599 71.7519C109.916 70.5552 111.196 69.9564 112.44 69.955C113.733 69.955 114.505 70.5418 114.755 71.7152C116.061 70.5418 117.328 69.955 118.558 69.955C119.332 69.9473 119.927 70.159 120.341 70.5901Z" fill="#00AEC8"/>
<path d="M134.67 70.23L134.558 71.111C132.85 71.0337 131.551 70.9949 130.661 70.9949C130.245 70.9835 129.828 71.0159 129.418 71.0917C129.169 71.1377 128.949 71.2819 128.805 71.4926C128.656 71.7914 128.59 72.1263 128.615 72.4607C128.615 72.9835 128.722 73.3462 128.935 73.5489C129.246 73.7977 129.617 73.9563 130.009 74.0077L132.814 74.5441C133.543 74.6977 134.077 74.9617 134.415 75.336C134.753 75.7105 134.922 76.2745 134.924 77.0284C134.924 77.7681 134.789 78.3257 134.519 78.7014C134.225 79.0925 133.799 79.361 133.324 79.4565C132.604 79.6032 131.871 79.6681 131.138 79.6501C129.973 79.6557 128.808 79.5722 127.655 79.4003L127.749 78.5019C128.579 78.5794 129.446 78.6181 130.348 78.6181H130.932C131.507 78.6205 132.081 78.5752 132.648 78.4825C132.972 78.4405 133.269 78.281 133.486 78.0333C133.684 77.7391 133.778 77.3855 133.751 77.0303C133.751 76.5334 133.632 76.1828 133.392 75.979C133.058 75.7348 132.671 75.5771 132.263 75.52L129.477 74.9856C128.76 74.8436 128.242 74.579 127.922 74.1917C127.602 73.8044 127.442 73.2236 127.442 72.4627C127.442 71.7617 127.558 71.2293 127.791 70.8652C128.035 70.4943 128.408 70.2312 128.836 70.1294C129.466 69.983 130.111 69.918 130.756 69.9357C132.066 69.9403 133.374 70.0386 134.67 70.23Z" fill="#00AEC8"/>
<path d="M14.3861 28.7893L27.885 58.0249H24.7616L20.2085 48.4136H7.73738L3.2358 58.0249H0L13.6761 28.7893H14.3861ZM14.0206 35.0001L9.06026 45.5821H18.958L14.0206 35.0001Z" fill="black"/>
<path d="M37.7354 28.7893H40.6286V55.2011H51.773V58.0249H37.7354V28.7893Z" fill="black"/>
<path d="M76.9358 28.6414H74.1816V58.0249H76.9358V28.6414Z" fill="black"/>
<path d="M98.437 31.6573V28.7893H114.298V31.6573H107.844V58.0306H104.892V31.6573H98.437Z" fill="black"/>
<path d="M128.882 28.7893H145.471V31.6573H131.766V40.8188H145.345V43.681H131.774V55.1684H145.353V58.0306H128.882V28.7893Z" fill="black"/>
<path d="M160.968 28.7893H163.861V55.2011H175V58.0249H160.968V28.7893Z" fill="black"/>
<path d="M76.1405 8.23316C73.9733 8.23182 71.8522 8.87171 70.0331 10.0755C68.2142 11.2794 66.7753 12.9956 65.8904 15.0169C65.0054 17.0382 64.7122 19.2781 65.0462 21.466C65.3803 23.6539 66.3271 25.6962 67.7726 27.3461L69.4007 25.8835C68.2322 24.5523 67.4664 22.9038 67.1956 21.1372C66.9248 19.3708 67.1609 17.5619 67.875 15.9296C68.5892 14.2973 69.7511 12.9113 71.2201 11.9394C72.6889 10.9676 74.402 10.4515 76.152 10.4535C77.9018 10.4555 79.6138 10.9756 81.0806 11.9509C82.5474 12.9261 83.7061 14.3148 84.4167 15.9487C85.1272 17.5827 85.3593 19.3922 85.0846 21.1581C84.8099 22.924 84.0403 24.5706 82.8689 25.899L84.4494 27.4183C85.9124 25.7739 86.8764 23.7307 87.2243 21.5371C87.572 19.3434 87.2887 17.0937 86.4084 15.0615C85.5284 13.0293 84.0895 11.3021 82.2666 10.0899C80.4438 8.87766 78.3154 8.23261 76.1405 8.23316Z" fill="#00AEC8"/>
<path d="M76.1407 0.587891C72.5378 0.589456 69.0117 1.65424 65.9866 3.65425C62.9616 5.65426 60.5663 8.50438 59.0885 11.862C57.6108 15.2196 57.1136 18.9419 57.6565 22.5814C58.1995 26.2208 59.7598 29.6227 62.1496 32.3779L64.8638 29.9419C62.9245 27.713 61.6594 24.9572 61.2219 22.0084C60.7844 19.0597 61.1933 16.0447 62.399 13.3286C63.6046 10.6125 65.5553 8.31188 68.0146 6.70561C70.474 5.09935 73.3365 4.25632 76.2552 4.27868C79.1741 4.30104 82.0238 5.18783 84.4594 6.83158C86.895 8.47535 88.8117 10.8055 89.9772 13.5398C91.1429 16.274 91.5075 19.2951 91.0267 22.2367C90.5461 25.1785 89.2406 27.9146 87.2689 30.1136L89.9011 32.649C92.3631 29.9175 93.993 26.5125 94.5918 22.8498C95.1906 19.1872 94.7322 15.4256 93.2726 12.0249C91.813 8.62416 89.4155 5.73149 86.373 3.70039C83.3307 1.66929 79.775 0.587733 76.1407 0.587891Z" fill="#00AEC8"/>
<path d="M76.1408 24.4421C77.9329 24.4421 79.3858 22.9576 79.3858 21.1265C79.3858 19.2953 77.9329 17.811 76.1408 17.811C74.3488 17.811 72.896 19.2953 72.896 21.1265C72.896 22.9576 74.3488 24.4421 76.1408 24.4421Z" fill="#00AEC8"/>
</g>
<defs>
<clipPath id="clip0_230_712">
<rect width="175" height="82.8244" fill="white" transform="translate(0 0.587891)"/>
</clipPath>
</defs>
</svg>
