<svg width="175" height="38" viewBox="0 0 175 38" fill="none" xmlns="http://www.w3.org/2000/svg">
<g clip-path="url(#clip0_210_10428)">
<path d="M0 35.4571V0H4.87181V12.1073C6.70678 10.8543 9.038 10.227 11.8655 10.2254C15.8691 10.2254 18.7707 11.2171 20.5706 13.2006C22.3707 15.1841 23.2681 18.7195 23.263 23.8068C23.263 28.9285 22.313 32.4812 20.4131 34.4646C18.5131 36.448 15.3878 37.4398 11.0373 37.4398C9.08195 37.426 7.13141 37.2476 5.20712 36.9066C3.41739 36.6351 1.66853 36.1484 0 35.4571ZM4.87181 17.5517V32.2927C6.59835 32.9381 8.65351 33.2598 11.0373 33.2583C13.7997 33.2583 15.6731 32.6572 16.6573 31.455C17.6414 30.2527 18.1336 27.7001 18.1336 23.797C18.1336 20.169 17.6331 17.7187 16.6322 16.4461C15.6313 15.1735 13.783 14.538 11.0873 14.5396C9.32577 14.5396 7.84946 14.8107 6.6584 15.3528C5.46735 15.8949 4.87181 16.6279 4.87181 17.5517Z" fill="#B93568"/>
<path d="M34.6082 0.660889C35.7494 0.660889 36.5175 0.81567 36.9153 1.12032C37.3133 1.42497 37.5108 2.12026 37.5108 3.20618C37.5108 4.39283 37.3107 5.17166 36.9153 5.52052C36.5201 5.86939 35.7494 6.05366 34.6082 6.05366C33.4673 6.05366 32.6491 5.87677 32.2513 5.52052C31.8535 5.16428 31.6558 4.39283 31.6558 3.20618C31.6558 2.12026 31.8542 1.42497 32.2513 1.12032C32.6491 0.81567 33.4347 0.660889 34.6082 0.660889ZM36.9929 10.9379V36.7348H32.1236V10.9379H36.9929Z" fill="#B93568"/>
<path d="M51.4481 15.3626V36.7371H46.5762V12.3628C48.3319 11.6407 50.1664 11.1197 52.0436 10.8101C54.0333 10.437 56.0534 10.2412 58.0789 10.2253C61.9157 10.2253 64.6273 11.0902 66.2136 12.8198C67.8 14.5494 68.5941 17.7031 68.5957 22.2811V36.7273H63.7265V22.8879C63.7265 19.5302 63.2861 17.3191 62.4054 16.2544C61.5245 15.1898 59.7538 14.655 57.0932 14.6501C55.1869 14.6292 53.287 14.869 51.4481 15.3626Z" fill="#B93568"/>
<path d="M89.4743 37.4399C85.1906 37.4399 82.082 36.431 80.1485 34.413C78.2152 32.3952 77.2485 28.8261 77.2485 23.7062C77.2485 18.6188 78.2152 15.0973 80.1485 13.1417C82.082 11.186 85.1906 10.2107 89.4743 10.2156C93.7931 10.2156 96.91 11.191 98.8252 13.1417C100.74 15.0924 101.699 18.6138 101.703 23.7062C101.703 28.8261 100.743 32.3952 98.8252 34.413C96.9068 36.431 93.7898 37.4399 89.4743 37.4399ZM95.0693 16.1022C94.1035 14.8934 92.2384 14.289 89.4743 14.289C86.7101 14.289 84.8461 14.8934 83.8819 16.1022C82.9126 17.3061 82.4289 19.8742 82.4306 23.8069C82.4306 27.6051 82.9227 30.1487 83.9069 31.4378C84.891 32.7268 86.7477 33.3713 89.4769 33.3713C92.2043 33.3713 94.0608 32.7268 95.0467 31.4378C96.0326 30.1487 96.5247 27.6051 96.5231 23.8069C96.5214 19.8742 96.0368 17.3061 95.0693 16.1022Z" fill="#B93568"/>
<path d="M127.761 17.3969H119.471V27.1136C119.471 28.4699 119.721 29.428 120.222 29.9882C120.722 30.5483 121.663 30.8285 123.044 30.8285C124.492 30.8178 125.928 30.5772 127.298 30.116L128.591 36.1181C126.449 36.9992 123.791 37.4398 120.614 37.4398C117.472 37.4398 115.166 36.7789 113.698 35.457C112.23 34.1353 111.496 31.6253 111.496 27.9268V17.3969H107.192V10.6823H111.494V6.81767L119.471 3.66309V10.6823H127.761V17.3969Z" fill="#B93568"/>
<path d="M154.752 30.0645L155.946 36.0174C152.849 36.9952 149.612 37.4755 146.36 37.4399C142.283 37.4399 139.096 36.3803 136.801 34.2607C134.506 32.1414 133.357 28.5723 133.355 23.5539C133.355 18.5697 134.417 15.0597 136.541 13.0238C138.664 10.9879 141.765 9.96997 145.842 9.96997C148.19 9.96997 150.099 10.1821 151.567 10.6063C153.03 11.0287 154.341 11.8489 155.35 12.9722C156.401 14.1188 157.108 15.7468 157.472 17.8565C157.836 19.966 157.931 22.6792 157.757 25.9959H141.543C141.574 27.9614 142.041 29.2717 142.941 29.9268C143.842 30.582 145.327 30.9096 147.395 30.9096C149.874 30.938 152.347 30.654 154.752 30.0645ZM149.805 16.7459C149.165 16.1711 148.033 15.8828 146.412 15.8811C144.791 15.8795 143.642 16.1932 142.967 16.8221C142.299 17.4511 141.841 18.5976 141.593 20.2617H150.816C150.781 18.4878 150.444 17.316 149.805 16.7459Z" fill="#B93568"/>
<path d="M173.248 0V29.1481C173.248 31.5901 173.832 33.6932 175 35.4571L167.851 38C166.123 35.9314 165.259 33.0486 165.259 29.3519V0H173.248Z" fill="#B93568"/>
</g>
<defs>
<clipPath id="clip0_210_10428">
<rect width="175" height="38" fill="white"/>
</clipPath>
</defs>
</svg>
