<svg width="49" height="48" viewBox="0 0 49 48" fill="none" xmlns="http://www.w3.org/2000/svg">
<path fill-rule="evenodd" clip-rule="evenodd" d="M9.10693 47.2258H40.6677V44.7926C40.6677 43.4543 39.2974 42.3594 37.6225 42.3594H12.1523C10.4774 42.3594 9.10703 43.4543 9.10703 44.7926L9.10693 47.2258Z" fill="#57BBE8"/>
<path fill-rule="evenodd" clip-rule="evenodd" d="M9.10693 47.2256H40.6677V44.7925C40.6677 43.9972 40.1837 43.2878 39.4394 42.8431C39.6066 43.1438 39.6999 43.4759 39.6999 43.8247V46.2579H9.10693V47.2256Z" fill="#2DAAE2"/>
<path fill-rule="evenodd" clip-rule="evenodd" d="M17.5879 35.3647H32.1869V43.6803H17.5879V35.3647Z" fill="#2079A0"/>
<path fill-rule="evenodd" clip-rule="evenodd" d="M31.0547 35.3647H32.1868V43.6803H31.0547V35.3647Z" fill="#EAF7FC"/>
<path fill-rule="evenodd" clip-rule="evenodd" d="M5.23258 4.97693H44.5421C46.5061 4.97693 48.1131 6.58386 48.1131 8.54799V33.1148C48.1131 35.0789 46.5061 36.6859 44.5421 36.6859H5.23258C3.26855 36.6859 1.66162 35.079 1.66162 33.1148V8.54799C1.66162 6.58386 3.26855 4.97693 5.23258 4.97693Z" fill="#57BBE8"/>
<path fill-rule="evenodd" clip-rule="evenodd" d="M46.5341 5.58826C47.4849 6.23161 48.1131 7.32003 48.1131 8.54799V33.1148C48.1131 35.0789 46.5061 36.6859 44.5421 36.6859H5.23259C4.00462 36.6859 2.9163 36.0577 2.27295 35.1068C2.8607 35.5055 3.55465 35.7184 4.26485 35.7181H43.5744C45.5384 35.7181 47.1454 34.1111 47.1454 32.147V7.58025C47.1458 6.87001 46.9328 6.17604 46.5341 5.58826Z" fill="#EAF7FC"/>
<path fill-rule="evenodd" clip-rule="evenodd" d="M5.14275 7.96313H44.6314C44.9038 7.96313 45.1267 8.1861 45.1267 8.45842V30.6964H4.64746V8.45842C4.64746 8.1861 4.87033 7.96313 5.14275 7.96313Z" fill="#EAF7FC"/>
<path fill-rule="evenodd" clip-rule="evenodd" d="M42.6958 7.96313H44.6314C44.9038 7.96313 45.1267 8.1861 45.1267 8.45842V30.6964H43.1911V8.45842C43.1911 8.1861 42.9682 7.96313 42.6958 7.96313Z" fill="#C4E2FF"/>
<path fill-rule="evenodd" clip-rule="evenodd" d="M11.7479 21.9854H13.3061C13.6761 21.9854 13.9778 22.2871 13.9778 22.6571V29.9988C13.9778 30.3687 13.6761 30.6705 13.3061 30.6705H11.7479C11.3779 30.6705 11.0762 30.3688 11.0762 29.9988V22.6571C11.0762 22.2871 11.3779 21.9854 11.7479 21.9854Z" fill="#EECA72"/>
<path fill-rule="evenodd" clip-rule="evenodd" d="M12.4668 21.9854H13.3064C13.6764 21.9854 13.9781 22.2871 13.9781 22.657V29.9988C13.9781 30.3687 13.6764 30.6704 13.3064 30.6704H12.4668C12.8368 30.6704 13.1385 30.3687 13.1385 29.9988V22.657C13.1385 22.2871 12.8368 21.9854 12.4668 21.9854Z" fill="#E3A76F"/>
<path fill-rule="evenodd" clip-rule="evenodd" d="M17.9271 25.1042H19.4853C19.8553 25.1042 20.157 25.406 20.157 25.776V29.9993C20.157 30.3692 19.8553 30.671 19.4853 30.671H17.9271C17.5571 30.671 17.2554 30.3692 17.2554 29.9993V25.776C17.2555 25.406 17.5571 25.1042 17.9271 25.1042Z" fill="#A6DA6B"/>
<path fill-rule="evenodd" clip-rule="evenodd" d="M18.646 25.1042H19.4856C19.8556 25.1042 20.1573 25.406 20.1573 25.7759V29.9992C20.1573 30.3691 19.8556 30.6708 19.4856 30.6708H18.646C19.016 30.6708 19.3177 30.369 19.3177 29.9992V25.7759C19.3176 25.406 19.0159 25.1042 18.646 25.1042Z" fill="#87BE50"/>
<path fill-rule="evenodd" clip-rule="evenodd" d="M24.1076 20.2089H25.666C26.036 20.2089 26.3377 20.5106 26.3377 20.8805V29.9993C26.3377 30.3693 26.036 30.6709 25.666 30.6709H24.1076C23.7377 30.6709 23.436 30.3692 23.436 29.9993V20.8805C23.4359 20.5106 23.7377 20.2089 24.1076 20.2089Z" fill="#FFE177"/>
<path fill-rule="evenodd" clip-rule="evenodd" d="M24.8262 20.2087H25.6658C26.0357 20.2087 26.3375 20.5105 26.3375 20.8804V29.9992C26.3375 30.3691 26.0357 30.6708 25.6658 30.6708H24.8262C25.1961 30.6708 25.4978 30.369 25.4978 29.9992V20.8804C25.4979 20.5105 25.1961 20.2087 24.8262 20.2087Z" fill="#FFD064"/>
<path fill-rule="evenodd" clip-rule="evenodd" d="M30.2878 22.1876H31.8462C32.2161 22.1876 32.5179 22.4894 32.5179 22.8593V29.9992C32.5179 30.3692 32.2161 30.6709 31.8462 30.6709H30.2878C29.9179 30.6709 29.6161 30.3692 29.6162 29.9992V22.8593C29.6162 22.4895 29.918 22.1876 30.2878 22.1876Z" fill="#5ED0A6"/>
<path fill-rule="evenodd" clip-rule="evenodd" d="M31.0063 22.1877H31.846C32.2159 22.1877 32.5177 22.4895 32.5177 22.8595V29.9993C32.5177 30.3693 32.2159 30.671 31.846 30.671H31.0063C31.3763 30.671 31.6781 30.3693 31.6781 29.9993V22.8595C31.6781 22.4895 31.3763 22.1877 31.0063 22.1877Z" fill="#00E499"/>
<path fill-rule="evenodd" clip-rule="evenodd" d="M36.4681 16.4026H38.0263C38.3963 16.4026 38.698 16.7043 38.698 17.0742V29.9991C38.698 30.3691 38.3962 30.6708 38.0263 30.6708H36.4681C36.0981 30.6708 35.7964 30.369 35.7964 29.9991V17.0742C35.7965 16.7042 36.0981 16.4026 36.4681 16.4026Z" fill="#8AC9FE"/>
<path fill-rule="evenodd" clip-rule="evenodd" d="M37.187 16.4026H38.0266C38.3966 16.4026 38.6982 16.7043 38.6982 17.0742V29.9991C38.6982 30.3691 38.3965 30.6708 38.0266 30.6708H37.187C37.557 30.6708 37.8586 30.369 37.8586 29.9991V17.0742C37.8586 16.7042 37.5569 16.4026 37.187 16.4026Z" fill="#60B7FF"/>
<path d="M9.5209 18.0416C14.2892 18.0416 18.1546 14.1761 18.1546 9.40786C18.1546 4.63961 14.2892 0.77417 9.5209 0.77417C4.75264 0.77417 0.887207 4.63961 0.887207 9.40786C0.887207 14.1761 4.75264 18.0416 9.5209 18.0416Z" fill="#2079A0"/>
<path fill-rule="evenodd" clip-rule="evenodd" d="M9.52116 0.77417C14.2894 0.77417 18.1549 4.63961 18.1549 9.40786C18.1549 14.1761 14.2894 18.0416 9.52116 18.0416C9.32558 18.0416 9.13174 18.0344 8.93945 18.0216C13.4363 17.7224 16.9914 13.9806 16.9914 9.40786C16.9914 4.83519 13.4363 1.09333 8.93945 0.794105C9.13308 0.781026 9.32709 0.774377 9.52116 0.77417Z" fill="#EAF7FC"/>
<path d="M9.52085 16.0004C13.1619 16.0004 16.1135 13.0488 16.1135 9.40782C16.1135 5.76681 13.1619 2.81519 9.52085 2.81519C5.87984 2.81519 2.92822 5.76681 2.92822 9.40782C2.92822 13.0488 5.87984 16.0004 9.52085 16.0004Z" fill="#2DAAE2"/>
<path fill-rule="evenodd" clip-rule="evenodd" d="M9.52085 2.81519C5.87983 2.81519 2.92822 5.76689 2.92822 9.40782C2.92822 13.0488 5.87983 16.0004 9.52085 16.0004C9.69989 16.0004 9.87718 15.9931 10.0525 15.9791C6.66012 15.7083 3.99158 12.8698 3.99158 9.40782C3.99158 5.94582 6.66021 3.10735 10.0525 2.83657C9.87566 2.82242 9.69829 2.81528 9.52085 2.81519Z" fill="#EAF7FC"/>
<path fill-rule="evenodd" clip-rule="evenodd" d="M9.51894 3.58954C12.7316 3.58954 15.3383 6.20031 15.3383 9.40846C15.3383 12.6166 12.7316 15.2264 9.51894 15.2264C6.31079 15.2264 3.70418 12.6166 3.70418 9.40846C3.70418 6.20031 6.31079 3.58954 9.51894 3.58954ZM9.51894 16.7748C13.5837 16.7748 16.8876 13.4701 16.8876 9.40837C16.8876 5.3458 13.5837 2.04106 9.51894 2.04106C5.45859 2.04106 2.15483 5.3458 2.15483 9.40837C2.15483 13.4701 5.45859 16.7748 9.51894 16.7748ZM10.7448 11.4581C10.5397 11.6951 10.0749 11.8614 9.58726 11.8733C9.0313 11.8866 8.32494 11.6642 8.15636 10.9947C8.05156 10.579 7.63233 10.3267 7.21756 10.4301C7.11901 10.4548 7.02629 10.4986 6.94473 10.5592C6.86318 10.6198 6.79439 10.6959 6.74231 10.7831C6.69023 10.8703 6.65589 10.967 6.64126 11.0675C6.62662 11.168 6.63199 11.2705 6.65704 11.3689C6.90314 12.3668 7.70065 13.0919 8.74417 13.3334V13.5804C8.74417 14.0083 9.09507 14.3547 9.51884 14.3547C9.62057 14.3548 9.72131 14.3348 9.81532 14.2959C9.90932 14.2571 9.99474 14.2 10.0667 14.1281C10.1386 14.0562 10.1957 13.9708 10.2346 13.8768C10.2735 13.7829 10.2936 13.6821 10.2935 13.5804V13.3471C10.9634 13.2127 11.5421 12.9037 11.9158 12.4712C12.3031 12.025 12.4673 11.4677 12.3943 10.858C12.2439 9.64721 11.3234 8.8944 9.65094 8.62053C8.42985 8.41905 8.40701 7.98385 8.39791 7.82031C8.37052 7.20008 9.05414 7.01234 9.19078 6.98137C9.6191 6.88431 10.4212 6.92902 10.7492 7.70505C10.9133 8.09921 11.369 8.28511 11.7609 8.11924C12.1574 7.95386 12.3396 7.49998 12.1756 7.10621C11.7928 6.18889 11.0636 5.68257 10.2935 5.48892V5.23644C10.2935 4.8086 9.94717 4.46225 9.51884 4.46225C9.09507 4.46225 8.74417 4.8086 8.74417 5.23644V5.4958C7.55482 5.80934 6.79833 6.7617 6.85301 7.89502C6.88495 8.58589 7.26314 9.79759 9.40039 10.1485C10.7766 10.3741 10.8313 10.8443 10.854 11.0448C10.8815 11.2662 10.8086 11.3825 10.7448 11.4581ZM47.3376 33.1149V8.54795C47.3376 7.00634 46.0844 5.75128 44.5396 5.75128H18.191C18.3846 6.21816 18.5431 6.69889 18.665 7.18944H44.6309C45.3327 7.18944 45.9023 7.75818 45.9023 8.45902V30.6704C45.9023 31.0983 45.5559 31.4446 45.1276 31.4446H4.64753C4.54581 31.4447 4.44507 31.4247 4.35107 31.3859C4.25706 31.347 4.17165 31.29 4.0997 31.2181C4.02775 31.1462 3.97068 31.0608 3.93176 30.9668C3.89283 30.8728 3.87282 30.7721 3.87286 30.6704V16.9279C3.34891 16.5335 2.86779 16.0852 2.43741 15.5904V33.1149C2.43741 34.658 3.69063 35.912 5.23089 35.912H44.5397C46.0844 35.912 47.3376 34.658 47.3376 33.1149ZM31.4109 41.5854H18.3595V37.4604H31.4109V41.5854ZM39.8915 44.7927V46.4515H9.87894V44.7927C9.87894 43.8936 10.9226 43.1339 12.1529 43.1339H37.6221C38.8525 43.134 39.8915 43.8936 39.8915 44.7927ZM9.51894 1.54838C5.18521 1.54838 1.66263 5.07464 1.66263 9.40837C1.66263 13.7421 5.18521 17.2674 9.51894 17.2674C13.8572 17.2674 17.3798 13.7421 17.3798 9.40837C17.3798 5.07464 13.8572 1.54838 9.51894 1.54838ZM13.2055 29.8963H11.8522V22.76H13.2055V29.8963ZM19.3849 29.8963H18.0314V25.8783H19.3849V29.8963ZM25.5642 29.8963H24.2108V20.9837H25.5642V29.8963ZM31.7436 29.8963H30.3901V22.9615H31.7436V29.8963ZM38.6976 15.6292C38.7992 15.6291 38.9 15.649 38.9939 15.6879C39.0879 15.7267 39.1733 15.7837 39.2453 15.8556C39.3172 15.9274 39.3743 16.0128 39.4132 16.1067C39.4522 16.2006 39.4722 16.3013 39.4722 16.403V29.8963H44.3528V8.73753H18.9064C18.9201 8.95943 18.9291 9.18279 18.9291 9.40837C18.9291 12.5536 17.3752 15.3434 14.9964 17.0523L18.5782 18.3829L24.4204 13.948C24.6391 13.7795 24.9353 13.7425 25.1951 13.8533L30.9141 16.3141L35.421 12.2128C35.0655 12.1781 34.7739 11.9011 34.7283 11.5325C34.6782 11.1086 34.9835 10.7235 35.4072 10.6734L37.6174 10.4128C37.8452 10.3859 38.0776 10.4634 38.2417 10.6246C38.3247 10.704 38.3891 10.8009 38.4301 10.9083C38.4711 11.0156 38.4877 11.1308 38.4787 11.2453L38.2963 13.4605C38.2644 13.8647 37.9272 14.1714 37.5262 14.1714C37.5034 14.1714 37.4852 14.1705 37.4624 14.1687C37.3611 14.1607 37.2623 14.1328 37.1719 14.0864C37.0814 14.0401 37.001 13.9763 36.9353 13.8987C36.8697 13.8211 36.82 13.7313 36.7892 13.6344C36.7585 13.5376 36.7472 13.4356 36.7561 13.3343L36.7744 13.0764L31.5884 17.7947C31.3652 17.9989 31.0416 18.0531 30.7591 17.9333L24.9945 15.4537L19.1751 19.8736C19.0712 19.9524 18.9491 20.0038 18.8201 20.0229C18.691 20.042 18.5593 20.0283 18.437 19.983L13.2374 18.0503C12.0982 18.5429 10.8404 18.8159 9.51884 18.8159C8.05146 18.8159 6.66159 18.4777 5.42211 17.8748V29.8963H10.3027V21.9862C10.3027 21.8845 10.3227 21.7837 10.3616 21.6897C10.4005 21.5958 10.4576 21.5104 10.5295 21.4385C10.6015 21.3665 10.6869 21.3095 10.7809 21.2706C10.8749 21.2318 10.9757 21.2118 11.0774 21.2119H13.9757C14.0774 21.2118 14.1781 21.2318 14.2721 21.2706C14.3661 21.3095 14.4516 21.3665 14.5235 21.4385C14.5955 21.5104 14.6525 21.5958 14.6915 21.6897C14.7304 21.7837 14.7504 21.8845 14.7503 21.9862V29.8963H16.482V25.1041C16.482 24.6762 16.8284 24.33 17.2567 24.33H20.1595C20.5834 24.33 20.9342 24.6763 20.9342 25.1041V29.8963H22.6614V20.2094C22.6614 20.1077 22.6814 20.007 22.7203 19.913C22.7593 19.819 22.8163 19.7336 22.8883 19.6617C22.9602 19.5898 23.0456 19.5327 23.1396 19.4939C23.2336 19.455 23.3344 19.435 23.4361 19.4351H26.3389C26.4407 19.435 26.5414 19.455 26.6354 19.4939C26.7294 19.5327 26.8148 19.5898 26.8868 19.6617C26.9587 19.7336 27.0158 19.819 27.0547 19.913C27.0936 20.007 27.1137 20.1077 27.1136 20.2094V29.8963H28.8407V22.1872C28.8407 21.7606 29.1871 21.4134 29.6154 21.4134H32.5182C32.9467 21.4134 33.2929 21.7606 33.2929 22.1872V29.8963H35.0246V16.4029C35.0246 15.9755 35.371 15.6291 35.7947 15.6291L38.6976 15.6292ZM37.9229 29.8963H36.5695V17.1772H37.9229V29.8963ZM44.5396 4.20289H17.3525C15.6664 1.67148 12.7863 0 9.51894 0C4.33302 0 0.113283 4.22022 0.113283 9.40846C0.112608 10.6935 0.376298 11.965 0.887958 13.1438V33.115C0.887958 35.511 2.83834 37.4606 5.23079 37.4606H16.8147V41.5856H12.1528C10.0475 41.5856 8.33404 43.0247 8.33404 44.7929V47.2257C8.33404 47.6536 8.68039 48 9.10417 48H40.666C40.7678 48.0001 40.8685 47.9801 40.9625 47.9412C41.0565 47.9024 41.1419 47.8453 41.2139 47.7734C41.2858 47.7015 41.3429 47.6161 41.3818 47.5222C41.4207 47.4282 41.4408 47.3274 41.4407 47.2257V44.7927C41.4407 43.0246 39.7272 41.5854 37.6219 41.5854H32.9601V37.4604H44.5395C46.9365 37.4604 48.8869 35.5109 48.8869 33.1148V8.54795C48.887 6.15192 46.9366 4.20289 44.5396 4.20289Z" fill="#13475F"/>
</svg>
