<svg width="49" height="48" viewBox="0 0 49 48" fill="none" xmlns="http://www.w3.org/2000/svg">
<g id="Frame" clip-path="url(#clip0_201_2705)">
<g id="Group">
<path id="Vector" d="M24.5 45.2344C36.2274 45.2344 45.7344 35.7274 45.7344 24C45.7344 12.2726 36.2274 2.76562 24.5 2.76562C12.7726 2.76562 3.26562 12.2726 3.26562 24C3.26562 35.7274 12.7726 45.2344 24.5 45.2344Z" fill="#72C6EC"/>
<path id="Vector_2" d="M24.5 2.76562C24.0273 2.76562 23.5588 2.78269 23.0938 2.81316C34.1653 3.53719 42.9219 12.7452 42.9219 24C42.9219 35.2548 34.1653 44.4628 23.0938 45.1868C23.5588 45.2172 24.0273 45.2344 24.5 45.2344C36.2274 45.2344 45.7344 35.7275 45.7344 24C45.7344 12.2725 36.2274 2.76562 24.5 2.76562Z" fill="#2CAAE2"/>
<path id="Vector_3" d="M24.5002 40.4406C33.5802 40.4406 40.9409 33.0799 40.9409 24C40.9409 14.9201 33.5802 7.55933 24.5002 7.55933C15.4203 7.55933 8.05957 14.9201 8.05957 24C8.05957 33.0799 15.4203 40.4406 24.5002 40.4406Z" fill="#EFEDEF"/>
<path id="Vector_4" d="M24.5 7.55933C24.0263 7.55933 23.5574 7.58061 23.0938 7.62008C31.5033 8.33595 38.1282 15.4083 38.1282 24C38.1282 32.5917 31.5033 39.664 23.0938 40.3799C23.5574 40.4194 24.0263 40.4406 24.5 40.4406C33.5654 40.4406 40.9407 33.0654 40.9407 24C40.9407 14.9345 33.5654 7.55933 24.5 7.55933Z" fill="#E5E1E5"/>
<path id="Vector_5" d="M1.20312 2.76562C1.20312 1.62656 2.12656 0.703125 3.26562 0.703125C4.40469 0.703125 5.32812 1.62656 5.32812 2.76562C5.32812 3.90469 4.40469 4.82812 3.26562 4.82812C2.12656 4.82812 1.20312 3.90469 1.20312 2.76562ZM43.6719 2.76562C43.6719 1.62656 44.5953 0.703125 45.7344 0.703125C46.8734 0.703125 47.7969 1.62656 47.7969 2.76562C47.7969 3.90469 46.8734 4.82812 45.7344 4.82812C44.5953 4.82812 43.6719 3.90469 43.6719 2.76562ZM22.4375 4.35938V1.17188C22.4375 1.04755 22.4869 0.928326 22.5748 0.840419C22.6627 0.752511 22.7819 0.703125 22.9062 0.703125H26.0938C26.2181 0.703125 26.3373 0.752511 26.4252 0.840419C26.5131 0.928326 26.5625 1.04755 26.5625 1.17188V4.35938C26.5625 4.4837 26.5131 4.60292 26.4252 4.69083C26.3373 4.77874 26.2181 4.82812 26.0938 4.82812H22.9062C22.7819 4.82812 22.6627 4.77874 22.5748 4.69083C22.4869 4.60292 22.4375 4.4837 22.4375 4.35938ZM1.20312 45.2344C1.20312 44.0953 2.12656 43.1719 3.26562 43.1719C4.40469 43.1719 5.32812 44.0953 5.32812 45.2344C5.32812 46.3734 4.40469 47.2969 3.26562 47.2969C2.12656 47.2969 1.20312 46.3734 1.20312 45.2344ZM43.6719 45.2344C43.6719 44.0953 44.5953 43.1719 45.7344 43.1719C46.8734 43.1719 47.7969 44.0953 47.7969 45.2344C47.7969 46.3734 46.8734 47.2969 45.7344 47.2969C44.5953 47.2969 43.6719 46.3734 43.6719 45.2344ZM22.4375 46.8281V43.6406C22.4375 43.5163 22.4869 43.3971 22.5748 43.3092C22.6627 43.2213 22.7819 43.1719 22.9062 43.1719H26.0938C26.2181 43.1719 26.3373 43.2213 26.4252 43.3092C26.5131 43.3971 26.5625 43.5163 26.5625 43.6406V46.8281C26.5625 46.9524 26.5131 47.0717 26.4252 47.1596C26.3373 47.2475 26.2181 47.2969 26.0938 47.2969H22.9062C22.7819 47.2969 22.6627 47.2475 22.5748 47.1596C22.4869 47.0717 22.4375 46.9524 22.4375 46.8281Z" fill="#26A6FE"/>
<path id="Vector (Stroke)" fill-rule="evenodd" clip-rule="evenodd" d="M23.1374 2.7976C23.1746 3.18413 22.8915 3.52768 22.5049 3.56492C18.411 3.95943 14.6686 5.55623 11.6343 7.99907C11.3319 8.24259 10.8892 8.1948 10.6457 7.89232C10.4022 7.58984 10.45 7.14722 10.7525 6.9037C13.9938 4.29416 17.9941 2.58684 22.3701 2.16516C22.7566 2.12791 23.1001 2.41106 23.1374 2.7976ZM25.8626 2.79759C25.8999 2.41106 26.2434 2.12791 26.6299 2.16516C37.7467 3.23644 46.4375 12.6028 46.4375 24C46.4375 35.3973 37.7467 44.7636 26.6299 45.8349C26.2434 45.8722 25.8999 45.589 25.8626 45.2025C25.8254 44.8159 26.1085 44.4724 26.4951 44.4352C36.8977 43.4327 45.0312 34.6659 45.0312 24C45.0312 13.3342 36.8977 4.56739 26.4951 3.56492C26.1085 3.52767 25.8254 3.18413 25.8626 2.79759ZM9.30589 9.14997C9.59236 9.41214 9.61205 9.8569 9.34988 10.1434C6.00721 13.7958 3.96875 18.6591 3.96875 24C3.96875 34.6659 12.1023 43.4327 22.5049 44.4352C22.8915 44.4724 23.1746 44.8159 23.1374 45.2025C23.1001 45.589 22.7566 45.8722 22.3701 45.8349C11.2533 44.7636 2.5625 35.3973 2.5625 24C2.5625 18.2941 4.74186 13.0955 8.31249 9.19396C8.57466 8.9075 9.01942 8.8878 9.30589 9.14997Z" fill="#12475F"/>
<path id="Vector (Stroke)_2" fill-rule="evenodd" clip-rule="evenodd" d="M24.5002 8.26245C15.8086 8.26245 8.7627 15.3084 8.7627 24C8.7627 32.6916 15.8086 39.7375 24.5002 39.7375C33.1918 39.7375 40.2378 32.6916 40.2378 24C40.2378 15.3084 33.1918 8.26245 24.5002 8.26245ZM7.35645 24C7.35645 14.5317 15.032 6.8562 24.5002 6.8562C33.9685 6.8562 41.644 14.5317 41.644 24C41.644 33.4682 33.9685 41.1438 24.5002 41.1438C15.032 41.1438 7.35645 33.4682 7.35645 24Z" fill="#12475F"/>
<path id="Vector (Stroke)_3" fill-rule="evenodd" clip-rule="evenodd" d="M26.3425 20.2459C27.091 20.2448 27.8226 20.4683 28.4427 20.8876C28.7644 21.1051 28.8488 21.5422 28.6313 21.8639C28.4138 22.1856 27.9767 22.27 27.655 22.0525C27.268 21.7908 26.8114 21.6514 26.3442 21.6521L26.3431 21.6521C25.0464 21.6521 23.9953 22.7032 23.9953 23.9999C23.9953 25.2965 25.0464 26.3477 26.3431 26.3477C26.976 26.3477 27.4329 26.1 27.7457 25.7143C27.9577 25.4529 28.1175 25.1092 28.2032 24.703H27.1515C26.7632 24.703 26.4484 24.3882 26.4484 23.9999C26.4484 23.6116 26.7632 23.2968 27.1515 23.2968H28.9768C29.3651 23.2968 29.6799 23.6116 29.6799 23.9999C29.6799 24.9673 29.408 25.8972 28.8379 26.6001C28.2551 27.3186 27.3951 27.7539 26.3431 27.7539C24.2698 27.7539 22.589 26.0732 22.589 23.9999C22.589 21.9268 24.2695 20.2462 26.3425 20.2459ZM11.7861 20.2459C12.1745 20.2459 12.4893 20.5607 12.4893 20.9491V26.3478C12.6137 26.3477 12.7459 26.3474 12.8778 26.347C13.1401 26.3463 13.4004 26.3452 13.5952 26.3443C13.6925 26.3439 13.7735 26.3435 13.8301 26.3432L13.9188 26.3427C13.9188 26.3427 13.9189 26.3427 13.9227 27.0303L13.9188 26.3427C14.3071 26.3405 14.6237 26.6536 14.6259 27.0419C14.6281 27.4302 14.315 27.7468 13.9267 27.7489L13.9229 27.0579C13.9267 27.7489 13.9267 27.7489 13.9267 27.7489L13.9266 27.7489L13.8374 27.7494C13.7806 27.7497 13.6993 27.7501 13.6017 27.7506C13.4064 27.7515 13.1451 27.7525 12.8817 27.7533C12.6185 27.754 12.352 27.7544 12.1466 27.7538C12.0441 27.7535 11.955 27.753 11.8885 27.7522C11.8556 27.7518 11.8254 27.7513 11.8008 27.7506C11.7888 27.7502 11.7746 27.7497 11.7605 27.749L11.7603 27.7489C11.7573 27.7488 11.7146 27.7469 11.6676 27.7389C11.3299 27.6811 11.083 27.3884 11.083 27.0458V20.9491C11.083 20.5607 11.3978 20.2459 11.7861 20.2459ZM11.8255 26.3442C11.8258 26.3442 11.8294 26.3443 11.8355 26.3447C11.8282 26.3444 11.8252 26.3443 11.8255 26.3442Z" fill="#12475F"/>
<path id="Vector (Stroke)_4" fill-rule="evenodd" clip-rule="evenodd" d="M18.1046 21.6522C16.808 21.6522 15.7568 22.7034 15.7568 24C15.7568 25.2966 16.808 26.3478 18.1046 26.3478C19.4013 26.3478 20.4524 25.2966 20.4524 24C20.4524 22.7034 19.4013 21.6522 18.1046 21.6522ZM14.3506 24C14.3506 21.9267 16.0313 20.246 18.1046 20.246C20.1779 20.246 21.8586 21.9267 21.8586 24C21.8586 26.0733 20.1779 27.754 18.1046 27.754C16.0313 27.754 14.3506 26.0733 14.3506 24Z" fill="#12475F"/>
<path id="Vector (Stroke)_5" fill-rule="evenodd" clip-rule="evenodd" d="M34.1632 21.6522C32.8666 21.6522 31.8154 22.7034 31.8154 24C31.8154 25.2966 32.8666 26.3478 34.1632 26.3478C35.4599 26.3478 36.511 25.2966 36.511 24C36.511 22.7034 35.4599 21.6522 34.1632 21.6522ZM30.4092 24C30.4092 21.9267 32.0899 20.246 34.1632 20.246C36.2365 20.246 37.9172 21.9267 37.9172 24C37.9172 26.0733 36.2365 27.754 34.1632 27.754C32.0899 27.754 30.4092 26.0733 30.4092 24Z" fill="#12475F"/>
<path id="Vector (Stroke)_6" fill-rule="evenodd" clip-rule="evenodd" d="M3.26562 1.40625C2.51489 1.40625 1.90625 2.01489 1.90625 2.76562C1.90625 3.51636 2.51489 4.125 3.26562 4.125C4.01636 4.125 4.625 3.51636 4.625 2.76562C4.625 2.01489 4.01636 1.40625 3.26562 1.40625ZM0.5 2.76562C0.5 1.23824 1.73824 0 3.26562 0C4.55005 0 5.62999 0.875631 5.94107 2.0625H21.7344V1.17188C21.7344 0.861076 21.8578 0.563004 22.0776 0.343234C22.2974 0.123465 22.5954 0 22.9062 0H26.0938C26.4046 0 26.7026 0.123466 26.9224 0.343234C27.1422 0.563001 27.2656 0.86107 27.2656 1.17188V2.0625H43.0589C43.37 0.875631 44.45 0 45.7344 0C47.2618 0 48.5 1.23824 48.5 2.76562C48.5 4.29301 47.2618 5.53125 45.7344 5.53125C44.45 5.53125 43.37 4.65562 43.0589 3.46875H27.2656V4.35938C27.2656 4.67018 27.1422 4.96825 26.9224 5.18802C26.7026 5.40778 26.4046 5.53125 26.0938 5.53125H22.9062C22.5954 5.53125 22.2974 5.40779 22.0776 5.18802C21.8578 4.96825 21.7344 4.67017 21.7344 4.35938V3.46875H5.94107C5.62999 4.65562 4.55005 5.53125 3.26562 5.53125C1.73824 5.53125 0.5 4.29301 0.5 2.76562ZM23.1406 4.125H25.8594V1.40625H23.1406V4.125ZM45.7344 1.40625C44.9836 1.40625 44.375 2.01489 44.375 2.76562C44.375 3.51636 44.9836 4.125 45.7344 4.125C46.4851 4.125 47.0938 3.51636 47.0938 2.76562C47.0938 2.01489 46.4851 1.40625 45.7344 1.40625ZM3.26562 43.875C2.51489 43.875 1.90625 44.4836 1.90625 45.2344C1.90625 45.9851 2.51489 46.5938 3.26562 46.5938C4.01636 46.5938 4.625 45.9851 4.625 45.2344C4.625 44.4836 4.01636 43.875 3.26562 43.875ZM0.5 45.2344C0.5 43.707 1.73824 42.4688 3.26562 42.4688C4.55005 42.4688 5.63 43.3444 5.94107 44.5312H21.7344V43.6406C21.7344 43.3298 21.8578 43.0318 22.0776 42.812C22.2974 42.5922 22.5954 42.4688 22.9062 42.4688H26.0938C26.4046 42.4688 26.7026 42.5922 26.9224 42.812C27.1422 43.0317 27.2656 43.3298 27.2656 43.6406V44.5312H35.637C36.0254 44.5312 36.3402 44.846 36.3402 45.2344C36.3402 45.6227 36.0254 45.9375 35.637 45.9375H27.2656V46.8281C27.2656 47.1389 27.1422 47.437 26.9224 47.6568C26.7026 47.8765 26.4046 48 26.0938 48H22.9062C22.5954 48 22.2974 47.8765 22.0776 47.6568C21.8578 47.437 21.7344 47.1389 21.7344 46.8281V45.9375H5.94107C5.63 47.1244 4.55005 48 3.26562 48C1.73824 48 0.5 46.7618 0.5 45.2344ZM23.1406 46.5938H25.8594V43.875H23.1406V46.5938ZM45.7344 43.875C44.9836 43.875 44.375 44.4836 44.375 45.2344C44.375 45.9851 44.9836 46.5938 45.7344 46.5938C46.4851 46.5938 47.0938 45.9851 47.0938 45.2344C47.0938 44.4836 46.4851 43.875 45.7344 43.875ZM43.0589 44.5312C43.37 43.3444 44.45 42.4688 45.7344 42.4688C47.2618 42.4688 48.5 43.707 48.5 45.2344C48.5 46.7618 47.2618 48 45.7344 48C44.45 48 43.37 47.1244 43.0589 45.9375H38.9183C38.53 45.9375 38.2152 45.6227 38.2152 45.2344C38.2152 44.846 38.53 44.5312 38.9183 44.5312H43.0589Z" fill="#12475F"/>
</g>
</g>
<defs>
<clipPath id="clip0_201_2705">
<rect width="48" height="48" fill="white" transform="translate(0.5)"/>
</clipPath>
</defs>
</svg>
