<svg width="49" height="48" viewBox="0 0 49 48" fill="none" xmlns="http://www.w3.org/2000/svg">
<g id="Frame" clip-path="url(#clip0_201_2738)">
<g id="Group">
<path id="Vector" d="M8.1875 40.4734H5.1875C3.11647 40.4734 1.4375 38.7944 1.4375 36.7234V4.6875C1.4375 2.61647 3.11647 0.9375 5.1875 0.9375H43.8125C45.8835 0.9375 47.5625 2.61647 47.5625 4.6875V36.7234C47.5625 38.7944 45.8835 40.4734 43.8125 40.4734H8.1875Z" fill="white"/>
<path id="Vector_2" d="M43.8125 0.9375H5.1875C3.11647 0.9375 1.4375 2.61647 1.4375 4.6875V7.6875H47.5625V4.6875C47.5625 2.61647 45.8835 0.9375 43.8125 0.9375Z" fill="#2CAAE2"/>
<path id="Vector_3" d="M5.75 36.75H11.75V47.0625H5.75V36.75Z" fill="#A5DC69"/>
<path id="Vector_4" d="M26.75 34.3125H32.75V47.0625H26.75V34.3125Z" fill="#78D2FA"/>
<path id="Vector_5" d="M16.25 26.384H22.25V47.0625H16.25V26.384Z" fill="#F5C86E"/>
<path id="Vector_6" d="M37.25 24.9844H43.25V47.0625H37.25V24.9844Z" fill="#2CAAE2"/>
<path id="Vector_7" d="M18.7227 18.5569C20.0689 18.5569 21.1602 17.4656 21.1602 16.1194C21.1602 14.7732 20.0689 13.6819 18.7227 13.6819C17.3765 13.6819 16.2852 14.7732 16.2852 16.1194C16.2852 17.4656 17.3765 18.5569 18.7227 18.5569Z" fill="#F5C86E"/>
<path id="Vector_8" d="M29.6631 29.7188C31.0093 29.7188 32.1006 28.6274 32.1006 27.2812C32.1006 25.9351 31.0093 24.8438 29.6631 24.8438C28.3169 24.8438 27.2256 25.9351 27.2256 27.2812C27.2256 28.6274 28.3169 29.7188 29.6631 29.7188Z" fill="#78D2FA"/>
<path id="Vector_9" d="M40.25 18.5569C41.5962 18.5569 42.6875 17.4656 42.6875 16.1194C42.6875 14.7732 41.5962 13.6819 40.25 13.6819C38.9038 13.6819 37.8125 14.7732 37.8125 16.1194C37.8125 17.4656 38.9038 18.5569 40.25 18.5569Z" fill="#2CAAE2"/>
<path id="Vector_10" d="M8.68848 28.8215C10.0347 28.8215 11.126 27.7302 11.126 26.384C11.126 25.0378 10.0347 23.9465 8.68848 23.9465C7.34228 23.9465 6.25098 25.0378 6.25098 26.384C6.25098 27.7302 7.34228 28.8215 8.68848 28.8215Z" fill="#A5DC69"/>
<path id="Vector_11" d="M45.2265 41.2971C47.0315 41.2971 48.5 39.8286 48.5 38.0235V4.6875C48.5 2.10281 46.3972 0 43.8125 0H5.1875C2.60281 0 0.5 2.10281 0.5 4.6875V38.0235C0.5 39.8286 1.9685 41.2971 3.77347 41.2971H4.8125V46.125H1.4375C0.919719 46.125 0.5 46.5448 0.5 47.0625C0.5 47.5802 0.919719 48 1.4375 48H47.5625C48.0803 48 48.5 47.5802 48.5 47.0625C48.5 46.5448 48.0803 46.125 47.5625 46.125H44.1875V41.2971H45.2265ZM5.1875 1.875H43.8125C45.3633 1.875 46.625 3.13669 46.625 4.6875V6.75H2.46913C2.43734 6.75 2.40594 6.75169 2.375 6.75478V4.6875C2.375 3.13669 3.63669 1.875 5.1875 1.875ZM6.6875 46.125V37.6875H10.8125V46.125H6.6875ZM17.1875 46.125V27.3218H21.3125V46.125H17.1875ZM27.6875 46.125V35.25H31.8125V46.125H27.6875ZM38.1875 46.125V36.0234C38.1875 35.5057 37.7678 35.0859 37.25 35.0859C36.7322 35.0859 36.3125 35.5057 36.3125 36.0234V46.125H33.6875V34.3125C33.6875 33.7948 33.2678 33.375 32.75 33.375H26.75C26.2322 33.375 25.8125 33.7948 25.8125 34.3125V46.125H23.1875V26.3843C23.1875 25.8666 22.7678 25.4468 22.25 25.4468H16.25C15.7322 25.4468 15.3125 25.8666 15.3125 26.3843V46.125H12.6875V36.75C12.6875 36.2323 12.2678 35.8125 11.75 35.8125H5.75C5.23222 35.8125 4.8125 36.2323 4.8125 36.75V39.4221H3.77347C3.00228 39.4221 2.375 38.7947 2.375 38.0235V8.62022C2.40594 8.62331 2.43734 8.625 2.46913 8.625H46.625V38.0235C46.625 38.7947 45.9976 39.4221 45.2265 39.4221H44.1875V24.9844C44.1875 24.4667 43.7678 24.0469 43.25 24.0469H37.25C36.7322 24.0469 36.3125 24.4667 36.3125 24.9844V29.7187C36.3125 30.2363 36.7322 30.6562 37.25 30.6562C37.7678 30.6562 38.1875 30.2363 38.1875 29.7187V25.9219H42.3125V46.125H38.1875Z" fill="black"/>
<path id="Vector_12" d="M21.3186 5.25H42.5C43.0178 5.25 43.4375 4.83019 43.4375 4.3125C43.4375 3.79481 43.0178 3.375 42.5 3.375H21.3186C20.8008 3.375 20.3811 3.79481 20.3811 4.3125C20.3811 4.83019 20.8008 5.25 21.3186 5.25ZM10.25 5.25C10.4966 5.25 10.7384 5.14969 10.9128 4.97522C11.0872 4.80094 11.1875 4.55906 11.1875 4.3125C11.1875 4.06594 11.0872 3.82406 10.9128 3.64969C10.7384 3.47531 10.4966 3.375 10.25 3.375C10.0034 3.375 9.76156 3.47522 9.58719 3.64969C9.41281 3.82406 9.3125 4.06594 9.3125 4.3125C9.3125 4.55906 9.41281 4.80094 9.58719 4.97522C9.76336 5.15046 10.0015 5.24919 10.25 5.25ZM6.5 5.25C6.74656 5.25 6.98844 5.14969 7.16281 4.97522C7.33719 4.80094 7.4375 4.55906 7.4375 4.3125C7.4375 4.06594 7.33719 3.82406 7.16281 3.64969C6.98844 3.47531 6.74656 3.375 6.5 3.375C6.25344 3.375 6.01156 3.47522 5.83719 3.64969C5.66281 3.82406 5.5625 4.06594 5.5625 4.3125C5.5625 4.55906 5.66281 4.80094 5.83719 4.97522C6.01336 5.15046 6.25151 5.24919 6.5 5.25ZM14 5.25C14.2466 5.25 14.4884 5.14969 14.6628 4.97522C14.8372 4.80094 14.9375 4.55906 14.9375 4.3125C14.9375 4.06594 14.8372 3.82406 14.6628 3.64969C14.4884 3.47531 14.2475 3.375 14 3.375C13.7534 3.375 13.5116 3.47522 13.3372 3.64969C13.1628 3.82406 13.0625 4.06594 13.0625 4.3125C13.0625 4.55906 13.1628 4.80094 13.3372 4.97522C13.5134 5.15046 13.7515 5.24919 14 5.25ZM37.25 32.1225C37.0034 32.1225 36.7616 32.222 36.5872 32.3972C36.4128 32.5716 36.3125 32.8134 36.3125 33.06C36.3125 33.3066 36.4128 33.5484 36.5872 33.7228C36.7616 33.8971 37.0034 33.9975 37.25 33.9975C37.4966 33.9975 37.7384 33.8972 37.9128 33.7228C38.0872 33.5484 38.1875 33.3066 38.1875 33.06C38.1875 32.8125 38.0872 32.5716 37.9128 32.3972C37.7368 32.2216 37.4986 32.1229 37.25 32.1225ZM40.25 19.4943C42.111 19.4943 43.625 17.9803 43.625 16.1193C43.625 14.2582 42.111 12.7443 40.25 12.7443C38.389 12.7443 36.875 14.2582 36.875 16.1193C36.8744 16.8308 37.1 17.5241 37.5192 18.0991L31.2918 24.3264C30.7934 24.0502 30.2328 23.9056 29.6629 23.9062C29.1485 23.9057 28.641 24.0235 28.1794 24.2506L21.677 17.7482C21.9532 17.2497 22.0978 16.6891 22.0973 16.1193C22.0973 14.2582 20.5833 12.7443 18.7223 12.7443C16.8612 12.7443 15.3473 14.2582 15.3473 16.1193C15.3473 16.7697 15.5327 17.3774 15.8528 17.8932L10.3166 23.4293C9.81815 23.1532 9.25758 23.0085 8.68775 23.0091C6.82672 23.0091 5.31275 24.523 5.31275 26.3841C5.31275 28.2451 6.82672 29.7591 8.68775 29.7591C10.5488 29.7591 12.0627 28.2451 12.0627 26.3841C12.0627 25.7936 11.9099 25.2384 11.6425 24.7552L17.2448 19.1528C17.7048 19.3779 18.2102 19.4947 18.7223 19.4942C19.3126 19.4942 19.8678 19.3414 20.3511 19.0739L26.7898 25.5126C26.4611 26.0438 26.2873 26.6563 26.2879 27.281C26.2879 29.142 27.8019 30.656 29.6629 30.656C31.5239 30.656 33.0379 29.142 33.0379 27.281C33.0379 26.6905 32.8851 26.1353 32.6176 25.6521L39.0118 19.2578C39.4059 19.4142 39.826 19.4945 40.25 19.4943ZM40.25 14.6193C41.0771 14.6193 41.75 15.2922 41.75 16.1193C41.75 16.9463 41.0771 17.6193 40.25 17.6193C39.4229 17.6193 38.75 16.9463 38.75 16.1193C38.75 15.2922 39.4229 14.6193 40.25 14.6193ZM8.68784 27.8843C7.86078 27.8843 7.18784 27.2113 7.18784 26.3843C7.18784 25.5572 7.86078 24.8843 8.68784 24.8843C9.51491 24.8843 10.1878 25.5572 10.1878 26.3843C10.1878 27.2113 9.51491 27.8843 8.68784 27.8843ZM18.7224 17.6193C17.8953 17.6193 17.2224 16.9463 17.2224 16.1193C17.2224 15.2922 17.8953 14.6193 18.7224 14.6193C19.5494 14.6193 20.2224 15.2922 20.2224 16.1193C20.2224 16.9463 19.5494 17.6193 18.7224 17.6193ZM29.663 28.7812C28.8359 28.7812 28.163 28.1082 28.163 27.2812C28.163 26.4541 28.8359 25.7812 29.663 25.7812C30.4901 25.7812 31.163 26.4541 31.163 27.2812C31.163 28.1082 30.4901 28.7812 29.663 28.7812ZM13.7431 13.6894C13.9897 13.6894 14.2306 13.5892 14.4059 13.4147C14.5803 13.2403 14.6806 12.9984 14.6806 12.7519C14.6806 12.5053 14.5803 12.2634 14.4059 12.0892C14.2296 11.9141 13.9916 11.8154 13.7431 11.8144C13.4956 11.8144 13.2537 11.9147 13.0794 12.0892C12.905 12.2634 12.8056 12.5053 12.8056 12.7519C12.8056 12.9984 12.905 13.2403 13.0794 13.4147C13.256 13.5899 13.4944 13.6885 13.7431 13.6894ZM5.75 13.6895H10.25C10.7678 13.6895 11.1875 13.2697 11.1875 12.752C11.1875 12.2343 10.7678 11.8145 10.25 11.8145H5.75C5.23222 11.8145 4.8125 12.2343 4.8125 12.752C4.8125 13.2697 5.23222 13.6895 5.75 13.6895ZM10.25 18.1895C10.7678 18.1895 11.1875 17.7697 11.1875 17.252C11.1875 16.7343 10.7678 16.3145 10.25 16.3145H5.75C5.23222 16.3145 4.8125 16.7343 4.8125 17.252C4.8125 17.7697 5.23222 18.1895 5.75 18.1895H10.25Z" fill="black"/>
</g>
</g>
<defs>
<clipPath id="clip0_201_2738">
<rect width="48" height="48" fill="white" transform="translate(0.5)"/>
</clipPath>
</defs>
</svg>
