<svg width="53" height="39" viewBox="0 0 53 39" fill="none" xmlns="http://www.w3.org/2000/svg">
<g id="website-web-management copy">
<path id="Vector" d="M37.7664 28.5992H41.2329V33.7991H37.7664V28.5992ZM34.2998 19.9328H37.7664V25.1326H34.2998V19.9328ZM39.4997 11.2664H42.9662V16.4662H39.4997V11.2664Z" fill="#BEE5F6"/>
<path id="Vector_2" d="M37.7664 28.5992H39.4997V33.7991H37.7664V28.5992ZM34.2998 19.9328H36.0331V25.1326H34.2998V19.9328ZM39.4997 11.2664H41.2329V16.4662H39.4997V11.2664Z" fill="#289BCE"/>
<path id="Vector_3" d="M29.0991 19.6316L27.3593 20.9652C27.5312 22.0031 27.5312 23.0623 27.3593 24.1003L29.0991 25.4338C28.4372 27.0317 28.512 26.8518 27.849 28.4497L25.6748 28.1616C25.0619 29.0144 24.3144 29.7619 23.4616 30.3748L23.7498 32.5489C22.1519 33.2119 22.3317 33.1372 20.7339 33.7991L19.4003 32.0593C18.3623 32.2312 17.3032 32.2312 16.2652 32.0593L14.9317 33.7991C13.3338 33.1372 13.5136 33.2119 11.9158 32.5489L12.2039 30.3748C11.3513 29.7616 10.6039 29.0141 9.99073 28.1616L7.81654 28.4497C7.15356 26.8518 7.2283 27.0317 6.56641 25.4338L8.30619 24.1003C8.13431 23.0623 8.13431 22.0031 8.30619 20.9652L6.56641 19.6316C7.2283 18.0338 7.15464 18.2136 7.81654 16.6157L9.99073 16.9039C10.6036 16.051 11.3511 15.3036 12.2039 14.6907L11.9158 12.5165C13.5136 11.8535 13.3338 11.9283 14.9317 11.2664L16.2652 13.0061C17.3032 12.8343 18.3623 12.8343 19.4003 13.0061L20.7339 11.2664C22.3317 11.9283 22.1519 11.8535 23.7498 12.5165L23.4616 14.6907C24.3142 15.3038 25.0616 16.0513 25.6748 16.9039L27.849 16.6157C28.512 18.2136 28.4372 18.0338 29.0991 19.6316ZM22.166 22.5327C22.166 21.6757 21.9118 20.8379 21.4357 20.1253C20.9596 19.4127 20.2828 18.8573 19.491 18.5293C18.6992 18.2014 17.828 18.1156 16.9874 18.2828C16.1468 18.45 15.3747 18.8627 14.7687 19.4687C14.1627 20.0747 13.75 20.8468 13.5828 21.6873C13.4156 22.5279 13.5014 23.3992 13.8294 24.191C14.1574 24.9828 14.7128 25.6595 15.4254 26.1357C16.138 26.6118 16.9757 26.8659 17.8328 26.8659C18.4018 26.8659 18.9653 26.7538 19.491 26.5361C20.0167 26.3183 20.4944 25.9991 20.8968 25.5968C21.2992 25.1944 21.6184 24.7167 21.8361 24.191C22.0539 23.6652 22.166 23.1018 22.166 22.5327Z" fill="#BEE5F6"/>
<g id="Group">
<path id="Vector_4" d="M19.567 12.8772C20.0922 12.8777 20.6164 12.9208 21.1346 13.0061L22.0504 11.8113L20.7348 11.2664L19.499 12.8786C19.5217 12.8785 19.5443 12.8772 19.567 12.8772ZM17.9995 32.0593L17.902 32.1868C18.1711 32.1848 18.4373 32.1717 18.7006 32.1474C18.4659 32.1263 18.2321 32.0969 17.9995 32.0593ZM23.9002 22.5327C23.8998 21.8903 23.7567 21.2559 23.4811 20.6755C23.2056 20.0952 22.8045 19.5833 22.3069 19.1769C21.8093 18.7706 21.2276 18.4798 20.6038 18.3258C19.9801 18.1717 19.33 18.1582 18.7004 18.2862C19.6792 18.4859 20.559 19.0177 21.1909 19.7915C21.8227 20.5654 22.1678 21.5337 22.1678 22.5327C22.1678 23.5317 21.8227 24.5001 21.1909 25.2739C20.559 26.0477 19.6792 26.5795 18.7004 26.7793C19.33 26.9072 19.9801 26.8937 20.6038 26.7397C21.2276 26.5856 21.8093 26.2949 22.3069 25.8885C22.8045 25.4821 23.2056 24.9702 23.4811 24.3899C23.7567 23.8095 23.8998 23.1752 23.9002 22.5327ZM17.9018 12.8786L17.9993 13.0061C18.2318 12.9685 18.4656 12.9391 18.7002 12.9181C18.4371 12.894 18.1709 12.8809 17.9018 12.8786ZM27.4091 16.9039L27.9399 16.8335L27.8495 16.6157L27.2519 16.6949C27.305 16.7642 27.3582 16.8331 27.4091 16.9039ZM27.4091 28.1616C27.3583 28.2323 27.3052 28.3012 27.2524 28.3705L27.85 28.4497L27.9403 28.232L27.4091 28.1616ZM10.1484 16.6949L11.725 16.9039C12.3379 16.051 13.0854 15.3036 13.9382 14.6907L13.65 12.5165C14.5915 12.1258 14.916 11.9913 15.3508 11.8113L14.9327 11.2664C13.3348 11.9283 13.5146 11.8535 11.9167 12.5165L12.2049 14.6907C11.4237 15.2529 10.7305 15.9284 10.1484 16.6949ZM21.1346 32.0593C20.6164 32.1446 20.0922 32.1877 19.567 32.1882C19.5443 32.1882 19.5217 32.1869 19.499 32.1868L20.7348 33.7991L22.0504 33.2542L21.1346 32.0593ZM13.65 32.5489L13.9382 30.3748C13.0856 29.7616 12.3382 29.0141 11.725 28.1616L10.1485 28.3705C10.7308 29.1368 11.4239 29.8122 12.2049 30.3746L11.9167 32.5488C13.5146 33.2118 13.3348 33.1371 14.9327 33.799L15.3504 33.2541C14.9159 33.0741 14.5915 32.9396 13.65 32.5489ZM8.30067 25.4338L10.0405 24.1003C9.86857 23.0623 9.86857 22.0031 10.0405 20.9652L8.30067 19.6316C8.93072 18.1107 8.89475 18.1992 9.46056 16.8335L7.81752 16.6157C7.15562 18.2136 7.22928 18.0338 6.56738 19.6316L8.30717 20.9652C8.13528 22.0031 8.13528 23.0623 8.30717 24.1003L6.56738 25.4338C7.22928 27.0317 7.15453 26.8518 7.81752 28.4497L9.46045 28.232C8.89378 26.8659 8.93072 26.9548 8.30067 25.4338Z" fill="#289BCE"/>
</g>
<path id="Vector_5" d="M17.8332 26.8659C20.2264 26.8659 22.1664 24.9258 22.1664 22.5327C22.1664 20.1395 20.2264 18.1995 17.8332 18.1995C15.44 18.1995 13.5 20.1395 13.5 22.5327C13.5 24.9258 15.44 26.8659 17.8332 26.8659Z" fill="#72C6EC"/>
<path id="Vector_6" d="M51.6325 4.33315V7.79972H1.36719V4.33315C1.36719 3.41376 1.73241 2.53202 2.38252 1.88191C3.03263 1.2318 3.91437 0.866577 4.83376 0.866577H48.1659C49.0853 0.866577 49.967 1.2318 50.6171 1.88191C51.2673 2.53202 51.6325 3.41376 51.6325 4.33315Z" fill="#2CAAE2"/>
<path id="Vector_7" d="M37.7662 19.9328H34.2996V25.1327H37.7662V19.9328ZM41.2328 28.5992H37.7662V33.7991H41.2328V28.5992ZM42.9661 11.2664H39.4995V16.4662H42.9661V11.2664ZM51.6325 7.7998V33.7991C51.6325 34.7185 51.2673 35.6002 50.6171 36.2503C49.967 36.9004 49.0853 37.2657 48.1659 37.2657H4.83376C3.91437 37.2657 3.03263 36.9004 2.38252 36.2503C1.73241 35.6002 1.36719 34.7185 1.36719 33.7991V7.7998H51.6325ZM27.36 20.9652L29.0998 19.6316C28.4379 18.0338 28.5126 18.2136 27.8496 16.6157L25.6754 16.9039C25.0623 16.0513 24.3148 15.3039 23.4623 14.6907L23.7504 12.5165C22.1525 11.8535 22.3324 11.9283 20.7345 11.2664L19.4009 13.0062C18.363 12.8343 17.3038 12.8343 16.2659 13.0062L14.9323 11.2664C13.3344 11.9283 13.5143 11.8535 11.9164 12.5165L12.2046 14.6907C11.3517 15.3036 10.6042 16.0511 9.99137 16.9039L7.81718 16.6157C7.15528 18.2136 7.22894 18.0338 6.56705 19.6316L8.30683 20.9652C8.13495 22.0032 8.13495 23.0623 8.30683 24.1003L6.56705 25.4338C7.22894 27.0317 7.1542 26.8519 7.81718 28.4497L9.99137 28.1616C10.6045 29.0142 11.352 29.7616 12.2046 30.3748L11.9164 32.549C13.5143 33.2119 13.3344 33.1372 14.9323 33.7991L16.2659 32.0593C17.3038 32.2312 18.363 32.2312 19.4009 32.0593L20.7345 33.7991C22.3324 33.1372 22.1525 33.2119 23.7504 32.549L23.4623 30.3748C24.3151 29.7619 25.0626 29.0144 25.6754 28.1616L27.8496 28.4497C28.5126 26.8519 28.4379 27.0317 29.0998 25.4338L27.36 24.1003C27.5319 23.0623 27.5319 22.0032 27.36 20.9652Z" fill="#72C6EC"/>
<path id="Vector_8" d="M7.43369 33.7991V27.5254C7.14531 26.8301 7.06255 26.63 6.56705 25.4338L7.43369 24.7695V20.2955L6.56705 19.6312C7.06233 18.4357 7.14585 18.2352 7.43369 17.5404V7.7998H1.36719V33.7991C1.36719 34.7185 1.73241 35.6002 2.38252 36.2503C3.03263 36.9004 3.91437 37.2657 4.83376 37.2657H10.9003C9.98087 37.2657 9.09913 36.9004 8.44902 36.2503C7.79892 35.6002 7.43369 34.7185 7.43369 33.7991Z" fill="#2CAAE2"/>
<path id="Vector_9" d="M10.9003 0.866577C9.98087 0.866577 9.09913 1.2318 8.44902 1.88191C7.79892 2.53202 7.43369 3.41376 7.43369 4.33315V7.79972H1.36719V4.33315C1.36719 3.41376 1.73241 2.53202 2.38252 1.88191C3.03263 1.2318 3.91437 0.866577 4.83376 0.866577H10.9003Z" fill="#185E7C"/>
<path id="Vector_10" d="M29.5552 18.4663C29.2538 17.7386 28.9522 17.0111 28.6503 16.2837L28.3953 15.6693L26.0617 15.9788C25.5685 15.3598 25.007 14.7983 24.388 14.305L24.6973 11.9712L24.0831 11.7163C23.3115 11.3961 22.5399 11.0762 21.768 10.7565L20.4519 10.2114L19.0202 12.0789C18.232 11.9885 17.436 11.9885 16.6478 12.0789L15.2161 10.2113L13.9 10.7564C13.0117 11.1247 12.9002 11.1706 11.585 11.7162L10.9708 11.9711L11.28 14.3048C10.6607 14.798 10.0989 15.3596 9.60547 15.9788L7.2716 15.6692L5.51221 19.9148L7.37993 21.3463C7.28922 22.1347 7.28922 22.9309 7.37993 23.7193L5.51221 25.1508L6.11247 26.5993C6.43182 27.3704 6.50007 27.5351 7.01735 28.7819L7.27236 29.3963L9.60623 29.087C10.0995 29.7061 10.6609 30.2675 11.2799 30.7608L10.9703 33.095L11.5846 33.3499C12.8998 33.8956 13.0108 33.9416 13.8996 34.3097L15.2157 34.8548L16.6474 32.9872C17.4356 33.0776 18.2316 33.0776 19.0198 32.9872L20.4515 34.8548L21.7676 34.3097C22.6559 33.9414 22.7674 33.8956 24.0826 33.3499L24.6969 33.095L24.3878 30.7609C25.0071 30.2676 25.5688 29.706 26.0622 29.0868L28.3956 29.3961L28.6506 28.7817C29.1679 27.5348 29.2356 27.3702 29.5555 26.5991L30.1554 25.1506L28.2877 23.7193C28.3784 22.9309 28.3784 22.1347 28.2877 21.3463L30.1552 19.9148L29.5552 18.4663ZM26.5051 21.105C26.6618 22.0504 26.6618 23.0152 26.5051 23.9606L26.4215 24.4726L28.0449 25.717L27.9541 25.936C27.6966 26.5576 27.6025 26.7849 27.3042 27.5033L25.2748 27.2343L24.9715 27.6568C24.4137 28.4335 23.7332 29.114 22.9565 29.6718L22.5351 29.9751L22.8042 32.0043C22.0371 32.3226 21.8299 32.4084 21.1046 32.7085L21.018 32.7445L19.7734 31.1209L19.2614 31.2046C18.316 31.3605 17.3514 31.3605 16.406 31.2046L15.894 31.1209L14.6494 32.7445L14.5628 32.7085C13.837 32.4081 13.6303 32.3223 12.8632 32.0043L13.1323 29.9751L12.7109 29.6718C11.9342 29.1135 11.2535 28.4328 10.6953 27.6562L10.3919 27.2348L8.3626 27.5038L7.71261 25.9364L7.62183 25.7174L9.24527 24.473L9.16164 23.961C9.00492 23.0156 9.00492 22.0509 9.16164 21.1054L9.24527 20.5935L7.62292 19.3488L8.36335 17.5624L10.3928 17.8314L10.6961 17.4089C11.2539 16.6322 11.9344 15.9517 12.7111 15.3939L13.1325 15.0906L12.8634 13.0614C13.6305 12.7431 13.8377 12.6573 14.563 12.3572L14.6497 12.3213L15.8947 13.9452L16.4067 13.8615C17.3521 13.7056 18.3166 13.7056 19.262 13.8615L19.774 13.9452L21.0186 12.3217L21.1053 12.3577C21.8311 12.6581 22.0378 12.7439 22.8049 13.0618L22.5353 15.0914L22.9568 15.3947C23.7335 15.9528 24.4144 16.6334 24.9728 17.4099L25.2761 17.8313L27.3055 17.5623L27.9554 19.1296L28.0462 19.3486L26.4228 20.593L26.5051 21.105Z" fill="#12475F"/>
<path id="Vector_11" d="M17.8341 17.3329C16.8057 17.3329 15.8004 17.6379 14.9453 18.2092C14.0901 18.7806 13.4237 19.5927 13.0301 20.5428C12.6365 21.493 12.5336 22.5385 12.7342 23.5472C12.9348 24.5559 13.4301 25.4824 14.1573 26.2096C14.8845 26.9368 15.811 27.4321 16.8197 27.6327C17.8284 27.8333 18.8739 27.7304 19.824 27.3368C20.7742 26.9432 21.5863 26.2767 22.1577 25.4216C22.729 24.5665 23.034 23.5612 23.034 22.5327C23.0324 21.1541 22.4841 19.8324 21.5093 18.8576C20.5345 17.8828 19.2128 17.3344 17.8341 17.3329ZM17.8341 25.9993C17.1485 25.9993 16.4783 25.796 15.9082 25.4151C15.3381 25.0342 14.8938 24.4928 14.6314 23.8593C14.3691 23.2259 14.3004 22.5289 14.4342 21.8564C14.5679 21.184 14.8981 20.5663 15.3829 20.0815C15.8677 19.5967 16.4854 19.2665 17.1578 19.1328C17.8303 18.999 18.5273 19.0677 19.1607 19.33C19.7942 19.5924 20.3356 20.0367 20.7165 20.6068C21.0974 21.1769 21.3007 21.8471 21.3007 22.5327C21.2997 23.4518 20.9341 24.333 20.2842 24.9828C19.6344 25.6327 18.7532 25.9983 17.8341 25.9993Z" fill="#12475F"/>
<path id="Vector_12" d="M48.1659 0H4.8337C3.68486 0.00129027 2.58344 0.458238 1.77108 1.27059C0.958727 2.08295 0.501779 3.18437 0.500488 4.33322V33.7991C0.501779 34.9479 0.958727 36.0493 1.77108 36.8617C2.58344 37.6741 3.68486 38.131 4.8337 38.1323H48.1659C49.3147 38.131 50.4161 37.6741 51.2285 36.8617C52.0408 36.0493 52.4978 34.9479 52.4991 33.7991V4.33322C52.4978 3.18437 52.0408 2.08295 51.2285 1.27059C50.4161 0.458238 49.3147 0.00129027 48.1659 0ZM4.8337 1.73329H48.1659C48.8552 1.73409 49.516 2.00827 50.0034 2.49567C50.4908 2.98308 50.765 3.64392 50.7658 4.33322V6.93314H2.23377V4.33322C2.23458 3.64392 2.50875 2.98308 2.99616 2.49567C3.48357 2.00827 4.14441 1.73409 4.8337 1.73329ZM48.1659 36.399H4.8337C4.14441 36.3982 3.48357 36.124 2.99616 35.6366C2.50875 35.1492 2.23458 34.4884 2.23377 33.7991V8.66643H50.7658V33.7991C50.765 34.4884 50.4908 35.1492 50.0034 35.6366C49.516 36.124 48.8552 36.3982 48.1659 36.399Z" fill="#12475F"/>
<path id="Vector_13" d="M5.69971 3.46655H7.43299V5.19984H5.69971V3.46655ZM9.16628 3.46655H10.8996V5.19984H9.16628V3.46655ZM12.6329 3.46655H14.3661V5.19984H12.6329V3.46655ZM26.4991 3.46655H47.2986V5.19984H26.4991V3.46655ZM43.832 11.2663C43.832 11.0365 43.7407 10.8161 43.5782 10.6535C43.4156 10.491 43.1952 10.3997 42.9654 10.3997H39.4988C39.2689 10.3997 39.0485 10.491 38.886 10.6535C38.7234 10.8161 38.6321 11.0365 38.6321 11.2663V12.9996H31.699V14.7329H38.6321V16.4662C38.6321 16.696 38.7234 16.9165 38.886 17.079C39.0485 17.2415 39.2689 17.3328 39.4988 17.3328H42.9654C43.1952 17.3328 43.4156 17.2415 43.5782 17.079C43.7407 16.9165 43.832 16.696 43.832 16.4662V14.7329H47.2986V12.9996H43.832V11.2663ZM42.0987 15.5996H40.3654V12.133H42.0987V15.5996ZM38.6321 19.9328C38.6321 19.7029 38.5408 19.4825 38.3783 19.32C38.2158 19.1574 37.9953 19.0661 37.7655 19.0661H34.2989C34.0691 19.0661 33.8486 19.1574 33.6861 19.32C33.5236 19.4825 33.4323 19.7029 33.4323 19.9328V21.6661H31.699V23.3993H33.4323V25.1326C33.4323 25.3625 33.5236 25.5829 33.6861 25.7454C33.8486 25.908 34.0691 25.9993 34.2989 25.9993H37.7655C37.9953 25.9993 38.2158 25.908 38.3783 25.7454C38.5408 25.5829 38.6321 25.3625 38.6321 25.1326V23.3993H47.2986V21.6661H38.6321V19.9328ZM36.8989 24.266H35.1656V20.7994H36.8989V24.266ZM42.0987 28.5992C42.0987 28.3694 42.0074 28.1489 41.8449 27.9864C41.6824 27.8239 41.4619 27.7326 41.2321 27.7326H37.7655C37.5357 27.7326 37.3152 27.8239 37.1527 27.9864C36.9902 28.1489 36.8989 28.3694 36.8989 28.5992V30.3325H31.699V32.0658H36.8989V33.7991C36.8989 34.0289 36.9902 34.2493 37.1527 34.4119C37.3152 34.5744 37.5357 34.6657 37.7655 34.6657H41.2321C41.4619 34.6657 41.6824 34.5744 41.8449 34.4119C42.0074 34.2493 42.0987 34.0289 42.0987 33.7991V32.0658H47.2986V30.3325H42.0987V28.5992ZM40.3654 32.9324H38.6321V29.4658H40.3654V32.9324Z" fill="#12475F"/>
</g>
</svg>
